<svg width="200" height="200" viewBox="0 0 200 200" fill="none" xmlns="http://www.w3.org/2000/svg">
<g clip-path="url(#clip0_1096_23146)">
<rect width="200" height="200" rx="16" fill="#FFFCF4"/>
<path d="M199.98 110.252V200.292C199.538 200.511 199.061 200.399 198.604 200.399C172.793 200.404 146.986 200.404 121.175 200.404C118.996 200.404 118.987 200.404 118.987 198.245C118.987 187.764 118.987 161.344 118.987 150.863C118.987 138.597 118.987 126.331 118.987 114.065C118.987 113.019 119.001 111.968 119.089 110.928C119.493 109.989 119.726 110.543 119.877 111.049C120.241 112.28 120.606 113.505 121.2 114.653C123.573 119.269 127.406 121.773 132.532 122.007C135.635 122.148 138.475 121.068 140.873 118.972C143.193 116.939 144.773 114.468 145.503 111.463C145.566 111.2 145.654 110.942 145.805 110.709C145.97 110.514 146.16 110.373 146.437 110.466C146.836 110.884 146.879 111.448 147.025 111.964C148.231 116.117 150.751 119.147 154.7 120.956C159.802 123.291 166.027 121.54 169.432 117.333C170.925 115.485 171.941 113.427 172.447 111.103C172.549 110.636 172.545 109.838 173.055 109.853C173.668 109.867 173.581 110.684 173.702 111.18C174.826 115.874 177.481 119.317 182.009 121.127C188.157 123.588 194.859 120.592 197.821 115.096C198.468 113.894 198.968 112.64 199.309 111.312C199.411 110.913 199.348 110.339 199.985 110.256L199.98 110.252Z" fill="#FEF4DA"/>
<path d="M119.39 110.127C119.376 109.835 119.361 109.544 119.342 109.252C118.885 108.726 118.997 108.08 118.997 107.472C119.016 100.298 118.924 93.124 119.045 85.9502C119.055 85.673 119.065 85.4006 119.191 85.1477C119.96 84.6711 119.818 85.4298 119.867 85.7168C120.139 87.3509 120.713 88.8781 121.555 90.2788C123.724 93.9022 126.822 96.2221 131.083 96.8058C138.11 97.7736 143.708 92.7641 145.333 87.0445C145.469 86.563 145.518 86.0475 145.873 85.6487C146.69 85.4152 146.758 86.0864 146.909 86.5679C147.278 87.7546 147.672 88.9219 148.285 90.0113C150.727 94.3497 154.481 96.7669 159.389 96.9468C163.421 97.0976 166.854 95.4002 169.451 92.2437C170.823 90.5804 171.82 88.7128 172.306 86.5874C172.423 86.067 172.52 85.4882 173.206 85.3715C173.751 85.5271 173.654 86.0329 173.761 86.422C175.122 91.4801 178.133 95.0257 183.254 96.4945C189.125 98.1773 195.146 95.0549 197.816 90.0211C198.4 88.9219 198.847 87.7692 199.251 86.5922C199.329 86.3588 199.552 85.5855 199.854 86.529C199.854 93.5569 199.854 100.585 199.854 107.613C199.854 107.992 199.752 108.391 199.97 108.751V109.918C199.343 111.319 199.134 112.86 198.424 114.251C195.987 119.018 192.106 121.712 186.819 121.951C182.705 122.14 179.213 120.404 176.504 117.238C174.626 115.039 173.576 112.462 173.07 109.607C172.496 112.364 171.523 114.889 169.734 117.082C165.113 122.748 156.772 123.692 151.121 118.726C148.514 116.435 146.972 113.556 146.374 110.156C146.184 109.84 146.179 109.84 146.121 109.986C146.067 110.122 146.024 110.258 145.946 110.38C144.74 115.998 141.568 119.971 135.956 121.513C129.38 123.322 122.605 119.524 120.281 112.977C119.945 112.039 119.687 111.071 119.39 110.117V110.127Z" fill="#FED56F"/>
<path d="M153.616 33.0195H177.613C177.958 33.4281 177.841 33.895 177.788 34.357C177.005 41.1417 176.105 47.9118 175.293 54.6917C174.797 58.8549 174.271 63.0084 173.751 67.1668C173.649 68.0082 173.663 68.8788 173.235 69.6521C173.119 69.7494 172.987 69.8175 172.842 69.8612C172.311 70.012 171.762 69.9731 171.222 69.9731C163.547 69.9731 155.872 69.9731 148.203 69.9731C147.585 69.9731 146.957 70.0315 146.364 69.7931C145.644 69.2825 145.999 68.5918 146.121 67.9839C147.303 62.2108 148.485 56.4377 149.671 50.6646C150.785 45.2709 151.875 39.8772 152.993 34.4883C153.105 33.9582 153.183 33.4135 153.606 33.0146L153.616 33.0195Z" fill="#FEFEFE"/>
<path d="M105.855 33.0195H129.852C130.202 33.5594 129.915 34.0798 129.77 34.5807C126.521 45.7476 123.33 56.9338 120.125 68.1152C119.965 68.6697 119.848 69.2533 119.415 69.691C119.298 69.7737 119.172 69.8369 119.031 69.8758C118.535 70.0023 118.029 69.978 117.523 69.978C109.809 69.978 102.096 69.978 94.3821 69.978C93.8811 69.978 93.3704 70.0023 92.8841 69.8564C92.0524 69.4576 92.4075 68.8107 92.6069 68.2611C93.706 65.2797 94.7906 62.2886 95.8995 59.3121C98.9441 51.1413 101.94 42.951 104.98 34.7753C105.208 34.1625 105.374 33.5108 105.85 33.0195H105.855Z" fill="#FEFEFE"/>
<path d="M105.855 33.0195C104.99 36.035 103.759 38.9239 102.679 41.8615C99.4208 50.7327 96.1281 59.5942 92.8501 68.4654C92.7139 68.8302 92.6166 69.2047 92.4999 69.5743C92.4026 69.7007 92.2762 69.7883 92.1303 69.8467C91.7169 69.9877 91.2889 69.978 90.8657 69.978C82.9964 69.9828 75.1223 69.9828 67.253 69.978C66.6839 69.978 66.076 70.0655 65.5994 69.6035C68.0506 64.1368 70.4921 58.6653 72.9531 53.2083C75.988 46.4771 79.0423 39.7507 82.0869 33.0244C90.0097 33.0244 97.9277 33.0244 105.85 33.0244L105.855 33.0195Z" fill="#F9B401"/>
<path d="M119.39 69.6035C122.061 60.2605 124.736 50.9224 127.406 41.5794C128.223 38.7245 129.035 35.8696 129.852 33.0146C137.775 33.0146 145.693 33.0146 153.616 33.0146C152.419 38.9045 151.232 44.7991 150.031 50.6889C148.757 56.9192 147.468 63.1446 146.184 69.3749C146.169 69.4478 146.199 69.5256 146.203 69.6035C146.145 69.657 146.087 69.7056 146.028 69.7591C145.484 70.0363 144.89 69.9731 144.316 69.9731C136.637 69.978 128.957 69.9828 121.273 69.9731C120.631 69.9731 119.94 70.1093 119.386 69.6035H119.39Z" fill="#F9B401"/>
<path d="M173.172 69.5937C173.522 66.5637 173.863 63.5336 174.227 60.5036C174.723 56.3987 175.234 52.2987 175.745 48.1987C176.256 44.0598 176.776 39.9209 177.287 35.782C177.398 34.8628 177.505 33.9387 177.612 33.0195C184.796 33.0195 191.98 33.034 199.163 33C199.859 33 200 33.141 200 33.8365C199.97 45.7572 199.98 57.6827 199.98 69.6034C199.859 69.7055 199.727 69.7834 199.586 69.8466C199.1 70.0119 198.589 69.9779 198.088 69.9779C190.409 69.9779 182.734 69.9828 175.054 69.9779C174.412 69.9779 173.722 70.1141 173.177 69.5937H173.172Z" fill="#F9B401"/>
<path d="M173.172 69.5938C182.029 69.6035 190.886 69.6083 199.742 69.6181C199.951 69.978 199.849 70.3768 199.849 70.7513C199.859 74.5741 199.849 78.3969 199.859 82.2196C199.859 82.599 199.757 82.9929 199.976 83.3529V84.2867C199.83 84.4423 199.83 84.5979 199.976 84.7536V85.4539C199.747 85.6096 199.985 85.9597 199.713 86.0959C198.92 88.7563 197.821 91.2416 195.817 93.2551C189.898 99.2082 180.526 98.3862 175.716 91.4994C174.427 89.6561 173.659 87.6231 173.236 85.4345C172.579 84.6563 172.618 83.6884 172.603 82.7838C172.54 78.8638 172.574 74.9486 172.584 71.0285C172.584 70.5276 172.569 70.0072 173.012 69.6375C173.065 69.6375 173.119 69.6229 173.167 69.5986L173.172 69.5938Z" fill="#D48000"/>
<path d="M199.718 86.0912C199.727 85.8432 199.635 85.5562 199.98 85.4492V108.751C199.577 108.366 199.757 107.875 199.757 107.433C199.737 100.317 199.727 93.2067 199.718 86.0912Z" fill="#FED97B"/>
<path d="M199.98 83.3519C199.596 83.0115 199.756 82.5543 199.756 82.1506C199.747 77.9728 199.747 73.795 199.747 69.6172C199.824 69.6172 199.902 69.6123 199.98 69.6074V83.3568V83.3519Z" fill="#D98F1F"/>
<path d="M199.98 84.7482C199.674 84.5925 199.737 84.4369 199.98 84.2812V84.7482Z" fill="#E9BD7B"/>
<path d="M183.901 154.712C183.901 149.897 183.925 145.082 183.882 140.267C183.872 139.338 184.144 139.027 185.064 139.1C185.949 139.173 186.853 139.173 187.739 139.1C188.648 139.022 188.852 139.402 188.833 140.238C188.779 142.49 188.813 144.742 188.813 146.994C188.813 154.45 188.794 161.905 188.833 169.361C188.838 170.344 188.551 170.67 187.588 170.582C186.742 170.504 185.876 170.499 185.03 170.582C184.052 170.679 183.877 170.256 183.887 169.386C183.921 164.493 183.901 159.6 183.901 154.707V154.712Z" fill="#FED56F"/>
<path d="M145.946 110.385C145.946 110.049 145.844 109.689 146.233 109.344C146.452 109.602 146.379 109.888 146.374 110.161C146.233 110.234 146.087 110.312 145.946 110.385Z" fill="#FEECBD"/>
<path d="M119.356 85.6727C119.356 93.5322 119.347 101.387 119.342 109.246C118.855 111.182 118.505 113.152 117.464 114.913C115.183 118.774 111.954 121.216 107.431 121.804C100.126 122.758 94.265 117.461 92.8254 111.177C92.5239 109.864 92.3439 108.522 92.3439 107.165C92.3439 100.531 92.3439 93.897 92.3342 87.263C92.3342 86.8156 92.485 86.3292 92.1542 85.9158C91.9159 85.6727 91.9937 85.5024 92.2758 85.376C92.4655 85.4003 92.6114 85.4927 92.7427 85.624C93.2437 86.3827 93.3312 87.2971 93.662 88.119C95.656 93.0945 99.1724 96.1829 104.595 96.8054C111.745 97.6225 116.847 92.3941 118.34 87.3555C118.515 86.7718 118.505 86.1104 119.011 85.6581C119.123 85.59 119.235 85.59 119.342 85.6629L119.356 85.6727Z" fill="#FEECC6"/>
<path d="M92.2955 85.3956C92.1448 85.5464 92.1205 85.7263 92.1594 85.9257C90.8413 91.4605 87.68 95.3757 82.0674 96.8348C75.0055 98.6732 67.8754 94.116 66.0273 86.7817C65.716 85.5366 65.5361 84.277 65.5458 82.9832C65.575 78.5233 65.5847 74.0585 65.6041 69.5986C74.5191 69.5986 83.4292 69.6035 92.3442 69.6084C92.7187 70.0169 92.7138 70.5276 92.7138 71.0285C92.7138 75.4739 92.743 79.9143 92.7041 84.3596C92.636 84.7293 92.6603 85.1378 92.2955 85.3907V85.3956Z" fill="#D48000"/>
<path d="M173.017 69.6327C173.022 73.509 173.041 77.3804 173.031 81.2567C173.031 82.6525 173.08 84.0435 173.236 85.4345C172.676 85.8382 172.671 86.4899 172.496 87.0687C170.964 92.0538 167.842 95.5216 162.72 96.8445C156.086 98.5565 149.394 94.6753 147.006 87.9684C146.729 87.1902 146.958 86.13 145.97 85.6534C145.703 85.4199 145.717 85.1086 145.727 84.7974C145.868 80.2888 145.746 75.7754 145.795 71.262C145.8 70.6881 145.737 70.0947 146.131 69.5986L146.213 69.6132C155.153 69.6181 164.087 69.6278 173.026 69.6327H173.017Z" fill="#EAF8FE"/>
<path d="M146.126 69.5986C146.135 74.4525 146.15 79.3015 146.145 84.1553C146.145 84.6563 146.033 85.1572 145.97 85.6533C144.837 90.9789 141.894 94.8552 136.661 96.6013C129.536 98.9747 122.669 94.7045 120.276 88.3137C119.867 87.2243 119.678 86.0959 119.42 84.9724C119.215 84.8314 119.128 84.6174 119.07 84.3888C118.924 79.7878 119.021 75.182 119.016 70.5762C119.016 70.2211 119.099 69.8855 119.313 69.5889L119.395 69.6035C128.306 69.6035 137.216 69.5986 146.131 69.5937L146.126 69.5986Z" fill="#D48000"/>
<path d="M119.332 84.5254C119.357 84.6761 119.386 84.8269 119.41 84.9728C119.391 85.2063 119.371 85.4397 119.352 85.6732C119.279 85.6732 119.206 85.678 119.133 85.678C118.836 85.2306 118.651 84.8026 119.332 84.5205V84.5254Z" fill="#FBFDFE"/>
<path d="M119.332 84.5249C118.997 84.8653 119.187 85.2933 119.133 85.6824C118.545 88.0704 117.674 90.3223 116.088 92.2483C113.851 94.9621 111.035 96.6547 107.529 97.1021C100.097 98.0457 94.3044 92.8222 92.8161 86.4606C92.7529 86.1979 92.6556 85.9499 92.5729 85.6921C92.3298 85.3322 92.5827 84.8896 92.3881 84.52C92.3735 79.5494 92.359 74.5788 92.3444 69.6034C92.3979 69.5839 92.4514 69.5693 92.5049 69.5645C101.439 69.5693 110.374 69.5742 119.303 69.5839C119.313 74.5594 119.323 79.5397 119.332 84.5151V84.5249Z" fill="#EAF8FE"/>
<path d="M92.3878 84.5244C92.7088 84.8746 92.5289 85.3026 92.5726 85.6965C92.4802 85.5944 92.3878 85.4971 92.2954 85.395C92.3246 85.1032 92.3586 84.8162 92.3878 84.5244Z" fill="#FCFDFD"/>
<path d="M43.0681 147.685L36.8672 141.451C36.4272 141.033 35.8969 140.824 35.2764 140.824C34.6559 140.824 34.1092 141.057 33.6361 141.522C33.1936 141.975 32.9724 142.511 32.9724 143.13C32.9724 143.75 33.1951 144.265 33.6404 144.678L41.5275 152.632C41.9551 153.085 42.4652 153.311 43.0577 153.311C43.6501 153.311 44.1782 153.085 44.6419 152.632L60.2507 137.007C60.726 136.542 60.9637 136.002 60.9637 135.387C60.9637 134.772 60.726 134.217 60.2507 133.722C59.7637 133.301 59.1988 133.102 58.5561 133.124C57.9134 133.147 57.3807 133.365 56.958 133.779L43.0681 147.685ZM47.0021 168.732C43.3411 168.732 39.8832 168.029 36.6284 166.622C33.3736 165.216 30.5361 163.3 28.1157 160.876C25.6954 158.451 23.7823 155.614 22.3766 152.363C20.9709 149.113 20.2681 145.659 20.2681 142.002C20.2681 138.297 20.9712 134.816 22.3775 131.562C23.7838 128.307 25.6985 125.475 28.1216 123.065C30.5447 120.655 33.3816 118.75 36.6325 117.351C39.8834 115.952 43.338 115.252 46.9964 115.252C50.7028 115.252 54.184 115.952 57.4401 117.351C60.6961 118.75 63.5286 120.656 65.9375 123.069C68.3466 125.481 70.2505 128.314 71.6494 131.566C73.0483 134.818 73.7478 138.296 73.7478 142C73.7478 145.662 73.0478 149.121 71.6479 152.375C70.2479 155.63 68.3408 158.467 65.9266 160.886C63.5124 163.305 60.6803 165.217 57.4301 166.623C54.18 168.029 50.704 168.732 47.0021 168.732Z" fill="#D68000"/>
</g>
<defs>
<clipPath id="clip0_1096_23146">
<rect width="200" height="200" rx="16" fill="white"/>
</clipPath>
</defs>
</svg>
