<svg width="40" height="40" viewBox="0 0 40 40" fill="none" xmlns="http://www.w3.org/2000/svg">
<g id="About us">
<path id="Vector" d="M7.55958 35.1721C6.82158 35.1721 6.18131 34.9008 5.63878 34.3583C5.09623 33.8157 4.82495 33.1755 4.82495 32.4375V18.4755C4.02001 17.7968 3.50598 16.9496 3.28287 15.9339C3.05973 14.9183 3.10094 13.9309 3.40649 12.9719L5.17399 7.40193C5.41544 6.61395 5.83012 5.99776 6.41803 5.55334C7.00595 5.10893 7.68984 4.88672 8.4697 4.88672H31.2928C32.1075 4.88672 32.8301 5.11333 33.4606 5.56655C34.0912 6.01975 34.5275 6.63291 34.7696 7.40605L36.5722 12.9719C36.8778 13.9302 36.9088 14.9124 36.6651 15.9184C36.4214 16.9245 35.9071 17.7636 35.1221 18.4357V32.4375C35.1221 33.1755 34.8498 33.8157 34.3053 34.3583C33.7609 34.9008 33.1182 35.1721 32.3775 35.1721H7.55958ZM23.7024 17.0561C24.4817 17.0561 25.1417 16.8039 25.6824 16.2993C26.2231 15.7948 26.4448 15.1775 26.3476 14.4474L25.3159 7.6313H21.2769V14.3958C21.2769 15.1107 21.5084 15.7328 21.9713 16.2621C22.4342 16.7915 23.0112 17.0561 23.7024 17.0561ZM15.9726 17.0561C16.7335 17.0561 17.3786 16.7984 17.9079 16.283C18.4371 15.7676 18.7018 15.1385 18.7018 14.3958V7.6313H14.6628L13.6519 14.4474C13.5475 15.1431 13.7285 15.7518 14.195 16.2735C14.6615 16.7953 15.254 17.0561 15.9726 17.0561ZM8.45558 17.0561C9.11791 17.0561 9.68383 16.83 10.1533 16.3777C10.6228 15.9254 10.8959 15.3762 10.9726 14.7301L12.0668 7.6313H8.00703L6.08945 13.6241C5.80442 14.515 5.91237 15.3097 6.41328 16.0083C6.9142 16.7068 7.59496 17.0561 8.45558 17.0561ZM31.4871 17.0561C32.344 17.0561 33.0298 16.7169 33.5446 16.0385C34.0594 15.36 34.1743 14.5552 33.8893 13.6241L32.0134 7.6313H27.9427L29.0061 14.7301C29.0828 15.3701 29.3543 15.9178 29.8206 16.3731C30.2869 16.8285 30.8424 17.0561 31.4871 17.0561ZM7.55958 32.4375H32.3775V19.7591C32.4252 19.7802 32.3389 19.7907 32.1186 19.7907H31.4776C30.8228 19.7907 30.1816 19.6515 29.5542 19.3732C28.9267 19.0948 28.3015 18.66 27.6785 18.0688C27.245 18.6044 26.696 19.0253 26.0315 19.3315C25.3671 19.6377 24.6399 19.7907 23.8501 19.7907C23.0326 19.7907 22.3271 19.6777 21.7335 19.4515C21.1399 19.2254 20.562 18.8478 19.9998 18.3188C19.5716 18.7985 19.0393 19.1638 18.4029 19.4146C17.7664 19.6653 17.0554 19.7907 16.27 19.7907C15.4365 19.7907 14.6859 19.648 14.0183 19.3625C13.3507 19.077 12.7751 18.6457 12.2914 18.0688C11.591 18.6527 10.9189 19.0857 10.2752 19.3677C9.63144 19.6497 9.02635 19.7907 8.45991 19.7907H7.89278C7.71956 19.7907 7.60849 19.7802 7.55958 19.7591V32.4375Z" fill="#472200"/>
</g>
</svg>
