<svg width="40" height="40" viewBox="0 0 40 40" fill="none" xmlns="http://www.w3.org/2000/svg">
<g id="Case studies">
<path id="Vector" d="M7.67306 35.0629C6.93506 35.0629 6.2948 34.7916 5.75227 34.2491C5.20974 33.7065 4.93848 33.0663 4.93848 32.3283V7.67427C4.93848 6.93355 5.20974 6.29094 5.75227 5.74644C6.2948 5.20194 6.93506 4.92969 7.67306 4.92969H25.5272C25.9039 4.92969 26.2628 5.00548 26.6041 5.15706C26.9454 5.30865 27.2459 5.51245 27.5055 5.76848L34.2328 12.4959C34.4889 12.7554 34.6927 13.0559 34.8443 13.3972C34.9959 13.7385 35.0716 14.0975 35.0716 14.4741V32.3283C35.0716 33.0663 34.7994 33.7065 34.2549 34.2491C33.7104 34.7916 33.0678 35.0629 32.3271 35.0629H7.67306ZM7.67306 32.3283H32.3271V14.8772H26.5019C26.1151 14.8772 25.7888 14.7443 25.5229 14.4784C25.2571 14.2125 25.1241 13.8862 25.1241 13.4995V7.67427H7.67306V32.3283ZM27.147 27.6706C27.4754 27.6706 27.7581 27.5496 27.9951 27.3075C28.2321 27.0654 28.3506 26.7741 28.3506 26.4336C28.3506 26.0931 28.2318 25.8065 27.9944 25.5739C27.7568 25.3413 27.4731 25.225 27.1432 25.225H12.8744C12.5297 25.225 12.2394 25.3443 12.0034 25.5828C11.7675 25.8213 11.6495 26.1063 11.6495 26.4378C11.6495 26.7853 11.7699 27.0776 12.0106 27.3148C12.2513 27.552 12.543 27.6706 12.8859 27.6706H27.147ZM19.0119 14.8373C19.34 14.8373 19.6249 14.7163 19.8666 14.4742C20.1084 14.2321 20.2292 13.9414 20.2292 13.6022C20.2292 13.263 20.1084 12.9747 19.8666 12.7375C19.6249 12.5003 19.34 12.3817 19.0119 12.3817H12.8877C12.5436 12.3817 12.2513 12.5033 12.0106 12.7464C11.7699 12.9895 11.6495 13.2762 11.6495 13.6064C11.6495 13.9526 11.7699 14.2443 12.0106 14.4815C12.2513 14.7187 12.5436 14.8373 12.8877 14.8373H19.0119ZM27.1375 21.2486C27.4656 21.2486 27.7498 21.131 27.9901 20.8958C28.2304 20.6607 28.3506 20.37 28.3506 20.0239C28.3506 19.6777 28.2297 19.386 27.988 19.1488C27.7463 18.9116 27.4621 18.7929 27.1355 18.7929H12.8834C12.5394 18.7929 12.2477 18.914 12.0084 19.1561C11.7692 19.3982 11.6495 19.6923 11.6495 20.0385C11.6495 20.3846 11.7699 20.6729 12.0106 20.9031C12.2513 21.1334 12.5429 21.2486 12.8854 21.2486H27.1375Z" fill="#472200"/>
</g>
</svg>
