<svg width="24" height="24" viewBox="0 0 24 24" fill="none" xmlns="http://www.w3.org/2000/svg">
<g id="Contactless ordering">
<path id="Vector" d="M2.90653 6.70631C2.65291 6.70631 2.43843 6.61793 2.26307 6.44118C2.08771 6.26443 2.00002 6.04967 2.00002 5.79688V2.89961C2.00002 2.65322 2.0884 2.44078 2.26515 2.26228C2.4419 2.08378 2.65667 1.99453 2.90945 1.99453H5.80673C6.05311 1.99453 6.26488 2.08407 6.44205 2.26313C6.61922 2.44218 6.7078 2.65532 6.7078 2.90253C6.7078 3.15613 6.61922 3.37062 6.44205 3.54598C6.26488 3.72135 6.05311 3.80903 5.80673 3.80903H3.81053V5.79688C3.81053 6.04967 3.72166 6.26443 3.54393 6.44118C3.36621 6.61793 3.15374 6.70631 2.90653 6.70631ZM2.90945 22C2.65667 22 2.4419 21.9116 2.26515 21.7349C2.08838 21.5581 2 21.3434 2 21.0906V18.1933C2 17.9469 2.08865 17.7351 2.26595 17.558C2.44327 17.3808 2.65734 17.2922 2.90818 17.2922C3.15899 17.2922 3.37208 17.3808 3.54745 17.558C3.72282 17.7351 3.8105 17.9469 3.8105 18.1933V20.1895H5.8067C6.05308 20.1895 6.26486 20.2783 6.44203 20.4561C6.61919 20.6338 6.70778 20.8463 6.70778 21.0935C6.70778 21.3471 6.61919 21.5616 6.44203 21.7369C6.26486 21.9123 6.05308 22 5.8067 22H2.90945ZM18.2031 22C17.9503 22 17.7356 21.9113 17.5588 21.734C17.3821 21.5567 17.2937 21.3426 17.2937 21.0918C17.2937 20.841 17.3821 20.6279 17.5588 20.4525C17.7356 20.2772 17.9503 20.1895 18.2031 20.1895H20.191V18.1933C20.191 17.9469 20.2796 17.7351 20.457 17.558C20.6343 17.3808 20.8483 17.2922 21.0992 17.2922C21.35 17.2922 21.5637 17.3808 21.7404 17.558C21.9171 17.7351 22.0055 17.9469 22.0055 18.1933V21.0906C22.0055 21.3433 21.9162 21.5581 21.7377 21.7349C21.5592 21.9116 21.3468 22 21.1004 22H18.2031ZM21.0975 6.70631C20.8439 6.70631 20.6294 6.61793 20.454 6.44118C20.2787 6.26443 20.191 6.04967 20.191 5.79688V3.80903H18.2031C17.9503 3.80903 17.7356 3.72037 17.5588 3.54306C17.3821 3.36576 17.2937 3.15169 17.2937 2.90086C17.2937 2.65002 17.3821 2.43627 17.5588 2.25958C17.7356 2.08288 17.9503 1.99453 18.2031 1.99453H21.1004C21.3468 1.99453 21.5592 2.08378 21.7377 2.26228C21.9162 2.44078 22.0055 2.65322 22.0055 2.89961V5.79688C22.0055 6.04967 21.9159 6.26443 21.7369 6.44118C21.5578 6.61793 21.3447 6.70631 21.0975 6.70631ZM17.5341 19.0493V17.5493H19.0341V19.0493H17.5341ZM17.5341 16.0493V14.5493H19.0341V16.0493H17.5341ZM16.0341 17.5493V16.0493H17.5341V17.5493H16.0341ZM14.5341 19.0493V17.5493H16.0341V19.0493H14.5341ZM13.0341 17.5493V16.0493H14.5341V17.5493H13.0341ZM16.0341 14.5493V13.0493H17.5341V14.5493H16.0341ZM14.5341 16.0493V14.5493H16.0341V16.0493H14.5341ZM13.0341 14.5493V13.0493H14.5341V14.5493H13.0341ZM13.9435 10.9493C13.6907 10.9493 13.476 10.8609 13.2992 10.6841C13.1225 10.5074 13.0341 10.2926 13.0341 10.0398V5.84866C13.0341 5.60274 13.1225 5.39137 13.2992 5.21453C13.476 5.03768 13.6907 4.94926 13.9435 4.94926H18.1347C18.3806 4.94926 18.592 5.03768 18.7688 5.21453C18.9457 5.39137 19.0341 5.60274 19.0341 5.84866V10.0398C19.0341 10.2926 18.9457 10.5074 18.7688 10.6841C18.592 10.8609 18.3806 10.9493 18.1347 10.9493H13.9435ZM5.86015 19.0493C5.60738 19.0493 5.39263 18.9609 5.21588 18.7841C5.03913 18.6074 4.95075 18.3926 4.95075 18.1399V13.9487C4.95075 13.7028 5.03913 13.4914 5.21588 13.3145C5.39263 13.1377 5.60738 13.0493 5.86015 13.0493H10.0513C10.2972 13.0493 10.5086 13.1377 10.6855 13.3145C10.8623 13.4914 10.9508 13.7028 10.9508 13.9487V18.1399C10.9508 18.3926 10.8623 18.6074 10.6855 18.7841C10.5086 18.9609 10.2972 19.0493 10.0513 19.0493H5.86015ZM5.86015 10.9493C5.60738 10.9493 5.39263 10.8609 5.21588 10.6841C5.03913 10.5074 4.95075 10.2926 4.95075 10.0398V5.84866C4.95075 5.60274 5.03913 5.39137 5.21588 5.21453C5.39263 5.03768 5.60738 4.94926 5.86015 4.94926H10.0513C10.2972 4.94926 10.5086 5.03768 10.6855 5.21453C10.8623 5.39137 10.9508 5.60274 10.9508 5.84866V10.0398C10.9508 10.2926 10.8623 10.5074 10.6855 10.6841C10.5086 10.8609 10.2972 10.9493 10.0513 10.9493H5.86015ZM6.3078 17.6922H9.61035V14.3897H6.3078V17.6922ZM6.3078 9.60886H9.61035V6.30631H6.3078V9.60886ZM14.3745 9.60886H17.677V6.30631H14.3745V9.60886Z" fill="#472200"/>
</g>
</svg>
