<svg width="188" height="24" viewBox="0 0 188 24" fill="none" xmlns="http://www.w3.org/2000/svg">
<g id="HUBBO POS_Logo_Yellow_Horizontal_RGB 1" clip-path="url(#clip0_1098_2022)">
<g id="Group">
<g id="Group_2">
<path id="Vector" d="M39.3418 0.96936C41.2201 0.96936 42.7427 2.49193 42.7427 4.37027V14.1136C42.7427 15.4218 42.5382 16.6573 42.1278 17.8199C41.7174 18.9824 41.0114 20.0806 40.101 20.9616C39.269 21.7656 38.3991 22.3357 37.4901 22.6705C36.1664 23.1621 34.5752 23.4073 32.7193 23.4073C31.6463 23.4073 30.4739 23.3316 29.2049 23.1818C27.9359 23.0305 26.8741 22.7335 26.0225 22.2867C25.1695 21.8413 24.3893 21.2068 23.6819 20.3845C22.9746 19.5623 22.4899 18.7149 22.2294 17.8423C21.8078 16.4388 21.5977 15.1949 21.5977 14.1122V4.37027C21.5977 2.49193 23.1202 0.96936 24.9986 0.96936C26.8769 0.96936 28.3995 2.49193 28.3995 4.37027V14.4273C28.3995 15.6305 28.7329 16.5704 29.401 17.247C30.0677 17.9235 30.9936 18.2625 32.1772 18.2625C33.3608 18.2625 34.2712 17.9291 34.9394 17.2624C35.6061 16.5956 35.9395 15.6516 35.9395 14.4273V4.37027C35.9395 2.49193 37.462 0.96936 39.3404 0.96936H39.3418Z" fill="#FBB501"/>
<path id="Vector_2" d="M46.0405 4.37003C46.0405 2.49168 47.563 0.969116 49.4414 0.969116H58.8023C61.9231 0.969116 63.9793 2.10229 64.9724 4.37003C65.2624 5.03116 65.408 5.74272 65.408 6.46409C65.408 7.76814 65.0018 8.88591 64.1894 9.81878C63.6473 10.4407 62.8545 10.9323 61.811 11.2937C63.3966 11.6747 64.562 12.3302 65.31 13.2575C66.058 14.1862 66.4305 15.3516 66.4305 16.7565C66.4305 17.9009 66.1644 18.929 65.6335 19.8422C65.1013 20.7555 64.3743 21.4783 63.4512 22.0091C62.8798 22.3397 62.0169 22.5806 60.8627 22.7319C59.3276 22.9322 58.3092 23.033 57.8078 23.033H49.44C47.5616 23.033 46.0391 21.5105 46.0391 19.6321V4.37003H46.0405ZM52.9179 9.62268H55.8832C56.9464 9.62268 57.6873 9.43919 58.1033 9.0736C58.5194 8.70802 58.7281 8.17855 58.7281 7.4852C58.7281 6.84368 58.5194 6.34082 58.1033 5.98084C57.6873 5.61946 56.9618 5.43877 55.928 5.43877H52.9179V9.62268ZM52.9179 18.2916H56.3945C57.5683 18.2916 58.3961 18.0829 58.8779 17.6669C59.3598 17.2509 59.6007 16.6906 59.6007 15.9889C59.6007 15.3362 59.3626 14.8123 58.8863 14.4159C58.4101 14.0195 57.5739 13.822 56.3805 13.822H52.9193V18.2916H52.9179Z" fill="#FBB501"/>
<path id="Vector_3" d="M68.7826 4.37003C68.7826 2.49168 70.3052 0.969116 72.1836 0.969116H81.5445C84.6653 0.969116 86.7215 2.10229 87.7146 4.37003C88.0045 5.03116 88.1502 5.74272 88.1502 6.46409C88.1502 7.76814 87.744 8.88591 86.9316 9.81878C86.3895 10.4407 85.5967 10.9323 84.5532 11.2937C86.1388 11.6747 87.3042 12.3302 88.0522 13.2575C88.8001 14.1862 89.1727 15.3516 89.1727 16.7565C89.1727 17.9009 88.9066 18.929 88.3757 19.8422C87.8435 20.7555 87.1165 21.4783 86.1934 22.0091C85.6219 22.3397 84.7591 22.5806 83.6049 22.7319C82.0697 22.9322 81.0514 23.033 80.55 23.033H72.1822C70.3038 23.033 68.7812 21.5105 68.7812 19.6321V4.37003H68.7826ZM75.6601 9.62268H78.6254C79.6885 9.62268 80.4295 9.43919 80.8455 9.0736C81.2615 8.70802 81.4702 8.17855 81.4702 7.4852C81.4702 6.84368 81.2615 6.34082 80.8455 5.98084C80.4295 5.61946 79.704 5.43877 78.6702 5.43877H75.6601V9.62268ZM75.6601 18.2916H79.1367C80.3105 18.2916 81.1383 18.0829 81.6201 17.6669C82.102 17.2509 82.3429 16.6906 82.3429 15.9889C82.3429 15.3362 82.1048 14.8123 81.6285 14.4159C81.1523 14.0195 80.3161 13.822 79.1227 13.822H75.6615V18.2916H75.6601Z" fill="#FBB501"/>
<path id="Vector_4" d="M90.6484 12.0154C90.6484 8.41419 91.6513 5.60998 93.6586 3.60277C95.6644 1.59556 98.4588 0.592651 102.042 0.592651C105.625 0.592651 108.542 1.57875 110.53 3.54954C112.516 5.52034 113.509 8.28253 113.509 11.8347C113.509 14.4134 113.075 16.5285 112.208 18.1785C111.34 19.8285 110.086 21.113 108.446 22.0319C106.806 22.9493 104.761 23.4088 102.314 23.4088C99.8665 23.4088 97.7654 23.0124 96.1364 22.2196C94.506 21.4268 93.1837 20.1731 92.171 18.4573C91.1569 16.7414 90.6512 14.5941 90.6512 12.0154H90.6484ZM97.4657 12.0448C97.4657 14.2719 97.8803 15.873 98.7067 16.845C99.5345 17.8185 100.661 18.3046 102.085 18.3046C103.51 18.3046 104.684 17.8283 105.486 16.8745C106.289 15.922 106.691 14.2103 106.691 11.7423C106.691 9.66502 106.272 8.14806 105.434 7.18998C104.597 6.23189 103.461 5.75285 102.025 5.75285C100.589 5.75285 99.5471 6.2389 98.7137 7.21239C97.8803 8.18588 97.4643 9.79669 97.4643 12.0434L97.4657 12.0448Z" fill="#FBB501"/>
</g>
<g id="Group_3">
<path id="Vector_5" d="M14.6248 0.96936C12.5937 0.96936 10.9479 2.61519 10.9479 4.64621V8.32307H7.35371V4.64621C7.35371 2.61519 5.70648 0.96936 3.67685 0.96936C1.64723 0.96936 0 2.61519 0 4.64621V19.355C0 21.3861 1.64723 23.0319 3.67685 23.0319C5.70648 23.0319 7.35371 21.3861 7.35371 19.355V15.6782H10.9479V19.355C10.9479 21.3861 12.5951 23.0319 14.6248 23.0319C16.6544 23.0319 18.3016 21.3861 18.3016 19.355V4.64621C18.3016 2.61519 16.6544 0.96936 14.6248 0.96936Z" fill="#FBB501"/>
<path id="Vector_6" d="M3.67685 8.32307H7.35371V4.64621C7.35371 2.61519 5.70648 0.96936 3.67685 0.96936C3.33508 0.96936 3.00591 1.01979 2.69216 1.10663C2.65574 1.11643 2.61932 1.12344 2.5843 1.13464C2.36299 1.20328 2.15008 1.29432 1.94838 1.40218C1.94138 1.40638 1.93297 1.40918 1.92457 1.41338C1.71727 1.52684 1.52117 1.65851 1.34048 1.80698C1.34048 1.80698 1.33907 1.80698 1.33767 1.80838C1.27464 1.86021 1.21441 1.91764 1.15558 1.97507C1.13037 1.99888 1.10236 2.02129 1.07714 2.0465C1.05193 2.07172 1.02952 2.09973 1.00571 2.12494C0.949679 2.18517 0.89225 2.244 0.839023 2.30703C0.839023 2.30703 0.839023 2.30844 0.837622 2.30984C0.689147 2.49053 0.55608 2.68663 0.444024 2.89393C0.336169 3.09143 0.247925 3.30154 0.17789 3.52005C0.173688 3.53125 0.169485 3.54246 0.165283 3.55366C0.154078 3.58868 0.147074 3.6265 0.137269 3.66152C0.0504254 3.97528 0 4.30444 0 4.64621C0 6.67724 1.64583 8.32307 3.67685 8.32307Z" fill="#FFD770"/>
<path id="Vector_7" d="M14.6222 15.6764H10.9453V19.3532C10.9453 21.3843 12.5925 23.0301 14.6222 23.0301C14.9639 23.0301 15.2931 22.9797 15.6069 22.8928C15.6433 22.883 15.6797 22.876 15.7147 22.8648C15.936 22.7962 16.1489 22.7051 16.3506 22.5973C16.3576 22.5931 16.366 22.5903 16.3744 22.5861C16.5818 22.4726 16.7779 22.341 16.9585 22.1925C16.9585 22.1925 16.9599 22.1925 16.9613 22.1911C17.0244 22.1392 17.0846 22.0818 17.1434 22.0244C17.1686 22.0006 17.1967 21.9782 17.2219 21.953C17.2471 21.9277 17.2695 21.8997 17.2933 21.8745C17.3493 21.8143 17.4068 21.7555 17.46 21.6924C17.46 21.6924 17.46 21.691 17.4614 21.6896C17.6099 21.5089 17.7429 21.3128 17.855 21.1055C17.9628 20.908 18.0511 20.6979 18.1211 20.4794C18.1253 20.4682 18.1295 20.457 18.1337 20.4458C18.1449 20.4108 18.1519 20.373 18.1617 20.3379C18.2486 20.0242 18.299 19.695 18.299 19.3532C18.299 17.3222 16.6532 15.6764 14.6222 15.6764Z" fill="#FFD770"/>
</g>
</g>
<path id="Vector_8" d="M125.604 23.3457C124.52 23.3457 123.686 23.0487 123.102 22.4548C122.518 21.8609 122.227 21.0219 122.227 19.9378V4.39412C122.227 3.28897 122.524 2.44434 123.117 1.86165C123.711 1.27755 124.55 0.986206 125.634 0.986206H133.421C135.965 0.986206 137.93 1.64874 139.317 2.97241C140.703 4.29607 141.397 6.10579 141.397 8.39874C141.397 10.6917 140.703 12.5014 139.317 13.8251C137.93 15.1487 135.965 15.8113 133.421 15.8113H128.949V19.9392C128.949 21.0233 128.667 21.8623 128.104 22.4562C127.541 23.0501 126.707 23.3471 125.602 23.3471L125.604 23.3457ZM128.95 10.6805H132.172C133.089 10.6805 133.792 10.4928 134.282 10.1174C134.773 9.74202 135.018 9.16913 135.018 8.39734C135.018 7.62555 134.773 7.02605 134.282 6.66187C133.792 6.29768 133.088 6.11419 132.172 6.11419H128.95V10.6805Z" fill="#FBB501"/>
<path id="Vector_9" d="M154.937 23.4076C152.666 23.4076 150.658 22.9286 148.919 21.9691C147.178 21.0096 145.822 19.6705 144.852 17.9505C143.883 16.2304 143.398 14.2442 143.398 11.9933C143.398 9.74234 143.883 7.72953 144.852 6.02067C145.822 4.31181 147.176 2.98254 148.919 2.03286C150.658 1.08458 152.666 0.609741 154.937 0.609741C157.209 0.609741 159.242 1.08458 160.973 2.03286C162.703 2.98114 164.053 4.31041 165.023 6.02067C165.992 7.73093 166.476 9.72133 166.476 11.9933C166.476 14.2652 165.992 16.257 165.023 17.9659C164.053 19.6762 162.703 21.0096 160.973 21.9691C159.242 22.9286 157.23 23.4076 154.937 23.4076ZM154.937 17.8104C156.355 17.8104 157.471 17.295 158.284 16.2626C159.098 15.2303 159.504 13.8072 159.504 11.9947C159.504 10.1822 159.098 8.76325 158.284 7.74214C157.471 6.72102 156.355 6.20976 154.937 6.20976C153.52 6.20976 152.405 6.71542 151.591 7.72673C150.777 8.73804 150.371 10.1612 150.371 11.9961C150.371 13.831 150.779 15.2597 151.591 16.2808C152.404 17.302 153.519 17.8132 154.937 17.8132V17.8104Z" fill="#FBB501"/>
<path id="Vector_10" d="M177.382 23.4072C176.589 23.4072 175.745 23.3498 174.849 23.2349C173.953 23.1201 173.093 22.9646 172.269 22.7657C171.446 22.5682 170.71 22.3441 170.065 22.0933C169.398 21.823 168.929 21.4322 168.658 20.921C168.387 20.4097 168.283 19.8634 168.346 19.2793C168.409 18.6966 168.607 18.1742 168.94 17.7161C169.273 17.2581 169.721 16.9401 170.285 16.7623C170.848 16.5858 171.484 16.6432 172.192 16.9345C172.922 17.2273 173.782 17.4668 174.772 17.6545C175.763 17.8422 176.633 17.9361 177.383 17.9361C178.592 17.9361 179.416 17.8002 179.854 17.5298C180.293 17.2595 180.511 16.9458 180.511 16.5914C180.511 16.258 180.36 15.9821 180.057 15.7622C179.755 15.5436 179.197 15.3503 178.385 15.1837L174.631 14.3713C170.649 13.5168 168.658 11.4004 168.658 8.02325C168.658 6.5217 169.065 5.21904 169.878 4.11388C170.691 3.00873 171.827 2.14869 173.286 1.53378C174.746 0.918873 176.445 0.610718 178.385 0.610718C179.364 0.610718 180.406 0.715771 181.513 0.923075C182.618 1.13178 183.566 1.43433 184.359 1.83073C184.922 2.10247 185.334 2.48766 185.594 2.98772C185.855 3.48777 185.964 4.00883 185.922 4.5509C185.88 5.09298 185.708 5.57762 185.407 6.00484C185.104 6.43205 184.682 6.7248 184.14 6.88028C183.598 7.03716 182.941 6.97973 182.17 6.70799C181.649 6.5203 181.022 6.36902 180.293 6.25416C179.563 6.1393 178.896 6.08188 178.291 6.08188C177.268 6.08188 176.502 6.22755 175.992 6.5203C175.481 6.81304 175.226 7.19824 175.226 7.67728C175.226 7.94902 175.372 8.19274 175.663 8.41265C175.955 8.63116 176.518 8.82446 177.351 8.99114L181.105 9.80355C185.086 10.679 187.078 12.7534 187.078 16.0269C187.078 17.5074 186.676 18.8059 185.874 19.9209C185.072 21.0358 183.946 21.8958 182.497 22.501C181.048 23.1061 179.344 23.4086 177.385 23.4086L177.382 23.4072Z" fill="#FBB501"/>
</g>
<defs>
<clipPath id="clip0_1098_2022">
<rect width="187.077" height="22.8147" fill="white" transform="translate(0 0.592651)"/>
</clipPath>
</defs>
</svg>
