<svg width="24" height="24" viewBox="0 0 24 24" fill="none" xmlns="http://www.w3.org/2000/svg">
<g id="Integrations" clip-path="url(#clip0_600_4618)">
<path id="Vector" d="M5.81468 23.1538C5.00405 23.1538 4.31286 22.8669 3.74113 22.2929C3.16938 21.719 2.88351 21.0266 2.88351 20.216C2.88351 19.4054 3.16987 18.7142 3.74261 18.1424C4.31536 17.5707 5.00526 17.2848 5.81231 17.2848C6.04632 17.2848 6.24799 17.3026 6.41731 17.3381C6.58662 17.3736 6.76467 17.4269 6.95146 17.4979L9.11776 14.7691C8.83804 14.3981 8.62318 13.9895 8.47318 13.5435C8.32318 13.0975 8.27952 12.6355 8.34221 12.1574L5.20633 11.0734C4.94836 11.4774 4.61615 11.7939 4.20968 12.0229C3.80321 12.2519 3.32928 12.3663 2.78788 12.3663C1.97551 12.3663 1.28238 12.08 0.708481 11.5072C0.134598 10.9345 -0.152344 10.2437 -0.152344 9.43484C-0.152344 8.62429 0.13464 7.93108 0.708606 7.3552C1.28257 6.77929 1.97488 6.49134 2.78553 6.49134C3.59616 6.49134 4.28735 6.77929 4.85908 7.3552C5.43081 7.93108 5.71668 8.62459 5.71668 9.43574V9.47939L8.87158 10.6044C9.13825 10.129 9.47266 9.75693 9.87483 9.48809C10.277 9.21926 10.7096 9.02377 11.1727 8.90162V5.57284C10.5143 5.37829 9.99822 5.00856 9.62431 4.46364C9.25039 3.91871 9.06343 3.34646 9.06343 2.74689C9.06343 1.93773 9.35041 1.2452 9.92438 0.66932C10.4983 0.0934199 11.1906 -0.19453 12.0013 -0.19453C12.8119 -0.19453 13.5041 0.0934199 14.0778 0.66932C14.6516 1.2452 14.9384 1.93773 14.9384 2.74689C14.9384 3.34646 14.7483 3.91871 14.3681 4.46364C13.9878 5.00856 13.4748 5.37829 12.8292 5.57284V8.90384C13.2922 9.02451 13.7269 9.22026 14.1333 9.49109C14.5396 9.76193 14.8872 10.133 15.1761 10.6044L18.2852 9.47439V9.43484C18.2852 8.62429 18.5715 7.93108 19.1443 7.3552C19.717 6.77929 20.4078 6.49134 21.2167 6.49134C22.0272 6.49134 22.7204 6.77933 23.2963 7.35529C23.8722 7.93124 24.1602 8.62454 24.1602 9.43519C24.1602 10.2458 23.8722 10.937 23.2963 11.5087C22.7204 12.0805 22.0256 12.3663 21.2119 12.3663C20.6726 12.3663 20.1953 12.2519 19.7802 12.0229C19.365 11.7939 19.0348 11.4754 18.7895 11.0674L15.6596 12.1549C15.7143 12.647 15.6728 13.1171 15.5352 13.5653C15.3975 14.0135 15.1805 14.4147 14.8841 14.7691L17.0689 17.5223C17.2473 17.439 17.4202 17.3786 17.5875 17.3411C17.7548 17.3036 17.9519 17.2848 18.1786 17.2848C19.0013 17.2848 19.6979 17.5712 20.2685 18.1439C20.839 18.7167 21.1243 19.4075 21.1243 20.2163C21.1243 21.0269 20.8369 21.7191 20.2622 22.293C19.6875 22.8669 18.9957 23.1539 18.1868 23.1539C17.3763 23.1539 16.684 22.8685 16.1102 22.2976C15.5363 21.7268 15.2493 21.0313 15.2493 20.2111C15.2493 19.8685 15.294 19.5664 15.3835 19.3049C15.473 19.0433 15.5969 18.7856 15.7553 18.5316L13.595 15.7962C13.0928 16.0426 12.5568 16.1679 11.9869 16.1721C11.4169 16.1762 10.8881 16.051 10.4004 15.7962L8.24658 18.5566C8.40491 18.8106 8.52883 19.0642 8.61833 19.3174C8.70781 19.5706 8.75256 19.8685 8.75256 20.2111C8.75256 21.0313 8.46557 21.7268 7.89161 22.2976C7.31764 22.8685 6.62534 23.1539 5.81471 23.1539L5.81468 23.1538ZM2.78603 10.7973C3.16125 10.7973 3.48199 10.6639 3.74826 10.3971C4.01452 10.1302 4.14766 9.80819 4.14766 9.43097C4.14766 9.05375 4.01423 8.73301 3.74738 8.46875C3.48053 8.20448 3.1585 8.07234 2.78128 8.07234C2.40406 8.07234 2.08331 8.20477 1.81903 8.46962C1.55478 8.73447 1.42266 9.0565 1.42266 9.43572C1.42266 9.81094 1.55507 10.1317 1.81991 10.3979C2.08477 10.6642 2.40681 10.7973 2.78603 10.7973ZM5.81591 21.5788C6.19512 21.5788 6.51686 21.4464 6.78113 21.1816C7.0454 20.9167 7.17753 20.5947 7.17753 20.2155C7.17753 19.8403 7.04511 19.5195 6.78026 19.2532C6.51541 18.987 6.19337 18.8538 5.81416 18.8538C5.43496 18.8538 5.11321 18.9873 4.84893 19.2541C4.58466 19.521 4.45253 19.842 4.45253 20.2172C4.45253 20.5964 4.58496 20.9182 4.84983 21.1824C5.11468 21.4467 5.43671 21.5788 5.81591 21.5788ZM12.0018 4.11147C12.381 4.11147 12.7027 3.97804 12.967 3.71119C13.2313 3.44434 13.3634 3.12331 13.3634 2.7481C13.3634 2.36888 13.231 2.04714 12.9661 1.78287C12.7013 1.5186 12.3792 1.38647 12 1.38647C11.6208 1.38647 11.2991 1.51889 11.0348 1.78374C10.7705 2.04859 10.6384 2.37063 10.6384 2.74984C10.6384 3.12506 10.7708 3.4458 11.0357 3.71207C11.3005 3.97834 11.6226 4.11147 12.0018 4.11147ZM12.0127 14.525C12.5773 14.525 13.056 14.3268 13.4487 13.9304C13.8415 13.534 14.0379 13.0535 14.0379 12.4888C14.0379 11.9242 13.8409 11.4455 13.447 11.0528C13.0531 10.66 12.5713 10.4636 12.0017 10.4636C11.4454 10.4636 10.9687 10.6606 10.5718 11.0545C10.1749 11.4484 9.97646 11.9302 9.97646 12.4998C9.97646 13.0561 10.1747 13.5328 10.5711 13.9297C10.9675 14.3266 11.448 14.525 12.0127 14.525ZM18.1877 21.5788C18.5669 21.5788 18.8886 21.4464 19.1529 21.1816C19.4171 20.9167 19.5493 20.5947 19.5493 20.2155C19.5493 19.8403 19.4168 19.5195 19.152 19.2532C18.8871 18.987 18.5651 18.8538 18.1859 18.8538C17.8067 18.8538 17.4849 18.9873 17.2207 19.2541C16.9564 19.521 16.8243 19.842 16.8243 20.2172C16.8243 20.5964 16.9567 20.9182 17.2216 21.1824C17.4864 21.4467 17.8085 21.5788 18.1877 21.5788ZM21.2205 10.7973C21.5977 10.7973 21.9185 10.6639 22.1828 10.3971C22.447 10.1302 22.5792 9.80819 22.5792 9.43097C22.5792 9.05375 22.4467 8.73301 22.1819 8.46875C21.917 8.20448 21.595 8.07234 21.2158 8.07234C20.8406 8.07234 20.5198 8.20477 20.2536 8.46962C19.9873 8.73447 19.8542 9.0565 19.8542 9.43572C19.8542 9.81094 19.9876 10.1317 20.2544 10.3979C20.5213 10.6642 20.8433 10.7973 21.2205 10.7973Z" fill="#472200"/>
</g>
<defs>
<clipPath id="clip0_600_4618">
<rect width="24" height="24" fill="white"/>
</clipPath>
</defs>
</svg>
