<svg width="20" height="20" viewBox="0 0 20 20" fill="none" xmlns="http://www.w3.org/2000/svg">
<g id="language">
<path id="Vector" d="M9.99326 18.3538C8.82719 18.3538 7.73461 18.1367 6.71551 17.7024C5.69643 17.2681 4.81098 16.6725 4.05916 15.9156C3.30735 15.1586 2.71696 14.2689 2.28799 13.2463C1.85902 12.2238 1.64453 11.1294 1.64453 9.96338C1.64453 8.79067 1.85902 7.6983 2.28799 6.68627C2.71696 5.67425 3.30735 4.79433 4.05916 4.04652C4.81098 3.29872 5.69643 2.71091 6.71551 2.28309C7.73461 1.85527 8.82719 1.64136 9.99326 1.64136C11.166 1.64136 12.261 1.85532 13.2783 2.28325C14.2956 2.71117 15.1807 3.29912 15.9337 4.04711C16.6866 4.79509 17.2787 5.67522 17.71 6.68748C18.1413 7.69975 18.3569 8.79005 18.3569 9.9584C18.3569 11.1278 18.1413 12.2238 17.71 13.2463C17.2787 14.2689 16.6866 15.1586 15.9337 15.9156C15.1807 16.6725 14.2956 17.2681 13.2783 17.7024C12.261 18.1367 11.166 18.3538 9.99326 18.3538ZM9.99326 17.0644C10.4779 16.5637 10.8822 15.9896 11.2061 15.3421C11.5301 14.6947 11.8014 13.9231 12.02 13.0272H8.00776C8.19193 13.8675 8.44947 14.6218 8.78039 15.2901C9.1113 15.9584 9.51559 16.5498 9.99326 17.0644ZM8.29986 16.804C7.94238 16.2759 7.63939 15.7045 7.39091 15.09C7.14242 14.4754 6.9342 13.7878 6.76626 13.0272H3.65268C4.16687 14.017 4.773 14.7914 5.47107 15.3506C6.16914 15.9098 7.11207 16.3942 8.29986 16.804ZM11.7075 16.7831C12.7147 16.467 13.6177 15.9886 14.4165 15.3479C15.2153 14.7072 15.8595 13.9336 16.3492 13.0272H13.2615C13.0796 13.7739 12.8646 14.4545 12.6162 15.0691C12.3679 15.6837 12.065 16.255 11.7075 16.7831ZM3.27224 11.8443H6.53901C6.49734 11.4623 6.47304 11.1229 6.46609 10.8259C6.45915 10.529 6.45568 10.2398 6.45568 9.9584C6.45568 9.61812 6.46262 9.31423 6.47651 9.04671C6.4904 8.7792 6.51818 8.4753 6.55984 8.13503H3.27224C3.16807 8.4753 3.09863 8.7746 3.06391 9.03292C3.02918 9.29123 3.01182 9.59972 3.01182 9.9584C3.01182 10.3138 3.02918 10.6318 3.06391 10.9126C3.09863 11.1935 3.16807 11.504 3.27224 11.8443ZM7.78901 11.8443H12.2387C12.291 11.4068 12.3232 11.0546 12.3354 10.7876C12.3476 10.5207 12.3538 10.2443 12.3538 9.9584C12.3538 9.68305 12.3476 9.4197 12.3354 9.16834C12.3232 8.91696 12.291 8.57253 12.2387 8.13503H7.78901C7.72651 8.57253 7.68832 8.91696 7.67443 9.16834C7.66054 9.4197 7.65359 9.68305 7.65359 9.9584C7.65359 10.2443 7.66054 10.5207 7.67443 10.7876C7.68832 11.0546 7.72651 11.4068 7.78901 11.8443ZM13.4366 11.8443H16.7297C16.8236 11.504 16.8887 11.1935 16.9251 10.9126C16.9615 10.6318 16.9797 10.3138 16.9797 9.9584C16.9797 9.59972 16.9615 9.29123 16.9251 9.03292C16.8887 8.7746 16.8236 8.4753 16.7297 8.13503H13.4575C13.4925 8.6314 13.517 9.00557 13.5308 9.25755C13.5447 9.5095 13.5517 9.74312 13.5517 9.9584C13.5517 10.2537 13.5413 10.5359 13.5204 10.8051C13.4996 11.0743 13.4717 11.4207 13.4366 11.8443ZM13.2406 6.94709H16.3492C15.8873 5.98845 15.2569 5.19051 14.4582 4.55327C13.6594 3.91605 12.7356 3.46368 11.6866 3.19617C12.0441 3.71368 12.3471 4.27196 12.5954 4.87098C12.8437 5.47002 13.0588 6.16206 13.2406 6.94709ZM8.00776 6.94709H12.0408C11.8914 6.21067 11.6347 5.49451 11.2709 4.79861C10.9071 4.10269 10.4812 3.49563 9.99326 2.97742C9.55726 3.35312 9.18422 3.84733 8.87414 4.46007C8.56405 5.07279 8.27526 5.90179 8.00776 6.94709ZM3.65268 6.94709H6.78709C6.94115 6.20373 7.13721 5.53773 7.37528 4.94911C7.61335 4.3605 7.9146 3.78313 8.27903 3.217C7.2268 3.48452 6.31081 3.92738 5.53107 4.54559C4.75134 5.1638 4.1252 5.96429 3.65268 6.94709Z" fill="#472200"/>
</g>
</svg>
