<svg width="24" height="24" viewBox="0 0 24 24" fill="none" xmlns="http://www.w3.org/2000/svg">
<g id="Loyalty">
<path id="Vector" d="M7.26838 10.5707C6.34833 10.5707 5.56936 10.2504 4.93146 9.60978C4.29356 8.96918 3.97461 8.18888 3.97461 7.26888C3.97461 6.34888 4.29508 5.56989 4.93603 4.93193C5.57698 4.29398 6.3568 3.975 7.27548 3.975C8.19418 3.975 8.97508 4.29448 9.61816 4.93343C10.2612 5.57236 10.5828 6.34976 10.5828 7.26563C10.5828 8.19116 10.2604 8.97338 9.61563 9.6123C8.97087 10.2512 8.18845 10.5707 7.26838 10.5707ZM7.26906 8.92988C7.73338 8.92988 8.12828 8.77032 8.45376 8.4512C8.77924 8.13207 8.94198 7.73741 8.94198 7.26723C8.94198 6.80538 8.77973 6.41567 8.45523 6.0981C8.13072 5.78052 7.73667 5.62173 7.27308 5.62173C6.8095 5.62173 6.41832 5.78029 6.09953 6.0974C5.78073 6.41452 5.62133 6.80227 5.62133 7.26065C5.62133 7.73083 5.78075 8.12658 6.09958 8.4479C6.41842 8.76922 6.80824 8.92988 7.26906 8.92988ZM16.7306 20.0239C15.8077 20.0239 15.0264 19.7038 14.387 19.0636C13.7476 18.4233 13.4279 17.6438 13.4279 16.7249C13.4279 15.806 13.7482 15.0248 14.3887 14.3812C15.0293 13.7376 15.8103 13.4158 16.7317 13.4158C17.6531 13.4158 18.433 13.739 19.0716 14.3855C19.7102 15.0319 20.0295 15.8133 20.0295 16.7297C20.0295 17.6461 19.7085 18.4242 19.0665 19.0641C18.4245 19.704 17.6459 20.0239 16.7306 20.0239ZM16.7313 18.3832C17.1931 18.3832 17.5828 18.2225 17.9004 17.9013C18.218 17.58 18.3768 17.1899 18.3768 16.731C18.3768 16.2685 18.2182 15.8749 17.9011 15.5499C17.584 15.225 17.1962 15.0625 16.7379 15.0625C16.2677 15.0625 15.8719 15.2237 15.5506 15.5462C15.2293 15.8687 15.0686 16.2615 15.0686 16.7246C15.0686 17.1877 15.2282 17.5799 15.5473 17.9012C15.8664 18.2225 16.2611 18.3832 16.7313 18.3832ZM4.55258 19.4522C4.38283 19.2811 4.29796 19.0891 4.29796 18.8763C4.29796 18.6635 4.386 18.469 4.56208 18.293L18.3045 4.5565C18.4683 4.39273 18.6568 4.30877 18.8703 4.3046C19.0837 4.30043 19.2753 4.38432 19.4453 4.55625C19.6152 4.72817 19.7002 4.91983 19.7002 5.13125C19.7002 5.34267 19.6152 5.52917 19.4453 5.69075L5.70231 19.4522C5.52841 19.6178 5.33476 19.7026 5.12136 19.7068C4.90794 19.711 4.71835 19.6261 4.55258 19.4522Z" fill="#472200"/>
</g>
</svg>
