<svg width="24" height="24" viewBox="0 0 24 24" fill="none" xmlns="http://www.w3.org/2000/svg">
<g id="Number calling system">
<path id="Vector" d="M11.9944 19.1758C10.2441 19.1758 8.79578 19.0648 7.64958 18.8429C6.5034 18.6209 5.9303 18.3371 5.9303 17.9916V17.1041H3.55801C3.07541 17.1041 2.67306 16.929 2.35096 16.5788C2.02886 16.2286 1.88646 15.8153 1.92378 15.3388L2.68681 6.34808C2.72239 5.9118 2.89123 5.54902 3.19333 5.25973C3.49541 4.97043 3.86516 4.82578 4.30258 4.82578H19.6988C20.1279 4.82578 20.4934 4.97043 20.7955 5.25973C21.0976 5.54902 21.2706 5.9118 21.3146 6.34808L22.0776 15.3388C22.1066 15.8154 21.9601 16.2287 21.6381 16.5789C21.3161 16.929 20.9157 17.1041 20.4368 17.1041H18.0711V17.9916C18.0711 18.3371 17.4959 18.6209 16.3455 18.8429C15.1952 19.0648 13.7448 19.1758 11.9944 19.1758ZM3.57051 15.4633H20.4309L19.696 6.47253H4.30258L3.57051 15.4633Z" fill="#472200"/>
</g>
</svg>
