<svg width="24" height="24" viewBox="0 0 24 24" fill="none" xmlns="http://www.w3.org/2000/svg">
<g id="Reporting">
<path id="Vector" d="M4.76725 20.0641C4.53518 20.0641 4.34148 19.9865 4.18615 19.8311C4.0308 19.6758 3.95312 19.4821 3.95312 19.25V8.75C3.95312 8.51793 4.0308 8.32214 4.18615 8.16262C4.34148 8.00312 4.53518 7.92337 4.76725 7.92337H6.74335C6.97542 7.92337 7.1712 8.00312 7.3307 8.16262C7.49022 8.32214 7.56997 8.51793 7.56997 8.75V19.25C7.56997 19.4821 7.49022 19.6758 7.3307 19.8311C7.1712 19.9865 6.97542 20.0641 6.74335 20.0641H4.76725ZM10.1548 20.0641C9.91871 20.0641 9.72301 19.9865 9.56767 19.8311C9.41232 19.6758 9.33465 19.4821 9.33465 19.25V13.75C9.33465 13.5179 9.41232 13.3221 9.56767 13.1626C9.72301 13.0031 9.91871 12.9234 10.1548 12.9234H12.1249C12.3569 12.9234 12.5527 13.0031 12.7122 13.1626C12.8717 13.3221 12.9515 13.5179 12.9515 13.75V19.25C12.9515 19.4821 12.8717 19.6758 12.7122 19.8311C12.5527 19.9865 12.3569 20.0641 12.1249 20.0641H10.1548ZM17.2672 20.0641C17.0352 20.0641 16.8415 19.9865 16.6861 19.8311C16.5308 19.6758 16.4531 19.4821 16.4531 19.25V4.75C16.4531 4.51793 16.5308 4.32214 16.6861 4.16262C16.8415 4.00312 17.0352 3.92337 17.2672 3.92337H19.2433C19.4754 3.92337 19.6712 4.00312 19.8307 4.16262C19.9902 4.32214 20.07 4.51793 20.07 4.75V19.25C20.07 19.4821 19.9902 19.6758 19.8307 19.8311C19.6712 19.9865 19.4754 20.0641 19.2433 20.0641H17.2672Z" fill="#472200"/>
</g>
</svg>
