<svg width="40" height="40" viewBox="0 0 40 40" fill="none" xmlns="http://www.w3.org/2000/svg">
<g id="Resources">
<path id="Vector" d="M11.3542 36.7068C10.0574 36.7068 8.94521 36.2807 8.01752 35.4286C7.08982 34.5764 6.62598 33.517 6.62598 32.2503V9.12147C6.62598 8.03217 6.9485 7.05924 7.59356 6.20268C8.23859 5.3461 9.09448 4.80225 10.1612 4.57114L22.3008 1.97581C23.1563 1.79644 23.9226 1.98461 24.5996 2.5403C25.2766 3.09597 25.6151 3.81239 25.6151 4.68956V24.8354C25.6151 25.4767 25.4184 26.0462 25.025 26.5437C24.6316 27.0413 24.1172 27.3593 23.4819 27.4976L11.0731 30.2285C10.5715 30.3309 10.1491 30.5707 9.80577 30.9477C9.46246 31.3248 9.29081 31.7621 9.29081 32.2596C9.29081 32.7753 9.49721 33.2012 9.91002 33.5375C10.3228 33.8738 10.8044 34.0419 11.3549 34.0419H30.7193V7.94226C30.7193 7.58276 30.8499 7.27172 31.1111 7.00914C31.3723 6.74655 31.6869 6.61526 32.0549 6.61526C32.4229 6.61526 32.7365 6.74655 32.9955 7.00914C33.2546 7.27172 33.3842 7.58276 33.3842 7.94226V33.9722C33.3842 34.731 33.1171 35.3765 32.583 35.9086C32.0489 36.4407 31.4011 36.7068 30.6396 36.7068H11.3542ZM14.4557 26.8979L22.9502 25.0183V4.5691L14.4557 6.36531V26.8979ZM11.7908 27.4899V6.95677L10.9925 7.12343C10.4969 7.23157 10.0894 7.46903 9.76998 7.83581C9.45053 8.20258 9.29081 8.62757 9.29081 9.11076V28.2811C9.56017 28.1161 9.84596 27.9846 10.1482 27.8865C10.4504 27.7884 10.7576 27.7013 11.0698 27.6253L11.7908 27.4899Z" fill="#472200"/>
</g>
</svg>
