<svg width="24" height="24" viewBox="0 0 18 12" fill="none" xmlns="http://www.w3.org/2000/svg">
<path id="Vector" d="M4.81106 12.0064C3.69095 12.0064 2.73602 11.6163 1.94629 10.8363C1.15658 10.0562 0.761719 9.1062 0.761719 7.98634C0.761719 7.01237 1.06754 6.1467 1.67918 5.38933C2.29082 4.63196 3.0758 4.17011 4.03412 4.00377C4.30277 2.82007 4.9017 1.85579 5.83091 1.11093C6.76012 0.366052 7.82485 -0.0063858 9.02508 -0.0063858C10.4287 -0.0063858 11.6198 0.495992 12.5985 1.50075C13.5772 2.5055 14.08 3.71472 14.1069 5.1284V5.46894C14.9907 5.49365 15.7333 5.81958 16.3348 6.44672C16.9363 7.07386 17.237 7.83594 17.237 8.73297C17.237 9.63397 16.9162 10.4048 16.2745 11.0454C15.6328 11.6861 14.8614 12.0064 13.9604 12.0064H4.81106ZM4.81127 10.6489H13.9519C14.4805 10.6489 14.9339 10.4608 15.3122 10.0844C15.6904 9.70798 15.8795 9.25411 15.8795 8.72275C15.8795 8.19139 15.691 7.73814 15.3138 7.36301C14.9367 6.98786 14.4831 6.80029 13.9531 6.80029H12.7554V5.2248C12.7554 4.14615 12.3888 3.23137 11.6555 2.48044C10.9222 1.72952 10.0293 1.35406 8.97685 1.35406C7.9177 1.35406 7.02054 1.73565 6.28537 2.49883C5.5502 3.26203 5.18262 4.18836 5.18262 5.27782H4.77597C4.03489 5.27782 3.40682 5.5358 2.89176 6.05177C2.37672 6.56773 2.11919 7.20473 2.11919 7.96278C2.11919 8.71249 2.38004 9.34761 2.90174 9.86815C3.42343 10.3887 4.05994 10.6489 4.81127 10.6489Z" fill="#472200"/>
</svg>
