<svg width="165" height="161" viewBox="0 0 165 161" fill="none" xmlns="http://www.w3.org/2000/svg">
<g opacity="0.7">
<path d="M104.606 36.1687H60.206C59.1943 36.17 58.2245 36.5725 57.5091 37.2879C56.7938 38.0032 56.3913 38.9731 56.39 39.9847V138.658L55.881 138.813L44.99 142.158C44.4737 142.315 43.9161 142.261 43.4395 142.008C42.9629 141.755 42.6063 141.323 42.448 140.807L10.048 34.9797C9.89018 34.4635 9.94385 33.9057 10.1972 33.429C10.4505 32.9523 10.8828 32.5958 11.399 32.4377L28.183 27.2987L76.841 12.4047L93.625 7.26573C93.8804 7.18711 94.1488 7.15964 94.4149 7.18485C94.6809 7.21007 94.9394 7.2875 95.1755 7.4127C95.4116 7.5379 95.6207 7.70841 95.7908 7.9145C95.9609 8.12058 96.0888 8.3582 96.167 8.61373L104.448 35.6637L104.606 36.1687Z" fill="#F2F2F2"/>
<path d="M114.295 35.6592L104.314 3.05922C104.148 2.5162 103.876 2.0112 103.515 1.57308C103.154 1.13496 102.71 0.772294 102.208 0.505787C101.707 0.23928 101.158 0.0741412 100.593 0.0198254C100.027 -0.0344904 99.457 0.0230678 98.914 0.189213L75.314 7.41222L26.658 22.3122L3.058 29.5382C1.96208 29.8748 1.04441 30.6324 0.506368 31.6448C-0.0316779 32.6571 -0.146184 33.8416 0.187978 34.9382L34.301 146.357C34.5727 147.243 35.1211 148.018 35.8657 148.569C36.6102 149.12 37.5118 149.417 38.438 149.418C38.8665 149.418 39.2926 149.354 39.702 149.227L55.878 144.276L56.387 144.118V143.58L55.878 143.735L39.552 148.735C38.5844 149.03 37.5392 148.929 36.646 148.454C35.7527 147.98 35.0841 147.17 34.787 146.203L0.679982 34.7802C0.532725 34.3012 0.481401 33.7978 0.528951 33.2989C0.5765 32.8 0.721984 32.3153 0.957082 31.8727C1.19218 31.4301 1.51228 31.0382 1.89904 30.7195C2.28579 30.4007 2.73162 30.1614 3.21099 30.0152L26.811 22.7892L75.467 7.89522L99.067 0.669224C99.5461 0.522124 100.05 0.470943 100.548 0.51862C101.047 0.566297 101.532 0.711892 101.975 0.947071C102.417 1.18225 102.809 1.5024 103.128 1.88919C103.446 2.27599 103.686 2.72183 103.832 3.20122L113.767 35.6552L113.925 36.1642H114.454L114.295 35.6592Z" fill="#3F3D56"/>
<path d="M31.214 32.517C30.7236 32.5166 30.2462 32.3591 29.8519 32.0675C29.4576 31.776 29.1671 31.3657 29.023 30.8969L25.746 20.1969C25.6578 19.9094 25.6272 19.6073 25.6558 19.308C25.6844 19.0086 25.7718 18.7178 25.9128 18.4522C26.0539 18.1866 26.2459 17.9514 26.4779 17.76C26.7099 17.5687 26.9774 17.4249 27.265 17.3369L72.028 3.63695C72.6087 3.45971 73.236 3.52011 73.7722 3.8049C74.3084 4.08969 74.7097 4.57558 74.888 5.15594L78.165 15.8559C78.3422 16.4366 78.2818 17.0639 77.997 17.6001C77.7123 18.1363 77.2264 18.5376 76.646 18.7159L31.883 32.416C31.6662 32.4826 31.4408 32.5167 31.214 32.517Z" fill="#007EBE"/>
<path d="M48.381 11.4319C51.191 11.4319 53.469 9.15388 53.469 6.34386C53.469 3.53383 51.191 1.25586 48.381 1.25586C45.571 1.25586 43.293 3.53383 43.293 6.34386C43.293 9.15388 45.571 11.4319 48.381 11.4319Z" fill="#007EBE"/>
<path d="M48.381 9.56705C50.1605 9.56705 51.603 8.12451 51.603 6.34505C51.603 4.56559 50.1605 3.12305 48.381 3.12305C46.6015 3.12305 45.159 4.56559 45.159 6.34505C45.159 8.12451 46.6015 9.56705 48.381 9.56705Z" fill="white"/>
<path d="M153.325 148.114H67.331C66.7575 148.114 66.2076 147.885 65.8021 147.48C65.3966 147.074 65.1685 146.525 65.168 145.951V42.911C65.1685 42.3375 65.3966 41.7877 65.8021 41.3821C66.2076 40.9766 66.7575 40.7486 67.331 40.748H153.326C153.9 40.7486 154.449 40.9766 154.855 41.3821C155.26 41.7877 155.488 42.3375 155.489 42.911V145.951C155.488 146.525 155.26 147.075 154.855 147.48C154.449 147.886 153.899 148.114 153.325 148.114Z" fill="#E6E6E6"/>
<path d="M113.764 35.6602H60.207C59.0604 35.6617 57.9613 36.1179 57.1505 36.9287C56.3398 37.7394 55.8836 38.8386 55.882 39.9851V143.738L56.391 143.583V39.9832C56.3923 38.9715 56.7948 38.0016 57.5101 37.2863C58.2255 36.5709 59.1953 36.1685 60.207 36.1671H113.921L113.764 35.6602ZM160.45 35.6602H60.207C59.0604 35.6617 57.9613 36.1179 57.1505 36.9287C56.3398 37.7394 55.8836 38.8386 55.882 39.9851V156.51C55.8836 157.657 56.3398 158.756 57.1505 159.567C57.9613 160.377 59.0604 160.834 60.207 160.835H160.449C161.596 160.834 162.695 160.377 163.505 159.567C164.316 158.756 164.772 157.657 164.774 156.51V39.9851C164.772 38.8386 164.316 37.7394 163.505 36.9287C162.695 36.1179 161.597 35.6617 160.45 35.6602ZM164.266 156.51C164.265 157.522 163.862 158.492 163.147 159.207C162.432 159.922 161.462 160.325 160.45 160.326H60.207C59.1953 160.325 58.2255 159.922 57.5101 159.207C56.7948 158.492 56.3923 157.522 56.391 156.51V39.9851C56.3923 38.9735 56.7948 38.0037 57.5101 37.2883C58.2255 36.5729 59.1953 36.1705 60.207 36.1692H160.449C161.461 36.1705 162.43 36.5729 163.146 37.2883C163.861 38.0037 164.264 38.9735 164.265 39.9851L164.266 156.51Z" fill="#3F3D56"/>
<path d="M133.735 46.8541H86.922C86.3148 46.8535 85.7327 46.6121 85.3033 46.1828C84.874 45.7534 84.6325 45.1713 84.632 44.5641V33.3701C84.6325 32.7629 84.874 32.1807 85.3033 31.7514C85.7327 31.322 86.3148 31.0806 86.922 31.0801H133.736C134.343 31.0806 134.925 31.322 135.355 31.7514C135.784 32.1807 136.025 32.7629 136.026 33.3701V44.5651C136.025 45.1722 135.784 45.7543 135.354 46.1835C134.924 46.6126 134.342 46.8538 133.735 46.8541Z" fill="#007EBE"/>
<path d="M110.328 31.842C113.138 31.842 115.416 29.564 115.416 26.754C115.416 23.944 113.138 21.666 110.328 21.666C107.518 21.666 105.24 23.944 105.24 26.754C105.24 29.564 107.518 31.842 110.328 31.842Z" fill="#007EBE"/>
<path d="M110.328 29.8523C112.04 29.8523 113.427 28.4648 113.427 26.7533C113.427 25.0418 112.04 23.6543 110.328 23.6543C108.616 23.6543 107.229 25.0418 107.229 26.7533C107.229 28.4648 108.616 29.8523 110.328 29.8523Z" fill="white"/>
</g>
</svg>
