<svg width="24" height="24" viewBox="0 0 24 24" fill="none" xmlns="http://www.w3.org/2000/svg">
<path d="M4.19666 19.0034C3.60131 19.0034 3.09413 18.7939 2.67513 18.3749C2.25613 17.9559 2.04663 17.4487 2.04663 16.8534V5.17188C2.04663 4.57653 2.25613 4.06935 2.67513 3.65035C3.09413 3.23135 3.60131 3.02185 4.19666 3.02185H19.8032C20.3985 3.02185 20.9057 3.23135 21.3247 3.65035C21.7437 4.06935 21.9532 4.57653 21.9532 5.17188V16.8534C21.9532 17.4487 21.7437 17.9559 21.3247 18.3749C20.9057 18.7939 20.3985 19.0034 19.8032 19.0034H15.9575V19.9034C15.9575 20.1976 15.8519 20.4503 15.6407 20.6616C15.4294 20.8728 15.1767 20.9784 14.8825 20.9784H9.11731C8.82309 20.9784 8.57037 20.8728 8.35916 20.6616C8.14792 20.4503 8.04231 20.1976 8.04231 19.9034V19.0034H4.19666ZM4.19666 16.8534H19.8032V5.17188H4.19666V16.8534Z" fill="#D68000"/>
<path d="M8.50591 14.3498C8.3162 14.3498 8.15484 14.2833 8.02181 14.1503C7.88878 14.0173 7.82227 13.8559 7.82227 13.6662V12.3079C7.82227 12.2367 7.84128 12.1757 7.87931 12.1248C7.91734 12.0739 7.9669 12.038 8.02799 12.017C8.24013 11.943 8.40731 11.8092 8.52954 11.6158C8.65177 11.4223 8.71289 11.2183 8.71289 11.0037C8.71289 10.7909 8.65227 10.5855 8.53104 10.3877C8.40981 10.1899 8.24271 10.0543 8.02974 9.98085C7.96688 9.96005 7.91659 9.92397 7.87886 9.87262C7.84113 9.82128 7.82227 9.76032 7.82227 9.68973V8.3308C7.82227 8.14041 7.88878 7.97846 8.02181 7.84493C8.15484 7.71141 8.3162 7.64465 8.50591 7.64465H15.4975C15.6879 7.64465 15.8499 7.71141 15.9834 7.84493C16.1169 7.97846 16.1837 8.14041 16.1837 8.3308V9.69026C16.1837 9.76063 16.1646 9.82154 16.1264 9.87298C16.0882 9.92442 16.0379 9.96056 15.9754 9.98139C15.7613 10.0539 15.5941 10.1893 15.4737 10.3878C15.3533 10.5862 15.2931 10.7923 15.2931 11.0059C15.2931 11.2196 15.3534 11.4228 15.4741 11.6154C15.5949 11.8081 15.762 11.9414 15.9754 12.0153C16.0371 12.0359 16.0873 12.0721 16.1258 12.1237C16.1644 12.1753 16.1837 12.2357 16.1837 12.3048V13.6662C16.1837 13.8559 16.1169 14.0173 15.9834 14.1503C15.8499 14.2833 15.6879 14.3498 15.4975 14.3498H8.50591ZM8.50591 13.6662H15.4975V12.5684C15.2336 12.3896 15.0192 12.1641 14.8543 11.8919C14.6894 11.6197 14.6069 11.3224 14.6069 11.0002C14.6069 10.6753 14.6894 10.3764 14.8543 10.1036C15.0192 9.83069 15.2336 9.60571 15.4975 9.42862V8.3308H8.50591V9.42862C8.7784 9.60571 8.99497 9.83038 9.1556 10.1027C9.31622 10.3749 9.39654 10.6738 9.39654 10.9992C9.39654 11.3234 9.31622 11.6213 9.1556 11.8929C8.99497 12.1644 8.7784 12.3896 8.50591 12.5684V13.6662ZM12.005 13.007C12.0894 13.007 12.1632 12.9755 12.2265 12.9126C12.2897 12.8498 12.3214 12.7761 12.3214 12.6917C12.3214 12.6074 12.2901 12.5335 12.2275 12.4703C12.165 12.407 12.0907 12.3754 12.0049 12.3754C11.9213 12.3754 11.8475 12.4067 11.7834 12.4692C11.7193 12.5318 11.6873 12.606 11.6873 12.6919C11.6873 12.7754 11.7192 12.8488 11.7829 12.9121C11.8466 12.9753 11.9206 13.007 12.005 13.007ZM12.005 11.3129C12.0894 11.3129 12.1632 11.2811 12.2265 11.2173C12.2897 11.1536 12.3214 11.0796 12.3214 10.9952C12.3214 10.9108 12.2901 10.837 12.2275 10.7737C12.165 10.7105 12.0907 10.6789 12.0049 10.6789C11.9213 10.6789 11.8475 10.7101 11.7834 10.7727C11.7193 10.8352 11.6873 10.9095 11.6873 10.9953C11.6873 11.0789 11.7192 11.1527 11.7829 11.2168C11.8466 11.2809 11.9206 11.3129 12.005 11.3129ZM12.005 9.61635C12.0894 9.61635 12.1632 9.58449 12.2265 9.52078C12.2897 9.45706 12.3214 9.38301 12.3214 9.29863C12.3214 9.21425 12.2901 9.14085 12.2275 9.07842C12.165 9.016 12.0907 8.98479 12.0049 8.98479C11.9213 8.98479 11.8475 9.01583 11.7834 9.0779C11.7193 9.13999 11.6873 9.21361 11.6873 9.29878C11.6873 9.38233 11.7192 9.45614 11.7829 9.52023C11.8466 9.58431 11.9206 9.61635 12.005 9.61635Z" fill="#D68000"/>
</svg>
