<svg width="145" height="56" viewBox="0 0 145 56" fill="none" xmlns="http://www.w3.org/2000/svg">
<path d="M0.66754 10.6806C0.66754 5.15056 5.15056 0.66754 10.6806 0.66754H134.319C139.849 0.66754 144.332 5.15056 144.332 10.6806V45.3194C144.332 50.8494 139.849 55.3325 134.319 55.3325H10.6807C5.15057 55.3325 0.66754 50.8494 0.66754 45.3194V10.6806Z" stroke="#6C4E33" stroke-width="1.33508"/>
<path d="M43.4465 38.0003C42.3398 39.6537 41.1665 41.267 39.3798 41.2937C37.5931 41.3337 37.0198 40.2403 34.9931 40.2403C32.9531 40.2403 32.3265 41.267 30.6331 41.3337C28.8865 41.4003 27.5665 39.5737 26.4465 37.9603C24.1665 34.667 22.4198 28.6003 24.7665 24.5203C25.9265 22.4937 28.0065 21.2137 30.2598 21.1737C31.9665 21.147 33.5931 22.3337 34.6465 22.3337C35.6865 22.3337 37.6598 20.907 39.7265 21.1203C40.5931 21.1603 43.0198 21.467 44.5798 23.7603C44.4598 23.8403 41.6865 25.467 41.7131 28.8403C41.7531 32.867 45.2465 34.2137 45.2865 34.227C45.2465 34.3203 44.7265 36.147 43.4465 38.0003ZM35.8331 16.667C36.8065 15.5603 38.4198 14.7203 39.7531 14.667C39.9265 16.227 39.2998 17.8003 38.3665 18.9203C37.4465 20.0537 35.9265 20.9337 34.4331 20.8137C34.2331 19.2803 34.9798 17.6803 35.8331 16.667Z" fill="#B5A478"/>
<path d="M61.0227 20.5H59.1392V14.6818H61.0824C61.6525 14.6818 62.142 14.7983 62.5511 15.0312C62.9602 15.2623 63.2737 15.5947 63.4915 16.0284C63.7112 16.4602 63.821 16.9782 63.821 17.5824C63.821 18.1884 63.7102 18.7093 63.4886 19.1449C63.2689 19.5805 62.9508 19.9157 62.5341 20.1506C62.1174 20.3835 61.6136 20.5 61.0227 20.5ZM60.017 19.733H60.9744C61.4176 19.733 61.786 19.6496 62.0795 19.483C62.3731 19.3144 62.5928 19.071 62.7386 18.7528C62.8845 18.4328 62.9574 18.0426 62.9574 17.5824C62.9574 17.1259 62.8845 16.7386 62.7386 16.4205C62.5947 16.1023 62.3797 15.8608 62.0938 15.696C61.8078 15.5312 61.4527 15.4489 61.0284 15.4489H60.017V19.733ZM66.6825 20.5881C66.2734 20.5881 65.9164 20.4943 65.6115 20.3068C65.3066 20.1193 65.0698 19.857 64.9013 19.5199C64.7327 19.1828 64.6484 18.7888 64.6484 18.3381C64.6484 17.8854 64.7327 17.4896 64.9013 17.1506C65.0698 16.8116 65.3066 16.5483 65.6115 16.3608C65.9164 16.1733 66.2734 16.0795 66.6825 16.0795C67.0916 16.0795 67.4486 16.1733 67.7536 16.3608C68.0585 16.5483 68.2952 16.8116 68.4638 17.1506C68.6323 17.4896 68.7166 17.8854 68.7166 18.3381C68.7166 18.7888 68.6323 19.1828 68.4638 19.5199C68.2952 19.857 68.0585 20.1193 67.7536 20.3068C67.4486 20.4943 67.0916 20.5881 66.6825 20.5881ZM66.6854 19.875C66.9505 19.875 67.1702 19.8049 67.3445 19.6648C67.5187 19.5246 67.6475 19.3381 67.7308 19.1051C67.8161 18.8722 67.8587 18.6155 67.8587 18.3352C67.8587 18.0568 67.8161 17.8011 67.7308 17.5682C67.6475 17.3333 67.5187 17.1449 67.3445 17.0028C67.1702 16.8608 66.9505 16.7898 66.6854 16.7898C66.4183 16.7898 66.1967 16.8608 66.0206 17.0028C65.8464 17.1449 65.7166 17.3333 65.6314 17.5682C65.5481 17.8011 65.5064 18.0568 65.5064 18.3352C65.5064 18.6155 65.5481 18.8722 65.6314 19.1051C65.7166 19.3381 65.8464 19.5246 66.0206 19.6648C66.1967 19.8049 66.4183 19.875 66.6854 19.875ZM70.478 20.5L69.1939 16.1364H70.0717L70.9268 19.3409H70.9695L71.8274 16.1364H72.7053L73.5575 19.3267H73.6001L74.4496 16.1364H75.3274L74.0462 20.5H73.1797L72.2933 17.3494H72.228L71.3416 20.5H70.478ZM76.983 17.9091V20.5H76.1335V16.1364H76.9489V16.8466H77.0028C77.1032 16.6155 77.2604 16.4299 77.4744 16.2898C77.6903 16.1496 77.9621 16.0795 78.2898 16.0795C78.5871 16.0795 78.8475 16.142 79.071 16.267C79.2945 16.3902 79.4678 16.5739 79.5909 16.8182C79.714 17.0625 79.7756 17.3646 79.7756 17.7244V20.5H78.9261V17.8267C78.9261 17.5104 78.8438 17.2633 78.679 17.0852C78.5142 16.9053 78.2879 16.8153 78 16.8153C77.803 16.8153 77.6278 16.858 77.4744 16.9432C77.3229 17.0284 77.2027 17.1534 77.1136 17.3182C77.0265 17.4811 76.983 17.678 76.983 17.9091ZM81.7642 14.6818V20.5H80.9148V14.6818H81.7642ZM84.745 20.5881C84.3359 20.5881 83.9789 20.4943 83.674 20.3068C83.3691 20.1193 83.1323 19.857 82.9638 19.5199C82.7952 19.1828 82.7109 18.7888 82.7109 18.3381C82.7109 17.8854 82.7952 17.4896 82.9638 17.1506C83.1323 16.8116 83.3691 16.5483 83.674 16.3608C83.9789 16.1733 84.3359 16.0795 84.745 16.0795C85.1541 16.0795 85.5111 16.1733 85.8161 16.3608C86.121 16.5483 86.3577 16.8116 86.5263 17.1506C86.6948 17.4896 86.7791 17.8854 86.7791 18.3381C86.7791 18.7888 86.6948 19.1828 86.5263 19.5199C86.3577 19.857 86.121 20.1193 85.8161 20.3068C85.5111 20.4943 85.1541 20.5881 84.745 20.5881ZM84.7479 19.875C85.013 19.875 85.2327 19.8049 85.407 19.6648C85.5812 19.5246 85.71 19.3381 85.7933 19.1051C85.8786 18.8722 85.9212 18.6155 85.9212 18.3352C85.9212 18.0568 85.8786 17.8011 85.7933 17.5682C85.71 17.3333 85.5812 17.1449 85.407 17.0028C85.2327 16.8608 85.013 16.7898 84.7479 16.7898C84.4808 16.7898 84.2592 16.8608 84.0831 17.0028C83.9089 17.1449 83.7791 17.3333 83.6939 17.5682C83.6106 17.8011 83.5689 18.0568 83.5689 18.3352C83.5689 18.6155 83.6106 18.8722 83.6939 19.1051C83.7791 19.3381 83.9089 19.5246 84.0831 19.6648C84.2592 19.8049 84.4808 19.875 84.7479 19.875ZM88.9972 20.5966C88.7206 20.5966 88.4706 20.5455 88.2472 20.4432C88.0237 20.339 87.8466 20.1884 87.7159 19.9915C87.5871 19.7945 87.5227 19.553 87.5227 19.267C87.5227 19.0208 87.5701 18.8182 87.6648 18.6591C87.7595 18.5 87.8873 18.3741 88.0483 18.2812C88.2093 18.1884 88.3892 18.1184 88.5881 18.071C88.7869 18.0237 88.9896 17.9877 89.196 17.9631C89.4574 17.9328 89.6695 17.9081 89.8324 17.8892C89.9953 17.8684 90.1136 17.8352 90.1875 17.7898C90.2614 17.7443 90.2983 17.6705 90.2983 17.5682V17.5483C90.2983 17.3002 90.2282 17.108 90.0881 16.9716C89.9498 16.8352 89.7434 16.767 89.4688 16.767C89.1828 16.767 88.9574 16.8305 88.7926 16.9574C88.6297 17.0824 88.517 17.2216 88.4545 17.375L87.6562 17.1932C87.7509 16.928 87.8892 16.714 88.071 16.5511C88.2547 16.3864 88.4659 16.267 88.7045 16.1932C88.9432 16.1174 89.1941 16.0795 89.4574 16.0795C89.6316 16.0795 89.8163 16.1004 90.0114 16.142C90.2083 16.1818 90.392 16.2557 90.5625 16.3636C90.7348 16.4716 90.8759 16.6259 90.9858 16.8267C91.0956 17.0256 91.1506 17.2841 91.1506 17.6023V20.5H90.321V19.9034H90.2869C90.232 20.0133 90.1496 20.1212 90.0398 20.2273C89.9299 20.3333 89.7888 20.4214 89.6165 20.4915C89.4441 20.5616 89.2377 20.5966 88.9972 20.5966ZM89.1818 19.9148C89.4167 19.9148 89.6174 19.8684 89.7841 19.7756C89.9527 19.6828 90.0805 19.5616 90.1676 19.4119C90.2566 19.2604 90.3011 19.0985 90.3011 18.9261V18.3636C90.2708 18.3939 90.2121 18.4223 90.125 18.4489C90.0398 18.4735 89.9422 18.4953 89.8324 18.5142C89.7225 18.5312 89.6155 18.5473 89.5114 18.5625C89.4072 18.5758 89.3201 18.5871 89.25 18.5966C89.0852 18.6174 88.9347 18.6525 88.7983 18.7017C88.6638 18.7509 88.5559 18.822 88.4744 18.9148C88.3949 19.0057 88.3551 19.1269 88.3551 19.2784C88.3551 19.4886 88.4328 19.6477 88.5881 19.7557C88.7434 19.8617 88.9413 19.9148 89.1818 19.9148ZM93.9155 20.5852C93.5632 20.5852 93.2488 20.4953 92.9723 20.3153C92.6977 20.1335 92.4818 19.875 92.3246 19.5398C92.1693 19.2027 92.0916 18.7983 92.0916 18.3267C92.0916 17.8551 92.1702 17.4517 92.3274 17.1165C92.4865 16.7812 92.7043 16.5246 92.9808 16.3466C93.2573 16.1686 93.5708 16.0795 93.9212 16.0795C94.192 16.0795 94.4098 16.125 94.5746 16.2159C94.7412 16.3049 94.87 16.4091 94.9609 16.5284C95.0537 16.6477 95.1257 16.7528 95.1768 16.8438H95.228V14.6818H96.0774V20.5H95.2479V19.821H95.1768C95.1257 19.9138 95.0518 20.0199 94.9553 20.1392C94.8606 20.2585 94.7299 20.3627 94.5632 20.4517C94.3965 20.5407 94.1806 20.5852 93.9155 20.5852ZM94.103 19.8608C94.3473 19.8608 94.5537 19.7964 94.7223 19.6676C94.8928 19.5369 95.0215 19.3561 95.1087 19.125C95.1977 18.8939 95.2422 18.625 95.2422 18.3182C95.2422 18.0152 95.1986 17.75 95.1115 17.5227C95.0244 17.2955 94.8965 17.1184 94.728 16.9915C94.5594 16.8646 94.3511 16.8011 94.103 16.8011C93.8473 16.8011 93.6342 16.8674 93.4638 17C93.2933 17.1326 93.1645 17.3134 93.0774 17.5426C92.9922 17.7718 92.9496 18.0303 92.9496 18.3182C92.9496 18.6098 92.9931 18.8722 93.0803 19.1051C93.1674 19.3381 93.2962 19.5227 93.4666 19.6591C93.639 19.7936 93.8511 19.8608 94.103 19.8608ZM101.245 20.5881C100.836 20.5881 100.479 20.4943 100.174 20.3068C99.8691 20.1193 99.6323 19.857 99.4638 19.5199C99.2952 19.1828 99.2109 18.7888 99.2109 18.3381C99.2109 17.8854 99.2952 17.4896 99.4638 17.1506C99.6323 16.8116 99.8691 16.5483 100.174 16.3608C100.479 16.1733 100.836 16.0795 101.245 16.0795C101.654 16.0795 102.011 16.1733 102.316 16.3608C102.621 16.5483 102.858 16.8116 103.026 17.1506C103.195 17.4896 103.279 17.8854 103.279 18.3381C103.279 18.7888 103.195 19.1828 103.026 19.5199C102.858 19.857 102.621 20.1193 102.316 20.3068C102.011 20.4943 101.654 20.5881 101.245 20.5881ZM101.248 19.875C101.513 19.875 101.733 19.8049 101.907 19.6648C102.081 19.5246 102.21 19.3381 102.293 19.1051C102.379 18.8722 102.421 18.6155 102.421 18.3352C102.421 18.0568 102.379 17.8011 102.293 17.5682C102.21 17.3333 102.081 17.1449 101.907 17.0028C101.733 16.8608 101.513 16.7898 101.248 16.7898C100.981 16.7898 100.759 16.8608 100.583 17.0028C100.409 17.1449 100.279 17.3333 100.194 17.5682C100.111 17.8011 100.069 18.0568 100.069 18.3352C100.069 18.6155 100.111 18.8722 100.194 19.1051C100.279 19.3381 100.409 19.5246 100.583 19.6648C100.759 19.8049 100.981 19.875 101.248 19.875ZM105.077 17.9091V20.5H104.227V16.1364H105.043V16.8466H105.097C105.197 16.6155 105.354 16.4299 105.568 16.2898C105.784 16.1496 106.056 16.0795 106.384 16.0795C106.681 16.0795 106.941 16.142 107.165 16.267C107.388 16.3902 107.562 16.5739 107.685 16.8182C107.808 17.0625 107.869 17.3646 107.869 17.7244V20.5H107.02V17.8267C107.02 17.5104 106.938 17.2633 106.773 17.0852C106.608 16.9053 106.382 16.8153 106.094 16.8153C105.897 16.8153 105.722 16.858 105.568 16.9432C105.417 17.0284 105.296 17.1534 105.207 17.3182C105.12 17.4811 105.077 17.678 105.077 17.9091ZM113.163 16.1364V16.8182H110.779V16.1364H113.163ZM111.418 15.0909H112.268V19.2188C112.268 19.3835 112.292 19.5076 112.342 19.5909C112.391 19.6723 112.454 19.7282 112.532 19.7585C112.612 19.7869 112.698 19.8011 112.79 19.8011C112.859 19.8011 112.918 19.7964 112.969 19.7869C113.021 19.7775 113.06 19.7699 113.089 19.7642L113.242 20.4659C113.193 20.4848 113.123 20.5038 113.032 20.5227C112.941 20.5436 112.827 20.5549 112.691 20.5568C112.468 20.5606 112.259 20.5208 112.066 20.4375C111.873 20.3542 111.717 20.2254 111.597 20.0511C111.478 19.8769 111.418 19.6581 111.418 19.3949V15.0909ZM115.045 17.9091V20.5H114.196V14.6818H115.034V16.8466H115.088C115.19 16.6117 115.347 16.4252 115.557 16.2869C115.767 16.1487 116.042 16.0795 116.381 16.0795C116.68 16.0795 116.941 16.1411 117.165 16.2642C117.39 16.3873 117.564 16.571 117.688 16.8153C117.812 17.0578 117.875 17.3608 117.875 17.7244V20.5H117.026V17.8267C117.026 17.5066 116.943 17.2585 116.778 17.0824C116.614 16.9044 116.384 16.8153 116.091 16.8153C115.89 16.8153 115.71 16.858 115.551 16.9432C115.394 17.0284 115.27 17.1534 115.179 17.3182C115.09 17.4811 115.045 17.678 115.045 17.9091ZM120.889 20.5881C120.459 20.5881 120.089 20.4962 119.778 20.3125C119.47 20.1269 119.231 19.8665 119.062 19.5312C118.896 19.1941 118.812 18.7992 118.812 18.3466C118.812 17.8996 118.896 17.5057 119.062 17.1648C119.231 16.8239 119.466 16.5578 119.767 16.3665C120.07 16.1752 120.424 16.0795 120.83 16.0795C121.076 16.0795 121.314 16.1203 121.545 16.2017C121.777 16.2831 121.984 16.411 122.168 16.5852C122.351 16.7595 122.496 16.9858 122.602 17.2642C122.708 17.5407 122.761 17.8769 122.761 18.2727V18.5739H119.293V17.9375H121.929C121.929 17.714 121.884 17.5161 121.793 17.3438C121.702 17.1695 121.574 17.0322 121.409 16.9318C121.246 16.8314 121.055 16.7812 120.835 16.7812C120.597 16.7812 120.388 16.84 120.21 16.9574C120.034 17.0729 119.898 17.2244 119.801 17.4119C119.706 17.5975 119.659 17.7992 119.659 18.017V18.5142C119.659 18.8059 119.71 19.054 119.812 19.2585C119.917 19.4631 120.062 19.6193 120.247 19.7273C120.433 19.8333 120.65 19.8864 120.898 19.8864C121.059 19.8864 121.205 19.8636 121.338 19.8182C121.471 19.7708 121.585 19.7008 121.682 19.608C121.778 19.5152 121.852 19.4006 121.903 19.2642L122.707 19.4091C122.643 19.6458 122.527 19.8532 122.361 20.0312C122.196 20.2074 121.989 20.3447 121.739 20.4432C121.491 20.5398 121.207 20.5881 120.889 20.5881Z" fill="#B5A478"/>
<path d="M60.8118 40.5H58.843L62.4276 30.3182H64.7045L68.294 40.5H66.3253L63.6058 32.4062H63.5263L60.8118 40.5ZM60.8764 36.5078H66.2457V37.9893H60.8764V36.5078ZM69.5556 43.3636V32.8636H71.3255V34.1264H71.4299C71.5227 33.9408 71.6536 33.7436 71.8226 33.5348C71.9917 33.3227 72.2203 33.142 72.5087 32.9929C72.7971 32.8404 73.165 32.7642 73.6124 32.7642C74.2024 32.7642 74.7343 32.915 75.2083 33.2166C75.6855 33.5149 76.0634 33.9574 76.3418 34.544C76.6235 35.1274 76.7644 35.8433 76.7644 36.6918C76.7644 37.5303 76.6268 38.2429 76.3517 38.8295C76.0766 39.4162 75.7021 39.8636 75.2282 40.1719C74.7542 40.4801 74.2173 40.6342 73.6174 40.6342C73.1799 40.6342 72.8169 40.5613 72.5286 40.4155C72.2402 40.2696 72.0082 40.094 71.8326 39.8885C71.6602 39.6797 71.526 39.4825 71.4299 39.2969H71.3553V43.3636H69.5556ZM71.3205 36.6818C71.3205 37.1757 71.3901 37.6082 71.5293 37.9794C71.6718 38.3506 71.8757 38.6406 72.1408 38.8494C72.4093 39.0549 72.7341 39.1577 73.1152 39.1577C73.513 39.1577 73.8461 39.0516 74.1145 38.8395C74.383 38.6241 74.5852 38.3307 74.7211 37.9595C74.8603 37.585 74.9299 37.1591 74.9299 36.6818C74.9299 36.2079 74.8619 35.7869 74.726 35.419C74.5901 35.0511 74.388 34.7628 74.1195 34.554C73.851 34.3452 73.5163 34.2408 73.1152 34.2408C72.7308 34.2408 72.4043 34.3419 72.1358 34.544C71.8674 34.7462 71.6635 35.0296 71.5243 35.3942C71.3884 35.7588 71.3205 36.188 71.3205 36.6818ZM78.3056 43.3636V32.8636H80.0755V34.1264H80.1799C80.2727 33.9408 80.4036 33.7436 80.5726 33.5348C80.7417 33.3227 80.9703 33.142 81.2587 32.9929C81.5471 32.8404 81.915 32.7642 82.3624 32.7642C82.9524 32.7642 83.4843 32.915 83.9583 33.2166C84.4355 33.5149 84.8134 33.9574 85.0918 34.544C85.3735 35.1274 85.5144 35.8433 85.5144 36.6918C85.5144 37.5303 85.3768 38.2429 85.1017 38.8295C84.8266 39.4162 84.4521 39.8636 83.9782 40.1719C83.5042 40.4801 82.9673 40.6342 82.3674 40.6342C81.9299 40.6342 81.5669 40.5613 81.2786 40.4155C80.9902 40.2696 80.7582 40.094 80.5826 39.8885C80.4102 39.6797 80.276 39.4825 80.1799 39.2969H80.1053V43.3636H78.3056ZM80.0705 36.6818C80.0705 37.1757 80.1401 37.6082 80.2793 37.9794C80.4218 38.3506 80.6257 38.6406 80.8908 38.8494C81.1593 39.0549 81.4841 39.1577 81.8652 39.1577C82.263 39.1577 82.5961 39.0516 82.8645 38.8395C83.133 38.6241 83.3352 38.3307 83.4711 37.9595C83.6103 37.585 83.6799 37.1591 83.6799 36.6818C83.6799 36.2079 83.6119 35.7869 83.476 35.419C83.3401 35.0511 83.138 34.7628 82.8695 34.554C82.601 34.3452 82.2663 34.2408 81.8652 34.2408C81.4808 34.2408 81.1543 34.3419 80.8858 34.544C80.6174 34.7462 80.4135 35.0296 80.2743 35.3942C80.1384 35.7588 80.0705 36.188 80.0705 36.6818ZM96.1412 33.1172C96.0948 32.683 95.8992 32.3449 95.5545 32.103C95.2131 31.861 94.769 31.7401 94.2221 31.7401C93.8377 31.7401 93.5079 31.7981 93.2328 31.9141C92.9577 32.0301 92.7472 32.1875 92.6014 32.3864C92.4556 32.5852 92.381 32.8123 92.3777 33.0675C92.3777 33.2796 92.4257 33.4635 92.5218 33.6193C92.6213 33.7751 92.7555 33.9077 92.9245 34.017C93.0936 34.1231 93.2808 34.2126 93.4863 34.2855C93.6918 34.3584 93.899 34.4197 94.1078 34.4695L95.0623 34.7081C95.4468 34.7976 95.8163 34.9186 96.171 35.071C96.5289 35.2235 96.8488 35.4157 97.1305 35.6477C97.4155 35.8797 97.6409 36.1598 97.8066 36.4879C97.9724 36.8161 98.0552 37.2005 98.0552 37.6413C98.0552 38.2379 97.9028 38.7633 97.5978 39.2173C97.2929 39.6681 96.8521 40.0211 96.2754 40.2763C95.702 40.5282 95.0076 40.6541 94.1923 40.6541C93.4002 40.6541 92.7124 40.5315 92.1291 40.2862C91.5491 40.041 91.095 39.683 90.7669 39.2124C90.4421 38.7417 90.2664 38.1683 90.2399 37.4922H92.0545C92.081 37.8468 92.1904 38.1418 92.3826 38.3771C92.5749 38.6125 92.8251 38.7881 93.1333 38.9041C93.4449 39.0201 93.7929 39.0781 94.1774 39.0781C94.5784 39.0781 94.9297 39.0185 95.2314 38.8991C95.5363 38.7765 95.7749 38.6075 95.9473 38.392C96.1196 38.1733 96.2074 37.9181 96.2108 37.6264C96.2074 37.3613 96.1296 37.1425 95.9771 36.9702C95.8246 36.7945 95.6109 36.6487 95.3358 36.5327C95.064 36.4134 94.7458 36.3073 94.3812 36.2145L93.2228 35.9162C92.3843 35.7008 91.7214 35.3743 91.2342 34.9368C90.7503 34.496 90.5083 33.911 90.5083 33.1818C90.5083 32.5819 90.6708 32.0566 90.9956 31.6058C91.3237 31.1551 91.7695 30.8054 92.3329 30.5568C92.8964 30.3049 93.5344 30.179 94.247 30.179C94.9695 30.179 95.6026 30.3049 96.1461 30.5568C96.693 30.8054 97.1222 31.1518 97.4338 31.5959C97.7453 32.0367 97.9061 32.5438 97.916 33.1172H96.1412ZM103.433 32.8636V34.2557H99.0433V32.8636H103.433ZM100.127 31.0341H101.927V38.2031C101.927 38.4451 101.963 38.6307 102.036 38.7599C102.112 38.8859 102.212 38.9721 102.335 39.0185C102.457 39.0649 102.593 39.0881 102.742 39.0881C102.855 39.0881 102.958 39.0798 103.05 39.0632C103.147 39.0466 103.219 39.0317 103.269 39.0185L103.572 40.4254C103.476 40.4586 103.339 40.495 103.16 40.5348C102.984 40.5746 102.769 40.5978 102.513 40.6044C102.063 40.6177 101.657 40.5497 101.295 40.4006C100.934 40.2481 100.647 40.0128 100.435 39.6946C100.227 39.3764 100.124 38.9787 100.127 38.5014V31.0341ZM108.187 40.6491C107.442 40.6491 106.795 40.4851 106.248 40.157C105.702 39.8288 105.277 39.3698 104.976 38.7798C104.677 38.1899 104.528 37.5005 104.528 36.7116C104.528 35.9228 104.677 35.2318 104.976 34.6385C105.277 34.0452 105.702 33.5845 106.248 33.2564C106.795 32.9283 107.442 32.7642 108.187 32.7642C108.933 32.7642 109.579 32.9283 110.126 33.2564C110.673 33.5845 111.096 34.0452 111.394 34.6385C111.696 35.2318 111.846 35.9228 111.846 36.7116C111.846 37.5005 111.696 38.1899 111.394 38.7798C111.096 39.3698 110.673 39.8288 110.126 40.157C109.579 40.4851 108.933 40.6491 108.187 40.6491ZM108.197 39.2074C108.602 39.2074 108.94 39.0964 109.211 38.8743C109.483 38.6489 109.685 38.3473 109.818 37.9695C109.954 37.5916 110.022 37.1707 110.022 36.7067C110.022 36.2393 109.954 35.8168 109.818 35.4389C109.685 35.0578 109.483 34.7545 109.211 34.5291C108.94 34.3037 108.602 34.1911 108.197 34.1911C107.783 34.1911 107.438 34.3037 107.163 34.5291C106.891 34.7545 106.688 35.0578 106.552 35.4389C106.419 35.8168 106.353 36.2393 106.353 36.7067C106.353 37.1707 106.419 37.5916 106.552 37.9695C106.688 38.3473 106.891 38.6489 107.163 38.8743C107.438 39.0964 107.783 39.2074 108.197 39.2074ZM113.374 40.5V32.8636H115.119V34.1364H115.199C115.338 33.6955 115.576 33.3558 115.914 33.1172C116.256 32.8752 116.645 32.7543 117.083 32.7543C117.182 32.7543 117.293 32.7592 117.416 32.7692C117.542 32.7758 117.646 32.7874 117.729 32.804V34.4595C117.653 34.433 117.532 34.4098 117.366 34.3899C117.204 34.3667 117.046 34.3551 116.894 34.3551C116.566 34.3551 116.271 34.4264 116.009 34.5689C115.75 34.7081 115.547 34.902 115.397 35.1506C115.248 35.3991 115.174 35.6858 115.174 36.0107V40.5H113.374ZM121.991 40.6491C121.225 40.6491 120.564 40.4901 120.007 40.1719C119.454 39.8504 119.028 39.3963 118.73 38.8097C118.431 38.2197 118.282 37.5253 118.282 36.7266C118.282 35.9411 118.431 35.2517 118.73 34.6584C119.031 34.0618 119.452 33.5978 119.992 33.2663C120.533 32.9316 121.167 32.7642 121.896 32.7642C122.367 32.7642 122.811 32.8404 123.229 32.9929C123.65 33.142 124.021 33.3741 124.343 33.6889C124.667 34.0038 124.923 34.4048 125.108 34.892C125.294 35.3759 125.387 35.9527 125.387 36.6222V37.174H119.127V35.9609H123.661C123.658 35.6162 123.584 35.3097 123.438 35.0412C123.292 34.7694 123.088 34.5556 122.826 34.3999C122.568 34.2441 122.266 34.1662 121.921 34.1662C121.553 34.1662 121.23 34.2557 120.952 34.4347C120.673 34.6103 120.456 34.8423 120.301 35.1307C120.148 35.4157 120.07 35.7289 120.067 36.0703V37.1293C120.067 37.5734 120.148 37.9545 120.311 38.2727C120.473 38.5876 120.7 38.8295 120.992 38.9986C121.283 39.1643 121.625 39.2472 122.016 39.2472C122.278 39.2472 122.515 39.2107 122.727 39.1378C122.939 39.0616 123.123 38.9505 123.279 38.8047C123.434 38.6589 123.552 38.4782 123.632 38.2628L125.312 38.4517C125.206 38.8958 125.004 39.2836 124.705 39.6151C124.41 39.9432 124.033 40.1984 123.572 40.3807C123.111 40.5597 122.584 40.6491 121.991 40.6491Z" fill="#B5A478"/>
</svg>
