<svg width="210" height="66" viewBox="0 0 210 66" fill="none" xmlns="http://www.w3.org/2000/svg">
<rect x="0.748879" y="0.748879" width="208.503" height="64.5022" rx="9.23617" stroke="#6C4E33" stroke-width="1.49776"/>
<path d="M58.4575 45.4816C57.0762 47.5451 55.6118 49.5588 53.3818 49.592C51.1518 49.642 50.4362 48.2774 47.9067 48.2774C45.3605 48.2774 44.5783 49.5588 42.4648 49.642C40.2848 49.7252 38.6373 47.4453 37.2394 45.4316C34.3936 41.3211 32.2136 33.7492 35.1425 28.6568C36.5903 26.1273 39.1864 24.5297 41.9989 24.4798C44.129 24.4465 46.1593 25.9276 47.474 25.9276C48.772 25.9276 51.235 24.1469 53.8145 24.4132C54.8962 24.4631 57.925 24.8459 59.872 27.7083C59.7223 27.8081 56.2608 29.8384 56.2941 34.0487C56.344 39.0745 60.7041 40.7553 60.754 40.772C60.7041 40.8885 60.0551 43.1684 58.4575 45.4816ZM48.9551 18.8549C50.1699 17.4736 52.1836 16.4252 53.8477 16.3586C54.0641 18.3057 53.2819 20.2694 52.117 21.6673C50.9687 23.0819 49.0716 24.1802 47.2077 24.0305C46.9581 22.1167 47.89 20.1197 48.9551 18.8549Z" fill="#B5A478"/>
<path d="M78.5579 27.5336H75.2617V17.3518H78.6623C79.6599 17.3518 80.5167 17.5556 81.2326 17.9633C81.9485 18.3677 82.497 18.9493 82.8782 19.7083C83.2627 20.464 83.4549 21.3705 83.4549 22.4278C83.4549 23.4884 83.261 24.3999 82.8732 25.1622C82.4888 25.9245 81.9319 26.5111 81.2028 26.9221C80.4736 27.3298 79.592 27.5336 78.5579 27.5336ZM76.7979 26.1913H78.4734C79.2489 26.1913 79.8936 26.0455 80.4073 25.7538C80.921 25.4588 81.3055 25.0329 81.5607 24.4761C81.8159 23.916 81.9435 23.2332 81.9435 22.4278C81.9435 21.629 81.8159 20.9512 81.5607 20.3944C81.3088 19.8376 80.9326 19.415 80.4322 19.1267C79.9317 18.8383 79.3103 18.6941 78.5678 18.6941H76.7979V26.1913Z" fill="#B5A478"/>
<path d="M88.1825 27.6877C87.4666 27.6877 86.8419 27.5237 86.3082 27.1956C85.7746 26.8674 85.3603 26.4084 85.0653 25.8184C84.7704 25.2285 84.6229 24.5391 84.6229 23.7502C84.6229 22.9581 84.7704 22.2654 85.0653 21.6721C85.3603 21.0788 85.7746 20.6181 86.3082 20.29C86.8419 19.9619 87.4666 19.7978 88.1825 19.7978C88.8984 19.7978 89.5232 19.9619 90.0568 20.29C90.5904 20.6181 91.0047 21.0788 91.2997 21.6721C91.5947 22.2654 91.7422 22.9581 91.7422 23.7502C91.7422 24.5391 91.5947 25.2285 91.2997 25.8184C91.0047 26.4084 90.5904 26.8674 90.0568 27.1956C89.5232 27.5237 88.8984 27.6877 88.1825 27.6877ZM88.1875 26.4399C88.6515 26.4399 89.036 26.3172 89.3409 26.072C89.6458 25.8267 89.8712 25.5002 90.0171 25.0926C90.1662 24.6849 90.2408 24.2358 90.2408 23.7453C90.2408 23.2581 90.1662 22.8106 90.0171 22.4029C89.8712 21.992 89.6458 21.6622 89.3409 21.4136C89.036 21.165 88.6515 21.0407 88.1875 21.0407C87.7202 21.0407 87.3324 21.165 87.0242 21.4136C86.7192 21.6622 86.4922 21.992 86.343 22.4029C86.1972 22.8106 86.1243 23.2581 86.1243 23.7453C86.1243 24.2358 86.1972 24.6849 86.343 25.0926C86.4922 25.5002 86.7192 25.8267 87.0242 26.072C87.3324 26.3172 87.7202 26.4399 88.1875 26.4399Z" fill="#B5A478"/>
<path d="M94.5446 27.5336L92.2974 19.8973H93.8336L95.3301 25.5052H95.4047L96.9061 19.8973H98.4423L99.9338 25.4804H100.008L101.495 19.8973H103.031L100.789 27.5336H99.2726L97.7214 22.0201H97.6071L96.0559 27.5336H94.5446Z" fill="#B5A478"/>
<path d="M105.648 22.9995V27.5336H104.162V19.8973H105.589V21.1402H105.683C105.859 20.7358 106.134 20.411 106.508 20.1657C106.886 19.9205 107.362 19.7978 107.935 19.7978C108.456 19.7978 108.911 19.9072 109.302 20.126C109.693 20.3414 109.997 20.6629 110.212 21.0904C110.428 21.518 110.535 22.0466 110.535 22.6764V27.5336H109.049V22.8554C109.049 22.3019 108.905 21.8693 108.616 21.5578C108.328 21.2429 107.932 21.0855 107.428 21.0855C107.083 21.0855 106.777 21.16 106.508 21.3092C106.243 21.4583 106.033 21.6771 105.877 21.9654C105.725 22.2505 105.648 22.5952 105.648 22.9995Z" fill="#B5A478"/>
<path d="M113.735 17.3518V27.5336H112.249V17.3518H113.735Z" fill="#B5A478"/>
<path d="M118.672 27.6877C117.956 27.6877 117.331 27.5237 116.798 27.1956C116.264 26.8674 115.85 26.4084 115.555 25.8184C115.26 25.2285 115.112 24.5391 115.112 23.7502C115.112 22.9581 115.26 22.2654 115.555 21.6721C115.85 21.0788 116.264 20.6181 116.798 20.29C117.331 19.9619 117.956 19.7978 118.672 19.7978C119.388 19.7978 120.013 19.9619 120.546 20.29C121.08 20.6181 121.494 21.0788 121.789 21.6721C122.084 22.2654 122.232 22.9581 122.232 23.7502C122.232 24.5391 122.084 25.2285 121.789 25.8184C121.494 26.4084 121.08 26.8674 120.546 27.1956C120.013 27.5237 119.388 27.6877 118.672 27.6877ZM118.677 26.4399C119.141 26.4399 119.525 26.3172 119.83 26.072C120.135 25.8267 120.361 25.5002 120.506 25.0926C120.656 24.6849 120.73 24.2358 120.73 23.7453C120.73 23.2581 120.656 22.8106 120.506 22.4029C120.361 21.992 120.135 21.6622 119.83 21.4136C119.525 21.165 119.141 21.0407 118.677 21.0407C118.21 21.0407 117.822 21.165 117.514 21.4136C117.209 21.6622 116.982 21.992 116.832 22.4029C116.687 22.8106 116.614 23.2581 116.614 23.7453C116.614 24.2358 116.687 24.6849 116.832 25.0926C116.982 25.5002 117.209 25.8267 117.514 26.072C117.822 26.3172 118.21 26.4399 118.677 26.4399Z" fill="#B5A478"/>
<path d="M125.833 27.7027C125.349 27.7027 124.912 27.6132 124.521 27.4342C124.13 27.2519 123.82 26.9884 123.591 26.6437C123.366 26.299 123.253 25.8764 123.253 25.376C123.253 24.9451 123.336 24.5904 123.501 24.312C123.667 24.0336 123.891 23.8132 124.173 23.6508C124.454 23.4884 124.769 23.3658 125.117 23.2829C125.465 23.2001 125.82 23.1371 126.181 23.094C126.639 23.041 127.01 22.9979 127.295 22.9647C127.58 22.9283 127.787 22.8703 127.916 22.7907C128.045 22.7112 128.11 22.5819 128.11 22.4029V22.3681C128.11 21.934 127.987 21.5975 127.742 21.3589C127.5 21.1203 127.139 21.001 126.658 21.001C126.158 21.001 125.764 21.112 125.475 21.3341C125.19 21.5528 124.993 21.7964 124.884 22.0649L123.487 21.7467C123.652 21.2827 123.894 20.9082 124.212 20.6231C124.534 20.3348 124.903 20.126 125.321 19.9967C125.739 19.8641 126.178 19.7978 126.639 19.7978C126.943 19.7978 127.267 19.8343 127.608 19.9072C127.953 19.9768 128.274 20.1061 128.572 20.295C128.874 20.4839 129.121 20.754 129.313 21.1054C129.505 21.4534 129.602 21.9058 129.602 22.4626V27.5336H128.15V26.4896H128.09C127.994 26.6818 127.85 26.8707 127.658 27.0564C127.465 27.242 127.219 27.3961 126.917 27.5187C126.615 27.6413 126.254 27.7027 125.833 27.7027ZM126.156 26.5095C126.567 26.5095 126.919 26.4283 127.21 26.2659C127.505 26.1035 127.729 25.8913 127.881 25.6295C128.037 25.3644 128.115 25.081 128.115 24.7794V23.795C128.062 23.848 127.959 23.8977 127.807 23.9441C127.658 23.9872 127.487 24.0253 127.295 24.0585C127.103 24.0883 126.915 24.1165 126.733 24.143C126.551 24.1662 126.398 24.1861 126.276 24.2027C125.987 24.2391 125.724 24.3004 125.485 24.3866C125.25 24.4728 125.061 24.5971 124.918 24.7595C124.779 24.9186 124.71 25.1307 124.71 25.3958C124.71 25.7637 124.845 26.0421 125.117 26.2311C125.389 26.4167 125.735 26.5095 126.156 26.5095Z" fill="#B5A478"/>
<path d="M134.16 27.6828C133.544 27.6828 132.994 27.5253 132.51 27.2105C132.029 26.8923 131.651 26.4399 131.376 25.8532C131.104 25.2633 130.968 24.5556 130.968 23.7304C130.968 22.9051 131.106 22.1991 131.381 21.6125C131.659 21.0258 132.041 20.5767 132.525 20.2652C133.008 19.9536 133.557 19.7978 134.17 19.7978C134.644 19.7978 135.025 19.8774 135.314 20.0365C135.605 20.1922 135.831 20.3745 135.99 20.5833C136.152 20.7921 136.278 20.9761 136.368 21.1352H136.457V17.3518H137.944V27.5336H136.492V26.3454H136.368C136.278 26.5078 136.149 26.6934 135.98 26.9022C135.814 27.111 135.585 27.2933 135.294 27.4491C135.002 27.6049 134.624 27.6828 134.16 27.6828ZM134.488 26.415C134.916 26.415 135.277 26.3023 135.572 26.0769C135.87 25.8483 136.096 25.5317 136.248 25.1274C136.404 24.723 136.482 24.2524 136.482 23.7154C136.482 23.1851 136.406 22.7211 136.253 22.3234C136.101 21.9257 135.877 21.6158 135.582 21.3937C135.287 21.1716 134.923 21.0606 134.488 21.0606C134.041 21.0606 133.668 21.1766 133.37 21.4086C133.071 21.6406 132.846 21.9572 132.694 22.3582C132.544 22.7592 132.47 23.2117 132.47 23.7154C132.47 24.2259 132.546 24.6849 132.699 25.0926C132.851 25.5002 133.076 25.8234 133.375 26.062C133.676 26.2974 134.048 26.415 134.488 26.415Z" fill="#B5A478"/>
<path d="M146.427 27.6877C145.711 27.6877 145.086 27.5237 144.553 27.1956C144.019 26.8674 143.605 26.4084 143.31 25.8184C143.015 25.2285 142.867 24.5391 142.867 23.7502C142.867 22.9581 143.015 22.2654 143.31 21.6721C143.605 21.0788 144.019 20.6181 144.553 20.29C145.086 19.9619 145.711 19.7978 146.427 19.7978C147.143 19.7978 147.768 19.9619 148.301 20.29C148.835 20.6181 149.249 21.0788 149.544 21.6721C149.839 22.2654 149.987 22.9581 149.987 23.7502C149.987 24.5391 149.839 25.2285 149.544 25.8184C149.249 26.4084 148.835 26.8674 148.301 27.1956C147.768 27.5237 147.143 27.6877 146.427 27.6877ZM146.432 26.4399C146.896 26.4399 147.28 26.3172 147.585 26.072C147.89 25.8267 148.116 25.5002 148.261 25.0926C148.411 24.6849 148.485 24.2358 148.485 23.7453C148.485 23.2581 148.411 22.8106 148.261 22.4029C148.116 21.992 147.89 21.6622 147.585 21.4136C147.28 21.165 146.896 21.0407 146.432 21.0407C145.965 21.0407 145.577 21.165 145.269 21.4136C144.964 21.6622 144.737 21.992 144.587 22.4029C144.442 22.8106 144.369 23.2581 144.369 23.7453C144.369 24.2358 144.442 24.6849 144.587 25.0926C144.737 25.5002 144.964 25.8267 145.269 26.072C145.577 26.3172 145.965 26.4399 146.432 26.4399Z" fill="#B5A478"/>
<path d="M152.852 22.9995V27.5336H151.366V19.8973H152.793V21.1402H152.887C153.063 20.7358 153.338 20.411 153.712 20.1657C154.09 19.9205 154.566 19.7978 155.139 19.7978C155.66 19.7978 156.115 19.9072 156.506 20.126C156.898 20.3414 157.201 20.6629 157.416 21.0904C157.632 21.518 157.739 22.0466 157.739 22.6764V27.5336H156.253V22.8554C156.253 22.3019 156.109 21.8693 155.82 21.5578C155.532 21.2429 155.136 21.0855 154.632 21.0855C154.287 21.0855 153.981 21.16 153.712 21.3092C153.447 21.4583 153.237 21.6771 153.081 21.9654C152.929 22.2505 152.852 22.5952 152.852 22.9995Z" fill="#B5A478"/>
<path d="M166.443 19.8973V21.0904H162.272V19.8973H166.443ZM163.39 18.0677H164.877V25.2914C164.877 25.5798 164.92 25.7969 165.006 25.9427C165.092 26.0852 165.203 26.183 165.339 26.236C165.478 26.2858 165.629 26.3106 165.791 26.3106C165.911 26.3106 166.015 26.3023 166.105 26.2858C166.194 26.2692 166.264 26.2559 166.313 26.246L166.582 27.474C166.496 27.5071 166.373 27.5403 166.214 27.5734C166.055 27.6099 165.856 27.6297 165.617 27.6331C165.226 27.6397 164.862 27.5701 164.524 27.4242C164.186 27.2784 163.912 27.053 163.703 26.7481C163.495 26.4432 163.39 26.0604 163.39 25.5997V18.0677Z" fill="#B5A478"/>
<path d="M169.458 22.9995V27.5336H167.971V17.3518H169.438V21.1402H169.532C169.711 20.7292 169.985 20.4027 170.353 20.1608C170.72 19.9188 171.201 19.7978 171.794 19.7978C172.318 19.7978 172.775 19.9055 173.166 20.121C173.561 20.3364 173.866 20.6579 174.081 21.0855C174.3 21.5097 174.409 22.04 174.409 22.6764V27.5336H172.923V22.8554C172.923 22.2952 172.779 21.861 172.49 21.5528C172.202 21.2412 171.801 21.0855 171.287 21.0855C170.936 21.0855 170.621 21.16 170.343 21.3092C170.068 21.4583 169.85 21.6771 169.691 21.9654C169.536 22.2505 169.458 22.5952 169.458 22.9995Z" fill="#B5A478"/>
<path d="M179.404 27.6877C178.652 27.6877 178.004 27.527 177.46 27.2055C176.92 26.8807 176.502 26.425 176.207 25.8383C175.916 25.2484 175.77 24.5573 175.77 23.7652C175.77 22.983 175.916 22.2936 176.207 21.697C176.502 21.1004 176.913 20.6347 177.44 20.3C177.971 19.9652 178.591 19.7978 179.3 19.7978C179.731 19.7978 180.148 19.8691 180.553 20.0116C180.957 20.1541 181.32 20.3778 181.641 20.6828C181.963 20.9877 182.216 21.3838 182.402 21.871C182.588 22.3549 182.68 22.9432 182.68 23.6359V24.1629H176.61V23.0493H181.224C181.224 22.6582 181.144 22.3118 180.985 22.0102C180.826 21.7053 180.602 21.465 180.314 21.2893C180.029 21.1136 179.694 21.0258 179.31 21.0258C178.892 21.0258 178.528 21.1286 178.216 21.3341C177.908 21.5362 177.669 21.8014 177.5 22.1295C177.334 22.4543 177.252 22.8073 177.252 23.1885V24.0585C177.252 24.5689 177.341 25.0031 177.52 25.361C177.702 25.719 177.956 25.9924 178.281 26.1814C178.605 26.367 178.985 26.4598 179.419 26.4598C179.701 26.4598 179.958 26.42 180.19 26.3404C180.422 26.2576 180.622 26.135 180.791 25.9725C180.96 25.8101 181.09 25.6096 181.179 25.371L182.586 25.6245C182.473 26.0388 182.271 26.4018 181.98 26.7133C181.691 27.0216 181.328 27.2618 180.891 27.4342C180.457 27.6032 179.961 27.6877 179.404 27.6877Z" fill="#B5A478"/>
<path d="M77.793 44.9667H75.2617L79.8704 31.8758H82.7979L87.413 44.9667H84.8817L81.3853 34.5604H81.283L77.793 44.9667ZM77.8761 39.8339H84.7795V41.7387H77.8761V39.8339Z" fill="#B5A478"/>
<path d="M88.855 48.6485V35.1485H91.1305V36.7721H91.2648C91.3841 36.5334 91.5524 36.2799 91.7698 36.0114C91.9871 35.7387 92.2811 35.5064 92.6519 35.3147C93.0226 35.1187 93.4956 35.0206 94.0709 35.0206C94.8294 35.0206 95.5134 35.2145 96.1227 35.6023C96.7364 35.9858 97.2222 36.5547 97.5801 37.309C97.9423 38.059 98.1234 38.9794 98.1234 40.0704C98.1234 41.1485 97.9466 42.0647 97.5929 42.8189C97.2392 43.5732 96.7577 44.1485 96.1483 44.5448C95.5389 44.9411 94.8486 45.1392 94.0773 45.1392C93.5148 45.1392 93.0482 45.0455 92.6774 44.858C92.3067 44.6705 92.0084 44.4446 91.7825 44.1804C91.5609 43.912 91.3884 43.6584 91.2648 43.4198H91.1689V48.6485H88.855ZM91.1242 40.0576C91.1242 40.6925 91.2136 41.2486 91.3926 41.7259C91.5759 42.2032 91.8379 42.576 92.1788 42.8445C92.524 43.1087 92.9416 43.2408 93.4317 43.2408C93.943 43.2408 94.3713 43.1044 94.7165 42.8317C95.0617 42.5547 95.3216 42.1776 95.4963 41.7003C95.6753 41.2188 95.7648 40.6712 95.7648 40.0576C95.7648 39.4482 95.6774 38.907 95.5027 38.434C95.328 37.961 95.068 37.5902 94.7229 37.3218C94.3777 37.0533 93.9473 36.9191 93.4317 36.9191C92.9374 36.9191 92.5176 37.0491 92.1725 37.309C91.8273 37.5689 91.5652 37.9333 91.3862 38.402C91.2115 38.8708 91.1242 39.4226 91.1242 40.0576Z" fill="#B5A478"/>
<path d="M99.925 48.6485V35.1485H102.201V36.7721H102.335C102.454 36.5334 102.622 36.2799 102.84 36.0114C103.057 35.7387 103.351 35.5064 103.722 35.3147C104.093 35.1187 104.566 35.0206 105.141 35.0206C105.899 35.0206 106.583 35.2145 107.193 35.6023C107.806 35.9858 108.292 36.5547 108.65 37.309C109.012 38.059 109.193 38.9794 109.193 40.0704C109.193 41.1485 109.017 42.0647 108.663 42.8189C108.309 43.5732 107.828 44.1485 107.218 44.5448C106.609 44.9411 105.919 45.1392 105.147 45.1392C104.585 45.1392 104.118 45.0455 103.747 44.858C103.377 44.6705 103.078 44.4446 102.853 44.1804C102.631 43.912 102.458 43.6584 102.335 43.4198H102.239V48.6485H99.925ZM102.194 40.0576C102.194 40.6925 102.284 41.2486 102.463 41.7259C102.646 42.2032 102.908 42.576 103.249 42.8445C103.594 43.1087 104.012 43.2408 104.502 43.2408C105.013 43.2408 105.441 43.1044 105.786 42.8317C106.132 42.5547 106.392 42.1776 106.566 41.7003C106.745 41.2188 106.835 40.6712 106.835 40.0576C106.835 39.4482 106.747 38.907 106.573 38.434C106.398 37.961 106.138 37.5902 105.793 37.3218C105.448 37.0533 105.017 36.9191 104.502 36.9191C104.007 36.9191 103.588 37.0491 103.242 37.309C102.897 37.5689 102.635 37.9333 102.456 38.402C102.282 38.8708 102.194 39.4226 102.194 40.0576Z" fill="#B5A478"/>
<path d="M122.496 35.4745C122.437 34.9162 122.185 34.4816 121.742 34.1705C121.303 33.8594 120.732 33.7039 120.029 33.7039C119.535 33.7039 119.111 33.7785 118.757 33.9276C118.403 34.0767 118.133 34.2792 117.945 34.5348C117.758 34.7905 117.662 35.0824 117.658 35.4106C117.658 35.6833 117.719 35.9198 117.843 36.1201C117.971 36.3204 118.143 36.4908 118.361 36.6314C118.578 36.7678 118.819 36.8829 119.083 36.9766C119.347 37.0704 119.614 37.1492 119.882 37.2131L121.109 37.5199C121.604 37.635 122.079 37.7905 122.535 37.9866C122.995 38.1826 123.406 38.4297 123.768 38.728C124.135 39.0263 124.425 39.3864 124.638 39.8083C124.851 40.2302 124.957 40.7245 124.957 41.2912C124.957 42.0583 124.761 42.7337 124.369 43.3175C123.977 43.8971 123.411 44.3509 122.669 44.679C121.932 45.0029 121.039 45.1648 119.991 45.1648C118.972 45.1648 118.088 45.0071 117.338 44.6918C116.592 44.3765 116.009 43.9162 115.587 43.3111C115.169 42.706 114.943 41.9688 114.909 41.0995H117.242C117.276 41.5554 117.417 41.9347 117.664 42.2373C117.911 42.5398 118.233 42.7657 118.629 42.9148C119.03 43.064 119.477 43.1385 119.972 43.1385C120.487 43.1385 120.939 43.0618 121.327 42.9084C121.719 42.7508 122.026 42.5334 122.247 42.2564C122.469 41.9752 122.582 41.6471 122.586 41.2721C122.582 40.9312 122.482 40.6499 122.286 40.4283C122.089 40.2025 121.815 40.015 121.461 39.8658C121.111 39.7124 120.702 39.576 120.234 39.4567L118.744 39.0732C117.666 38.7962 116.814 38.3765 116.187 37.814C115.565 37.2472 115.254 36.4951 115.254 35.5576C115.254 34.7863 115.463 34.1108 115.881 33.5313C116.303 32.9517 116.876 32.5022 117.6 32.1826C118.325 31.8587 119.145 31.6968 120.061 31.6968C120.99 31.6968 121.804 31.8587 122.503 32.1826C123.206 32.5022 123.758 32.9475 124.158 33.5185C124.559 34.0853 124.766 34.7373 124.778 35.4745H122.496Z" fill="#B5A478"/>
<path d="M131.692 35.1485V36.9383H126.048V35.1485H131.692ZM127.441 32.7962H129.755V42.0135C129.755 42.3246 129.802 42.5633 129.896 42.7294C129.994 42.8914 130.122 43.0022 130.279 43.0618C130.437 43.1215 130.612 43.1513 130.803 43.1513C130.948 43.1513 131.08 43.1407 131.2 43.1194C131.323 43.0981 131.417 43.0789 131.481 43.0618L131.871 44.8708C131.747 44.9134 131.571 44.9603 131.34 45.0114C131.115 45.0625 130.838 45.0924 130.509 45.1009C129.93 45.1179 129.408 45.0306 128.943 44.8388C128.479 44.6428 128.11 44.3402 127.838 43.9312C127.569 43.5221 127.437 43.0107 127.441 42.3971V32.7962Z" fill="#B5A478"/>
<path d="M137.624 45.1584C136.666 45.1584 135.835 44.9475 135.131 44.5256C134.428 44.1037 133.883 43.5135 133.495 42.755C133.112 41.9965 132.92 41.1101 132.92 40.0959C132.92 39.0817 133.112 38.1932 133.495 37.4304C133.883 36.6677 134.428 36.0753 135.131 35.6535C135.835 35.2316 136.666 35.0206 137.624 35.0206C138.583 35.0206 139.414 35.2316 140.117 35.6535C140.82 36.0753 141.364 36.6677 141.747 37.4304C142.135 38.1932 142.329 39.0817 142.329 40.0959C142.329 41.1101 142.135 41.9965 141.747 42.755C141.364 43.5135 140.82 44.1037 140.117 44.5256C139.414 44.9475 138.583 45.1584 137.624 45.1584ZM137.637 43.3047C138.157 43.3047 138.592 43.162 138.941 42.8765C139.291 42.5867 139.55 42.1989 139.721 41.7131C139.896 41.2273 139.983 40.6861 139.983 40.0895C139.983 39.4887 139.896 38.9454 139.721 38.4596C139.55 37.9695 139.291 37.5796 138.941 37.2898C138.592 37 138.157 36.8552 137.637 36.8552C137.104 36.8552 136.661 37 136.308 37.2898C135.958 37.5796 135.696 37.9695 135.521 38.4596C135.351 38.9454 135.266 39.4887 135.266 40.0895C135.266 40.6861 135.351 41.2273 135.521 41.7131C135.696 42.1989 135.958 42.5867 136.308 42.8765C136.661 43.162 137.104 43.3047 137.637 43.3047Z" fill="#B5A478"/>
<path d="M144.113 44.9667V35.1485H146.356V36.7848H146.459C146.638 36.2181 146.945 35.7813 147.379 35.4745C147.818 35.1634 148.319 35.0079 148.881 35.0079C149.009 35.0079 149.152 35.0142 149.31 35.027C149.472 35.0356 149.606 35.0505 149.712 35.0718V37.2003C149.614 37.1662 149.459 37.1364 149.246 37.1108C149.037 37.081 148.834 37.0661 148.638 37.0661C148.217 37.0661 147.837 37.1577 147.501 37.341C147.168 37.5199 146.906 37.7692 146.714 38.0888C146.523 38.4084 146.427 38.777 146.427 39.1946V44.9667H144.113Z" fill="#B5A478"/>
<path d="M155.012 45.1584C154.028 45.1584 153.177 44.9539 152.461 44.5448C151.75 44.1314 151.202 43.5476 150.819 42.7934C150.435 42.0348 150.243 41.1421 150.243 40.1151C150.243 39.1052 150.435 38.2188 150.819 37.456C151.206 36.689 151.748 36.0924 152.442 35.6662C153.137 35.2358 153.953 35.0206 154.89 35.0206C155.496 35.0206 156.067 35.1187 156.604 35.3147C157.145 35.5064 157.622 35.8047 158.035 36.2096C158.453 36.6144 158.781 37.13 159.02 37.7564C159.258 38.3786 159.378 39.1201 159.378 39.9809V40.6904H151.33V39.1307H157.16C157.155 38.6875 157.059 38.2934 156.872 37.9482C156.684 37.5988 156.422 37.3239 156.086 37.1236C155.753 36.9233 155.366 36.8232 154.922 36.8232C154.449 36.8232 154.034 36.9383 153.676 37.1684C153.318 37.3942 153.039 37.6925 152.839 38.0633C152.643 38.4297 152.542 38.8324 152.538 39.2714V40.6329C152.538 41.2039 152.643 41.6939 152.851 42.103C153.06 42.5079 153.352 42.8189 153.727 43.0363C154.102 43.2493 154.541 43.3559 155.044 43.3559C155.38 43.3559 155.685 43.309 155.958 43.2152C156.231 43.1172 156.467 42.9745 156.667 42.787C156.868 42.5995 157.019 42.3672 157.121 42.0902L159.282 42.3331C159.145 42.9042 158.885 43.4027 158.502 43.8289C158.123 44.2508 157.637 44.5789 157.045 44.8133C156.452 45.0434 155.775 45.1584 155.012 45.1584Z" fill="#B5A478"/>
</svg>
