<svg width="158" height="45" viewBox="0 0 158 45" fill="none" xmlns="http://www.w3.org/2000/svg">
<path d="M0.66754 10.6806C0.66754 5.15056 5.15056 0.66754 10.6806 0.66754H146.819C152.349 0.66754 156.832 5.15056 156.832 10.6806V34.3194C156.832 39.8494 152.349 44.3325 146.819 44.3325H10.6806C5.15056 44.3325 0.66754 39.8494 0.66754 34.3194V10.6806Z" stroke="#6C4E33" stroke-width="1.33508"/>
<path d="M30.7108 30C29.8808 31.24 29.0008 32.45 27.6608 32.47C26.3208 32.5 25.8908 31.68 24.3708 31.68C22.8408 31.68 22.3708 32.45 21.1008 32.5C19.7908 32.55 18.8008 31.18 17.9608 29.97C16.2508 27.5 14.9408 22.95 16.7008 19.89C17.5708 18.37 19.1308 17.41 20.8208 17.38C22.1008 17.36 23.3208 18.25 24.1108 18.25C24.8908 18.25 26.3708 17.18 27.9208 17.34C28.5708 17.37 30.3908 17.6 31.5608 19.32C31.4708 19.38 29.3908 20.6 29.4108 23.13C29.4408 26.15 32.0608 27.16 32.0908 27.17C32.0608 27.24 31.6708 28.61 30.7108 30ZM25.0008 14C25.7308 13.17 26.9408 12.54 27.9408 12.5C28.0708 13.67 27.6008 14.85 26.9008 15.69C26.2108 16.54 25.0708 17.2 23.9508 17.11C23.8008 15.96 24.3608 14.76 25.0008 14Z" fill="#B5A478"/>
<path d="M46.5227 16H44.6392V10.1818H46.5824C47.1525 10.1818 47.642 10.2983 48.0511 10.5312C48.4602 10.7623 48.7737 11.0947 48.9915 11.5284C49.2112 11.9602 49.321 12.4782 49.321 13.0824C49.321 13.6884 49.2102 14.2093 48.9886 14.6449C48.7689 15.0805 48.4508 15.4157 48.0341 15.6506C47.6174 15.8835 47.1136 16 46.5227 16ZM45.517 15.233H46.4744C46.9176 15.233 47.286 15.1496 47.5795 14.983C47.8731 14.8144 48.0928 14.571 48.2386 14.2528C48.3845 13.9328 48.4574 13.5426 48.4574 13.0824C48.4574 12.6259 48.3845 12.2386 48.2386 11.9205C48.0947 11.6023 47.8797 11.3608 47.5938 11.196C47.3078 11.0312 46.9527 10.9489 46.5284 10.9489H45.517V15.233ZM52.1025 16.0881C51.6934 16.0881 51.3364 15.9943 51.0315 15.8068C50.7266 15.6193 50.4898 15.357 50.3213 15.0199C50.1527 14.6828 50.0684 14.2888 50.0684 13.8381C50.0684 13.3854 50.1527 12.9896 50.3213 12.6506C50.4898 12.3116 50.7266 12.0483 51.0315 11.8608C51.3364 11.6733 51.6934 11.5795 52.1025 11.5795C52.5116 11.5795 52.8686 11.6733 53.1736 11.8608C53.4785 12.0483 53.7152 12.3116 53.8838 12.6506C54.0523 12.9896 54.1366 13.3854 54.1366 13.8381C54.1366 14.2888 54.0523 14.6828 53.8838 15.0199C53.7152 15.357 53.4785 15.6193 53.1736 15.8068C52.8686 15.9943 52.5116 16.0881 52.1025 16.0881ZM52.1054 15.375C52.3705 15.375 52.5902 15.3049 52.7645 15.1648C52.9387 15.0246 53.0675 14.8381 53.1508 14.6051C53.2361 14.3722 53.2787 14.1155 53.2787 13.8352C53.2787 13.5568 53.2361 13.3011 53.1508 13.0682C53.0675 12.8333 52.9387 12.6449 52.7645 12.5028C52.5902 12.3608 52.3705 12.2898 52.1054 12.2898C51.8383 12.2898 51.6167 12.3608 51.4406 12.5028C51.2664 12.6449 51.1366 12.8333 51.0514 13.0682C50.9681 13.3011 50.9264 13.5568 50.9264 13.8352C50.9264 14.1155 50.9681 14.3722 51.0514 14.6051C51.1366 14.8381 51.2664 15.0246 51.4406 15.1648C51.6167 15.3049 51.8383 15.375 52.1054 15.375ZM55.818 16L54.5339 11.6364H55.4117L56.2668 14.8409H56.3095L57.1674 11.6364H58.0453L58.8975 14.8267H58.9401L59.7896 11.6364H60.6674L59.3862 16H58.5197L57.6333 12.8494H57.568L56.6816 16H55.818ZM62.243 13.4091V16H61.3935V11.6364H62.2089V12.3466H62.2628C62.3632 12.1155 62.5204 11.9299 62.7344 11.7898C62.9503 11.6496 63.2221 11.5795 63.5498 11.5795C63.8471 11.5795 64.1075 11.642 64.331 11.767C64.5545 11.8902 64.7278 12.0739 64.8509 12.3182C64.974 12.5625 65.0356 12.8646 65.0356 13.2244V16H64.1861V13.3267C64.1861 13.0104 64.1038 12.7633 63.939 12.5852C63.7742 12.4053 63.5479 12.3153 63.26 12.3153C63.063 12.3153 62.8878 12.358 62.7344 12.4432C62.5829 12.5284 62.4627 12.6534 62.3736 12.8182C62.2865 12.9811 62.243 13.178 62.243 13.4091ZM66.9442 10.1818V16H66.0948V10.1818H66.9442ZM69.845 16.0881C69.4359 16.0881 69.0789 15.9943 68.774 15.8068C68.4691 15.6193 68.2323 15.357 68.0638 15.0199C67.8952 14.6828 67.8109 14.2888 67.8109 13.8381C67.8109 13.3854 67.8952 12.9896 68.0638 12.6506C68.2323 12.3116 68.4691 12.0483 68.774 11.8608C69.0789 11.6733 69.4359 11.5795 69.845 11.5795C70.2541 11.5795 70.6111 11.6733 70.9161 11.8608C71.221 12.0483 71.4577 12.3116 71.6263 12.6506C71.7948 12.9896 71.8791 13.3854 71.8791 13.8381C71.8791 14.2888 71.7948 14.6828 71.6263 15.0199C71.4577 15.357 71.221 15.6193 70.9161 15.8068C70.6111 15.9943 70.2541 16.0881 69.845 16.0881ZM69.8479 15.375C70.113 15.375 70.3327 15.3049 70.507 15.1648C70.6812 15.0246 70.81 14.8381 70.8933 14.6051C70.9786 14.3722 71.0212 14.1155 71.0212 13.8352C71.0212 13.5568 70.9786 13.3011 70.8933 13.0682C70.81 12.8333 70.6812 12.6449 70.507 12.5028C70.3327 12.3608 70.113 12.2898 69.8479 12.2898C69.5808 12.2898 69.3592 12.3608 69.1831 12.5028C69.0089 12.6449 68.8791 12.8333 68.7939 13.0682C68.7106 13.3011 68.6689 13.5568 68.6689 13.8352C68.6689 14.1155 68.7106 14.3722 68.7939 14.6051C68.8791 14.8381 69.0089 15.0246 69.1831 15.1648C69.3592 15.3049 69.5808 15.375 69.8479 15.375ZM74.0172 16.0966C73.7406 16.0966 73.4906 16.0455 73.2672 15.9432C73.0437 15.839 72.8666 15.6884 72.7359 15.4915C72.6071 15.2945 72.5427 15.053 72.5427 14.767C72.5427 14.5208 72.5901 14.3182 72.6848 14.1591C72.7795 14 72.9073 13.8741 73.0683 13.7812C73.2293 13.6884 73.4092 13.6184 73.6081 13.571C73.8069 13.5237 74.0096 13.4877 74.216 13.4631C74.4774 13.4328 74.6895 13.4081 74.8524 13.3892C75.0153 13.3684 75.1336 13.3352 75.2075 13.2898C75.2814 13.2443 75.3183 13.1705 75.3183 13.0682V13.0483C75.3183 12.8002 75.2482 12.608 75.1081 12.4716C74.9698 12.3352 74.7634 12.267 74.4888 12.267C74.2028 12.267 73.9774 12.3305 73.8126 12.4574C73.6497 12.5824 73.537 12.7216 73.4745 12.875L72.6763 12.6932C72.7709 12.428 72.9092 12.214 73.091 12.0511C73.2747 11.8864 73.4859 11.767 73.7245 11.6932C73.9632 11.6174 74.2141 11.5795 74.4774 11.5795C74.6516 11.5795 74.8363 11.6004 75.0314 11.642C75.2283 11.6818 75.412 11.7557 75.5825 11.8636C75.7548 11.9716 75.8959 12.1259 76.0058 12.3267C76.1156 12.5256 76.1706 12.7841 76.1706 13.1023V16H75.341V15.4034H75.3069C75.252 15.5133 75.1696 15.6212 75.0598 15.7273C74.9499 15.8333 74.8088 15.9214 74.6365 15.9915C74.4641 16.0616 74.2577 16.0966 74.0172 16.0966ZM74.2018 15.4148C74.4367 15.4148 74.6374 15.3684 74.8041 15.2756C74.9727 15.1828 75.1005 15.0616 75.1876 14.9119C75.2766 14.7604 75.3211 14.5985 75.3211 14.4261V13.8636C75.2908 13.8939 75.2321 13.9223 75.145 13.9489C75.0598 13.9735 74.9622 13.9953 74.8524 14.0142C74.7425 14.0312 74.6355 14.0473 74.5314 14.0625C74.4272 14.0758 74.3401 14.0871 74.27 14.0966C74.1052 14.1174 73.9547 14.1525 73.8183 14.2017C73.6838 14.2509 73.5759 14.322 73.4944 14.4148C73.4149 14.5057 73.3751 14.6269 73.3751 14.7784C73.3751 14.9886 73.4528 15.1477 73.6081 15.2557C73.7634 15.3617 73.9613 15.4148 74.2018 15.4148ZM78.8555 16.0852C78.5032 16.0852 78.1888 15.9953 77.9123 15.8153C77.6377 15.6335 77.4218 15.375 77.2646 15.0398C77.1093 14.7027 77.0316 14.2983 77.0316 13.8267C77.0316 13.3551 77.1102 12.9517 77.2674 12.6165C77.4265 12.2812 77.6443 12.0246 77.9208 11.8466C78.1973 11.6686 78.5108 11.5795 78.8612 11.5795C79.132 11.5795 79.3498 11.625 79.5146 11.7159C79.6812 11.8049 79.81 11.9091 79.9009 12.0284C79.9937 12.1477 80.0657 12.2528 80.1168 12.3438H80.168V10.1818H81.0174V16H80.1879V15.321H80.1168C80.0657 15.4138 79.9918 15.5199 79.8953 15.6392C79.8006 15.7585 79.6699 15.8627 79.5032 15.9517C79.3365 16.0407 79.1206 16.0852 78.8555 16.0852ZM79.043 15.3608C79.2873 15.3608 79.4937 15.2964 79.6623 15.1676C79.8328 15.0369 79.9615 14.8561 80.0487 14.625C80.1377 14.3939 80.1822 14.125 80.1822 13.8182C80.1822 13.5152 80.1386 13.25 80.0515 13.0227C79.9644 12.7955 79.8365 12.6184 79.668 12.4915C79.4994 12.3646 79.2911 12.3011 79.043 12.3011C78.7873 12.3011 78.5742 12.3674 78.4038 12.5C78.2333 12.6326 78.1045 12.8134 78.0174 13.0426C77.9322 13.2718 77.8896 13.5303 77.8896 13.8182C77.8896 14.1098 77.9331 14.3722 78.0203 14.6051C78.1074 14.8381 78.2362 15.0227 78.4066 15.1591C78.579 15.2936 78.7911 15.3608 79.043 15.3608ZM86.025 16.0881C85.6159 16.0881 85.2589 15.9943 84.954 15.8068C84.6491 15.6193 84.4123 15.357 84.2438 15.0199C84.0752 14.6828 83.9909 14.2888 83.9909 13.8381C83.9909 13.3854 84.0752 12.9896 84.2438 12.6506C84.4123 12.3116 84.6491 12.0483 84.954 11.8608C85.2589 11.6733 85.6159 11.5795 86.025 11.5795C86.4341 11.5795 86.7911 11.6733 87.0961 11.8608C87.401 12.0483 87.6377 12.3116 87.8063 12.6506C87.9748 12.9896 88.0591 13.3854 88.0591 13.8381C88.0591 14.2888 87.9748 14.6828 87.8063 15.0199C87.6377 15.357 87.401 15.6193 87.0961 15.8068C86.7911 15.9943 86.4341 16.0881 86.025 16.0881ZM86.0279 15.375C86.293 15.375 86.5127 15.3049 86.687 15.1648C86.8612 15.0246 86.99 14.8381 87.0733 14.6051C87.1586 14.3722 87.2012 14.1155 87.2012 13.8352C87.2012 13.5568 87.1586 13.3011 87.0733 13.0682C86.99 12.8333 86.8612 12.6449 86.687 12.5028C86.5127 12.3608 86.293 12.2898 86.0279 12.2898C85.7608 12.2898 85.5392 12.3608 85.3631 12.5028C85.1889 12.6449 85.0591 12.8333 84.9739 13.0682C84.8906 13.3011 84.8489 13.5568 84.8489 13.8352C84.8489 14.1155 84.8906 14.3722 84.9739 14.6051C85.0591 14.8381 85.1889 15.0246 85.3631 15.1648C85.5392 15.3049 85.7608 15.375 86.0279 15.375ZM89.7767 13.4091V16H88.9273V11.6364H89.7426V12.3466H89.7966C89.897 12.1155 90.0542 11.9299 90.2682 11.7898C90.4841 11.6496 90.7559 11.5795 91.0835 11.5795C91.3809 11.5795 91.6413 11.642 91.8648 11.767C92.0883 11.8902 92.2616 12.0739 92.3847 12.3182C92.5078 12.5625 92.5693 12.8646 92.5693 13.2244V16H91.7199V13.3267C91.7199 13.0104 91.6375 12.7633 91.4727 12.5852C91.308 12.4053 91.0816 12.3153 90.7938 12.3153C90.5968 12.3153 90.4216 12.358 90.2682 12.4432C90.1167 12.5284 89.9964 12.6534 89.9074 12.8182C89.8203 12.9811 89.7767 13.178 89.7767 13.4091ZM97.7026 11.6364V12.3182H95.3191V11.6364H97.7026ZM95.9583 10.5909H96.8078V14.7188C96.8078 14.8835 96.8324 15.0076 96.8816 15.0909C96.9309 15.1723 96.9943 15.2282 97.072 15.2585C97.1515 15.2869 97.2377 15.3011 97.3305 15.3011C97.3987 15.3011 97.4583 15.2964 97.5095 15.2869C97.5606 15.2775 97.6004 15.2699 97.6288 15.2642L97.7822 15.9659C97.7329 15.9848 97.6629 16.0038 97.572 16.0227C97.4811 16.0436 97.3674 16.0549 97.2311 16.0568C97.0076 16.0606 96.7992 16.0208 96.6061 15.9375C96.4129 15.8542 96.2566 15.7254 96.1373 15.5511C96.018 15.3769 95.9583 15.1581 95.9583 14.8949V10.5909ZM99.5055 13.4091V16H98.656V10.1818H99.4941V12.3466H99.5481C99.6503 12.1117 99.8066 11.9252 100.017 11.7869C100.227 11.6487 100.502 11.5795 100.841 11.5795C101.14 11.5795 101.401 11.6411 101.625 11.7642C101.85 11.8873 102.024 12.071 102.147 12.3153C102.272 12.5578 102.335 12.8608 102.335 13.2244V16H101.486V13.3267C101.486 13.0066 101.403 12.7585 101.238 12.5824C101.074 12.4044 100.844 12.3153 100.551 12.3153C100.35 12.3153 100.17 12.358 100.011 12.4432C99.8539 12.5284 99.7299 12.6534 99.639 12.8182C99.55 12.9811 99.5055 13.178 99.5055 13.4091ZM105.269 16.0881C104.839 16.0881 104.469 15.9962 104.158 15.8125C103.85 15.6269 103.611 15.3665 103.443 15.0312C103.276 14.6941 103.193 14.2992 103.193 13.8466C103.193 13.3996 103.276 13.0057 103.443 12.6648C103.611 12.3239 103.846 12.0578 104.147 11.8665C104.45 11.6752 104.804 11.5795 105.21 11.5795C105.456 11.5795 105.694 11.6203 105.925 11.7017C106.157 11.7831 106.364 11.911 106.548 12.0852C106.731 12.2595 106.876 12.4858 106.982 12.7642C107.088 13.0407 107.141 13.3769 107.141 13.7727V14.0739H103.673V13.4375H106.309C106.309 13.214 106.264 13.0161 106.173 12.8438C106.082 12.6695 105.954 12.5322 105.789 12.4318C105.626 12.3314 105.435 12.2812 105.215 12.2812C104.977 12.2812 104.768 12.34 104.59 12.4574C104.414 12.5729 104.278 12.7244 104.181 12.9119C104.086 13.0975 104.039 13.2992 104.039 13.517V14.0142C104.039 14.3059 104.09 14.554 104.193 14.7585C104.297 14.9631 104.442 15.1193 104.627 15.2273C104.813 15.3333 105.03 15.3864 105.278 15.3864C105.439 15.3864 105.585 15.3636 105.718 15.3182C105.851 15.2708 105.965 15.2008 106.062 15.108C106.158 15.0152 106.232 14.9006 106.283 14.7642L107.087 14.9091C107.023 15.1458 106.907 15.3532 106.741 15.5312C106.576 15.7074 106.369 15.8447 106.119 15.9432C105.871 16.0398 105.587 16.0881 105.269 16.0881Z" fill="#B5A478"/>
<path d="M46.3118 34H44.343L47.9276 23.8182H50.2045L53.794 34H51.8253L49.1058 25.9062H49.0263L46.3118 34ZM46.3764 30.0078H51.7457V31.4893H46.3764V30.0078ZM54.9156 36.8636V26.3636H56.6855V27.6264H56.7899C56.8827 27.4408 57.0136 27.2436 57.1826 27.0348C57.3517 26.8227 57.5803 26.642 57.8687 26.4929C58.1571 26.3404 58.525 26.2642 58.9724 26.2642C59.5624 26.2642 60.0943 26.415 60.5683 26.7166C61.0455 27.0149 61.4234 27.4574 61.7018 28.044C61.9835 28.6274 62.1244 29.3433 62.1244 30.1918C62.1244 31.0303 61.9868 31.7429 61.7117 32.3295C61.4366 32.9162 61.0621 33.3636 60.5882 33.6719C60.1142 33.9801 59.5773 34.1342 58.9774 34.1342C58.5399 34.1342 58.1769 34.0613 57.8886 33.9155C57.6002 33.7696 57.3682 33.594 57.1926 33.3885C57.0202 33.1797 56.886 32.9825 56.7899 32.7969H56.7153V36.8636H54.9156ZM56.6805 30.1818C56.6805 30.6757 56.7501 31.1082 56.8893 31.4794C57.0318 31.8506 57.2357 32.1406 57.5008 32.3494C57.7693 32.5549 58.0941 32.6577 58.4752 32.6577C58.873 32.6577 59.2061 32.5516 59.4745 32.3395C59.743 32.1241 59.9452 31.8307 60.0811 31.4595C60.2203 31.085 60.2899 30.6591 60.2899 30.1818C60.2899 29.7079 60.2219 29.2869 60.086 28.919C59.9501 28.5511 59.748 28.2628 59.4795 28.054C59.211 27.8452 58.8763 27.7408 58.4752 27.7408C58.0908 27.7408 57.7643 27.8419 57.4958 28.044C57.2274 28.2462 57.0235 28.5296 56.8843 28.8942C56.7484 29.2588 56.6805 29.688 56.6805 30.1818ZM63.5256 36.8636V26.3636H65.2955V27.6264H65.3999C65.4927 27.4408 65.6236 27.2436 65.7926 27.0348C65.9617 26.8227 66.1903 26.642 66.4787 26.4929C66.7671 26.3404 67.1349 26.2642 67.5824 26.2642C68.1724 26.2642 68.7043 26.415 69.1783 26.7166C69.6555 27.0149 70.0334 27.4574 70.3118 28.044C70.5935 28.6274 70.7344 29.3433 70.7344 30.1918C70.7344 31.0303 70.5968 31.7429 70.3217 32.3295C70.0466 32.9162 69.6721 33.3636 69.1982 33.6719C68.7242 33.9801 68.1873 34.1342 67.5874 34.1342C67.1499 34.1342 66.7869 34.0613 66.4986 33.9155C66.2102 33.7696 65.9782 33.594 65.8026 33.3885C65.6302 33.1797 65.496 32.9825 65.3999 32.7969H65.3253V36.8636H63.5256ZM65.2905 30.1818C65.2905 30.6757 65.3601 31.1082 65.4993 31.4794C65.6418 31.8506 65.8457 32.1406 66.1108 32.3494C66.3793 32.5549 66.7041 32.6577 67.0852 32.6577C67.483 32.6577 67.8161 32.5516 68.0845 32.3395C68.353 32.1241 68.5552 31.8307 68.6911 31.4595C68.8303 31.085 68.8999 30.6591 68.8999 30.1818C68.8999 29.7079 68.8319 29.2869 68.696 28.919C68.5601 28.5511 68.358 28.2628 68.0895 28.054C67.821 27.8452 67.4863 27.7408 67.0852 27.7408C66.7008 27.7408 66.3743 27.8419 66.1058 28.044C65.8374 28.2462 65.6335 28.5296 65.4943 28.8942C65.3584 29.2588 65.2905 29.688 65.2905 30.1818ZM81.0812 26.6172C81.0348 26.183 80.8392 25.8449 80.4945 25.603C80.1531 25.361 79.709 25.2401 79.1621 25.2401C78.7777 25.2401 78.4479 25.2981 78.1728 25.4141C77.8977 25.5301 77.6872 25.6875 77.5414 25.8864C77.3956 26.0852 77.321 26.3123 77.3177 26.5675C77.3177 26.7796 77.3657 26.9635 77.4618 27.1193C77.5613 27.2751 77.6955 27.4077 77.8645 27.517C78.0336 27.6231 78.2208 27.7126 78.4263 27.7855C78.6318 27.8584 78.839 27.9197 79.0478 27.9695L80.0023 28.2081C80.3868 28.2976 80.7563 28.4186 81.111 28.571C81.4689 28.7235 81.7888 28.9157 82.0705 29.1477C82.3555 29.3797 82.5809 29.6598 82.7466 29.9879C82.9124 30.3161 82.9952 30.7005 82.9952 31.1413C82.9952 31.7379 82.8428 32.2633 82.5378 32.7173C82.2329 33.1681 81.7921 33.5211 81.2154 33.7763C80.642 34.0282 79.9476 34.1541 79.1323 34.1541C78.3402 34.1541 77.6524 34.0315 77.0691 33.7862C76.4891 33.541 76.035 33.183 75.7069 32.7124C75.3821 32.2417 75.2064 31.6683 75.1799 30.9922H76.9945C77.021 31.3468 77.1304 31.6418 77.3226 31.8771C77.5149 32.1125 77.7651 32.2881 78.0733 32.4041C78.3849 32.5201 78.7329 32.5781 79.1174 32.5781C79.5184 32.5781 79.8697 32.5185 80.1714 32.3991C80.4763 32.2765 80.7149 32.1075 80.8873 31.892C81.0596 31.6733 81.1474 31.4181 81.1508 31.1264C81.1474 30.8613 81.0696 30.6425 80.9171 30.4702C80.7646 30.2945 80.5509 30.1487 80.2758 30.0327C80.004 29.9134 79.6858 29.8073 79.3212 29.7145L78.1628 29.4162C77.3243 29.2008 76.6614 28.8743 76.1742 28.4368C75.6903 27.996 75.4483 27.411 75.4483 26.6818C75.4483 26.0819 75.6108 25.5566 75.9356 25.1058C76.2637 24.6551 76.7095 24.3054 77.2729 24.0568C77.8364 23.8049 78.4744 23.679 79.187 23.679C79.9095 23.679 80.5426 23.8049 81.0861 24.0568C81.633 24.3054 82.0622 24.6518 82.3738 25.0959C82.6853 25.5367 82.8461 26.0438 82.856 26.6172H81.0812ZM88.2332 26.3636V27.7557H83.8433V26.3636H88.2332ZM84.9271 24.5341H86.7268V31.7031C86.7268 31.9451 86.7633 32.1307 86.8362 32.2599C86.9125 32.3859 87.0119 32.4721 87.1345 32.5185C87.2571 32.5649 87.393 32.5881 87.5422 32.5881C87.6549 32.5881 87.7576 32.5798 87.8504 32.5632C87.9465 32.5466 88.0195 32.5317 88.0692 32.5185L88.3724 33.9254C88.2763 33.9586 88.1388 33.995 87.9598 34.0348C87.7841 34.0746 87.5687 34.0978 87.3135 34.1044C86.8627 34.1177 86.4567 34.0497 86.0955 33.9006C85.7342 33.7481 85.4475 33.5128 85.2354 33.1946C85.0266 32.8764 84.9238 32.4787 84.9271 32.0014V24.5341ZM92.8473 34.1491C92.1016 34.1491 91.4553 33.9851 90.9084 33.657C90.3615 33.3288 89.9373 32.8698 89.6357 32.2798C89.3374 31.6899 89.1882 31.0005 89.1882 30.2116C89.1882 29.4228 89.3374 28.7318 89.6357 28.1385C89.9373 27.5452 90.3615 27.0845 90.9084 26.7564C91.4553 26.4283 92.1016 26.2642 92.8473 26.2642C93.5931 26.2642 94.2394 26.4283 94.7862 26.7564C95.3331 27.0845 95.7557 27.5452 96.054 28.1385C96.3556 28.7318 96.5064 29.4228 96.5064 30.2116C96.5064 31.0005 96.3556 31.6899 96.054 32.2798C95.7557 32.8698 95.3331 33.3288 94.7862 33.657C94.2394 33.9851 93.5931 34.1491 92.8473 34.1491ZM92.8573 32.7074C93.2616 32.7074 93.5997 32.5964 93.8715 32.3743C94.1433 32.1489 94.3454 31.8473 94.478 31.4695C94.6139 31.0916 94.6818 30.6707 94.6818 30.2067C94.6818 29.7393 94.6139 29.3168 94.478 28.9389C94.3454 28.5578 94.1433 28.2545 93.8715 28.0291C93.5997 27.8037 93.2616 27.6911 92.8573 27.6911C92.443 27.6911 92.0983 27.8037 91.8232 28.0291C91.5514 28.2545 91.3476 28.5578 91.2117 28.9389C91.0791 29.3168 91.0128 29.7393 91.0128 30.2067C91.0128 30.6707 91.0791 31.0916 91.2117 31.4695C91.3476 31.8473 91.5514 32.1489 91.8232 32.3743C92.0983 32.5964 92.443 32.7074 92.8573 32.7074ZM97.8939 34V26.3636H99.639V27.6364H99.7185C99.8577 27.1955 100.096 26.8558 100.434 26.6172C100.776 26.3752 101.165 26.2543 101.603 26.2543C101.702 26.2543 101.813 26.2592 101.936 26.2692C102.062 26.2758 102.166 26.2874 102.249 26.304V27.9595C102.173 27.933 102.052 27.9098 101.886 27.8899C101.724 27.8667 101.566 27.8551 101.414 27.8551C101.086 27.8551 100.791 27.9264 100.529 28.0689C100.27 28.2081 100.067 28.402 99.9174 28.6506C99.7682 28.8991 99.6937 29.1858 99.6937 29.5107V34H97.8939ZM106.371 34.1491C105.605 34.1491 104.944 33.9901 104.387 33.6719C103.834 33.3504 103.408 32.8963 103.11 32.3097C102.811 31.7197 102.662 31.0253 102.662 30.2266C102.662 29.4411 102.811 28.7517 103.11 28.1584C103.411 27.5618 103.832 27.0978 104.372 26.7663C104.913 26.4316 105.547 26.2642 106.276 26.2642C106.747 26.2642 107.191 26.3404 107.609 26.4929C108.03 26.642 108.401 26.8741 108.723 27.1889C109.047 27.5038 109.303 27.9048 109.488 28.392C109.674 28.8759 109.767 29.4527 109.767 30.1222V30.674H103.507V29.4609H108.041C108.038 29.1162 107.964 28.8097 107.818 28.5412C107.672 28.2694 107.468 28.0556 107.206 27.8999C106.948 27.7441 106.646 27.6662 106.301 27.6662C105.933 27.6662 105.61 27.7557 105.332 27.9347C105.053 28.1103 104.836 28.3423 104.681 28.6307C104.528 28.9157 104.45 29.2289 104.447 29.5703V30.6293C104.447 31.0734 104.528 31.4545 104.691 31.7727C104.853 32.0876 105.08 32.3295 105.372 32.4986C105.663 32.6643 106.005 32.7472 106.396 32.7472C106.658 32.7472 106.895 32.7107 107.107 32.6378C107.319 32.5616 107.503 32.4505 107.659 32.3047C107.814 32.1589 107.932 31.9782 108.012 31.7628L109.692 31.9517C109.586 32.3958 109.384 32.7836 109.085 33.1151C108.79 33.4432 108.413 33.6984 107.952 33.8807C107.491 34.0597 106.964 34.1491 106.371 34.1491Z" fill="#B5A478"/>
</svg>
