<svg width="24" height="24" viewBox="0 0 24 24" fill="none" xmlns="http://www.w3.org/2000/svg">
<g id="Icon">
<path id="Vector" d="M4.61536 22.0242C4.16006 22.0242 3.77278 21.8646 3.45351 21.5453C3.13424 21.2261 2.97461 20.8388 2.97461 20.3835V7.38293C2.97461 6.926 3.13424 6.53731 3.45351 6.21686C3.77278 5.89641 4.16006 5.73618 4.61536 5.73618H7.27081C7.27081 4.43293 7.7138 3.31908 8.59978 2.39461C9.48578 1.47016 10.5767 1.00793 11.8726 1.00793C13.2173 1.00793 14.3625 1.46358 15.3085 2.37486C16.2544 3.28613 16.7273 4.40657 16.7273 5.73618H19.3828C19.8397 5.73618 20.2284 5.89641 20.5488 6.21686C20.8693 6.53731 21.0295 6.926 21.0295 7.38293V20.3835C21.0295 20.8388 20.8693 21.2261 20.5488 21.5453C20.2284 21.8646 19.8397 22.0242 19.3828 22.0242H4.61536ZM4.61536 20.3835H19.3828V7.38293H4.61536V20.3835ZM8.91156 5.73618H15.0866C15.0866 4.86373 14.7916 4.13104 14.2016 3.53811C13.6117 2.94518 12.878 2.64871 12.0005 2.64871C11.1231 2.64871 10.3889 2.94449 9.79798 3.53606C9.20703 4.12764 8.91156 4.86102 8.91156 5.73618ZM12.0044 13.3487C13.2699 13.3487 14.3881 12.9208 15.359 12.0651C16.3299 11.2093 16.8215 10.2644 16.8338 9.23026C16.8338 9.03389 16.7505 8.86234 16.5838 8.71559C16.4171 8.56882 16.2136 8.49543 15.9734 8.49543C15.7979 8.49543 15.638 8.55486 15.4938 8.67371C15.3495 8.79254 15.2467 8.94562 15.1855 9.13293C15.0192 9.87642 14.6359 10.4905 14.0357 10.9751C13.4354 11.4597 12.7601 11.702 12.0096 11.702C11.2591 11.702 10.5864 11.4607 9.99146 10.978C9.39653 10.4954 9.00975 9.88239 8.83113 9.13891C8.7699 8.95594 8.66168 8.80296 8.50646 8.67996C8.35124 8.55694 8.17917 8.49543 7.99023 8.49543C7.77148 8.49543 7.58321 8.56882 7.42541 8.71559C7.26763 8.86234 7.18873 9.0319 7.18873 9.22428C7.18873 10.2596 7.67413 11.2058 8.64491 12.0629C9.61569 12.9201 10.7355 13.3487 12.0044 13.3487Z" fill="#D68000"/>
</g>
</svg>
