<svg width="1440" height="262" viewBox="0 0 1440 262" fill="none" xmlns="http://www.w3.org/2000/svg">
<path d="M720 0C867.441 -6.44898e-06 1013.44 29.0593 1149.66 85.5186C1254.97 129.167 1352.84 188.53 1440 261.426H0C87.1649 188.53 185.034 129.167 290.343 85.5187C426.561 29.0593 572.559 6.44898e-06 720 0Z" fill="#FFBE16"/>
<path d="M720 0C867.441 -6.44898e-06 1013.44 29.0593 1149.66 85.5186C1254.97 129.167 1352.84 188.53 1440 261.426H0C87.1649 188.53 185.034 129.167 290.343 85.5187C426.561 29.0593 572.559 6.44898e-06 720 0Z" fill="#FFFEFB"/>
</svg>
