<svg width="24" height="24" viewBox="0 0 24 24" fill="none" xmlns="http://www.w3.org/2000/svg">
<g id="Icon">
<path id="Vector" d="M4.53726 21.0792C4.09414 21.0792 3.7099 20.9165 3.38453 20.5911C3.05917 20.2658 2.89648 19.8815 2.89648 19.4384V3.74003C2.89648 3.5163 2.97458 3.32468 3.13078 3.16518C3.28697 3.00566 3.48171 2.9259 3.71501 2.9259C3.94833 2.9259 4.14369 3.00566 4.30111 3.16518C4.45854 3.32468 4.53726 3.5163 4.53726 3.74003V19.4384H20.2889C20.521 19.4384 20.7177 19.5186 20.8793 19.6789C21.0408 19.8393 21.1215 20.0319 21.1215 20.2569C21.1215 20.4902 21.0408 20.6856 20.8793 20.843C20.7177 21.0005 20.521 21.0792 20.2889 21.0792H4.53726ZM7.28031 17.5009C7.04979 17.5009 6.85791 17.4211 6.70466 17.2616C6.55139 17.1021 6.47476 16.9063 6.47476 16.6743V9.97753C6.47476 9.7538 6.55191 9.56218 6.70621 9.40268C6.86049 9.24316 7.05289 9.1634 7.28341 9.1634H8.57246C8.80298 9.1634 8.99695 9.24316 9.15438 9.40268C9.3118 9.56218 9.39051 9.7538 9.39051 9.97753V16.6743C9.39051 16.9063 9.31128 17.1021 9.15283 17.2616C8.99437 17.4211 8.79988 17.5009 8.56936 17.5009H7.28031ZM12.2396 17.5009C12.0051 17.5009 11.8112 17.4211 11.6579 17.2616C11.5046 17.1021 11.428 16.9063 11.428 16.6743V4.86503C11.428 4.6413 11.5052 4.44968 11.6595 4.29018C11.8138 4.13066 12.0082 4.0509 12.2427 4.0509H13.5317C13.7622 4.0509 13.9562 4.13066 14.1136 4.29018C14.271 4.44968 14.3498 4.6413 14.3498 4.86503V16.6743C14.3498 16.9063 14.2705 17.1021 14.1121 17.2616C13.9536 17.4211 13.7591 17.5009 13.5286 17.5009H12.2396ZM17.0988 17.5009C16.8643 17.5009 16.6704 17.4211 16.5172 17.2616C16.3639 17.1021 16.2873 16.9063 16.2873 16.6743V14.0525C16.2873 13.8288 16.3644 13.6372 16.5187 13.4777C16.673 13.3182 16.8674 13.2384 17.1019 13.2384H18.385C18.6155 13.2384 18.8105 13.3182 18.9699 13.4777C19.1293 13.6372 19.209 13.8288 19.209 14.0525V16.6743C19.209 16.9063 19.1288 17.1021 18.9683 17.2616C18.8079 17.4211 18.6124 17.5009 18.3819 17.5009H17.0988Z" fill="#D68000"/>
</g>
</svg>
