<svg width="48" height="48" viewBox="0 0 48 48" fill="none" xmlns="http://www.w3.org/2000/svg">
<rect width="48" height="48" rx="24" fill="#FFF8E7"/>
<path d="M14.9361 32.2571V31.0706L16.559 29.4478V32.2589C16.559 32.4874 16.4796 32.6787 16.321 32.8328C16.1624 32.987 15.9687 33.0641 15.7399 33.0641C15.5066 33.0641 15.3143 32.9874 15.163 32.8341C15.0118 32.6807 14.9361 32.4884 14.9361 32.2571ZM19.0671 32.2559V27.0646L20.6899 25.4418V32.2559C20.6899 32.4875 20.6106 32.6801 20.452 32.8337C20.2934 32.9873 20.0977 33.0641 19.8649 33.0641C19.6338 33.0641 19.443 32.9873 19.2927 32.8337C19.1423 32.6801 19.0671 32.4875 19.0671 32.2559ZM23.1981 32.2551V25.4418L24.8209 27.0837V32.2619C24.8209 32.4895 24.7416 32.6801 24.5829 32.8337C24.4241 32.9873 24.2303 33.0641 24.0013 33.0641C23.7723 33.0641 23.5812 32.9874 23.428 32.8341C23.2747 32.6807 23.1981 32.4877 23.1981 32.2551ZM27.3291 32.2559V27.0717L28.9519 25.4548V32.2619C28.9519 32.4895 28.8726 32.6801 28.714 32.8337C28.5554 32.9873 28.3616 33.0641 28.1328 33.0641C27.8995 33.0641 27.7072 32.9874 27.556 32.8341C27.4047 32.6807 27.3291 32.488 27.3291 32.2559ZM31.46 32.2559V23.0467L33.0769 21.4298V32.2619C33.0769 32.4895 32.9975 32.6801 32.8388 32.8337C32.6801 32.9873 32.4863 33.0641 32.2573 33.0641C32.0283 33.0641 31.8382 32.9874 31.6869 32.8341C31.5357 32.6807 31.46 32.488 31.46 32.2559ZM15.1785 24.6674L20.8568 19.0266C21.1734 18.7161 21.554 18.5608 21.9986 18.5608C22.4432 18.5608 22.8249 18.7161 23.1437 19.0266L26.0003 21.8831L31.6725 16.2233C31.8341 16.0617 32.026 15.9808 32.2481 15.9805C32.4702 15.9802 32.6596 16.061 32.8162 16.2229C32.9733 16.3848 33.056 16.5755 33.0644 16.7951C33.0727 17.0146 32.9961 17.2052 32.8345 17.3668L27.1437 23.0451C26.826 23.3766 26.441 23.5382 25.9886 23.5299C25.5362 23.5215 25.1506 23.3599 24.8318 23.0451L22.0003 20.2136L16.3655 25.8358C16.1944 25.9974 15.994 26.0742 15.7641 26.0662C15.5342 26.0582 15.3409 25.9732 15.1843 25.8113C15.0272 25.6494 14.9445 25.4587 14.9361 25.2391C14.9278 25.0195 15.0086 24.829 15.1785 24.6674Z" fill="#D68000"/>
</svg>
