<svg xmlns="http://www.w3.org/2000/svg" width="24" height="25" viewBox="0 0 24 25" fill="none">
  <path d="M12.0025 15.7581C11.8889 15.7581 11.7845 15.7375 11.6894 15.6962C11.5943 15.6549 11.5053 15.5886 11.4223 15.4973L6.51153 10.5865C6.34443 10.4277 6.26088 10.2386 6.26088 10.019C6.26088 9.79944 6.34584 9.60469 6.51575 9.43476C6.67735 9.27317 6.8721 9.19238 7.1 9.19238C7.3279 9.19238 7.526 9.27235 7.69428 9.43228L12 13.7505L16.3182 9.43228C16.4782 9.27235 16.6679 9.19238 16.8875 9.19238C17.1071 9.19238 17.3018 9.27317 17.4718 9.43476C17.6333 9.60469 17.7141 9.80361 17.7141 10.0315C17.7141 10.2594 17.6347 10.4527 17.476 10.6115L12.5902 15.4973C12.4989 15.5886 12.4065 15.6549 12.3131 15.6962C12.2197 15.7375 12.1161 15.7581 12.0025 15.7581Z" fill="#472200"/>
</svg>
