<svg width="24" height="24" viewBox="0 0 24 24" fill="none" xmlns="http://www.w3.org/2000/svg">
<g id="chevron_right">
<path id="Vector" d="M13.1313 11.975L8.79137 7.63507C8.62924 7.47292 8.55234 7.28415 8.56067 7.06875C8.569 6.85335 8.65396 6.66068 8.81554 6.49075C8.97714 6.32083 9.17189 6.23587 9.39979 6.23587C9.62769 6.23587 9.82661 6.31667 9.99654 6.47825L14.903 11.3848C14.986 11.4761 15.0503 11.5693 15.0957 11.6644C15.1412 11.7595 15.1639 11.863 15.1639 11.975C15.1639 12.0869 15.141 12.1909 15.0953 12.2868C15.0495 12.3827 14.9847 12.4725 14.901 12.5562L9.97355 17.4823C9.80228 17.6535 9.60686 17.735 9.38729 17.7266C9.16773 17.7183 8.97714 17.6292 8.81554 17.4593C8.65396 17.2893 8.57317 17.0925 8.57317 16.8688C8.57317 16.645 8.65424 16.4521 8.81637 16.2899L13.1313 11.975Z" fill="#FFFEFB"/>
</g>
</svg>
