<svg xmlns="http://www.w3.org/2000/svg" width="24" height="24" viewBox="0 0 24 24" fill="currentColor">
<path d="M12.0024 15.1332C11.8888 15.1332 11.7844 15.1125 11.6893 15.0712C11.5942 15.0299 11.5051 14.9636 11.4221 14.8723L6.51139 9.96153C6.34429 9.80276 6.26074 9.61359 6.26074 9.39403C6.26074 9.17446 6.3457 8.97971 6.51562 8.80978C6.67722 8.64819 6.87197 8.5674 7.09987 8.5674C7.32777 8.5674 7.52586 8.64737 7.69414 8.8073L11.9999 13.1256L16.3181 8.8073C16.478 8.64737 16.6678 8.5674 16.8874 8.5674C17.1069 8.5674 17.3017 8.64819 17.4716 8.80978C17.6332 8.97971 17.714 9.17863 17.714 9.40653C17.714 9.63443 17.6346 9.82776 17.4758 9.98653L12.5901 14.8723C12.4988 14.9636 12.4064 15.0299 12.313 15.0712C12.2195 15.1125 12.116 15.1332 12.0024 15.1332Z" fill="currentColor"/>
</svg>