<svg width="22" height="16" viewBox="0 0 22 16" fill="none" xmlns="http://www.w3.org/2000/svg">
<path id="Vector" d="M5.41548 16.0085C3.92199 16.0085 2.64876 15.4884 1.59579 14.4483C0.542835 13.4082 0.0163574 12.1416 0.0163574 10.6484C0.0163574 9.3498 0.42412 8.19557 1.23965 7.18575C2.05515 6.17592 3.10179 5.56011 4.37956 5.33833C4.73776 3.76007 5.53633 2.47436 6.77528 1.48121C8.01423 0.488039 9.43386 -0.00854492 11.0342 -0.00854492C12.9056 -0.00854492 14.4938 0.661292 15.7988 2.00097C17.1037 3.34064 17.7741 4.95293 17.81 6.83783V7.29189C18.9883 7.32484 19.9784 7.75941 20.7804 8.5956C21.5824 9.43178 21.9834 10.4479 21.9834 11.6439C21.9834 12.8453 21.5556 13.873 20.7 14.7272C19.8444 15.5814 18.816 16.0085 17.6146 16.0085H5.41548ZM5.41576 14.1986H17.6032C18.3081 14.1986 18.9126 13.9476 19.417 13.4458C19.9213 12.9439 20.1734 12.3388 20.1734 11.6303C20.1734 10.9218 19.922 10.3175 19.4192 9.81731C18.9163 9.31712 18.3115 9.06702 17.6048 9.06702H16.008V6.96637C16.008 5.52817 15.5191 4.30846 14.5414 3.30723C13.5637 2.306 12.3732 1.80538 10.9699 1.80538C9.55766 1.80538 8.36145 2.31417 7.38123 3.33175C6.401 4.34934 5.91089 5.58445 5.91089 7.03707H5.3687C4.38059 7.03707 3.54316 7.38104 2.85642 8.06899C2.16969 8.75694 1.82632 9.60628 1.82632 10.617C1.82632 11.6166 2.17412 12.4635 2.86971 13.1575C3.56531 13.8515 4.41399 14.1986 5.41576 14.1986Z" fill="#472200"/>
</svg>
