<svg width="32" height="32" viewBox="0 0 32 32" fill="none" xmlns="http://www.w3.org/2000/svg">
<g id="Contactless ordering">
<path id="Vector" d="M3.87423 8.94173C3.53607 8.94173 3.25009 8.8239 3.01629 8.58823C2.78247 8.35256 2.66556 8.06621 2.66556 7.72916V3.86613C2.66556 3.53762 2.78339 3.25436 3.01906 3.01636C3.25473 2.77836 3.54108 2.65936 3.87813 2.65936H7.74116C8.06967 2.65936 8.35204 2.77874 8.58826 3.0175C8.82448 3.25623 8.9426 3.54041 8.9426 3.87003C8.9426 4.20816 8.82448 4.49414 8.58826 4.72796C8.35204 4.96179 8.06967 5.0787 7.74116 5.0787H5.07956V7.72916C5.07956 8.06621 4.96107 8.35256 4.72409 8.58823C4.48714 8.8239 4.20385 8.94173 3.87423 8.94173ZM3.87813 29.3333C3.54108 29.3333 3.25473 29.2155 3.01906 28.9798C2.78337 28.7441 2.66553 28.4578 2.66553 28.1207V24.2577C2.66553 23.9292 2.78373 23.6468 3.02013 23.4106C3.25655 23.1744 3.54198 23.0563 3.87643 23.0563C4.21085 23.0563 4.49497 23.1744 4.72879 23.4106C4.96262 23.6468 5.07953 23.9292 5.07953 24.2577V26.9193H7.74113C8.06964 26.9193 8.35201 27.0378 8.58823 27.2748C8.82445 27.5117 8.94256 27.795 8.94256 28.1246C8.94256 28.4628 8.82445 28.7488 8.58823 28.9826C8.35201 29.2164 8.06964 29.3333 7.74113 29.3333H3.87813ZM24.2697 29.3333C23.9327 29.3333 23.6463 29.2151 23.4106 28.9787C23.175 28.7423 23.0571 28.4568 23.0571 28.1224C23.0571 27.788 23.175 27.5038 23.4106 27.27C23.6463 27.0362 23.9327 26.9193 24.2697 26.9193H26.9202V24.2577C26.9202 23.9292 27.0384 23.6468 27.2748 23.4106C27.5112 23.1744 27.7966 23.0563 28.1311 23.0563C28.4655 23.0563 28.7505 23.1744 28.9861 23.4106C29.2217 23.6468 29.3395 23.9292 29.3395 24.2577V28.1207C29.3395 28.4578 29.2205 28.7441 28.9825 28.9798C28.7445 29.2155 28.4612 29.3333 28.1327 29.3333H24.2697ZM28.1288 8.94173C27.7907 8.94173 27.5047 8.8239 27.2709 8.58823C27.0371 8.35256 26.9202 8.06621 26.9202 7.72916V5.0787H24.2697C23.9327 5.0787 23.6463 4.96049 23.4106 4.72406C23.175 4.48766 23.0571 4.20224 23.0571 3.8678C23.0571 3.53335 23.175 3.24834 23.4106 3.01276C23.6463 2.77716 23.9327 2.65936 24.2697 2.65936H28.1327C28.4612 2.65936 28.7445 2.77836 28.9825 3.01636C29.2205 3.25436 29.3395 3.53762 29.3395 3.86613V7.72916C29.3395 8.06621 29.2201 8.35256 28.9814 8.58823C28.7426 8.8239 28.4585 8.94173 28.1288 8.94173ZM23.3777 25.399V23.399H25.3777V25.399H23.3777ZM23.3777 21.399V19.399H25.3777V21.399H23.3777ZM21.3776 23.399V21.399H23.3777V23.399H21.3776ZM19.3776 25.399V23.399H21.3776V25.399H19.3776ZM17.3776 23.399V21.399H19.3776V23.399H17.3776ZM21.3776 19.399V17.399H23.3777V19.399H21.3776ZM19.3776 21.399V19.399H21.3776V21.399H19.3776ZM17.3776 19.399V17.399H19.3776V19.399H17.3776ZM18.5902 14.599C18.2532 14.599 17.9668 14.4812 17.7311 14.2455C17.4955 14.0098 17.3776 13.7235 17.3776 13.3864V7.7982C17.3776 7.47031 17.4955 7.18847 17.7311 6.9527C17.9668 6.7169 18.2532 6.599 18.5902 6.599H24.1784C24.5063 6.599 24.7882 6.7169 25.024 6.9527C25.2598 7.18847 25.3777 7.47031 25.3777 7.7982V13.3864C25.3777 13.7235 25.2598 14.0098 25.024 14.2455C24.7882 14.4812 24.5063 14.599 24.1784 14.599H18.5902ZM7.8124 25.399C7.47537 25.399 7.18903 25.2812 6.95336 25.0455C6.71769 24.8098 6.59986 24.5235 6.59986 24.1865V18.5982C6.59986 18.2703 6.71769 17.9885 6.95336 17.7527C7.18903 17.5169 7.47537 17.399 7.8124 17.399H13.4006C13.7285 17.399 14.0104 17.5169 14.2462 17.7527C14.482 17.9885 14.5999 18.2703 14.5999 18.5982V24.1865C14.5999 24.5235 14.482 24.8098 14.2462 25.0455C14.0104 25.2812 13.7285 25.399 13.4006 25.399H7.8124ZM7.8124 14.599C7.47537 14.599 7.18903 14.4812 6.95336 14.2455C6.71769 14.0098 6.59986 13.7235 6.59986 13.3864V7.7982C6.59986 7.47031 6.71769 7.18847 6.95336 6.9527C7.18903 6.7169 7.47537 6.599 7.8124 6.599H13.4006C13.7285 6.599 14.0104 6.7169 14.2462 6.9527C14.482 7.18847 14.5999 7.47031 14.5999 7.7982V13.3864C14.5999 13.7235 14.482 14.0098 14.2462 14.2455C14.0104 14.4812 13.7285 14.599 13.4006 14.599H7.8124ZM8.40926 23.5896H12.8127V19.1862H8.40926V23.5896ZM8.40926 12.8118H12.8127V8.4084H8.40926V12.8118ZM19.1648 12.8118H23.5682V8.4084H19.1648V12.8118Z" fill="#472200"/>
</g>
</svg>
