<svg width="24" height="24" viewBox="0 0 24 24" fill="none" xmlns="http://www.w3.org/2000/svg">
<g id="takeout_dining_FILL0_wght500_GRAD-25_opsz48 1">
<path id="Vector" d="M7.68504 18.3963H16.3044L16.8715 10.905H7.12797L7.68504 18.3963ZM7.00964 9.26423H16.9894L17.1084 7.47403L14.1711 4.6039H9.83614L6.89102 7.47403L7.00964 9.26423ZM5.46222 10.8278L2.38994 7.6175C2.23269 7.4559 2.15615 7.2684 2.16032 7.055C2.16448 6.84159 2.24736 6.64992 2.40894 6.48C2.57054 6.31007 2.7653 6.2251 2.99322 6.2251C3.22112 6.2251 3.42003 6.3059 3.58997 6.4675L5.32472 8.26478L5.28069 7.67783C5.25134 7.43651 5.27697 7.20661 5.35757 6.98813C5.43817 6.76965 5.56476 6.57469 5.73734 6.40325L8.62417 3.46043C8.77595 3.30681 8.95598 3.18453 9.16424 3.09358C9.37251 3.00263 9.58814 2.95715 9.81114 2.95715H14.1883C14.4113 2.95715 14.6269 3.00263 14.8352 3.09358C15.0435 3.18453 15.2235 3.30681 15.3753 3.46043L18.2584 6.39955C18.4361 6.57897 18.5649 6.77978 18.6447 7.00198C18.7245 7.22418 18.7512 7.45761 18.7247 7.70228L18.6747 8.26478L20.4267 6.4628C20.5891 6.30035 20.7823 6.21913 21.0062 6.21913C21.2302 6.21913 21.4229 6.30409 21.5845 6.47403C21.7501 6.64793 21.835 6.84258 21.8391 7.05798C21.8433 7.27338 21.7667 7.46188 21.6095 7.62348L18.5373 10.8278H5.46222ZM16.3209 20.0371H7.69102C7.26063 20.0371 6.88531 19.8891 6.56504 19.5932C6.24478 19.2972 6.07318 18.9334 6.05027 18.5017L5.46222 10.8278H18.5372L17.9677 18.5017C17.9324 18.9334 17.7548 19.2972 17.4347 19.5932C17.1147 19.8891 16.7434 20.0371 16.3209 20.0371Z" fill="#D68000"/>
</g>
</svg>
