<svg width="24" height="24" viewBox="0 0 24 24" fill="none" xmlns="http://www.w3.org/2000/svg">
<g id="Icon">
<path id="Vector" d="M3.61536 17.0372V19.3964H20.3828V17.0372H3.61536ZM3.61536 5.94478H6.62406C6.54471 5.79478 6.47695 5.60793 6.42078 5.38423C6.36463 5.16051 6.33656 4.9557 6.33656 4.76978C6.33656 3.98346 6.61076 3.31551 7.15916 2.76593C7.70754 2.21633 8.36363 1.94153 9.12743 1.94153C9.63905 1.94153 10.1115 2.06961 10.5448 2.32578C10.9781 2.58193 11.3175 2.90783 11.5632 3.30348L12.0116 3.99533L12.4599 3.30348C12.7223 2.89116 13.0597 2.56109 13.4724 2.31328C13.8851 2.06544 14.3275 1.94153 14.7997 1.94153C15.6013 1.94153 16.2788 2.21236 16.8319 2.75403C17.385 3.29571 17.6616 3.96956 17.6616 4.77558C17.6616 4.9521 17.6345 5.13375 17.5803 5.32055C17.5261 5.50737 17.4616 5.71545 17.3866 5.94478H20.3828C20.8272 5.94478 21.2128 6.10813 21.5395 6.43483C21.8662 6.76153 22.0295 7.1471 22.0295 7.59153V19.3964C22.0295 19.8392 21.8662 20.2234 21.5395 20.5489C21.2128 20.8744 20.8272 21.0372 20.3828 21.0372H3.61536C3.17256 21.0372 2.7884 20.8744 2.46288 20.5489C2.13737 20.2234 1.97461 19.8392 1.97461 19.3964V7.59153C1.97461 7.1471 2.13737 6.76153 2.46288 6.43483C2.7884 6.10813 3.17256 5.94478 3.61536 5.94478ZM3.61536 14.2872H20.3828V7.59153H14.3121L16.304 10.3285C16.429 10.4948 16.4696 10.6818 16.426 10.8896C16.3823 11.0974 16.2772 11.2645 16.1105 11.3908C15.9404 11.5185 15.7518 11.5651 15.5445 11.5307C15.3372 11.4963 15.1706 11.3867 15.0447 11.2019L11.9991 6.95078L8.95341 11.2019C8.83553 11.3904 8.6737 11.5009 8.46793 11.5335C8.26215 11.566 8.07678 11.5178 7.91183 11.3888C7.73303 11.2638 7.62388 11.0974 7.58438 10.8896C7.54488 10.6818 7.58763 10.4948 7.71263 10.3285L9.69796 7.59153H3.61536V14.2872ZM9.17081 6.09478C9.53748 6.09478 9.84998 5.96561 10.1083 5.70728C10.3666 5.44895 10.4958 5.13645 10.4958 4.76978C10.4958 4.40711 10.3666 4.09561 10.1083 3.83528C9.84998 3.57494 9.53748 3.44478 9.17081 3.44478C8.80414 3.44478 8.49164 3.57494 8.23331 3.83528C7.97498 4.09561 7.84581 4.40711 7.84581 4.76978C7.84581 5.13645 7.97498 5.44895 8.23331 5.70728C8.49164 5.96561 8.80414 6.09478 9.17081 6.09478ZM14.8023 6.09478C15.1848 6.09478 15.5055 5.96561 15.7642 5.70728C16.0229 5.44895 16.1523 5.13645 16.1523 4.76978C16.1523 4.40711 16.0229 4.09561 15.7642 3.83528C15.5055 3.57494 15.1848 3.44478 14.8023 3.44478C14.4523 3.44478 14.1481 3.57494 13.8898 3.83528C13.6315 4.09561 13.5023 4.40711 13.5023 4.76978C13.5023 5.13645 13.6315 5.44895 13.8898 5.70728C14.1481 5.96561 14.4523 6.09478 14.8023 6.09478Z" fill="#D68000"/>
</g>
</svg>
