<svg width="24" height="24" viewBox="0 0 24 24" fill="none" xmlns="http://www.w3.org/2000/svg">
<g id="Icon">
<path id="Vector" d="M4.39897 9.0096H19.6071L18.7674 6.0759H5.25764L4.39897 9.0096ZM16.6707 11.1596H7.33592L7.04244 13.2308H16.9576L16.6707 11.1596ZM4.09297 18.8645L5.18592 11.1596H2.97612C2.61562 11.1596 2.33392 11.0157 2.13102 10.7278C1.92812 10.4399 1.87014 10.1261 1.95709 9.78623L3.40602 4.70253C3.46834 4.47463 3.59162 4.28822 3.77587 4.1433C3.9601 3.99837 4.17649 3.9259 4.42504 3.9259H19.575C19.8196 3.9259 20.034 3.99837 20.2182 4.1433C20.4025 4.28822 20.5278 4.47463 20.5941 4.70253L22.049 9.78623C22.1399 10.1301 22.0829 10.4449 21.878 10.7308C21.6731 11.0167 21.3885 11.1596 21.024 11.1596H18.8207L19.9071 18.8645C19.9524 19.1917 19.8694 19.4754 19.6582 19.7156C19.447 19.9558 19.1778 20.0759 18.8506 20.0759C18.5854 20.0759 18.3533 19.9909 18.1544 19.821C17.9555 19.6511 17.8354 19.4335 17.7941 19.1683L17.2674 15.3808H6.73264L6.20602 19.1683C6.16472 19.4335 6.04461 19.6511 5.84569 19.821C5.64678 19.9909 5.41471 20.0759 5.14949 20.0759C4.82233 20.0759 4.55313 19.9558 4.34189 19.7156C4.13066 19.4754 4.04769 19.1917 4.09297 18.8645Z" fill="#D68000"/>
</g>
</svg>
