<svg width="24" height="24" viewBox="0 0 24 24" fill="none" xmlns="http://www.w3.org/2000/svg">
<g id="Icon">
<path id="Vector" d="M4.1969 18.5032C3.60155 18.5032 3.09438 18.2937 2.67537 17.8747C2.25637 17.4557 2.04688 16.9485 2.04688 16.3531V4.67163C2.04688 4.07628 2.25637 3.56911 2.67537 3.15011C3.09438 2.73111 3.60155 2.52161 4.1969 2.52161H19.8034C20.3988 2.52161 20.9059 2.73111 21.3249 3.15011C21.7439 3.56911 21.9534 4.07628 21.9534 4.67163V16.3531C21.9534 16.9485 21.7439 17.4557 21.3249 17.8747C20.9059 18.2937 20.3988 18.5032 19.8034 18.5032H15.9578V19.4031C15.9578 19.6973 15.8521 19.9501 15.6409 20.1613C15.4297 20.3725 15.177 20.4782 14.8828 20.4782H9.11755C8.82333 20.4782 8.57062 20.3725 8.3594 20.1613C8.14817 19.9501 8.04255 19.6973 8.04255 19.4031V18.5032H4.1969ZM4.1969 16.3531H19.8034V4.67163H4.1969V16.3531Z" fill="#D68000"/>
</g>
</svg>
