<svg width="24" height="24" viewBox="0 0 24 24" fill="none" xmlns="http://www.w3.org/2000/svg">
<g id="Icon">
<path id="Vector" d="M5.62038 12.0813C5.62038 13.1502 5.84873 14.1171 6.30543 14.9822C6.76213 15.8472 7.4952 16.607 8.50463 17.2617V15.0052C8.50463 14.8009 8.57743 14.6261 8.72303 14.4808C8.86863 14.3355 9.04992 14.2628 9.26688 14.2628C9.47383 14.2628 9.64907 14.3355 9.79258 14.4808C9.93612 14.6261 10.0079 14.8009 10.0079 15.0052V19.1759C10.0079 19.408 9.92812 19.6037 9.76861 19.7632C9.60911 19.9228 9.41749 20.0025 9.19376 20.0025H5.02908C4.81645 20.0025 4.63747 19.9289 4.49216 19.7817C4.34684 19.6346 4.27418 19.4533 4.27418 19.2379C4.27418 19.0325 4.34657 18.8581 4.49133 18.7145C4.6361 18.571 4.81734 18.4993 5.03506 18.4993H7.39321C6.31821 17.6873 5.47953 16.7813 4.87718 15.7813C4.27482 14.7813 3.97363 13.548 3.97363 12.0813C3.97363 10.5877 4.36892 9.17974 5.15951 7.85754C5.95009 6.53534 7.08197 5.52026 8.55516 4.81229C8.74176 4.72933 8.92944 4.73739 9.11821 4.83649C9.30697 4.93558 9.43886 5.08558 9.51386 5.28649C9.58451 5.49971 9.58361 5.7007 9.51116 5.88947C9.43869 6.07824 9.30916 6.2161 9.12256 6.30307C8.09546 6.82307 7.25499 7.602 6.60116 8.63987C5.94731 9.67773 5.62038 10.8249 5.62038 12.0813ZM18.2919 11.0003C18.1083 10.1623 17.7972 9.39809 17.3586 8.70774C16.9199 8.01739 16.3256 7.36113 15.5758 6.73894V8.98294C15.5758 9.19558 15.5016 9.37455 15.3531 9.51987C15.2047 9.66518 15.0277 9.73784 14.8223 9.73784C14.6086 9.73784 14.4292 9.66462 14.2842 9.51817C14.1391 9.3717 14.0666 9.1913 14.0666 8.97697V4.81229C14.0666 4.58856 14.1463 4.39694 14.3059 4.23744C14.4654 4.07793 14.6631 3.99817 14.8992 3.99817H19.0579C19.2616 3.99817 19.4372 4.07125 19.5849 4.21742C19.7325 4.3636 19.8063 4.53948 19.8063 4.74504C19.8063 4.95896 19.7325 5.1385 19.5849 5.28367C19.4372 5.42884 19.2616 5.50142 19.0579 5.50142H16.6747C17.4997 6.2257 18.2205 7.07326 18.837 8.04409C19.4535 9.01493 19.829 10.0003 19.9633 11.0003H18.2919Z" fill="#D68000"/>
<path id="Vector_2" d="M13.1043 14.8474C12.9828 14.8474 12.88 14.8051 12.796 14.7204C12.7119 14.6357 12.6699 14.5328 12.6699 14.4117V13.0235C12.6699 12.9054 12.7123 12.8036 12.797 12.7181C12.8817 12.6325 12.9846 12.5898 13.1057 12.5898H14.4939C14.612 12.5898 14.7135 12.6327 14.7983 12.7185C14.8832 12.8043 14.9257 12.9064 14.9257 13.0249C14.9257 13.1464 14.8832 13.2491 14.7983 13.3332C14.7135 13.4172 14.612 13.4592 14.4939 13.4592H13.5374V14.4117C13.5374 14.5328 13.4949 14.6357 13.4097 14.7204C13.3245 14.8051 13.2227 14.8474 13.1043 14.8474ZM13.1057 22.1755C12.9846 22.1755 12.8817 22.1331 12.797 22.0484C12.7123 21.9638 12.6699 21.8609 12.6699 21.7397V20.3515C12.6699 20.2334 12.7124 20.132 12.7974 20.0471C12.8823 19.9622 12.9849 19.9197 13.1051 19.9197C13.2253 19.9197 13.3274 19.9622 13.4114 20.0471C13.4954 20.132 13.5374 20.2334 13.5374 20.3515V21.308H14.4939C14.612 21.308 14.7134 21.3505 14.7983 21.4357C14.8832 21.5209 14.9257 21.6227 14.9257 21.7411C14.9257 21.8626 14.8832 21.9654 14.7983 22.0494C14.7134 22.1335 14.612 22.1755 14.4939 22.1755H13.1057ZM20.4337 22.1755C20.3126 22.1755 20.2097 22.133 20.125 22.048C20.0403 21.9631 19.998 21.8605 19.998 21.7403C19.998 21.6201 20.0403 21.518 20.125 21.434C20.2097 21.35 20.3126 21.308 20.4337 21.308H21.3862V20.3515C21.3862 20.2334 21.4287 20.132 21.5136 20.0471C21.5986 19.9622 21.7012 19.9197 21.8214 19.9197C21.9415 19.9197 22.044 19.9622 22.1286 20.0471C22.2133 20.132 22.2556 20.2334 22.2556 20.3515V21.7397C22.2556 21.8608 22.2129 21.9638 22.1273 22.0484C22.0418 22.1331 21.94 22.1755 21.822 22.1755H20.4337ZM21.8206 14.8474C21.699 14.8474 21.5963 14.8051 21.5122 14.7204C21.4282 14.6357 21.3862 14.5328 21.3862 14.4117V13.4592H20.4337C20.3126 13.4592 20.2097 13.4167 20.125 13.3318C20.0403 13.2468 19.998 13.1442 19.998 13.0241C19.998 12.9039 20.0403 12.8014 20.125 12.7168C20.2097 12.6321 20.3126 12.5898 20.4337 12.5898H21.822C21.94 12.5898 22.0418 12.6325 22.1273 12.7181C22.2129 12.8036 22.2556 12.9054 22.2556 13.0235V14.4117C22.2556 14.5328 22.2127 14.6357 22.1269 14.7204C22.0411 14.8051 21.939 14.8474 21.8206 14.8474ZM20.1131 20.7616V20.0429H20.8319V20.7616H20.1131ZM20.1131 19.3242V18.6054H20.8319V19.3242H20.1131ZM19.3944 20.0429V19.3242H20.1131V20.0429H19.3944ZM18.6757 20.7616V20.0429H19.3944V20.7616H18.6757ZM17.9569 20.0429V19.3242H18.6757V20.0429H17.9569ZM19.3944 18.6054V17.8867H20.1131V18.6054H19.3944ZM18.6757 19.3242V18.6054H19.3944V19.3242H18.6757ZM17.9569 18.6054V17.8867H18.6757V18.6054H17.9569ZM18.3927 16.8805C18.2716 16.8805 18.1687 16.8381 18.084 16.7534C17.9993 16.6688 17.9569 16.5658 17.9569 16.4447V14.4365C17.9569 14.3187 17.9993 14.2174 18.084 14.1327C18.1687 14.0479 18.2716 14.0056 18.3927 14.0056H20.4009C20.5187 14.0056 20.62 14.0479 20.7048 14.1327C20.7895 14.2174 20.8319 14.3187 20.8319 14.4365V16.4447C20.8319 16.5658 20.7895 16.6688 20.7048 16.7534C20.62 16.8381 20.5187 16.8805 20.4009 16.8805H18.3927ZM14.5195 20.7616C14.3984 20.7616 14.2955 20.7193 14.2108 20.6346C14.1261 20.5499 14.0838 20.447 14.0838 20.3259V18.3177C14.0838 18.1998 14.1261 18.0985 14.2108 18.0138C14.2955 17.9291 14.3984 17.8867 14.5195 17.8867H16.5277C16.6456 17.8867 16.7469 17.9291 16.8316 18.0138C16.9163 18.0985 16.9587 18.1998 16.9587 18.3177V20.3259C16.9587 20.447 16.9163 20.5499 16.8316 20.6346C16.7469 20.7193 16.6456 20.7616 16.5277 20.7616H14.5195ZM14.5195 16.8805C14.3984 16.8805 14.2955 16.8381 14.2108 16.7534C14.1261 16.6688 14.0838 16.5658 14.0838 16.4447V14.4365C14.0838 14.3187 14.1261 14.2174 14.2108 14.1327C14.2955 14.0479 14.3984 14.0056 14.5195 14.0056H16.5277C16.6456 14.0056 16.7469 14.0479 16.8316 14.1327C16.9163 14.2174 16.9587 14.3187 16.9587 14.4365V16.4447C16.9587 16.5658 16.9163 16.6688 16.8316 16.7534C16.7469 16.8381 16.6456 16.8805 16.5277 16.8805H14.5195ZM14.734 20.1114H16.3165V18.529H14.734V20.1114ZM14.734 16.2382H16.3165V14.6558H14.734V16.2382ZM18.5992 16.2382H20.1816V14.6558H18.5992V16.2382Z" fill="#D68000"/>
</g>
</svg>
