<svg width="83" height="83" viewBox="0 0 83 83" fill="none" xmlns="http://www.w3.org/2000/svg">
<g filter="url(#filter0_d_965_19502)">
<rect width="80" height="80" rx="40" fill="#D68000"/>
<path d="M39.9326 41.8348L30.5778 51.1785C30.3293 51.4235 30.0426 51.5464 29.7177 51.5474C29.3927 51.5483 29.1123 51.4254 28.8764 51.1785C28.6279 50.941 28.5037 50.6593 28.5037 50.3334C28.5037 50.0075 28.6279 49.722 28.8764 49.4771L41.824 36.5575C41.3753 35.4981 41.2999 34.3983 41.5976 33.2581C41.8954 32.118 42.5206 31.0679 43.4735 30.108C44.4813 29.1075 45.7179 28.4621 47.1831 28.1718C48.6483 27.8814 49.853 28.2083 50.7971 29.1524C51.7487 30.1114 52.0718 31.3161 51.7667 32.7665C51.4615 34.2169 50.7902 35.4682 49.7527 36.5206C48.863 37.436 47.8518 38.0491 46.719 38.3599C45.5862 38.6707 44.5217 38.6223 43.5254 38.2145L41.6367 40.1334L50.9971 49.4938C51.2309 49.7276 51.3465 50.0065 51.3438 50.3306C51.341 50.6547 51.2246 50.9373 50.9945 51.1785C50.7497 51.4235 50.4671 51.5459 50.1467 51.5459C49.8262 51.5459 49.5435 51.4235 49.2986 51.1785L39.9326 41.8348ZM33.6363 40.3945L29.7623 36.5206C28.7578 35.5235 28.1715 34.3543 28.0034 33.013C27.8353 31.6717 28.1244 30.4206 28.8708 29.2599C29.0845 28.9503 29.3736 28.7783 29.7383 28.744C30.103 28.7097 30.4226 28.8271 30.6971 29.0962L37.8266 36.2264L33.6363 40.3945Z" fill="white"/>
</g>
<defs>
<filter id="filter0_d_965_19502" x="0" y="0" width="82.0233" height="82.0233" filterUnits="userSpaceOnUse" color-interpolation-filters="sRGB">
<feFlood flood-opacity="0" result="BackgroundImageFix"/>
<feColorMatrix in="SourceAlpha" type="matrix" values="0 0 0 0 0 0 0 0 0 0 0 0 0 0 0 0 0 0 127 0" result="hardAlpha"/>
<feOffset dx="1.34886" dy="1.34886"/>
<feGaussianBlur stdDeviation="0.337214"/>
<feComposite in2="hardAlpha" operator="out"/>
<feColorMatrix type="matrix" values="0 0 0 0 0.191667 0 0 0 0 0.138 0 0 0 0 0 0 0 0 0.05 0"/>
<feBlend mode="normal" in2="BackgroundImageFix" result="effect1_dropShadow_965_19502"/>
<feBlend mode="normal" in="SourceGraphic" in2="effect1_dropShadow_965_19502" result="shape"/>
</filter>
</defs>
</svg>
