<svg xmlns="http://www.w3.org/2000/svg" width="16" height="17" viewBox="0 0 16 17" fill="none">
  <path d="M8.00158 10.7138C7.92583 10.7138 7.85626 10.7001 7.79284 10.6725C7.72944 10.645 7.67008 10.6008 7.61476 10.5399L4.34093 7.26609C4.22953 7.16024 4.17383 7.03413 4.17383 6.88775C4.17383 6.74138 4.23047 6.61154 4.34374 6.49825C4.45148 6.39053 4.58131 6.33667 4.73324 6.33667C4.88518 6.33667 5.01724 6.38998 5.12943 6.4966L7.99991 9.37544L10.8787 6.4966C10.9854 6.38998 11.1119 6.33667 11.2582 6.33667C11.4046 6.33667 11.5345 6.39053 11.6477 6.49825C11.7555 6.61154 11.8093 6.74415 11.8093 6.89609C11.8093 7.04802 11.7564 7.17691 11.6506 7.28275L8.39339 10.5399C8.33252 10.6008 8.27093 10.645 8.20864 10.6725C8.14634 10.7001 8.07732 10.7138 8.00158 10.7138Z" fill="#321800"/>
</svg>