<svg width="24" height="25" viewBox="0 0 24 25" fill="none" xmlns="http://www.w3.org/2000/svg">
<path d="M11.9999 10.8001L7.69414 15.1059C7.52586 15.2741 7.32777 15.3624 7.09987 15.3708C6.87197 15.3791 6.67722 15.2983 6.51562 15.1284C6.3457 14.9668 6.26074 14.7721 6.26074 14.5442C6.26074 14.3163 6.34429 14.1187 6.51139 13.9516L11.4221 9.04088C11.5051 8.95791 11.5933 8.8937 11.6868 8.84823C11.7802 8.80276 11.8838 8.78003 11.9974 8.78003C12.111 8.78003 12.2154 8.80276 12.3105 8.84823C12.4056 8.8937 12.4988 8.95791 12.5901 9.04088L17.4758 13.9266C17.6346 14.0937 17.7182 14.2871 17.7265 14.5067C17.7348 14.7262 17.6582 14.9168 17.4966 15.0784C17.3267 15.2483 17.1278 15.3333 16.8999 15.3333C16.672 15.3333 16.478 15.2491 16.3181 15.0809L11.9999 10.8001Z" fill="white"/>
</svg>
