<svg xmlns="http://www.w3.org/2000/svg" width="40" height="41" viewBox="0 0 40 41" fill="none">
<path d="M20 0.625244C25.5547 0.625244 30.2812 2.57056 34.1641 6.46118C38.0469 10.3518 40 15.0706 40 20.6252C40 26.1252 38.0547 30.8362 34.1641 34.7502C30.2734 38.6643 25.5547 40.6252 20 40.6252C14.4453 40.6252 9.71875 38.6643 5.83594 34.7502C1.95312 30.8362 0 26.1252 0 20.6252C0 15.0706 1.94531 10.344 5.83594 6.46118C9.72656 2.57837 14.4453 0.625244 20 0.625244ZM24.75 14.3752V11.1252H21.75C20.5312 11.1252 19.5 11.5862 18.6641 12.5002C17.8281 13.4143 17.4141 14.5393 17.4141 15.8752V17.7112H14.25V20.7971H17.4141V30.0471H21V20.7893H24.75V17.7034H21V15.5393C21 14.7581 21.25 14.3752 21.75 14.3752H24.75Z" fill="#846B54"/>
</svg>