<svg width="41" height="41" viewBox="0 0 41 41" fill="none" xmlns="http://www.w3.org/2000/svg">
<path d="M20.5 0.274414C26.0547 0.274414 30.7812 2.21973 34.6641 6.11035C38.5469 10.001 40.5 14.7197 40.5 20.2744C40.5 25.7744 38.5547 30.4854 34.6641 34.3994C30.7734 38.3135 26.0547 40.2744 20.5 40.2744C14.9453 40.2744 10.2188 38.3135 6.33594 34.3994C2.45312 30.4854 0.5 25.7744 0.5 20.2744C0.5 14.7197 2.44531 9.99316 6.33594 6.11035C10.2266 2.22754 14.9453 0.274414 20.5 0.274414ZM25.25 14.0244V10.7744H22.25C21.0312 10.7744 20 11.2354 19.1641 12.1494C18.3281 13.0635 17.9141 14.1885 17.9141 15.5244V17.3604H14.75V20.4463H17.9141V29.6963H21.5V20.4385H25.25V17.3525H21.5V15.1885C21.5 14.4072 21.75 14.0244 22.25 14.0244H25.25Z" fill="#846B54"/>
</svg>
