<svg xmlns="http://www.w3.org/2000/svg" width="197" height="25" viewBox="0 0 197 25" fill="currentColor">
<g clip-path="url(#clip0_1597_519)">
<path d="M41.3254 0.89624C43.2984 0.89624 44.8976 2.49791 44.8976 4.47384V14.7233C44.8976 16.0996 44.6828 17.3992 44.2518 18.6222C43.8207 19.8452 43.0792 21.0004 42.1228 21.9272C41.2489 22.773 40.3353 23.3727 39.3804 23.7248C37.9901 24.242 36.3187 24.4999 34.3693 24.4999C33.2423 24.4999 32.0109 24.4203 30.6779 24.2626C29.345 24.1035 28.2297 23.7911 27.3352 23.3211C26.4392 22.8525 25.6197 22.185 24.8767 21.3201C24.1337 20.4552 23.6247 19.5637 23.351 18.6457C22.9082 17.1693 22.6875 15.8609 22.6875 14.7219V4.47384C22.6875 2.49791 24.2868 0.89624 26.2597 0.89624C28.2327 0.89624 29.8319 2.49791 29.8319 4.47384V15.0534C29.8319 16.3191 30.1821 17.3078 30.8839 18.0195C31.5842 18.7312 32.5567 19.0878 33.7999 19.0878C35.0431 19.0878 35.9995 18.7371 36.7013 18.0357C37.4016 17.3344 37.7517 16.3412 37.7517 15.0534V4.47384C37.7517 2.49791 39.351 0.89624 41.3239 0.89624H41.3254Z" fill="currentColor"/>
<path d="M48.3608 4.47384C48.3608 2.49791 49.9601 0.89624 51.9331 0.89624H61.7655C65.0435 0.89624 67.2033 2.08828 68.2464 4.47384C68.5509 5.16932 68.704 5.91785 68.704 6.67669C68.704 8.0485 68.2773 9.22433 67.424 10.2057C66.8546 10.8599 66.0219 11.3771 64.9258 11.7572C66.5912 12.158 67.8153 12.8476 68.601 13.8231C69.3866 14.8 69.778 16.0259 69.778 17.5038C69.778 18.7076 69.4984 19.7892 68.9408 20.7499C68.3818 21.7106 67.6182 22.4709 66.6486 23.0293C66.0483 23.3771 65.142 23.6305 63.9297 23.7897C62.3172 24.0004 61.2476 24.1065 60.7209 24.1065H51.9316C49.9586 24.1065 48.3594 22.5048 48.3594 20.5289V4.47384H48.3608ZM55.5847 9.99938H58.6994C59.8161 9.99938 60.5944 9.80636 61.0313 9.42178C61.4683 9.0372 61.6875 8.48023 61.6875 7.75086C61.6875 7.076 61.4683 6.54703 61.0313 6.16834C60.5944 5.78819 59.8323 5.59811 58.7465 5.59811H55.5847V9.99938ZM55.5847 19.1187H59.2364C60.4693 19.1187 61.3388 18.8992 61.8449 18.4616C62.3511 18.0239 62.6041 17.4345 62.6041 16.6963C62.6041 16.0097 62.354 15.4586 61.8538 15.0416C61.3535 14.6246 60.4752 14.4169 59.2217 14.4169H55.5862V19.1187H55.5847Z" fill="currentColor"/>
<path d="M72.2476 4.47384C72.2476 2.49791 73.8468 0.89624 75.8198 0.89624H85.6522C88.9302 0.89624 91.09 2.08828 92.1331 4.47384C92.4377 5.16932 92.5907 5.91785 92.5907 6.67669C92.5907 8.0485 92.164 9.22433 91.3107 10.2057C90.7413 10.8599 89.9086 11.3771 88.8125 11.7572C90.4779 12.158 91.702 12.8476 92.4877 13.8231C93.2733 14.8 93.6647 16.0259 93.6647 17.5038C93.6647 18.7076 93.3852 19.7892 92.8275 20.7499C92.2685 21.7106 91.5049 22.4709 90.5353 23.0293C89.935 23.3771 89.0288 23.6305 87.8164 23.7897C86.2039 24.0004 85.1343 24.1065 84.6076 24.1065H75.8183C73.8454 24.1065 72.2461 22.5048 72.2461 20.5289V4.47384H72.2476ZM79.4715 9.99938H82.5861C83.7028 9.99938 84.4811 9.80636 84.9181 9.42178C85.355 9.0372 85.5742 8.48023 85.5742 7.75086C85.5742 7.076 85.355 6.54703 84.9181 6.16834C84.4811 5.78819 83.719 5.59811 82.6332 5.59811H79.4715V9.99938ZM79.4715 19.1187H83.1231C84.356 19.1187 85.2256 18.8992 85.7317 18.4616C86.2378 18.0239 86.4908 17.4345 86.4908 16.6963C86.4908 16.0097 86.2407 15.4586 85.7405 15.0416C85.2403 14.6246 84.3619 14.4169 83.1084 14.4169H79.4729V19.1187H79.4715Z" fill="currentColor"/>
<path d="M95.2188 12.5157C95.2188 8.72741 96.2722 5.77751 98.3805 3.66601C100.487 1.55452 103.422 0.499512 107.186 0.499512C110.949 0.499512 114.014 1.53684 116.102 3.61002C118.188 5.68321 119.231 8.5889 119.231 12.3256C119.231 15.0383 118.775 17.2633 117.864 18.999C116.952 20.7348 115.635 22.086 113.913 23.0526C112.19 24.0177 110.042 24.501 107.471 24.501C104.901 24.501 102.694 24.084 100.983 23.25C99.2706 22.416 97.8817 21.0973 96.818 19.2922C95.7528 17.4872 95.2217 15.2284 95.2217 12.5157H95.2188ZM102.379 12.5467C102.379 14.8895 102.815 16.5737 103.683 17.5963C104.552 18.6203 105.735 19.1316 107.232 19.1316C108.728 19.1316 109.961 18.6306 110.804 17.6272C111.647 16.6252 112.069 14.8247 112.069 12.2284C112.069 10.0432 111.629 8.44745 110.749 7.43959C109.87 6.43173 108.676 5.9278 107.168 5.9278C105.66 5.9278 104.566 6.4391 103.69 7.46317C102.815 8.48723 102.378 10.1817 102.378 12.5452L102.379 12.5467Z" fill="currentColor"/>
<path d="M15.3614 0.89624C13.2281 0.89624 11.4994 2.62758 11.4994 4.76412V8.632H7.72412V4.76412C7.72412 2.62758 5.99391 0.89624 3.86206 0.89624C1.7302 0.89624 0 2.62758 0 4.76412V20.2371C0 22.3736 1.7302 24.105 3.86206 24.105C5.99391 24.105 7.72412 22.3736 7.72412 20.2371V16.3692H11.4994V20.2371C11.4994 22.3736 13.2296 24.105 15.3614 24.105C17.4933 24.105 19.2235 22.3736 19.2235 20.2371V4.76412C19.2235 2.62758 17.4933 0.89624 15.3614 0.89624Z" fill="currentColor"/>
<path d="M3.86206 8.632H7.72411V4.76412C7.72411 2.62758 5.99391 0.89624 3.86206 0.89624C3.50307 0.89624 3.15732 0.949285 2.82776 1.04064C2.78951 1.05096 2.75126 1.05832 2.71447 1.07011C2.48202 1.14231 2.25838 1.23809 2.04652 1.35154C2.03917 1.35597 2.03034 1.35891 2.02151 1.36333C1.80376 1.48268 1.59779 1.62119 1.408 1.77738C1.408 1.77738 1.40652 1.77738 1.40505 1.77885C1.33885 1.83337 1.27558 1.89378 1.21379 1.9542C1.18731 1.97925 1.15788 2.00282 1.1314 2.02934C1.10492 2.05587 1.08138 2.08534 1.05636 2.11186C0.997514 2.17522 0.937192 2.2371 0.881285 2.30341C0.881285 2.30341 0.881285 2.30488 0.879813 2.30636C0.72386 2.49644 0.58409 2.70272 0.466389 2.9208C0.353102 3.12856 0.260413 3.34958 0.18685 3.57944C0.182436 3.59123 0.178022 3.60302 0.173609 3.61481C0.161839 3.65164 0.154482 3.69143 0.144183 3.72826C0.0529654 4.05832 0 4.40459 0 4.76412C0 6.90066 1.72873 8.632 3.86206 8.632Z" fill="#FFD770"/>
<path d="M15.3621 16.3679H11.5V20.2358C11.5 22.3723 13.2302 24.1037 15.3621 24.1037C15.721 24.1037 16.0668 24.0506 16.3964 23.9593C16.4346 23.949 16.4729 23.9416 16.5096 23.9298C16.7421 23.8576 16.9657 23.7618 17.1776 23.6484C17.1849 23.644 17.1938 23.641 17.2026 23.6366C17.4203 23.5172 17.6263 23.3787 17.8161 23.2225C17.8161 23.2225 17.8176 23.2225 17.8191 23.2211C17.8853 23.1665 17.9485 23.1061 18.0103 23.0457C18.0368 23.0207 18.0662 22.9971 18.0927 22.9706C18.1192 22.944 18.1427 22.9146 18.1677 22.8881C18.2266 22.8247 18.2869 22.7628 18.3428 22.6965C18.3428 22.6965 18.3428 22.695 18.3443 22.6936C18.5003 22.5035 18.64 22.2972 18.7577 22.0791C18.871 21.8714 18.9637 21.6503 19.0373 21.4205C19.0417 21.4087 19.0461 21.3969 19.0505 21.3851C19.0623 21.3483 19.0696 21.3085 19.0799 21.2717C19.1711 20.9416 19.2241 20.5953 19.2241 20.2358C19.2241 18.0993 17.4954 16.3679 15.3621 16.3679Z" fill="#FFD770"/>
<path d="M131.93 24.4352C130.791 24.4352 129.916 24.1228 129.302 23.4981C128.689 22.8733 128.383 21.9907 128.383 20.8502V4.49903C128.383 3.33646 128.695 2.44795 129.319 1.83499C129.942 1.22055 130.824 0.914062 131.962 0.914062H140.141C142.813 0.914062 144.877 1.61102 146.334 3.00345C147.79 4.39589 148.518 6.29962 148.518 8.7117C148.518 11.1238 147.79 13.0275 146.334 14.42C144.877 15.8124 142.813 16.5093 140.141 16.5093H135.443V20.8517C135.443 21.9922 135.148 22.8748 134.556 23.4995C133.965 24.1243 133.089 24.4367 131.929 24.4367L131.93 24.4352ZM135.445 11.112H138.829C139.792 11.112 140.531 10.9146 141.046 10.5197C141.561 10.1248 141.818 9.52212 141.818 8.71023C141.818 7.89834 141.561 7.2677 141.046 6.88459C140.531 6.50149 139.791 6.30846 138.829 6.30846H135.445V11.112Z" fill="currentColor"/>
<path d="M162.737 24.4999C160.351 24.4999 158.243 23.996 156.415 22.9866C154.587 21.9773 153.162 20.5687 152.144 18.7592C151.126 16.9498 150.617 14.8604 150.617 12.4925C150.617 10.1247 151.126 8.00726 152.144 6.20962C153.162 4.41198 154.585 3.01365 156.415 2.01463C158.243 1.01709 160.351 0.517578 162.737 0.517578C165.124 0.517578 167.259 1.01709 169.077 2.01463C170.894 3.01218 172.312 4.41051 173.33 6.20962C174.349 8.00874 174.858 10.1025 174.858 12.4925C174.858 14.8825 174.349 16.9778 173.33 18.7754C172.312 20.5746 170.894 21.9773 169.077 22.9866C167.259 23.996 165.146 24.4999 162.737 24.4999ZM162.737 18.6119C164.226 18.6119 165.399 18.0696 166.252 16.9837C167.107 15.8977 167.534 14.4007 167.534 12.494C167.534 10.5873 167.107 9.09469 166.252 8.02052C165.399 6.94636 164.226 6.40854 162.737 6.40854C161.249 6.40854 160.077 6.94047 159.223 8.00432C158.368 9.06817 157.941 10.5652 157.941 12.4955C157.941 14.4257 158.369 15.9287 159.223 17.0028C160.076 18.077 161.247 18.6148 162.737 18.6148V18.6119Z" fill="currentColor"/>
<path d="M186.318 24.5004C185.486 24.5004 184.599 24.44 183.658 24.3191C182.717 24.1983 181.813 24.0348 180.948 23.8255C180.083 23.6178 179.311 23.382 178.633 23.1183C177.932 22.8339 177.439 22.4228 177.155 21.885C176.87 21.3471 176.761 20.7725 176.827 20.158C176.894 19.5451 177.101 18.9955 177.451 18.5136C177.801 18.0318 178.272 17.6973 178.864 17.5102C179.455 17.3245 180.123 17.385 180.867 17.6914C181.634 17.9994 182.537 18.2514 183.578 18.4488C184.618 18.6462 185.531 18.745 186.32 18.745C187.59 18.745 188.455 18.602 188.915 18.3177C189.376 18.0333 189.605 17.7032 189.605 17.3304C189.605 16.9797 189.446 16.6895 189.129 16.4581C188.811 16.2283 188.225 16.0249 187.372 15.8496L183.429 14.995C179.246 14.0962 177.155 11.8697 177.155 8.31717C177.155 6.73761 177.582 5.36727 178.437 4.2047C179.29 3.04212 180.483 2.13741 182.016 1.49055C183.55 0.843696 185.334 0.519531 187.372 0.519531C188.4 0.519531 189.495 0.630042 190.657 0.848117C191.818 1.06766 192.814 1.38594 193.647 1.80293C194.238 2.08878 194.671 2.49399 194.944 3.02002C195.218 3.54605 195.333 4.09419 195.289 4.66442C195.245 5.23466 195.064 5.74448 194.747 6.19389C194.43 6.6433 193.987 6.95126 193.417 7.11482C192.848 7.27985 192.158 7.21943 191.347 6.93358C190.8 6.73613 190.142 6.577 189.376 6.45617C188.609 6.33535 187.909 6.27493 187.273 6.27493C186.199 6.27493 185.395 6.42817 184.859 6.73613C184.322 7.04409 184.054 7.4493 184.054 7.95322C184.054 8.23908 184.207 8.49546 184.513 8.7268C184.819 8.95666 185.411 9.16 186.286 9.33535L190.229 10.19C194.41 11.1109 196.503 13.2931 196.503 16.7366C196.503 18.2941 196.08 19.66 195.239 20.8329C194.396 22.0058 193.213 22.9105 191.692 23.547C190.169 24.1836 188.38 24.5018 186.321 24.5018L186.318 24.5004Z" fill="currentColor"/>
</g>
<defs>
<clipPath id="clip0_1597_519">
<rect width="196.5" height="24" fill="white" transform="translate(0 0.5)"/>
</clipPath>
</defs>
</svg>