<svg width="145" height="56" viewBox="0 0 145 56" fill="none" xmlns="http://www.w3.org/2000/svg">
<path d="M0.66754 10.6806C0.66754 5.15056 5.15056 0.66754 10.6806 0.66754H134.319C139.849 0.66754 144.332 5.15056 144.332 10.6806V45.3194C144.332 50.8494 139.849 55.3325 134.319 55.3325H10.6807C5.15057 55.3325 0.66754 50.8494 0.66754 45.3194V10.6806Z" stroke="#6C4E33" stroke-width="1.33508"/>
<path d="M16 39.3331V16.6665C16 15.8798 16.4533 15.1865 17.12 14.8665L30.2533 27.9998L17.12 41.1331C16.4533 40.7998 16 40.1198 16 39.3331ZM34.4133 32.1598L20.0667 40.4531L31.3867 29.1331L34.4133 32.1598ZM38.88 26.4131C39.3333 26.7731 39.6667 27.3331 39.6667 27.9998C39.6667 28.6665 39.3733 29.1998 38.9067 29.5731L35.8533 31.3331L32.52 27.9998L35.8533 24.6665L38.88 26.4131ZM20.0667 15.5465L34.4133 23.8398L31.3867 26.8665L20.0667 15.5465Z" fill="#B5A478"/>
<path d="M56.5767 16.5199C56.5218 16.3475 56.4479 16.1932 56.3551 16.0568C56.2642 15.9186 56.1553 15.8011 56.0284 15.7045C55.9015 15.6061 55.7566 15.5312 55.5938 15.4801C55.4328 15.429 55.2557 15.4034 55.0625 15.4034C54.7348 15.4034 54.4394 15.4877 54.1761 15.6562C53.9129 15.8248 53.7045 16.072 53.5511 16.3977C53.3996 16.7216 53.3239 17.1184 53.3239 17.5881C53.3239 18.0597 53.4006 18.4583 53.554 18.7841C53.7074 19.1098 53.9176 19.357 54.1847 19.5256C54.4517 19.6941 54.7557 19.7784 55.0966 19.7784C55.4129 19.7784 55.6884 19.714 55.9233 19.5852C56.16 19.4564 56.3428 19.2746 56.4716 19.0398C56.6023 18.803 56.6676 18.5246 56.6676 18.2045L56.8949 18.2472H55.2301V17.5227H57.517V18.1847C57.517 18.6733 57.4129 19.0975 57.2045 19.4574C56.9981 19.8153 56.7121 20.0919 56.3466 20.2869C55.983 20.482 55.5663 20.5795 55.0966 20.5795C54.5701 20.5795 54.108 20.4583 53.7102 20.2159C53.3144 19.9735 53.0057 19.6297 52.7841 19.1847C52.5625 18.7377 52.4517 18.2074 52.4517 17.5938C52.4517 17.1297 52.5161 16.7131 52.6449 16.3438C52.7737 15.9744 52.9545 15.661 53.1875 15.4034C53.4223 15.1439 53.6979 14.946 54.0142 14.8097C54.3324 14.6714 54.6799 14.6023 55.0568 14.6023C55.3712 14.6023 55.6638 14.6487 55.9347 14.7415C56.2074 14.8343 56.4498 14.9659 56.6619 15.1364C56.8759 15.3068 57.053 15.5095 57.1932 15.7443C57.3333 15.9773 57.428 16.2358 57.4773 16.5199H56.5767ZM60.4439 20.5881C60.014 20.5881 59.6437 20.4962 59.3331 20.3125C59.0244 20.1269 58.7857 19.8665 58.6172 19.5312C58.4505 19.1941 58.3672 18.7992 58.3672 18.3466C58.3672 17.8996 58.4505 17.5057 58.6172 17.1648C58.7857 16.8239 59.0206 16.5578 59.3217 16.3665C59.6248 16.1752 59.9789 16.0795 60.3842 16.0795C60.6304 16.0795 60.8691 16.1203 61.1001 16.2017C61.3312 16.2831 61.5386 16.411 61.7223 16.5852C61.906 16.7595 62.0509 16.9858 62.157 17.2642C62.263 17.5407 62.3161 17.8769 62.3161 18.2727V18.5739H58.8473V17.9375H61.4837C61.4837 17.714 61.4382 17.5161 61.3473 17.3438C61.2564 17.1695 61.1286 17.0322 60.9638 16.9318C60.8009 16.8314 60.6096 16.7812 60.3899 16.7812C60.1513 16.7812 59.9429 16.84 59.7649 16.9574C59.5888 17.0729 59.4524 17.2244 59.3558 17.4119C59.2611 17.5975 59.2138 17.7992 59.2138 18.017V18.5142C59.2138 18.8059 59.2649 19.054 59.3672 19.2585C59.4714 19.4631 59.6162 19.6193 59.8018 19.7273C59.9875 19.8333 60.2043 19.8864 60.4524 19.8864C60.6134 19.8864 60.7602 19.8636 60.8928 19.8182C61.0253 19.7708 61.1399 19.7008 61.2365 19.608C61.3331 19.5152 61.407 19.4006 61.4581 19.2642L62.2621 19.4091C62.1977 19.6458 62.0821 19.8532 61.9155 20.0312C61.7507 20.2074 61.5433 20.3447 61.2933 20.4432C61.0452 20.5398 60.7621 20.5881 60.4439 20.5881ZM65.2955 16.1364V16.8182H62.9119V16.1364H65.2955ZM63.5511 15.0909H64.4006V19.2188C64.4006 19.3835 64.4252 19.5076 64.4744 19.5909C64.5237 19.6723 64.5871 19.7282 64.6648 19.7585C64.7443 19.7869 64.8305 19.8011 64.9233 19.8011C64.9915 19.8011 65.0511 19.7964 65.1023 19.7869C65.1534 19.7775 65.1932 19.7699 65.2216 19.7642L65.375 20.4659C65.3258 20.4848 65.2557 20.5038 65.1648 20.5227C65.0739 20.5436 64.9602 20.5549 64.8239 20.5568C64.6004 20.5606 64.392 20.5208 64.1989 20.4375C64.0057 20.3542 63.8494 20.2254 63.7301 20.0511C63.6108 19.8769 63.5511 19.6581 63.5511 19.3949V15.0909ZM68.3523 20.5V16.1364H69.2017V20.5H68.3523ZM68.7812 15.4631C68.6335 15.4631 68.5066 15.4138 68.4006 15.3153C68.2964 15.215 68.2443 15.0956 68.2443 14.9574C68.2443 14.8172 68.2964 14.6979 68.4006 14.5994C68.5066 14.4991 68.6335 14.4489 68.7812 14.4489C68.929 14.4489 69.0549 14.4991 69.1591 14.5994C69.2652 14.6979 69.3182 14.8172 69.3182 14.9574C69.3182 15.0956 69.2652 15.215 69.1591 15.3153C69.0549 15.4138 68.929 15.4631 68.7812 15.4631ZM72.3814 16.1364V16.8182H69.9979V16.1364H72.3814ZM70.6371 15.0909H71.4865V19.2188C71.4865 19.3835 71.5111 19.5076 71.5604 19.5909C71.6096 19.6723 71.6731 19.7282 71.7507 19.7585C71.8303 19.7869 71.9164 19.8011 72.0092 19.8011C72.0774 19.8011 72.1371 19.7964 72.1882 19.7869C72.2393 19.7775 72.2791 19.7699 72.3075 19.7642L72.4609 20.4659C72.4117 20.4848 72.3416 20.5038 72.2507 20.5227C72.1598 20.5436 72.0462 20.5549 71.9098 20.5568C71.6863 20.5606 71.478 20.5208 71.2848 20.4375C71.0916 20.3542 70.9354 20.2254 70.8161 20.0511C70.6967 19.8769 70.6371 19.6581 70.6371 19.3949V15.0909ZM77.2763 20.5881C76.8672 20.5881 76.5102 20.4943 76.2053 20.3068C75.9003 20.1193 75.6636 19.857 75.495 19.5199C75.3265 19.1828 75.2422 18.7888 75.2422 18.3381C75.2422 17.8854 75.3265 17.4896 75.495 17.1506C75.6636 16.8116 75.9003 16.5483 76.2053 16.3608C76.5102 16.1733 76.8672 16.0795 77.2763 16.0795C77.6854 16.0795 78.0424 16.1733 78.3473 16.3608C78.6522 16.5483 78.889 16.8116 79.0575 17.1506C79.2261 17.4896 79.3104 17.8854 79.3104 18.3381C79.3104 18.7888 79.2261 19.1828 79.0575 19.5199C78.889 19.857 78.6522 20.1193 78.3473 20.3068C78.0424 20.4943 77.6854 20.5881 77.2763 20.5881ZM77.2791 19.875C77.5443 19.875 77.764 19.8049 77.9382 19.6648C78.1125 19.5246 78.2412 19.3381 78.3246 19.1051C78.4098 18.8722 78.4524 18.6155 78.4524 18.3352C78.4524 18.0568 78.4098 17.8011 78.3246 17.5682C78.2412 17.3333 78.1125 17.1449 77.9382 17.0028C77.764 16.8608 77.5443 16.7898 77.2791 16.7898C77.0121 16.7898 76.7905 16.8608 76.6143 17.0028C76.4401 17.1449 76.3104 17.3333 76.2251 17.5682C76.1418 17.8011 76.1001 18.0568 76.1001 18.3352C76.1001 18.6155 76.1418 18.8722 76.2251 19.1051C76.3104 19.3381 76.4401 19.5246 76.6143 19.6648C76.7905 19.8049 77.0121 19.875 77.2791 19.875ZM81.108 17.9091V20.5H80.2585V16.1364H81.0739V16.8466H81.1278C81.2282 16.6155 81.3854 16.4299 81.5994 16.2898C81.8153 16.1496 82.0871 16.0795 82.4148 16.0795C82.7121 16.0795 82.9725 16.142 83.196 16.267C83.4195 16.3902 83.5928 16.5739 83.7159 16.8182C83.839 17.0625 83.9006 17.3646 83.9006 17.7244V20.5H83.0511V17.8267C83.0511 17.5104 82.9688 17.2633 82.804 17.0852C82.6392 16.9053 82.4129 16.8153 82.125 16.8153C81.928 16.8153 81.7528 16.858 81.5994 16.9432C81.4479 17.0284 81.3277 17.1534 81.2386 17.3182C81.1515 17.4811 81.108 17.678 81.108 17.9091Z" fill="#B5A478"/>
<path d="M59.8253 33.5696C59.7424 33.3011 59.6281 33.0608 59.4822 32.8487C59.3397 32.6333 59.1674 32.4493 58.9652 32.2969C58.7663 32.1444 58.5376 32.0301 58.2791 31.9538C58.0206 31.8743 57.7389 31.8345 57.4339 31.8345C56.8871 31.8345 56.3999 31.9721 55.9723 32.2472C55.5447 32.5223 55.2083 32.9266 54.9631 33.4602C54.7211 33.9905 54.6001 34.6368 54.6001 35.3991C54.6001 36.1681 54.7211 36.8194 54.9631 37.353C55.205 37.8866 55.5414 38.2926 55.9723 38.571C56.4032 38.8461 56.9036 38.9837 57.4737 38.9837C57.9908 38.9837 58.4382 38.8842 58.8161 38.6854C59.1972 38.4865 59.4905 38.2048 59.696 37.8402C59.9015 37.4723 60.0043 37.0414 60.0043 36.5476L60.4219 36.6122H57.6577V35.1705H61.7891V36.3935C61.7891 37.2652 61.6035 38.0192 61.2322 38.6555C60.861 39.2919 60.3506 39.7824 59.701 40.1271C59.0514 40.4685 58.3056 40.6392 57.4638 40.6392C56.5258 40.6392 55.7022 40.4287 54.9929 40.0078C54.2869 39.5836 53.7351 38.982 53.3374 38.2031C52.9429 37.4209 52.7457 36.4929 52.7457 35.419C52.7457 34.5971 52.8617 33.8629 53.0938 33.2166C53.3291 32.5703 53.6572 32.0218 54.0781 31.571C54.4991 31.117 54.9929 30.7723 55.5597 30.5369C56.1264 30.2983 56.7429 30.179 57.4091 30.179C57.9725 30.179 58.4979 30.2618 58.9851 30.4276C59.4723 30.59 59.9048 30.822 60.2827 31.1236C60.6638 31.4252 60.977 31.7831 61.2223 32.1974C61.4676 32.6117 61.6283 33.0691 61.7045 33.5696H59.8253ZM66.824 40.6491C66.0783 40.6491 65.432 40.4851 64.8851 40.157C64.3382 39.8288 63.914 39.3698 63.6124 38.7798C63.3141 38.1899 63.165 37.5005 63.165 36.7116C63.165 35.9228 63.3141 35.2318 63.6124 34.6385C63.914 34.0452 64.3382 33.5845 64.8851 33.2564C65.432 32.9283 66.0783 32.7642 66.824 32.7642C67.5698 32.7642 68.2161 32.9283 68.763 33.2564C69.3098 33.5845 69.7324 34.0452 70.0307 34.6385C70.3323 35.2318 70.4831 35.9228 70.4831 36.7116C70.4831 37.5005 70.3323 38.1899 70.0307 38.7798C69.7324 39.3698 69.3098 39.8288 68.763 40.157C68.2161 40.4851 67.5698 40.6491 66.824 40.6491ZM66.834 39.2074C67.2383 39.2074 67.5764 39.0964 67.8482 38.8743C68.12 38.6489 68.3221 38.3473 68.4547 37.9695C68.5906 37.5916 68.6586 37.1707 68.6586 36.7067C68.6586 36.2393 68.5906 35.8168 68.4547 35.4389C68.3221 35.0578 68.12 34.7545 67.8482 34.5291C67.5764 34.3037 67.2383 34.1911 66.834 34.1911C66.4197 34.1911 66.075 34.3037 65.7999 34.5291C65.5281 34.7545 65.3243 35.0578 65.1884 35.4389C65.0558 35.8168 64.9895 36.2393 64.9895 36.7067C64.9895 37.1707 65.0558 37.5916 65.1884 37.9695C65.3243 38.3473 65.5281 38.6489 65.7999 38.8743C66.075 39.0964 66.4197 39.2074 66.834 39.2074ZM75.3416 40.6491C74.5959 40.6491 73.9496 40.4851 73.4027 40.157C72.8558 39.8288 72.4316 39.3698 72.13 38.7798C71.8317 38.1899 71.6825 37.5005 71.6825 36.7116C71.6825 35.9228 71.8317 35.2318 72.13 34.6385C72.4316 34.0452 72.8558 33.5845 73.4027 33.2564C73.9496 32.9283 74.5959 32.7642 75.3416 32.7642C76.0874 32.7642 76.7337 32.9283 77.2805 33.2564C77.8274 33.5845 78.25 34.0452 78.5483 34.6385C78.8499 35.2318 79.0007 35.9228 79.0007 36.7116C79.0007 37.5005 78.8499 38.1899 78.5483 38.7798C78.25 39.3698 77.8274 39.8288 77.2805 40.157C76.7337 40.4851 76.0874 40.6491 75.3416 40.6491ZM75.3516 39.2074C75.7559 39.2074 76.094 39.0964 76.3658 38.8743C76.6375 38.6489 76.8397 38.3473 76.9723 37.9695C77.1082 37.5916 77.1761 37.1707 77.1761 36.7067C77.1761 36.2393 77.1082 35.8168 76.9723 35.4389C76.8397 35.0578 76.6375 34.7545 76.3658 34.5291C76.094 34.3037 75.7559 34.1911 75.3516 34.1911C74.9373 34.1911 74.5926 34.3037 74.3175 34.5291C74.0457 34.7545 73.8419 35.0578 73.706 35.4389C73.5734 35.8168 73.5071 36.2393 73.5071 36.7067C73.5071 37.1707 73.5734 37.5916 73.706 37.9695C73.8419 38.3473 74.0457 38.6489 74.3175 38.8743C74.5926 39.0964 74.9373 39.2074 75.3516 39.2074ZM83.8493 43.5227C83.2029 43.5227 82.6478 43.4349 82.1838 43.2592C81.7198 43.0869 81.3469 42.8549 81.0652 42.5632C80.7834 42.2715 80.5879 41.9484 80.4785 41.5938L82.0993 41.201C82.1722 41.3501 82.2782 41.4976 82.4174 41.6435C82.5566 41.7926 82.7439 41.9152 82.9792 42.0114C83.2179 42.1108 83.5178 42.1605 83.8791 42.1605C84.3895 42.1605 84.8121 42.0362 85.1468 41.7876C85.4816 41.5424 85.649 41.138 85.649 40.5746V39.1278H85.5595C85.4667 39.3134 85.3308 39.504 85.1518 39.6996C84.9761 39.8951 84.7425 40.0592 84.4508 40.1918C84.1625 40.3243 83.7995 40.3906 83.362 40.3906C82.7754 40.3906 82.2434 40.2531 81.7662 39.978C81.2922 39.6996 80.9144 39.2853 80.6326 38.7351C80.3542 38.1816 80.215 37.4889 80.215 36.657C80.215 35.8184 80.3542 35.1108 80.6326 34.5341C80.9144 33.9541 81.2939 33.5149 81.7711 33.2166C82.2484 32.915 82.7804 32.7642 83.367 32.7642C83.8145 32.7642 84.1824 32.8404 84.4707 32.9929C84.7624 33.142 84.9944 33.3227 85.1667 33.5348C85.3391 33.7436 85.47 33.9408 85.5595 34.1264H85.6589V32.8636H87.4338V40.6243C87.4338 41.2772 87.278 41.8175 86.9664 42.245C86.6549 42.6726 86.229 42.9924 85.6887 43.2045C85.1485 43.4167 84.5353 43.5227 83.8493 43.5227ZM83.8642 38.9787C84.2453 38.9787 84.5701 38.8859 84.8386 38.7003C85.1071 38.5147 85.3109 38.2479 85.4501 37.8999C85.5893 37.5518 85.6589 37.1342 85.6589 36.647C85.6589 36.1664 85.5893 35.7455 85.4501 35.3842C85.3142 35.023 85.112 34.7429 84.8436 34.544C84.5784 34.3419 84.252 34.2408 83.8642 34.2408C83.4631 34.2408 83.1284 34.3452 82.8599 34.554C82.5914 34.7628 82.3893 35.0495 82.2534 35.4141C82.1175 35.7753 82.0495 36.1863 82.0495 36.647C82.0495 37.1143 82.1175 37.5237 82.2534 37.875C82.3926 38.223 82.5964 38.4948 82.8649 38.6903C83.1367 38.8826 83.4698 38.9787 83.8642 38.9787ZM91.0779 30.3182V40.5H89.2782V30.3182H91.0779ZM96.3093 40.6491C95.5437 40.6491 94.8825 40.4901 94.3256 40.1719C93.7721 39.8504 93.3462 39.3963 93.0479 38.8097C92.7496 38.2197 92.6005 37.5253 92.6005 36.7266C92.6005 35.9411 92.7496 35.2517 93.0479 34.6584C93.3496 34.0618 93.7705 33.5978 94.3107 33.2663C94.851 32.9316 95.4857 32.7642 96.2148 32.7642C96.6855 32.7642 97.1296 32.8404 97.5472 32.9929C97.9682 33.142 98.3394 33.3741 98.6609 33.6889C98.9857 34.0038 99.2409 34.4048 99.4265 34.892C99.6121 35.3759 99.7049 35.9527 99.7049 36.6222V37.174H93.4457V35.9609H97.9798C97.9764 35.6162 97.9019 35.3097 97.756 35.0412C97.6102 34.7694 97.4064 34.5556 97.1445 34.3999C96.886 34.2441 96.5844 34.1662 96.2397 34.1662C95.8718 34.1662 95.5487 34.2557 95.2702 34.4347C94.9918 34.6103 94.7747 34.8423 94.619 35.1307C94.4665 35.4157 94.3886 35.7289 94.3853 36.0703V37.1293C94.3853 37.5734 94.4665 37.9545 94.6289 38.2727C94.7913 38.5876 95.0183 38.8295 95.31 38.9986C95.6017 39.1643 95.9431 39.2472 96.3342 39.2472C96.596 39.2472 96.833 39.2107 97.0451 39.1378C97.2572 39.0616 97.4412 38.9505 97.5969 38.8047C97.7527 38.6589 97.8704 38.4782 97.9499 38.2628L99.6303 38.4517C99.5243 38.8958 99.3221 39.2836 99.0238 39.6151C98.7288 39.9432 98.351 40.1984 97.8903 40.3807C97.4296 40.5597 96.9026 40.6491 96.3093 40.6491ZM104.78 40.5V30.3182H108.598C109.38 30.3182 110.036 30.464 110.567 30.7557C111.1 31.0473 111.503 31.4484 111.775 31.9588C112.05 32.4659 112.187 33.0426 112.187 33.6889C112.187 34.3419 112.05 34.9219 111.775 35.429C111.5 35.9361 111.094 36.3355 110.557 36.6271C110.02 36.9155 109.358 37.0597 108.573 37.0597H106.042V35.5433H108.324C108.782 35.5433 109.156 35.4638 109.448 35.3047C109.74 35.1456 109.955 34.9268 110.094 34.6484C110.237 34.37 110.308 34.0502 110.308 33.6889C110.308 33.3277 110.237 33.0095 110.094 32.7344C109.955 32.4593 109.738 32.2455 109.443 32.093C109.151 31.9373 108.775 31.8594 108.314 31.8594H106.624V40.5H104.78ZM115.51 30.3182V40.5H113.71V30.3182H115.51ZM119.558 40.6541C119.074 40.6541 118.638 40.5679 118.25 40.3956C117.866 40.2199 117.561 39.9614 117.335 39.62C117.113 39.2786 117.002 38.8577 117.002 38.3572C117.002 37.9264 117.082 37.5701 117.241 37.2884C117.4 37.0066 117.617 36.7812 117.892 36.6122C118.167 36.4432 118.477 36.3156 118.822 36.2294C119.17 36.1399 119.53 36.0753 119.901 36.0355C120.348 35.9891 120.711 35.9477 120.99 35.9112C121.268 35.8714 121.47 35.8118 121.596 35.7322C121.725 35.6494 121.79 35.5218 121.79 35.3494V35.3196C121.79 34.9451 121.679 34.6551 121.457 34.4496C121.235 34.2441 120.915 34.1413 120.497 34.1413C120.057 34.1413 119.707 34.2375 119.448 34.4297C119.193 34.6219 119.021 34.849 118.931 35.1108L117.251 34.8722C117.383 34.4081 117.602 34.0204 117.907 33.7088C118.212 33.3939 118.585 33.1586 119.026 33.0028C119.467 32.8438 119.954 32.7642 120.487 32.7642C120.855 32.7642 121.222 32.8073 121.586 32.8935C121.951 32.9796 122.284 33.1222 122.585 33.321C122.887 33.5166 123.129 33.7834 123.311 34.1214C123.497 34.4595 123.59 34.8821 123.59 35.3892V40.5H121.86V39.451H121.8C121.691 39.6631 121.536 39.862 121.338 40.0476C121.142 40.2299 120.895 40.3774 120.597 40.4901C120.302 40.5994 119.955 40.6541 119.558 40.6541ZM120.025 39.3317C120.386 39.3317 120.7 39.2604 120.965 39.1179C121.23 38.9721 121.434 38.7798 121.576 38.5412C121.722 38.3026 121.795 38.0424 121.795 37.7607V36.8608C121.739 36.9072 121.642 36.9503 121.507 36.9901C121.374 37.0298 121.225 37.0646 121.059 37.0945C120.893 37.1243 120.729 37.1508 120.567 37.174C120.405 37.1972 120.264 37.2171 120.144 37.2337C119.876 37.2701 119.636 37.3298 119.423 37.4126C119.211 37.4955 119.044 37.6115 118.921 37.7607C118.799 37.9065 118.737 38.0954 118.737 38.3274C118.737 38.6589 118.858 38.9091 119.1 39.0781C119.342 39.2472 119.651 39.3317 120.025 39.3317ZM126.244 43.3636C125.999 43.3636 125.772 43.3438 125.563 43.304C125.358 43.2675 125.194 43.2244 125.071 43.1747L125.489 41.7727C125.751 41.849 125.984 41.8854 126.19 41.8821C126.395 41.8788 126.576 41.8142 126.732 41.6882C126.891 41.5656 127.025 41.3601 127.134 41.0717L127.289 40.6591L124.519 32.8636H126.428L128.188 38.6307H128.268L130.033 32.8636H131.947L128.889 41.4247C128.747 41.8291 128.558 42.1754 128.323 42.4638C128.087 42.7554 127.799 42.9775 127.458 43.13C127.119 43.2857 126.715 43.3636 126.244 43.3636Z" fill="#B5A478"/>
</svg>
