<svg width="158" height="45" viewBox="0 0 158 45" fill="none" xmlns="http://www.w3.org/2000/svg">
<path d="M1.16754 10.6806C1.16754 5.15056 5.65056 0.66754 11.1806 0.66754H147.319C152.849 0.66754 157.332 5.15056 157.332 10.6806V34.3194C157.332 39.8494 152.849 44.3325 147.319 44.3325H11.1806C5.65056 44.3325 1.16754 39.8494 1.16754 34.3194V10.6806Z" stroke="#6C4E33" stroke-width="1.33508"/>
<path d="M15.5 30.9999V13.9999C15.5 13.4099 15.84 12.8899 16.34 12.6499L26.19 22.4999L16.34 32.3499C15.84 32.0999 15.5 31.5899 15.5 30.9999ZM29.31 25.6199L18.55 31.8399L27.04 23.3499L29.31 25.6199ZM32.66 21.3099C33 21.5799 33.25 21.9999 33.25 22.4999C33.25 22.9999 33.03 23.3999 32.68 23.6799L30.39 24.9999L27.89 22.4999L30.39 19.9999L32.66 21.3099ZM18.55 13.1599L29.31 19.3799L27.04 21.6499L18.55 13.1599Z" fill="#B5A478"/>
<path d="M49.0767 12.0199C49.0218 11.8475 48.9479 11.6932 48.8551 11.5568C48.7642 11.4186 48.6553 11.3011 48.5284 11.2045C48.4015 11.1061 48.2566 11.0312 48.0938 10.9801C47.9328 10.929 47.7557 10.9034 47.5625 10.9034C47.2348 10.9034 46.9394 10.9877 46.6761 11.1562C46.4129 11.3248 46.2045 11.572 46.0511 11.8977C45.8996 12.2216 45.8239 12.6184 45.8239 13.0881C45.8239 13.5597 45.9006 13.9583 46.054 14.2841C46.2074 14.6098 46.4176 14.857 46.6847 15.0256C46.9517 15.1941 47.2557 15.2784 47.5966 15.2784C47.9129 15.2784 48.1884 15.214 48.4233 15.0852C48.66 14.9564 48.8428 14.7746 48.9716 14.5398C49.1023 14.303 49.1676 14.0246 49.1676 13.7045L49.3949 13.7472H47.7301V13.0227H50.017V13.6847C50.017 14.1733 49.9129 14.5975 49.7045 14.9574C49.4981 15.3153 49.2121 15.5919 48.8466 15.7869C48.483 15.982 48.0663 16.0795 47.5966 16.0795C47.0701 16.0795 46.608 15.9583 46.2102 15.7159C45.8144 15.4735 45.5057 15.1297 45.2841 14.6847C45.0625 14.2377 44.9517 13.7074 44.9517 13.0938C44.9517 12.6297 45.0161 12.2131 45.1449 11.8438C45.2737 11.4744 45.4545 11.161 45.6875 10.9034C45.9223 10.6439 46.1979 10.446 46.5142 10.3097C46.8324 10.1714 47.1799 10.1023 47.5568 10.1023C47.8712 10.1023 48.1638 10.1487 48.4347 10.2415C48.7074 10.3343 48.9498 10.4659 49.1619 10.6364C49.3759 10.8068 49.553 11.0095 49.6932 11.2443C49.8333 11.4773 49.928 11.7358 49.9773 12.0199H49.0767ZM52.8639 16.0881C52.434 16.0881 52.0637 15.9962 51.7531 15.8125C51.4444 15.6269 51.2057 15.3665 51.0372 15.0312C50.8705 14.6941 50.7872 14.2992 50.7872 13.8466C50.7872 13.3996 50.8705 13.0057 51.0372 12.6648C51.2057 12.3239 51.4406 12.0578 51.7417 11.8665C52.0448 11.6752 52.3989 11.5795 52.8042 11.5795C53.0504 11.5795 53.2891 11.6203 53.5201 11.7017C53.7512 11.7831 53.9586 11.911 54.1423 12.0852C54.326 12.2595 54.4709 12.4858 54.577 12.7642C54.683 13.0407 54.7361 13.3769 54.7361 13.7727V14.0739H51.2673V13.4375H53.9037C53.9037 13.214 53.8582 13.0161 53.7673 12.8438C53.6764 12.6695 53.5486 12.5322 53.3838 12.4318C53.2209 12.3314 53.0296 12.2812 52.8099 12.2812C52.5713 12.2812 52.3629 12.34 52.1849 12.4574C52.0088 12.5729 51.8724 12.7244 51.7758 12.9119C51.6811 13.0975 51.6338 13.2992 51.6338 13.517V14.0142C51.6338 14.3059 51.6849 14.554 51.7872 14.7585C51.8914 14.9631 52.0362 15.1193 52.2218 15.2273C52.4075 15.3333 52.6243 15.3864 52.8724 15.3864C53.0334 15.3864 53.1802 15.3636 53.3128 15.3182C53.4453 15.2708 53.5599 15.2008 53.6565 15.108C53.7531 15.0152 53.827 14.9006 53.8781 14.7642L54.6821 14.9091C54.6177 15.1458 54.5021 15.3532 54.3355 15.5312C54.1707 15.7074 53.9633 15.8447 53.7133 15.9432C53.4652 16.0398 53.1821 16.0881 52.8639 16.0881ZM57.6355 11.6364V12.3182H55.2519V11.6364H57.6355ZM55.8911 10.5909H56.7406V14.7188C56.7406 14.8835 56.7652 15.0076 56.8144 15.0909C56.8637 15.1723 56.9271 15.2282 57.0048 15.2585C57.0843 15.2869 57.1705 15.3011 57.2633 15.3011C57.3315 15.3011 57.3911 15.2964 57.4423 15.2869C57.4934 15.2775 57.5332 15.2699 57.5616 15.2642L57.715 15.9659C57.6658 15.9848 57.5957 16.0038 57.5048 16.0227C57.4139 16.0436 57.3002 16.0549 57.1639 16.0568C56.9404 16.0606 56.732 16.0208 56.5389 15.9375C56.3457 15.8542 56.1894 15.7254 56.0701 15.5511C55.9508 15.3769 55.8911 15.1581 55.8911 14.8949V10.5909ZM60.5323 16V11.6364H61.3817V16H60.5323ZM60.9613 10.9631C60.8135 10.9631 60.6866 10.9138 60.5806 10.8153C60.4764 10.715 60.4243 10.5956 60.4243 10.4574C60.4243 10.3172 60.4764 10.1979 60.5806 10.0994C60.6866 9.99905 60.8135 9.94886 60.9613 9.94886C61.109 9.94886 61.2349 9.99905 61.3391 10.0994C61.4452 10.1979 61.4982 10.3172 61.4982 10.4574C61.4982 10.5956 61.4452 10.715 61.3391 10.8153C61.2349 10.9138 61.109 10.9631 60.9613 10.9631ZM64.4814 11.6364V12.3182H62.0979V11.6364H64.4814ZM62.7371 10.5909H63.5865V14.7188C63.5865 14.8835 63.6111 15.0076 63.6604 15.0909C63.7096 15.1723 63.7731 15.2282 63.8507 15.2585C63.9303 15.2869 64.0164 15.3011 64.1092 15.3011C64.1774 15.3011 64.2371 15.2964 64.2882 15.2869C64.3393 15.2775 64.3791 15.2699 64.4075 15.2642L64.5609 15.9659C64.5117 15.9848 64.4416 16.0038 64.3507 16.0227C64.2598 16.0436 64.1462 16.0549 64.0098 16.0568C63.7863 16.0606 63.578 16.0208 63.3848 15.9375C63.1916 15.8542 63.0354 15.7254 62.9161 15.5511C62.7967 15.3769 62.7371 15.1581 62.7371 14.8949V10.5909ZM69.2163 16.0881C68.8072 16.0881 68.4502 15.9943 68.1453 15.8068C67.8403 15.6193 67.6036 15.357 67.435 15.0199C67.2665 14.6828 67.1822 14.2888 67.1822 13.8381C67.1822 13.3854 67.2665 12.9896 67.435 12.6506C67.6036 12.3116 67.8403 12.0483 68.1453 11.8608C68.4502 11.6733 68.8072 11.5795 69.2163 11.5795C69.6254 11.5795 69.9824 11.6733 70.2873 11.8608C70.5922 12.0483 70.829 12.3116 70.9975 12.6506C71.1661 12.9896 71.2504 13.3854 71.2504 13.8381C71.2504 14.2888 71.1661 14.6828 70.9975 15.0199C70.829 15.357 70.5922 15.6193 70.2873 15.8068C69.9824 15.9943 69.6254 16.0881 69.2163 16.0881ZM69.2191 15.375C69.4843 15.375 69.704 15.3049 69.8782 15.1648C70.0525 15.0246 70.1812 14.8381 70.2646 14.6051C70.3498 14.3722 70.3924 14.1155 70.3924 13.8352C70.3924 13.5568 70.3498 13.3011 70.2646 13.0682C70.1812 12.8333 70.0525 12.6449 69.8782 12.5028C69.704 12.3608 69.4843 12.2898 69.2191 12.2898C68.9521 12.2898 68.7305 12.3608 68.5543 12.5028C68.3801 12.6449 68.2504 12.8333 68.1651 13.0682C68.0818 13.3011 68.0401 13.5568 68.0401 13.8352C68.0401 14.1155 68.0818 14.3722 68.1651 14.6051C68.2504 14.8381 68.3801 15.0246 68.5543 15.1648C68.7305 15.3049 68.9521 15.375 69.2191 15.375ZM72.968 13.4091V16H72.1185V11.6364H72.9339V12.3466H72.9878C73.0882 12.1155 73.2454 11.9299 73.4594 11.7898C73.6753 11.6496 73.9471 11.5795 74.2748 11.5795C74.5721 11.5795 74.8325 11.642 75.056 11.767C75.2795 11.8902 75.4528 12.0739 75.5759 12.3182C75.699 12.5625 75.7606 12.8646 75.7606 13.2244V16H74.9111V13.3267C74.9111 13.0104 74.8288 12.7633 74.664 12.5852C74.4992 12.4053 74.2729 12.3153 73.985 12.3153C73.788 12.3153 73.6128 12.358 73.4594 12.4432C73.3079 12.5284 73.1877 12.6534 73.0986 12.8182C73.0115 12.9811 72.968 13.178 72.968 13.4091Z" fill="#B5A478"/>
<path d="M52.3253 27.0696C52.2424 26.8011 52.1281 26.5608 51.9822 26.3487C51.8397 26.1333 51.6674 25.9493 51.4652 25.7969C51.2663 25.6444 51.0376 25.5301 50.7791 25.4538C50.5206 25.3743 50.2389 25.3345 49.9339 25.3345C49.3871 25.3345 48.8999 25.4721 48.4723 25.7472C48.0447 26.0223 47.7083 26.4266 47.4631 26.9602C47.2211 27.4905 47.1001 28.1368 47.1001 28.8991C47.1001 29.6681 47.2211 30.3194 47.4631 30.853C47.705 31.3866 48.0414 31.7926 48.4723 32.071C48.9032 32.3461 49.4036 32.4837 49.9737 32.4837C50.4908 32.4837 50.9382 32.3842 51.3161 32.1854C51.6972 31.9865 51.9905 31.7048 52.196 31.3402C52.4015 30.9723 52.5043 30.5414 52.5043 30.0476L52.9219 30.1122H50.1577V28.6705H54.2891V29.8935C54.2891 30.7652 54.1035 31.5192 53.7322 32.1555C53.361 32.7919 52.8506 33.2824 52.201 33.6271C51.5514 33.9685 50.8056 34.1392 49.9638 34.1392C49.0258 34.1392 48.2022 33.9287 47.4929 33.5078C46.7869 33.0836 46.2351 32.482 45.8374 31.7031C45.4429 30.9209 45.2457 29.9929 45.2457 28.919C45.2457 28.0971 45.3617 27.3629 45.5938 26.7166C45.8291 26.0703 46.1572 25.5218 46.5781 25.071C46.9991 24.617 47.4929 24.2723 48.0597 24.0369C48.6264 23.7983 49.2429 23.679 49.9091 23.679C50.4725 23.679 50.9979 23.7618 51.4851 23.9276C51.9723 24.09 52.4048 24.322 52.7827 24.6236C53.1638 24.9252 53.477 25.2831 53.7223 25.6974C53.9676 26.1117 54.1283 26.5691 54.2045 27.0696H52.3253ZM59.184 34.1491C58.4383 34.1491 57.792 33.9851 57.2451 33.657C56.6982 33.3288 56.274 32.8698 55.9724 32.2798C55.6741 31.6899 55.5249 31.0005 55.5249 30.2116C55.5249 29.4228 55.6741 28.7318 55.9724 28.1385C56.274 27.5452 56.6982 27.0845 57.2451 26.7564C57.792 26.4283 58.4383 26.2642 59.184 26.2642C59.9298 26.2642 60.5761 26.4283 61.123 26.7564C61.6698 27.0845 62.0924 27.5452 62.3907 28.1385C62.6923 28.7318 62.8431 29.4228 62.8431 30.2116C62.8431 31.0005 62.6923 31.6899 62.3907 32.2798C62.0924 32.8698 61.6698 33.3288 61.123 33.657C60.5761 33.9851 59.9298 34.1491 59.184 34.1491ZM59.194 32.7074C59.5983 32.7074 59.9364 32.5964 60.2082 32.3743C60.48 32.1489 60.6821 31.8473 60.8147 31.4695C60.9506 31.0916 61.0186 30.6707 61.0186 30.2067C61.0186 29.7393 60.9506 29.3168 60.8147 28.9389C60.6821 28.5578 60.48 28.2545 60.2082 28.0291C59.9364 27.8037 59.5983 27.6911 59.194 27.6911C58.7797 27.6911 58.435 27.8037 58.1599 28.0291C57.8881 28.2545 57.6843 28.5578 57.5484 28.9389C57.4158 29.3168 57.3495 29.7393 57.3495 30.2067C57.3495 30.6707 57.4158 31.0916 57.5484 31.4695C57.6843 31.8473 57.8881 32.1489 58.1599 32.3743C58.435 32.5964 58.7797 32.7074 59.194 32.7074ZM67.5616 34.1491C66.8159 34.1491 66.1696 33.9851 65.6227 33.657C65.0758 33.3288 64.6516 32.8698 64.35 32.2798C64.0517 31.6899 63.9025 31.0005 63.9025 30.2116C63.9025 29.4228 64.0517 28.7318 64.35 28.1385C64.6516 27.5452 65.0758 27.0845 65.6227 26.7564C66.1696 26.4283 66.8159 26.2642 67.5616 26.2642C68.3074 26.2642 68.9537 26.4283 69.5005 26.7564C70.0474 27.0845 70.47 27.5452 70.7683 28.1385C71.0699 28.7318 71.2207 29.4228 71.2207 30.2116C71.2207 31.0005 71.0699 31.6899 70.7683 32.2798C70.47 32.8698 70.0474 33.3288 69.5005 33.657C68.9537 33.9851 68.3074 34.1491 67.5616 34.1491ZM67.5716 32.7074C67.9759 32.7074 68.314 32.5964 68.5858 32.3743C68.8575 32.1489 69.0597 31.8473 69.1923 31.4695C69.3282 31.0916 69.3961 30.6707 69.3961 30.2067C69.3961 29.7393 69.3282 29.3168 69.1923 28.9389C69.0597 28.5578 68.8575 28.2545 68.5858 28.0291C68.314 27.8037 67.9759 27.6911 67.5716 27.6911C67.1573 27.6911 66.8126 27.8037 66.5375 28.0291C66.2657 28.2545 66.0619 28.5578 65.926 28.9389C65.7934 29.3168 65.7271 29.7393 65.7271 30.2067C65.7271 30.6707 65.7934 31.0916 65.926 31.4695C66.0619 31.8473 66.2657 32.1489 66.5375 32.3743C66.8126 32.5964 67.1573 32.7074 67.5716 32.7074ZM75.9293 37.0227C75.2829 37.0227 74.7278 36.9349 74.2638 36.7592C73.7998 36.5869 73.4269 36.3549 73.1452 36.0632C72.8634 35.7715 72.6679 35.4484 72.5585 35.0938L74.1793 34.701C74.2522 34.8501 74.3582 34.9976 74.4974 35.1435C74.6366 35.2926 74.8239 35.4152 75.0592 35.5114C75.2979 35.6108 75.5978 35.6605 75.9591 35.6605C76.4695 35.6605 76.8921 35.5362 77.2268 35.2876C77.5616 35.0424 77.729 34.638 77.729 34.0746V32.6278H77.6395C77.5467 32.8134 77.4108 33.004 77.2318 33.1996C77.0561 33.3951 76.8225 33.5592 76.5308 33.6918C76.2425 33.8243 75.8795 33.8906 75.442 33.8906C74.8554 33.8906 74.3234 33.7531 73.8462 33.478C73.3722 33.1996 72.9944 32.7853 72.7126 32.2351C72.4342 31.6816 72.295 30.9889 72.295 30.157C72.295 29.3184 72.4342 28.6108 72.7126 28.0341C72.9944 27.4541 73.3739 27.0149 73.8511 26.7166C74.3284 26.415 74.8604 26.2642 75.447 26.2642C75.8945 26.2642 76.2624 26.3404 76.5507 26.4929C76.8424 26.642 77.0744 26.8227 77.2467 27.0348C77.4191 27.2436 77.55 27.4408 77.6395 27.6264H77.7389V26.3636H79.5138V34.1243C79.5138 34.7772 79.358 35.3175 79.0464 35.745C78.7349 36.1726 78.309 36.4924 77.7687 36.7045C77.2285 36.9167 76.6153 37.0227 75.9293 37.0227ZM75.9442 32.4787C76.3253 32.4787 76.6501 32.3859 76.9186 32.2003C77.1871 32.0147 77.3909 31.7479 77.5301 31.3999C77.6693 31.0518 77.7389 30.6342 77.7389 30.147C77.7389 29.6664 77.6693 29.2455 77.5301 28.8842C77.3942 28.523 77.192 28.2429 76.9236 28.044C76.6584 27.8419 76.332 27.7408 75.9442 27.7408C75.5431 27.7408 75.2084 27.8452 74.9399 28.054C74.6714 28.2628 74.4693 28.5495 74.3334 28.9141C74.1975 29.2753 74.1295 29.6863 74.1295 30.147C74.1295 30.6143 74.1975 31.0237 74.3334 31.375C74.4726 31.723 74.6764 31.9948 74.9449 32.1903C75.2167 32.3826 75.5498 32.4787 75.9442 32.4787ZM83.0179 23.8182V34H81.2182V23.8182H83.0179ZM88.1093 34.1491C87.3437 34.1491 86.6825 33.9901 86.1256 33.6719C85.5721 33.3504 85.1462 32.8963 84.8479 32.3097C84.5496 31.7197 84.4005 31.0253 84.4005 30.2266C84.4005 29.4411 84.5496 28.7517 84.8479 28.1584C85.1495 27.5618 85.5705 27.0978 86.1107 26.7663C86.651 26.4316 87.2857 26.2642 88.0148 26.2642C88.4855 26.2642 88.9296 26.3404 89.3472 26.4929C89.7682 26.642 90.1394 26.8741 90.4609 27.1889C90.7857 27.5038 91.0409 27.9048 91.2265 28.392C91.4121 28.8759 91.5049 29.4527 91.5049 30.1222V30.674H85.2457V29.4609H89.7798C89.7764 29.1162 89.7019 28.8097 89.556 28.5412C89.4102 28.2694 89.2064 28.0556 88.9445 27.8999C88.686 27.7441 88.3844 27.6662 88.0397 27.6662C87.6718 27.6662 87.3486 27.7557 87.0702 27.9347C86.7918 28.1103 86.5747 28.3423 86.419 28.6307C86.2665 28.9157 86.1886 29.2289 86.1853 29.5703V30.6293C86.1853 31.0734 86.2665 31.4545 86.4289 31.7727C86.5913 32.0876 86.8183 32.3295 87.11 32.4986C87.4017 32.6643 87.7431 32.7472 88.1342 32.7472C88.396 32.7472 88.633 32.7107 88.8451 32.6378C89.0572 32.5616 89.2412 32.4505 89.3969 32.3047C89.5527 32.1589 89.6704 31.9782 89.7499 31.7628L91.4303 31.9517C91.3243 32.3958 91.1221 32.7836 90.8238 33.1151C90.5288 33.4432 90.151 33.6984 89.6903 33.8807C89.2296 34.0597 88.7026 34.1491 88.1093 34.1491ZM96.2997 34V23.8182H100.118C100.9 23.8182 101.556 23.964 102.087 24.2557C102.62 24.5473 103.023 24.9484 103.295 25.4588C103.57 25.9659 103.707 26.5426 103.707 27.1889C103.707 27.8419 103.57 28.4219 103.295 28.929C103.02 29.4361 102.614 29.8355 102.077 30.1271C101.54 30.4155 100.878 30.5597 100.093 30.5597H97.5624V29.0433H99.8444C100.302 29.0433 100.676 28.9638 100.968 28.8047C101.26 28.6456 101.475 28.4268 101.614 28.1484C101.757 27.87 101.828 27.5502 101.828 27.1889C101.828 26.8277 101.757 26.5095 101.614 26.2344C101.475 25.9593 101.258 25.7455 100.963 25.593C100.671 25.4373 100.295 25.3594 99.8345 25.3594H98.1441V34H96.2997ZM106.89 23.8182V34H105.09V23.8182H106.89ZM110.798 34.1541C110.314 34.1541 109.878 34.0679 109.49 33.8956C109.106 33.7199 108.801 33.4614 108.575 33.12C108.353 32.7786 108.242 32.3577 108.242 31.8572C108.242 31.4264 108.322 31.0701 108.481 30.7884C108.64 30.5066 108.857 30.2812 109.132 30.1122C109.407 29.9432 109.717 29.8156 110.062 29.7294C110.41 29.6399 110.77 29.5753 111.141 29.5355C111.588 29.4891 111.951 29.4477 112.23 29.4112C112.508 29.3714 112.71 29.3118 112.836 29.2322C112.965 29.1494 113.03 29.0218 113.03 28.8494V28.8196C113.03 28.4451 112.919 28.1551 112.697 27.9496C112.475 27.7441 112.155 27.6413 111.737 27.6413C111.297 27.6413 110.947 27.7375 110.688 27.9297C110.433 28.1219 110.261 28.349 110.171 28.6108L108.491 28.3722C108.623 27.9081 108.842 27.5204 109.147 27.2088C109.452 26.8939 109.825 26.6586 110.266 26.5028C110.707 26.3438 111.194 26.2642 111.727 26.2642C112.095 26.2642 112.462 26.3073 112.826 26.3935C113.191 26.4796 113.524 26.6222 113.825 26.821C114.127 27.0166 114.369 27.2834 114.551 27.6214C114.737 27.9595 114.83 28.3821 114.83 28.8892V34H113.1V32.951H113.04C112.931 33.1631 112.776 33.362 112.578 33.5476C112.382 33.7299 112.135 33.8774 111.837 33.9901C111.542 34.0994 111.195 34.1541 110.798 34.1541ZM111.265 32.8317C111.626 32.8317 111.94 32.7604 112.205 32.6179C112.47 32.4721 112.674 32.2798 112.816 32.0412C112.962 31.8026 113.035 31.5424 113.035 31.2607V30.3608C112.979 30.4072 112.882 30.4503 112.747 30.4901C112.614 30.5298 112.465 30.5646 112.299 30.5945C112.133 30.6243 111.969 30.6508 111.807 30.674C111.645 30.6972 111.504 30.7171 111.384 30.7337C111.116 30.7701 110.876 30.8298 110.663 30.9126C110.451 30.9955 110.284 31.1115 110.161 31.2607C110.039 31.4065 109.977 31.5954 109.977 31.8274C109.977 32.1589 110.098 32.4091 110.34 32.5781C110.582 32.7472 110.891 32.8317 111.265 32.8317ZM117.344 36.8636C117.099 36.8636 116.872 36.8438 116.663 36.804C116.458 36.7675 116.294 36.7244 116.171 36.6747L116.589 35.2727C116.851 35.349 117.084 35.3854 117.29 35.3821C117.495 35.3788 117.676 35.3142 117.832 35.1882C117.991 35.0656 118.125 34.8601 118.234 34.5717L118.389 34.1591L115.619 26.3636H117.528L119.288 32.1307H119.368L121.133 26.3636H123.047L119.989 34.9247C119.847 35.3291 119.658 35.6754 119.423 35.9638C119.187 36.2554 118.899 36.4775 118.558 36.63C118.219 36.7857 117.815 36.8636 117.344 36.8636Z" fill="#B5A478"/>
</svg>
