<svg width="210" height="66" viewBox="0 0 210 66" fill="none" xmlns="http://www.w3.org/2000/svg">
<rect x="0.75" y="0.75" width="208.5" height="64.5" rx="9.25" stroke="#6C4E33" stroke-width="1.5"/>
<path d="M35.9844 47.1663V18.833C35.9844 17.8497 36.551 16.983 37.3844 16.583L53.801 32.9997L37.3844 49.4163C36.551 48.9997 35.9844 48.1497 35.9844 47.1663ZM59.001 38.1997L41.0677 48.5663L55.2177 34.4163L59.001 38.1997ZM64.5844 31.0163C65.151 31.4663 65.5677 32.1663 65.5677 32.9997C65.5677 33.833 65.201 34.4997 64.6177 34.9663L60.801 37.1663L56.6344 32.9997L60.801 28.833L64.5844 31.0163ZM41.0677 17.433L59.001 27.7997L55.2177 31.583L41.0677 17.433Z" fill="#B5A478"/>
<path d="M86.2031 20.6743C86.107 20.3727 85.9777 20.1026 85.8153 19.864C85.6562 19.622 85.4657 19.4165 85.2436 19.2475C85.0215 19.0751 84.768 18.9442 84.483 18.8547C84.2012 18.7652 83.8913 18.7205 83.5533 18.7205C82.9799 18.7205 82.4628 18.868 82.0021 19.163C81.5414 19.458 81.1768 19.8905 80.9084 20.4606C80.6432 21.0273 80.5107 21.7217 80.5107 22.5437C80.5107 23.3689 80.6449 24.0666 80.9134 24.6367C81.1818 25.2068 81.5497 25.6393 82.017 25.9343C82.4844 26.2293 83.0163 26.3768 83.6129 26.3768C84.1664 26.3768 84.6487 26.2641 85.0597 26.0387C85.474 25.8133 85.7938 25.4951 86.0192 25.0841C86.2479 24.6698 86.3622 24.1826 86.3622 23.6225L86.7599 23.6971H83.8466V22.4293H87.8487V23.5877C87.8487 24.4428 87.6664 25.1852 87.3018 25.815C86.9406 26.4414 86.4401 26.9253 85.8004 27.2667C85.1641 27.6081 84.4349 27.7787 83.6129 27.7787C82.6915 27.7787 81.8828 27.5666 81.1868 27.1424C80.4941 26.7181 79.9538 26.1166 79.5661 25.3377C79.1783 24.5555 78.9844 23.6275 78.9844 22.5536C78.9844 21.7416 79.0971 21.0124 79.3224 20.3661C79.5478 19.7198 79.8643 19.1713 80.272 18.7205C80.683 18.2664 81.1652 17.9201 81.7188 17.6814C82.2756 17.4395 82.8838 17.3185 83.5433 17.3185C84.0935 17.3185 84.6056 17.3997 85.0795 17.5621C85.5568 17.7245 85.9811 17.9549 86.3523 18.2532C86.7268 18.5515 87.0367 18.9061 87.282 19.3171C87.5272 19.7248 87.6929 20.1772 87.7791 20.6743H86.2031Z" fill="#B5A478"/>
<path d="M92.6907 27.7937C91.9383 27.7937 91.2904 27.6329 90.7468 27.3114C90.2066 26.9866 89.789 26.5309 89.494 25.9442C89.2023 25.3543 89.0565 24.6632 89.0565 23.8711C89.0565 23.0889 89.2023 22.3995 89.494 21.8029C89.789 21.2063 90.1999 20.7406 90.7269 20.4059C91.2572 20.0711 91.877 19.9037 92.5863 19.9037C93.0172 19.9037 93.4348 19.975 93.8391 20.1175C94.2435 20.26 94.6064 20.4838 94.9279 20.7887C95.2494 21.0936 95.503 21.4897 95.6886 21.9769C95.8742 22.4608 95.967 23.0491 95.967 23.7418V24.2688H89.8967V23.1552H94.5103C94.5103 22.7641 94.4308 22.4177 94.2717 22.1161C94.1126 21.8112 93.8889 21.5709 93.6005 21.3952C93.3155 21.2196 92.9807 21.1317 92.5962 21.1317C92.1786 21.1317 91.814 21.2345 91.5025 21.44C91.1943 21.6421 90.9556 21.9073 90.7866 22.2354C90.6209 22.5602 90.538 22.9132 90.538 23.2944V24.1644C90.538 24.6748 90.6275 25.109 90.8065 25.467C90.9888 25.8249 91.2423 26.0983 91.5671 26.2873C91.8919 26.4729 92.2714 26.5657 92.7056 26.5657C92.9873 26.5657 93.2442 26.5259 93.4762 26.4464C93.7082 26.3635 93.9087 26.2409 94.0778 26.0785C94.2468 25.9161 94.3761 25.7155 94.4656 25.4769L95.8725 25.7304C95.7598 26.1447 95.5577 26.5077 95.266 26.8192C94.9776 27.1275 94.6147 27.3678 94.1772 27.5401C93.743 27.7091 93.2475 27.7937 92.6907 27.7937Z" fill="#B5A478"/>
<path d="M100.901 20.0032V21.1964H96.7298V20.0032H100.901ZM97.8484 18.1736H99.3349V25.3974C99.3349 25.6857 99.378 25.9028 99.4641 26.0486C99.5503 26.1911 99.6614 26.2889 99.7972 26.342C99.9364 26.3917 100.087 26.4165 100.25 26.4165C100.369 26.4165 100.473 26.4082 100.563 26.3917C100.652 26.3751 100.722 26.3618 100.772 26.3519L101.04 27.5799C100.954 27.613 100.831 27.6462 100.672 27.6793C100.513 27.7158 100.314 27.7357 100.076 27.739C99.6846 27.7456 99.32 27.676 98.9819 27.5302C98.6438 27.3843 98.3704 27.1589 98.1616 26.854C97.9528 26.5491 97.8484 26.1663 97.8484 25.7056V18.1736Z" fill="#B5A478"/>
<path d="M105.69 27.6395V20.0032H107.177V27.6395H105.69ZM106.441 18.8249C106.183 18.8249 105.96 18.7387 105.775 18.5664C105.593 18.3907 105.501 18.1819 105.501 17.94C105.501 17.6947 105.593 17.4859 105.775 17.3135C105.96 17.1379 106.183 17.05 106.441 17.05C106.7 17.05 106.92 17.1379 107.102 17.3135C107.288 17.4859 107.381 17.6947 107.381 17.94C107.381 18.1819 107.288 18.3907 107.102 18.5664C106.92 18.7387 106.7 18.8249 106.441 18.8249Z" fill="#B5A478"/>
<path d="M112.461 20.0032V21.1964H108.29V20.0032H112.461ZM109.409 18.1736H110.895V25.3974C110.895 25.6857 110.938 25.9028 111.025 26.0486C111.111 26.1911 111.222 26.2889 111.358 26.342C111.497 26.3917 111.648 26.4165 111.81 26.4165C111.929 26.4165 112.034 26.4082 112.123 26.3917C112.213 26.3751 112.282 26.3618 112.332 26.3519L112.601 27.5799C112.514 27.613 112.392 27.6462 112.233 27.6793C112.074 27.7158 111.875 27.7357 111.636 27.739C111.245 27.7456 110.88 27.676 110.542 27.5302C110.204 27.3843 109.931 27.1589 109.722 26.854C109.513 26.5491 109.409 26.1663 109.409 25.7056V18.1736Z" fill="#B5A478"/>
<path d="M120.467 27.7937C119.751 27.7937 119.127 27.6296 118.593 27.3015C118.059 26.9733 117.645 26.5143 117.35 25.9243C117.055 25.3344 116.908 24.645 116.908 23.8562C116.908 23.064 117.055 22.3713 117.35 21.778C117.645 21.1848 118.059 20.7241 118.593 20.3959C119.127 20.0678 119.751 19.9037 120.467 19.9037C121.183 19.9037 121.808 20.0678 122.342 20.3959C122.875 20.7241 123.29 21.1848 123.585 21.778C123.88 22.3713 124.027 23.064 124.027 23.8562C124.027 24.645 123.88 25.3344 123.585 25.9243C123.29 26.5143 122.875 26.9733 122.342 27.3015C121.808 27.6296 121.183 27.7937 120.467 27.7937ZM120.472 26.5458C120.936 26.5458 121.321 26.4232 121.626 26.1779C121.931 25.9326 122.156 25.6062 122.302 25.1985C122.451 24.7908 122.526 24.3417 122.526 23.8512C122.526 23.364 122.451 22.9165 122.302 22.5089C122.156 22.0979 121.931 21.7681 121.626 21.5195C121.321 21.2709 120.936 21.1466 120.472 21.1466C120.005 21.1466 119.617 21.2709 119.309 21.5195C119.004 21.7681 118.777 22.0979 118.628 22.5089C118.482 22.9165 118.409 23.364 118.409 23.8512C118.409 24.3417 118.482 24.7908 118.628 25.1985C118.777 25.6062 119.004 25.9326 119.309 26.1779C119.617 26.4232 120.005 26.5458 120.472 26.5458Z" fill="#B5A478"/>
<path d="M126.893 23.1054V27.6395H125.406V20.0032H126.833V21.2461H126.928C127.103 20.8417 127.378 20.5169 127.753 20.2716C128.131 20.0264 128.606 19.9037 129.18 19.9037C129.7 19.9037 130.156 20.0131 130.547 20.2319C130.938 20.4473 131.241 20.7688 131.457 21.1964C131.672 21.6239 131.78 22.1526 131.78 22.7823V27.6395H130.293V22.9613C130.293 22.4078 130.149 21.9752 129.861 21.6637C129.572 21.3488 129.176 21.1914 128.673 21.1914C128.328 21.1914 128.021 21.266 127.753 21.4151C127.488 21.5643 127.277 21.783 127.122 22.0714C126.969 22.3564 126.893 22.7011 126.893 23.1054Z" fill="#B5A478"/>
<path d="M88.0866 36.1531C87.9801 35.8079 87.8331 35.499 87.6456 35.2262C87.4624 34.9492 87.2408 34.7127 86.9808 34.5167C86.7251 34.3207 86.4311 34.1737 86.0987 34.0757C85.7663 33.9734 85.4041 33.9223 85.0121 33.9223C84.3089 33.9223 83.6825 34.0991 83.1328 34.4528C82.5831 34.8065 82.1506 35.3264 81.8352 36.0125C81.5241 36.6943 81.3686 37.5252 81.3686 38.5053C81.3686 39.494 81.5241 40.3313 81.8352 41.0174C82.1463 41.7035 82.5788 42.2255 83.1328 42.5835C83.6868 42.9372 84.3303 43.114 85.0632 43.114C85.728 43.114 86.3033 42.9862 86.7891 42.7305C87.2791 42.4748 87.6562 42.1126 87.9205 41.6438C88.1847 41.1708 88.3168 40.6169 88.3168 39.9819L88.8537 40.065H85.2997V38.2113H90.6115V39.7838C90.6115 40.9045 90.3729 41.874 89.8956 42.6921C89.4183 43.5103 88.7621 44.141 87.9268 44.5842C87.0916 45.0231 86.1328 45.2426 85.0504 45.2426C83.8445 45.2426 82.7855 44.972 81.8736 44.4308C80.9659 43.8853 80.2564 43.1119 79.745 42.1105C79.2379 41.1048 78.9844 39.9116 78.9844 38.5309C78.9844 37.4741 79.1335 36.5302 79.4318 35.6992C79.7344 34.8683 80.1562 34.163 80.6974 33.5835C81.2386 32.9997 81.8736 32.5565 82.6023 32.2539C83.331 31.9471 84.1236 31.7937 84.9801 31.7937C85.7045 31.7937 86.38 31.9002 87.0064 32.1133C87.6328 32.3221 88.1889 32.6204 88.6747 33.0082C89.1648 33.396 89.5675 33.8562 89.8828 34.3889C90.1982 34.9215 90.4048 35.5096 90.5028 36.1531H88.0866Z" fill="#B5A478"/>
<path d="M96.9051 45.2553C95.9462 45.2553 95.1153 45.0444 94.4122 44.6225C93.709 44.2007 93.1636 43.6105 92.7758 42.8519C92.3923 42.0934 92.2005 41.2071 92.2005 40.1928C92.2005 39.1786 92.3923 38.2902 92.7758 37.5274C93.1636 36.7646 93.709 36.1723 94.4122 35.7504C95.1153 35.3285 95.9462 35.1176 96.9051 35.1176C97.8639 35.1176 98.6948 35.3285 99.3979 35.7504C100.101 36.1723 100.644 36.7646 101.028 37.5274C101.416 38.2902 101.61 39.1786 101.61 40.1928C101.61 41.2071 101.416 42.0934 101.028 42.8519C100.644 43.6105 100.101 44.2007 99.3979 44.6225C98.6948 45.0444 97.8639 45.2553 96.9051 45.2553ZM96.9178 43.4017C97.4377 43.4017 97.8724 43.2589 98.2218 42.9734C98.5712 42.6836 98.8312 42.2958 99.0016 41.81C99.1764 41.3242 99.2637 40.783 99.2637 40.1865C99.2637 39.5856 99.1764 39.0423 99.0016 38.5565C98.8312 38.0664 98.5712 37.6765 98.2218 37.3867C97.8724 37.097 97.4377 36.9521 96.9178 36.9521C96.3852 36.9521 95.942 37.097 95.5883 37.3867C95.2389 37.6765 94.9768 38.0664 94.8021 38.5565C94.6316 39.0423 94.5464 39.5856 94.5464 40.1865C94.5464 40.783 94.6316 41.3242 94.8021 41.81C94.9768 42.2958 95.2389 42.6836 95.5883 42.9734C95.942 43.2589 96.3852 43.4017 96.9178 43.4017Z" fill="#B5A478"/>
<path d="M107.676 45.2553C106.717 45.2553 105.886 45.0444 105.183 44.6225C104.48 44.2007 103.935 43.6105 103.547 42.8519C103.163 42.0934 102.972 41.2071 102.972 40.1928C102.972 39.1786 103.163 38.2902 103.547 37.5274C103.935 36.7646 104.48 36.1723 105.183 35.7504C105.886 35.3285 106.717 35.1176 107.676 35.1176C108.635 35.1176 109.466 35.3285 110.169 35.7504C110.872 36.1723 111.416 36.7646 111.799 37.5274C112.187 38.2902 112.381 39.1786 112.381 40.1928C112.381 41.2071 112.187 42.0934 111.799 42.8519C111.416 43.6105 110.872 44.2007 110.169 44.6225C109.466 45.0444 108.635 45.2553 107.676 45.2553ZM107.689 43.4017C108.209 43.4017 108.644 43.2589 108.993 42.9734C109.342 42.6836 109.602 42.2958 109.773 41.81C109.948 41.3242 110.035 40.783 110.035 40.1865C110.035 39.5856 109.948 39.0423 109.773 38.5565C109.602 38.0664 109.342 37.6765 108.993 37.3867C108.644 37.097 108.209 36.9521 107.689 36.9521C107.156 36.9521 106.713 37.097 106.359 37.3867C106.01 37.6765 105.748 38.0664 105.573 38.5565C105.403 39.0423 105.318 39.5856 105.318 40.1865C105.318 40.783 105.403 41.3242 105.573 41.81C105.748 42.2958 106.01 42.6836 106.359 42.9734C106.713 43.2589 107.156 43.4017 107.689 43.4017Z" fill="#B5A478"/>
<path d="M118.435 48.95C117.604 48.95 116.89 48.837 116.293 48.6112C115.697 48.3896 115.217 48.0913 114.855 47.7163C114.493 47.3413 114.241 46.9258 114.101 46.4698L116.185 45.9649C116.278 46.1566 116.415 46.3463 116.594 46.5338C116.773 46.7255 117.013 46.8832 117.316 47.0068C117.623 47.1346 118.008 47.1985 118.473 47.1985C119.129 47.1985 119.673 47.0387 120.103 46.7191C120.533 46.4038 120.749 45.8839 120.749 45.1595V43.2994H120.633C120.514 43.538 120.339 43.783 120.109 44.0345C119.883 44.2859 119.583 44.4968 119.208 44.6673C118.837 44.8377 118.371 44.923 117.808 44.923C117.054 44.923 116.37 44.7461 115.756 44.3924C115.147 44.0345 114.661 43.5018 114.299 42.7944C113.941 42.0828 113.762 41.1921 113.762 40.1225C113.762 39.0444 113.941 38.1346 114.299 37.3931C114.661 36.6474 115.149 36.0828 115.763 35.6992C116.376 35.3115 117.06 35.1176 117.815 35.1176C118.39 35.1176 118.863 35.2156 119.234 35.4116C119.609 35.6034 119.907 35.8356 120.129 36.1083C120.35 36.3768 120.518 36.6303 120.633 36.869H120.761V35.2454H123.043V45.2234C123.043 46.0629 122.843 46.7575 122.442 47.3072C122.042 47.8569 121.494 48.2681 120.8 48.5409C120.105 48.8136 119.317 48.95 118.435 48.95ZM118.454 43.1076C118.944 43.1076 119.361 42.9883 119.707 42.7497C120.052 42.511 120.314 42.168 120.493 41.7205C120.672 41.2731 120.761 40.7362 120.761 40.1098C120.761 39.4919 120.672 38.9507 120.493 38.4862C120.318 38.0217 120.058 37.6616 119.713 37.4059C119.372 37.146 118.952 37.016 118.454 37.016C117.938 37.016 117.508 37.1502 117.163 37.4187C116.817 37.6872 116.557 38.0558 116.383 38.5245C116.208 38.989 116.121 39.5174 116.121 40.1098C116.121 40.7106 116.208 41.2369 116.383 41.6886C116.562 42.136 116.824 42.4855 117.169 42.7369C117.518 42.984 117.947 43.1076 118.454 43.1076Z" fill="#B5A478"/>
<path d="M127.549 31.9727V45.0636H125.235V31.9727H127.549Z" fill="#B5A478"/>
<path d="M134.095 45.2553C133.11 45.2553 132.26 45.0508 131.544 44.6417C130.833 44.2284 130.285 43.6446 129.901 42.8903C129.518 42.1318 129.326 41.239 129.326 40.212C129.326 39.2021 129.518 38.3157 129.901 37.5529C130.289 36.7859 130.83 36.1893 131.525 35.7632C132.22 35.3328 133.036 35.1176 133.973 35.1176C134.578 35.1176 135.149 35.2156 135.686 35.4116C136.227 35.6034 136.705 35.9017 137.118 36.3065C137.536 36.7113 137.864 37.2269 138.102 37.8534C138.341 38.4755 138.46 39.217 138.46 40.0778V40.7873H130.413V39.2277H136.242C136.238 38.7845 136.142 38.3903 135.955 38.0451C135.767 37.6957 135.505 37.4208 135.169 37.2205C134.836 37.0203 134.448 36.9201 134.005 36.9201C133.532 36.9201 133.117 37.0352 132.759 37.2653C132.401 37.4911 132.122 37.7894 131.921 38.1602C131.725 38.5267 131.625 38.9294 131.621 39.3683V40.7298C131.621 41.3008 131.725 41.7909 131.934 42.2C132.143 42.6048 132.435 42.9159 132.81 43.1332C133.185 43.3463 133.624 43.4528 134.127 43.4528C134.463 43.4528 134.768 43.4059 135.041 43.3122C135.313 43.2142 135.55 43.0714 135.75 42.8839C135.95 42.6964 136.102 42.4642 136.204 42.1872L138.365 42.4301C138.228 43.0011 137.968 43.4997 137.585 43.9258C137.205 44.3477 136.72 44.6758 136.127 44.9102C135.535 45.1403 134.857 45.2553 134.095 45.2553Z" fill="#B5A478"/>
<path d="M144.625 45.0636V31.9727H149.534C150.54 31.9727 151.384 32.1602 152.065 32.5352C152.752 32.9102 153.269 33.4258 153.619 34.0821C153.972 34.734 154.149 35.4755 154.149 36.3065C154.149 37.146 153.972 37.8917 153.619 38.5437C153.265 39.1957 152.743 39.7092 152.053 40.0842C151.362 40.4549 150.512 40.6403 149.502 40.6403H146.249V38.6907H149.183C149.771 38.6907 150.252 38.5884 150.627 38.3839C151.002 38.1794 151.279 37.8981 151.458 37.5402C151.641 37.1822 151.733 36.771 151.733 36.3065C151.733 35.842 151.641 35.4329 151.458 35.0792C151.279 34.7255 151 34.4507 150.621 34.2546C150.246 34.0544 149.762 33.9542 149.17 33.9542H146.997V45.0636H144.625Z" fill="#B5A478"/>
<path d="M158.241 31.9727V45.0636H155.927V31.9727H158.241Z" fill="#B5A478"/>
<path d="M163.265 45.2617C162.643 45.2617 162.083 45.1509 161.584 44.9294C161.09 44.7035 160.698 44.3711 160.408 43.9322C160.123 43.4933 159.98 42.9521 159.98 42.3086C159.98 41.7546 160.082 41.2965 160.287 40.9343C160.491 40.5721 160.77 40.2823 161.124 40.065C161.478 39.8477 161.876 39.6836 162.319 39.5728C162.767 39.4578 163.229 39.3747 163.707 39.3235C164.282 39.2639 164.748 39.2106 165.106 39.1637C165.464 39.1126 165.724 39.0359 165.886 38.9336C166.052 38.8271 166.135 38.663 166.135 38.4414V38.4031C166.135 37.9215 165.993 37.5487 165.707 37.2845C165.422 37.0203 165.011 36.8882 164.474 36.8882C163.907 36.8882 163.457 37.0117 163.125 37.2589C162.797 37.5061 162.575 37.798 162.46 38.1346L160.3 37.8278C160.47 37.2312 160.751 36.7326 161.143 36.3321C161.535 35.9272 162.015 35.6247 162.582 35.4244C163.148 35.2198 163.775 35.1176 164.461 35.1176C164.934 35.1176 165.405 35.173 165.873 35.2838C166.342 35.3946 166.77 35.5778 167.158 35.8335C167.546 36.0849 167.857 36.4279 168.091 36.8626C168.33 37.2973 168.449 37.8406 168.449 38.4926V45.0636H166.225V43.7149H166.148C166.008 43.9876 165.81 44.2433 165.554 44.4819C165.302 44.7163 164.985 44.9059 164.601 45.0508C164.222 45.1914 163.777 45.2617 163.265 45.2617ZM163.866 43.5615C164.331 43.5615 164.734 43.4698 165.074 43.2866C165.415 43.0991 165.677 42.8519 165.861 42.5451C166.048 42.2383 166.142 41.9038 166.142 41.5416V40.3846C166.069 40.4443 165.946 40.4997 165.771 40.5508C165.601 40.6019 165.409 40.6467 165.196 40.685C164.983 40.7234 164.772 40.7575 164.563 40.7873C164.354 40.8171 164.173 40.8427 164.02 40.864C163.675 40.9109 163.366 40.9876 163.093 41.0941C162.82 41.2007 162.605 41.3498 162.447 41.5416C162.29 41.7291 162.211 41.972 162.211 42.2703C162.211 42.6964 162.366 43.0181 162.677 43.2355C162.988 43.4528 163.385 43.5615 163.866 43.5615Z" fill="#B5A478"/>
<path d="M171.683 48.7454C171.367 48.7454 171.076 48.7198 170.807 48.6687C170.543 48.6218 170.332 48.5664 170.174 48.5025L170.711 46.7C171.048 46.798 171.348 46.8448 171.612 46.8406C171.877 46.8363 172.109 46.7532 172.309 46.5913C172.514 46.4336 172.686 46.1694 172.827 45.7987L173.025 45.2681L169.465 35.2454H171.919L174.182 42.6602H174.284L176.554 35.2454H179.014L175.083 46.2525C174.9 46.7724 174.657 47.2177 174.355 47.5884C174.052 47.9634 173.681 48.249 173.242 48.445C172.808 48.6453 172.288 48.7454 171.683 48.7454Z" fill="#B5A478"/>
</svg>
