<svg width="151" height="49" viewBox="0 0 151 49" fill="none" xmlns="http://www.w3.org/2000/svg">
<path d="M1.81308 23.3665C1.81308 19.0553 3.1434 15.594 5.80404 12.9826C8.46468 10.3589 11.9876 9.04706 16.3727 9.04706C19.8586 9.04706 22.7102 9.8046 24.9274 11.3197V13.5923C23.8311 12.8779 22.5439 12.3236 21.0658 11.9294C19.5876 11.5229 18.0725 11.3197 16.5205 11.3197C12.8005 11.3197 9.81347 12.4221 7.55932 14.627C5.31748 16.8196 4.19657 19.7327 4.19657 23.3665C4.19657 27.0495 5.28053 30.0181 7.44846 32.2722C9.62871 34.5264 12.4926 35.6535 16.0401 35.6535C19.1196 35.6535 21.54 34.7912 23.3014 33.0667C25.0629 31.3299 25.9436 28.9526 25.9436 25.9347V23.8469H16.2618V21.6481H28.0684V25.5467C28.0684 29.3899 27.0029 32.4077 24.872 34.6003C22.7533 36.7929 19.8093 37.8891 16.0401 37.8891C13.9461 37.8891 12.0122 37.5381 10.2384 36.836C8.47699 36.1215 6.97423 35.1361 5.73013 33.8797C4.49835 32.611 3.53757 31.0774 2.84777 29.279C2.15798 27.4683 1.81308 25.4975 1.81308 23.3665ZM5.32364 23.3665C5.32364 20.1146 6.35218 17.4786 8.40925 15.4585C10.4786 13.4383 13.1824 12.4283 16.5205 12.4283C18.0725 12.4283 19.5938 12.65 21.0842 13.0935C22.587 13.5369 23.8681 14.1466 24.9274 14.9226V17.0844L24.7796 17.1953C22.4146 15.4954 19.7786 14.6455 16.8716 14.6455C14.0508 14.6455 11.8151 15.4277 10.1645 16.992C8.52627 18.5564 7.70713 20.6812 7.70713 23.3665C7.70713 26.0394 8.47699 28.2012 10.0167 29.8518C11.5564 31.5024 13.5642 32.3277 16.0401 32.3277C17.8878 32.3277 19.4337 31.8288 20.6778 30.831C21.9218 29.821 22.5439 28.5892 22.5439 27.1357H16.2618V24.9555H24.8165V26.5075C24.8165 28.8972 24.0097 30.8372 22.3961 32.3277C20.7825 33.8181 18.6638 34.5633 16.0401 34.5633C14.4881 34.5633 13.0469 34.2862 11.7166 33.7319C10.3863 33.1776 9.25301 32.4077 8.31686 31.4223C7.38071 30.4369 6.6478 29.2544 6.11814 27.8748C5.58848 26.4829 5.32364 24.9801 5.32364 23.3665ZM29.6951 37.1316V25.1402C29.6951 21.9992 30.5204 19.5849 32.171 17.8974C33.8339 16.2098 36.2112 15.3661 39.303 15.3661C40.9659 15.3661 42.2284 15.6063 43.0907 16.0867V18.1006C41.9821 17.6449 40.7934 17.417 39.5247 17.417C37.0858 17.417 35.2073 18.1129 33.8893 19.5049C32.5836 20.8844 31.9308 22.8738 31.9308 25.4728V37.1316H29.6951ZM32.984 37.1316V25.3989C32.984 23.1694 33.5383 21.4572 34.6469 20.2624C35.7678 19.0676 37.3691 18.4702 39.4508 18.4702C40.892 18.4702 42.1053 18.7104 43.0907 19.1908V21.4264L42.9798 21.5003C41.9082 20.9953 40.7934 20.7428 39.6356 20.7428C38.219 20.7428 37.1289 21.1862 36.3652 22.0731C35.6015 22.9477 35.2196 24.2102 35.2196 25.8608V37.1316H32.984ZM44.5511 26.6553C44.5511 23.1694 45.5981 20.3548 47.6921 18.2115C49.7861 16.0682 52.5392 14.9965 55.9512 14.9965C59.2893 14.9965 61.9623 16.0189 63.9701 18.0637C65.9902 20.1084 67.0002 22.8307 67.0002 26.2304V37.1316H64.7646V26.2673C64.7646 23.5697 63.9393 21.3772 62.2887 19.6896C60.6381 18.0021 58.4886 17.1583 55.8403 17.1583C53.2413 17.1583 51.0857 18.0329 49.3735 19.782C47.6736 21.5188 46.8237 23.7299 46.8237 26.4151C46.8237 29.162 47.6367 31.41 49.2626 33.1591C50.8886 34.8959 52.9888 35.7643 55.5632 35.7643C56.6102 35.7643 57.5833 35.6042 58.4825 35.2839C59.3817 34.9513 60.0284 34.5202 60.4225 33.9906V36.0784C59.9175 36.645 59.2031 37.0885 58.2792 37.4087C57.3677 37.729 56.3515 37.8891 55.2306 37.8891C52.028 37.8891 49.4474 36.8606 47.4889 34.8035C45.5303 32.7465 44.5511 30.0304 44.5511 26.6553ZM47.8954 26.3412C47.8954 23.9762 48.6344 22.03 50.1126 20.5026C51.603 18.9752 53.5123 18.2115 55.8403 18.2115C58.1438 18.2115 60.0284 18.969 61.4942 20.4841C62.9723 21.9992 63.7114 23.9393 63.7114 26.3043V37.1316H61.4757V26.3412C61.4757 24.5551 60.9645 23.114 59.9421 22.0177C58.9198 20.9214 57.5771 20.3733 55.9142 20.3733C54.239 20.3733 52.8656 20.946 51.7939 22.0916C50.7346 23.2371 50.2049 24.7091 50.2049 26.5075C50.2049 28.2813 50.7284 29.7348 51.7755 30.868C52.8348 31.9889 54.1897 32.5494 55.8403 32.5494C56.7642 32.5494 57.6264 32.3769 58.4271 32.032C59.2277 31.6748 59.8621 31.1821 60.3302 30.5539L60.4225 30.5909V32.6972C59.9914 33.3008 59.3324 33.7873 58.4455 34.1568C57.571 34.5264 56.6225 34.7111 55.6001 34.7111C53.346 34.7111 51.4983 33.9228 50.0571 32.3461C48.6159 30.7695 47.8954 28.7678 47.8954 26.3412ZM68.978 26.6553V7.45807H71.2136V26.6184C71.2136 29.3283 72.0266 31.527 73.6526 33.2145C75.2785 34.8898 77.4033 35.7274 80.027 35.7274C82.7123 35.7274 84.8987 34.859 86.5862 33.1222C88.2861 31.3853 89.136 29.125 89.136 26.3412C89.136 23.582 88.36 21.3587 86.8079 19.6711C85.2682 17.9713 83.2358 17.1214 80.7107 17.1214C79.7375 17.1214 78.7706 17.2877 77.8098 17.6202C76.849 17.9405 76.0976 18.3531 75.5557 18.8582V16.6964C76.1346 16.1667 76.9229 15.7541 77.9207 15.4585C78.9184 15.1505 79.9839 14.9965 81.1171 14.9965C84.2212 14.9965 86.7094 16.0251 88.5817 18.0822C90.4663 20.1269 91.4086 22.843 91.4086 26.2304C91.4086 29.7409 90.3863 32.5617 88.3415 34.6927C86.2968 36.8236 83.5745 37.8891 80.1748 37.8891C76.7628 37.8891 74.0406 36.8791 72.0081 34.859C69.988 32.8265 68.978 30.092 68.978 26.6553ZM72.2668 26.6184V7.45807H74.5025V26.5814C74.5025 28.4044 75.0014 29.8518 75.9991 30.9234C77.0092 31.9828 78.3641 32.5124 80.064 32.5124C81.7638 32.5124 83.1373 31.9581 84.1843 30.8495C85.2436 29.7286 85.7733 28.2628 85.7733 26.4521C85.7733 24.5551 85.2744 23.0708 84.2766 21.9992C83.2789 20.9152 81.9116 20.3733 80.1748 20.3733C79.2756 20.3733 78.4195 20.5457 77.6066 20.8906C76.8059 21.2355 76.1469 21.7159 75.6296 22.3318H75.5557V20.0222C76.0853 19.4802 76.8059 19.0368 77.7174 18.6919C78.6413 18.347 79.5713 18.1745 80.5074 18.1745C82.7985 18.1745 84.6339 18.9444 86.0135 20.4841C87.393 22.0115 88.0828 24.0316 88.0828 26.5445C88.0828 28.9095 87.3376 30.8557 85.8472 32.3831C84.369 33.9105 82.4783 34.6742 80.1748 34.6742C77.8098 34.6742 75.9006 33.929 74.4471 32.4385C72.9936 30.9481 72.2668 29.008 72.2668 26.6184Z" fill="white"/>
<line x1="110.066" y1="8.48584" x2="109.502" y2="39.7774" stroke="#FFE6A9" stroke-width="1.00388"/>
<path d="M145.374 8.87878C142.623 8.87878 140.394 11.1545 140.394 13.9627V19.0467H135.525V13.9627C135.525 11.1545 133.294 8.87878 130.545 8.87878C127.796 8.87878 125.564 11.1545 125.564 13.9627V34.3005C125.564 37.1087 127.796 39.3844 130.545 39.3844C133.294 39.3844 135.525 37.1087 135.525 34.3005V29.2165H140.394V34.3005C140.394 37.1087 142.625 39.3844 145.374 39.3844C148.123 39.3844 150.354 37.1087 150.354 34.3005V13.9627C150.354 11.1545 148.123 8.87878 145.374 8.87878Z" fill="white"/>
<path d="M130.545 19.0467H135.525V13.9627C135.525 11.1545 133.294 8.87878 130.545 8.87878C130.082 8.87878 129.636 8.94851 129.211 9.06858C129.162 9.08214 129.112 9.09183 129.065 9.10732C128.765 9.20222 128.477 9.32811 128.204 9.47724C128.194 9.48305 128.183 9.48692 128.171 9.49273C127.891 9.64961 127.625 9.83166 127.38 10.037C127.38 10.037 127.378 10.037 127.376 10.0389C127.291 10.1106 127.209 10.19 127.13 10.2694C127.096 10.3023 127.058 10.3333 127.023 10.3681C126.989 10.403 126.959 10.4417 126.927 10.4766C126.851 10.5599 126.773 10.6412 126.701 10.7284C126.701 10.7284 126.701 10.7303 126.699 10.7322C126.498 10.9821 126.318 11.2532 126.166 11.5399C126.02 11.8129 125.9 12.1035 125.805 12.4056C125.8 12.4211 125.794 12.4366 125.788 12.4521C125.773 12.5005 125.764 12.5528 125.75 12.6012C125.633 13.035 125.564 13.4902 125.564 13.9627C125.564 16.771 127.794 19.0467 130.545 19.0467Z" fill="#FFE6A9"/>
<path d="M145.375 29.2137H140.395V34.2977C140.395 37.106 142.626 39.3816 145.375 39.3816C145.838 39.3816 146.284 39.3119 146.709 39.1918C146.758 39.1783 146.807 39.1686 146.855 39.1531C147.155 39.0582 147.443 38.9323 147.716 38.7832C147.726 38.7774 147.737 38.7735 147.748 38.7677C148.029 38.6108 148.295 38.4288 148.54 38.2235C148.54 38.2235 148.541 38.2235 148.543 38.2215C148.629 38.1499 148.71 38.0705 148.79 37.9911C148.824 37.9581 148.862 37.9271 148.896 37.8923C148.93 37.8574 148.961 37.8187 148.993 37.7838C149.069 37.7006 149.147 37.6192 149.219 37.5321C149.219 37.5321 149.219 37.5301 149.221 37.5282C149.422 37.2783 149.602 37.0072 149.754 36.7206C149.9 36.4475 150.019 36.157 150.114 35.8548C150.12 35.8393 150.126 35.8238 150.131 35.8084C150.147 35.7599 150.156 35.7076 150.169 35.6592C150.287 35.2254 150.355 34.7703 150.355 34.2977C150.355 31.4894 148.126 29.2137 145.375 29.2137Z" fill="#FFE6A9"/>
</svg>
