<svg width="24" height="24" viewBox="0 0 24 24" fill="none" xmlns="http://www.w3.org/2000/svg">
<g id="Icon">
<path id="Vector" d="M4.76725 20.0647C4.53518 20.0647 4.34148 19.987 4.18615 19.8317C4.0308 19.6764 3.95312 19.4826 3.95312 19.2506V8.75058C3.95312 8.51851 4.0308 8.32272 4.18615 8.1632C4.34148 8.0037 4.53518 7.92395 4.76725 7.92395H6.74335C6.97542 7.92395 7.1712 8.0037 7.3307 8.1632C7.49022 8.32272 7.56997 8.51851 7.56997 8.75058V19.2506C7.56997 19.4826 7.49022 19.6764 7.3307 19.8317C7.1712 19.987 6.97542 20.0647 6.74335 20.0647H4.76725ZM10.1548 20.0647C9.91871 20.0647 9.72301 19.987 9.56768 19.8317C9.41232 19.6764 9.33465 19.4826 9.33465 19.2506V13.7506C9.33465 13.5185 9.41232 13.3227 9.56768 13.1632C9.72301 13.0037 9.91871 12.924 10.1548 12.924H12.1249C12.3569 12.924 12.5527 13.0037 12.7122 13.1632C12.8717 13.3227 12.9515 13.5185 12.9515 13.7506V19.2506C12.9515 19.4826 12.8717 19.6764 12.7122 19.8317C12.5527 19.987 12.3569 20.0647 12.1249 20.0647H10.1548ZM17.2672 20.0647C17.0352 20.0647 16.8415 19.987 16.6862 19.8317C16.5308 19.6764 16.4531 19.4826 16.4531 19.2506V4.75058C16.4531 4.51851 16.5308 4.32272 16.6862 4.1632C16.8415 4.0037 17.0352 3.92395 17.2672 3.92395H19.2433C19.4754 3.92395 19.6712 4.0037 19.8307 4.1632C19.9902 4.32272 20.07 4.51851 20.07 4.75058V19.2506C20.07 19.4826 19.9902 19.6764 19.8307 19.8317C19.6712 19.987 19.4754 20.0647 19.2433 20.0647H17.2672Z" fill="#D68000"/>
</g>
</svg>
