<svg height="24" viewBox="0 0 197 24" fill="currentColor" xmlns="http://www.w3.org/2000/svg">
<g clip-path="url(#clip0_1281_11697)">
<path d="M41.3254 0.39624C43.2984 0.39624 44.8976 1.99791 44.8976 3.97384V14.2233C44.8976 15.5996 44.6828 16.8992 44.2518 18.1222C43.8207 19.3452 43.0792 20.5004 42.1228 21.4272C41.2489 22.273 40.3353 22.8727 39.3804 23.2248C37.9901 23.742 36.3187 23.9999 34.3693 23.9999C33.2423 23.9999 32.0109 23.9203 30.6779 23.7626C29.345 23.6035 28.2297 23.2911 27.3352 22.8211C26.4392 22.3525 25.6197 21.685 24.8767 20.8201C24.1337 19.9552 23.6247 19.0637 23.351 18.1457C22.9082 16.6693 22.6875 15.3609 22.6875 14.2219V3.97384C22.6875 1.99791 24.2868 0.39624 26.2597 0.39624C28.2327 0.39624 29.8319 1.99791 29.8319 3.97384V14.5534C29.8319 15.8191 30.1821 16.8078 30.8839 17.5195C31.5842 18.2312 32.5567 18.5878 33.7999 18.5878C35.0431 18.5878 35.9995 18.2371 36.7013 17.5357C37.4016 16.8344 37.7517 15.8412 37.7517 14.5534V3.97384C37.7517 1.99791 39.351 0.39624 41.3239 0.39624H41.3254Z" fill="white"/>
<path d="M48.3608 3.97384C48.3608 1.99791 49.9601 0.39624 51.9331 0.39624H61.7655C65.0435 0.39624 67.2033 1.58828 68.2464 3.97384C68.5509 4.66932 68.704 5.41785 68.704 6.17669C68.704 7.5485 68.2773 8.72433 67.424 9.70567C66.8546 10.3599 66.0219 10.8771 64.9258 11.2572C66.5912 11.658 67.8153 12.3476 68.601 13.3231C69.3866 14.3 69.778 15.5259 69.778 17.0038C69.778 18.2076 69.4984 19.2892 68.9408 20.2499C68.3818 21.2106 67.6182 21.9709 66.6486 22.5293C66.0483 22.8771 65.142 23.1305 63.9297 23.2897C62.3172 23.5004 61.2476 23.6065 60.7209 23.6065H51.9316C49.9586 23.6065 48.3594 22.0048 48.3594 20.0289V3.97384H48.3608ZM55.5847 9.49938H58.6994C59.8161 9.49938 60.5944 9.30636 61.0313 8.92178C61.4683 8.5372 61.6875 7.98023 61.6875 7.25086C61.6875 6.576 61.4683 6.04703 61.0313 5.66834C60.5944 5.28819 59.8323 5.09811 58.7465 5.09811H55.5847V9.49938ZM55.5847 18.6187H59.2364C60.4693 18.6187 61.3388 18.3992 61.8449 17.9616C62.3511 17.5239 62.6041 16.9345 62.6041 16.1963C62.6041 15.5097 62.354 14.9586 61.8538 14.5416C61.3535 14.1246 60.4752 13.9169 59.2217 13.9169H55.5862V18.6187H55.5847Z" fill="white"/>
<path d="M72.2476 3.97384C72.2476 1.99791 73.8468 0.39624 75.8198 0.39624H85.6522C88.9302 0.39624 91.09 1.58828 92.1331 3.97384C92.4377 4.66932 92.5907 5.41785 92.5907 6.17669C92.5907 7.5485 92.164 8.72433 91.3107 9.70567C90.7413 10.3599 89.9086 10.8771 88.8125 11.2572C90.4779 11.658 91.702 12.3476 92.4877 13.3231C93.2733 14.3 93.6647 15.5259 93.6647 17.0038C93.6647 18.2076 93.3852 19.2892 92.8275 20.2499C92.2685 21.2106 91.5049 21.9709 90.5353 22.5293C89.935 22.8771 89.0288 23.1305 87.8164 23.2897C86.2039 23.5004 85.1343 23.6065 84.6076 23.6065H75.8183C73.8454 23.6065 72.2461 22.0048 72.2461 20.0289V3.97384H72.2476ZM79.4715 9.49938H82.5861C83.7028 9.49938 84.4811 9.30636 84.9181 8.92178C85.355 8.5372 85.5742 7.98023 85.5742 7.25086C85.5742 6.576 85.355 6.04703 84.9181 5.66834C84.4811 5.28819 83.719 5.09811 82.6332 5.09811H79.4715V9.49938ZM79.4715 18.6187H83.1231C84.356 18.6187 85.2256 18.3992 85.7317 17.9616C86.2378 17.5239 86.4908 16.9345 86.4908 16.1963C86.4908 15.5097 86.2407 14.9586 85.7405 14.5416C85.2403 14.1246 84.3619 13.9169 83.1084 13.9169H79.4729V18.6187H79.4715Z" fill="white"/>
<path d="M95.2188 12.0158C95.2188 8.22753 96.2722 5.27763 98.3805 3.16614C100.487 1.05464 103.422 -0.000366211 107.186 -0.000366211C110.949 -0.000366211 114.014 1.03696 116.102 3.11014C118.188 5.18333 119.231 8.08902 119.231 11.8258C119.231 14.5384 118.775 16.7634 117.864 18.4991C116.952 20.2349 115.635 21.5861 113.913 22.5527C112.19 23.5178 110.042 24.0011 107.471 24.0011C104.901 24.0011 102.694 23.5841 100.983 22.7501C99.2706 21.9161 97.8817 20.5974 96.818 18.7924C95.7528 16.9874 95.2217 14.7285 95.2217 12.0158H95.2188ZM102.379 12.0468C102.379 14.3896 102.815 16.0738 103.683 17.0964C104.552 18.1205 105.735 18.6318 107.232 18.6318C108.728 18.6318 109.961 18.1308 110.804 17.1273C111.647 16.1254 112.069 14.3248 112.069 11.7285C112.069 9.54335 111.629 7.94757 110.749 6.93971C109.87 5.93185 108.676 5.42792 107.168 5.42792C105.66 5.42792 104.566 5.93922 103.69 6.96329C102.815 7.98735 102.378 9.68185 102.378 12.0453L102.379 12.0468Z" fill="white"/>
<path d="M15.3614 0.39624C13.2281 0.39624 11.4994 2.12758 11.4994 4.26412V8.132H7.72412V4.26412C7.72412 2.12758 5.99391 0.39624 3.86206 0.39624C1.7302 0.39624 0 2.12758 0 4.26412V19.7371C0 21.8736 1.7302 23.605 3.86206 23.605C5.99391 23.605 7.72412 21.8736 7.72412 19.7371V15.8692H11.4994V19.7371C11.4994 21.8736 13.2296 23.605 15.3614 23.605C17.4933 23.605 19.2235 21.8736 19.2235 19.7371V4.26412C19.2235 2.12758 17.4933 0.39624 15.3614 0.39624Z" fill="white"/>
<path d="M3.86206 8.132H7.72411V4.26412C7.72411 2.12758 5.99391 0.39624 3.86206 0.39624C3.50307 0.39624 3.15732 0.449285 2.82776 0.540641C2.78951 0.550955 2.75126 0.558323 2.71447 0.570111C2.48202 0.642311 2.25838 0.738087 2.04652 0.851545C2.03917 0.855965 2.03034 0.858912 2.02151 0.863333C1.80376 0.982684 1.59779 1.12119 1.408 1.27738C1.408 1.27738 1.40652 1.27738 1.40505 1.27885C1.33885 1.33337 1.27558 1.39378 1.21379 1.4542C1.18731 1.47925 1.15788 1.50282 1.1314 1.52934C1.10492 1.55587 1.08138 1.58534 1.05636 1.61186C0.997514 1.67522 0.937192 1.7371 0.881285 1.80341C0.881285 1.80341 0.881285 1.80488 0.879813 1.80636C0.72386 1.99644 0.58409 2.20272 0.466389 2.4208C0.353102 2.62856 0.260413 2.84958 0.18685 3.07944C0.182436 3.09123 0.178022 3.10302 0.173609 3.11481C0.161839 3.15164 0.154482 3.19143 0.144183 3.22826C0.0529654 3.55832 0 3.90459 0 4.26412C0 6.40066 1.72873 8.132 3.86206 8.132Z" fill="#E4E4E4"/>
<path d="M15.3621 15.8679H11.5V19.7358C11.5 21.8723 13.2302 23.6037 15.3621 23.6037C15.721 23.6037 16.0668 23.5506 16.3964 23.4593C16.4346 23.449 16.4729 23.4416 16.5096 23.4298C16.7421 23.3576 16.9657 23.2618 17.1776 23.1484C17.1849 23.144 17.1938 23.141 17.2026 23.1366C17.4203 23.0172 17.6263 22.8787 17.8161 22.7225C17.8161 22.7225 17.8176 22.7225 17.8191 22.7211C17.8853 22.6665 17.9485 22.6061 18.0103 22.5457C18.0368 22.5207 18.0662 22.4971 18.0927 22.4706C18.1192 22.444 18.1427 22.4146 18.1677 22.3881C18.2266 22.3247 18.2869 22.2628 18.3428 22.1965C18.3428 22.1965 18.3428 22.195 18.3443 22.1936C18.5003 22.0035 18.64 21.7972 18.7577 21.5791C18.871 21.3714 18.9637 21.1503 19.0373 20.9205C19.0417 20.9087 19.0461 20.8969 19.0505 20.8851C19.0623 20.8483 19.0696 20.8085 19.0799 20.7717C19.1711 20.4416 19.2241 20.0953 19.2241 19.7358C19.2241 17.5993 17.4954 15.8679 15.3621 15.8679Z" fill="#E4E4E4"/>
<path d="M131.93 23.9352C130.791 23.9352 129.916 23.6228 129.302 22.9981C128.689 22.3733 128.383 21.4907 128.383 20.3502V3.99903C128.383 2.83646 128.695 1.94795 129.319 1.33499C129.942 0.720546 130.824 0.414062 131.962 0.414062H140.141C142.813 0.414062 144.877 1.11102 146.334 2.50345C147.79 3.89589 148.518 5.79962 148.518 8.2117C148.518 10.6238 147.79 12.5275 146.334 13.92C144.877 15.3124 142.813 16.0093 140.141 16.0093H135.443V20.3517C135.443 21.4922 135.148 22.3748 134.556 22.9995C133.965 23.6243 133.089 23.9367 131.929 23.9367L131.93 23.9352ZM135.445 10.612H138.829C139.792 10.612 140.531 10.4146 141.046 10.0197C141.561 9.62477 141.818 9.02212 141.818 8.21023C141.818 7.39834 141.561 6.7677 141.046 6.38459C140.531 6.00149 139.791 5.80846 138.829 5.80846H135.445V10.612Z" fill="white"/>
<path d="M162.737 23.9999C160.351 23.9999 158.243 23.496 156.415 22.4866C154.587 21.4773 153.162 20.0687 152.144 18.2592C151.126 16.4498 150.617 14.3604 150.617 11.9925C150.617 9.62465 151.126 7.50726 152.144 5.70962C153.162 3.91198 154.585 2.51365 156.415 1.51463C158.243 0.517087 160.351 0.0175781 162.737 0.0175781C165.124 0.0175781 167.259 0.517087 169.077 1.51463C170.894 2.51218 172.312 3.91051 173.33 5.70962C174.349 7.50874 174.858 9.60255 174.858 11.9925C174.858 14.3825 174.349 16.4778 173.33 18.2754C172.312 20.0746 170.894 21.4773 169.077 22.4866C167.259 23.496 165.146 23.9999 162.737 23.9999ZM162.737 18.1119C164.226 18.1119 165.399 17.5696 166.252 16.4837C167.107 15.3977 167.534 13.9007 167.534 11.994C167.534 10.0873 167.107 8.59469 166.252 7.52052C165.399 6.44636 164.226 5.90854 162.737 5.90854C161.249 5.90854 160.077 6.44047 159.223 7.50432C158.368 8.56817 157.941 10.0652 157.941 11.9955C157.941 13.9257 158.369 15.4287 159.223 16.5028C160.076 17.577 161.247 18.1148 162.737 18.1148V18.1119Z" fill="white"/>
<path d="M186.318 24.0004C185.486 24.0004 184.599 23.94 183.658 23.8191C182.717 23.6983 181.813 23.5348 180.948 23.3255C180.083 23.1178 179.311 22.882 178.633 22.6183C177.932 22.3339 177.439 21.9228 177.155 21.385C176.87 20.8471 176.761 20.2725 176.827 19.658C176.894 19.0451 177.101 18.4955 177.451 18.0136C177.801 17.5318 178.272 17.1973 178.864 17.0102C179.455 16.8245 180.123 16.885 180.867 17.1914C181.634 17.4994 182.537 17.7514 183.578 17.9488C184.618 18.1462 185.531 18.245 186.32 18.245C187.59 18.245 188.455 18.102 188.915 17.8177C189.376 17.5333 189.605 17.2032 189.605 16.8304C189.605 16.4797 189.446 16.1895 189.129 15.9581C188.811 15.7283 188.225 15.5249 187.372 15.3496L183.429 14.495C179.246 13.5962 177.155 11.3697 177.155 7.81717C177.155 6.23761 177.582 4.86727 178.437 3.7047C179.29 2.54212 180.483 1.63741 182.016 0.990553C183.55 0.343696 185.334 0.0195312 187.372 0.0195312C188.4 0.0195312 189.495 0.130042 190.657 0.348117C191.818 0.567665 192.814 0.885936 193.647 1.30293C194.238 1.58878 194.671 1.99399 194.944 2.52002C195.218 3.04605 195.333 3.59419 195.289 4.16442C195.245 4.73466 195.064 5.24448 194.747 5.69389C194.43 6.1433 193.987 6.45126 193.417 6.61482C192.848 6.77985 192.158 6.71943 191.347 6.43358C190.8 6.23613 190.142 6.077 189.376 5.95617C188.609 5.83535 187.909 5.77493 187.273 5.77493C186.199 5.77493 185.395 5.92817 184.859 6.23613C184.322 6.54409 184.054 6.9493 184.054 7.45322C184.054 7.73908 184.207 7.99546 184.513 8.2268C184.819 8.45666 185.411 8.66 186.286 8.83535L190.229 9.68996C194.41 10.6109 196.503 12.7931 196.503 16.2366C196.503 17.7941 196.08 19.16 195.239 20.3329C194.396 21.5058 193.213 22.4105 191.692 23.047C190.169 23.6836 188.38 24.0018 186.321 24.0018L186.318 24.0004Z" fill="white"/>
</g>
<defs>
<clipPath id="clip0_1281_11697">
<rect width="196.5" height="24" fill="white"/>
</clipPath>
</defs>
</svg>
