<svg width="208" height="207" viewBox="0 0 208 207" fill="none" xmlns="http://www.w3.org/2000/svg">
<rect width="207.055" height="206.104" rx="103.052" fill="#FCC434"/>
<rect x="22.7295" y="22.7292" width="161.596" height="160.646" rx="80.3229" fill="#FCCD55"/>
<path d="M126.309 57.4141C117.856 57.4141 111.007 64.2231 111.007 72.6258V87.8376H96.0489V72.6258C96.0489 64.2231 89.1937 57.4141 80.7471 57.4141C72.3005 57.4141 65.4453 64.2231 65.4453 72.6258V133.479C65.4453 141.881 72.3005 148.691 80.7471 148.691C89.1937 148.691 96.0489 141.881 96.0489 133.479V118.267H111.007V133.479C111.007 141.881 117.862 148.691 126.309 148.691C134.755 148.691 141.61 141.881 141.61 133.479V72.6258C141.61 64.2231 134.755 57.4141 126.309 57.4141Z" fill="white"/>
<path d="M80.7471 87.8376H96.0489V72.6258C96.0489 64.2231 89.1937 57.4141 80.7471 57.4141C79.3248 57.4141 77.9549 57.6227 76.6491 57.982C76.4976 58.0225 76.346 58.0515 76.2003 58.0979C75.2793 58.3818 74.3932 58.7585 73.5538 59.2047C73.5247 59.2221 73.4897 59.2337 73.4547 59.2511C72.592 59.7205 71.7759 60.2652 71.0239 60.8795C71.0239 60.8795 71.0181 60.8795 71.0122 60.8852C70.7499 61.0997 70.4993 61.3373 70.2544 61.5748C70.1495 61.6734 70.0329 61.7661 69.928 61.8704C69.8231 61.9747 69.7298 62.0906 69.6307 62.1949C69.3975 62.4441 69.1585 62.6875 68.937 62.9483C68.937 62.9483 68.937 62.954 68.9312 62.9598C68.3133 63.7074 67.7595 64.5187 67.2932 65.3763C66.8443 66.1934 66.4771 67.0627 66.1856 67.9667C66.1681 68.0131 66.1507 68.0594 66.1332 68.1058C66.0865 68.2506 66.0574 68.4071 66.0166 68.552C65.6552 69.8501 65.4453 71.2119 65.4453 72.6258C65.4453 81.0285 72.2947 87.8376 80.7471 87.8376Z" fill="#FFE6A9"/>
<path d="M126.309 118.259H111.007V133.471C111.007 141.874 117.862 148.683 126.309 148.683C127.731 148.683 129.101 148.474 130.407 148.115C130.558 148.074 130.71 148.045 130.855 147.999C131.776 147.715 132.663 147.338 133.502 146.892C133.531 146.875 133.566 146.863 133.601 146.846C134.464 146.376 135.28 145.831 136.032 145.217C136.032 145.217 136.038 145.217 136.043 145.211C136.306 144.997 136.556 144.759 136.801 144.522C136.906 144.423 137.023 144.331 137.128 144.226C137.233 144.122 137.326 144.006 137.425 143.902C137.658 143.653 137.897 143.409 138.119 143.148C138.119 143.148 138.119 143.143 138.125 143.137C138.742 142.389 139.296 141.578 139.763 140.72C140.211 139.903 140.579 139.034 140.87 138.13C140.888 138.084 140.905 138.037 140.923 137.991C140.969 137.846 140.998 137.69 141.039 137.545C141.401 136.247 141.61 134.885 141.61 133.471C141.61 125.068 134.761 118.259 126.309 118.259Z" fill="#FFE6A9"/>
</svg>
