<svg width="274" height="273" viewBox="0 0 274 273" fill="none" xmlns="http://www.w3.org/2000/svg">
<rect width="273.289" height="272.035" rx="136.017" fill="#FCC434"/>
<rect x="30" y="30" width="213.289" height="212.035" rx="106.017" fill="#FCCD55"/>
<path d="M166.713 75.78C155.556 75.78 146.516 84.7673 146.516 95.8579V115.936H126.773V95.8579C126.773 84.7673 117.725 75.78 106.577 75.78C95.428 75.78 86.3799 84.7673 86.3799 95.8579V176.177C86.3799 187.268 95.428 196.255 106.577 196.255C117.725 196.255 126.773 187.268 126.773 176.177V156.099H146.516V176.177C146.516 187.268 155.564 196.255 166.713 196.255C177.861 196.255 186.909 187.268 186.909 176.177V95.8579C186.909 84.7673 177.861 75.78 166.713 75.78Z" fill="white"/>
<path d="M106.577 115.936H126.773V95.8579C126.773 84.7673 117.725 75.78 106.577 75.78C104.699 75.78 102.891 76.0554 101.168 76.5296C100.968 76.5831 100.768 76.6214 100.575 76.6826C99.3596 77.0574 98.1901 77.5545 97.0822 78.1435C97.0437 78.1664 96.9976 78.1817 96.9514 78.2047C95.8127 78.8242 94.7355 79.5432 93.743 80.354C93.743 80.354 93.7353 80.354 93.7276 80.3616C93.3814 80.6446 93.0506 80.9582 92.7274 81.2718C92.5889 81.4018 92.435 81.5242 92.2965 81.6619C92.1581 81.7996 92.035 81.9525 91.9042 82.0902C91.5964 82.4191 91.2809 82.7404 90.9886 83.0846C90.9886 83.0846 90.9886 83.0922 90.9809 83.0999C90.1653 84.0865 89.4344 85.1574 88.8189 86.2894C88.2264 87.3678 87.7417 88.5151 87.357 89.7083C87.3339 89.7695 87.3109 89.8307 87.2878 89.8919C87.2262 90.0831 87.1878 90.2896 87.1339 90.4809C86.6569 92.1942 86.3799 93.9916 86.3799 95.8579C86.3799 106.949 95.4203 115.936 106.577 115.936Z" fill="#FFE6A9"/>
<path d="M166.713 156.089H146.517V176.167C146.517 187.257 155.565 196.244 166.713 196.244C168.591 196.244 170.399 195.969 172.122 195.495C172.322 195.441 172.522 195.403 172.715 195.342C173.93 194.967 175.1 194.47 176.208 193.881C176.246 193.858 176.292 193.843 176.338 193.82C177.477 193.2 178.554 192.481 179.547 191.67C179.547 191.67 179.555 191.67 179.562 191.663C179.908 191.38 180.239 191.066 180.562 190.753C180.701 190.623 180.855 190.5 180.993 190.363C181.132 190.225 181.255 190.072 181.386 189.934C181.693 189.605 182.009 189.284 182.301 188.94C182.301 188.94 182.301 188.932 182.309 188.925C183.125 187.938 183.855 186.867 184.471 185.735C185.063 184.657 185.548 183.509 185.933 182.316C185.956 182.255 185.979 182.194 186.002 182.133C186.064 181.941 186.102 181.735 186.156 181.544C186.633 179.83 186.91 178.033 186.91 176.167C186.91 165.076 177.87 156.089 166.713 156.089Z" fill="#FFE6A9"/>
</svg>
