<svg width="24" height="24" viewBox="0 0 24 24" fill="none" xmlns="http://www.w3.org/2000/svg">
<g id="Icon">
<path id="Vector" d="M11.9971 16.9876C12.291 16.9876 12.5381 16.8882 12.7387 16.6895C12.9392 16.4907 13.0394 16.2444 13.0394 15.9506C13.0394 15.6582 12.9401 15.4104 12.7413 15.2072C12.5425 15.0039 12.2962 14.9023 12.0024 14.9023C11.7086 14.9023 11.4614 15.0031 11.2609 15.2046C11.0603 15.4061 10.9601 15.653 10.9601 15.9453C10.9601 16.2377 11.0595 16.4845 11.2582 16.6857C11.457 16.887 11.7033 16.9876 11.9971 16.9876ZM11.9998 13.1675C12.2716 13.1675 12.5038 13.0713 12.6963 12.8788C12.8888 12.6863 12.9851 12.4541 12.9851 12.1822V7.97885C12.9851 7.70788 12.8888 7.47575 12.6963 7.28245C12.5038 7.08917 12.2716 6.99252 11.9998 6.99252C11.7279 6.99252 11.4957 7.08877 11.3032 7.28127C11.1107 7.47377 11.0144 7.70597 11.0144 7.97785V12.1812C11.0144 12.4521 11.1107 12.6843 11.3032 12.8776C11.4957 13.0709 11.7279 13.1675 11.9998 13.1675ZM9.15466 20.9784C8.86543 20.9784 8.58976 20.9236 8.32766 20.814C8.06554 20.7044 7.83378 20.548 7.63236 20.3447L3.65518 16.3675C3.45193 16.1661 3.2955 15.9343 3.18588 15.6722C3.07628 15.4101 3.02148 15.1345 3.02148 14.8452V9.15503C3.02148 8.86579 3.07628 8.59012 3.18588 8.328C3.2955 8.0659 3.45193 7.83414 3.65518 7.63273L7.63236 3.65555C7.83378 3.4523 8.06554 3.29587 8.32766 3.18625C8.58976 3.07665 8.86543 3.02185 9.15466 3.02185H14.8449C15.1341 3.02185 15.4098 3.07665 15.6719 3.18625C15.934 3.29587 16.1657 3.4523 16.3672 3.65555L20.3443 7.63273C20.5476 7.83414 20.704 8.0659 20.8136 8.328C20.9232 8.59012 20.978 8.86579 20.978 9.15503V14.8452C20.978 15.1345 20.9232 15.4101 20.8136 15.6722C20.704 15.9343 20.5476 16.1661 20.3443 16.3675L16.3672 20.3447C16.1657 20.548 15.934 20.7044 15.6719 20.814C15.4098 20.9236 15.1341 20.9784 14.8449 20.9784H9.15466ZM9.17246 18.8284H14.8324L18.828 14.8274V9.16752L14.8271 5.17188H9.16716L5.17151 9.17283V14.8327L9.17246 18.8284Z" fill="#D68000"/>
</g>
</svg>
