<svg width="40" height="41" viewBox="0 0 40 41" fill="none" xmlns="http://www.w3.org/2000/svg">
<g clip-path="url(#clip0_3103_12033)">
<rect y="0.460938" width="40" height="40" fill="#846B54"/>
<path d="M26.625 12.5859C25.875 12.5859 25.125 13.2109 25.125 14.0859C25.125 14.9609 25.75 15.5859 26.625 15.5859C27.5 15.5859 28.125 14.9609 28.125 14.0859C28 13.2109 27.375 12.5859 26.625 12.5859Z" fill="#1E0E00"/>
<path d="M20 14.4609C16.625 14.4609 13.875 17.2109 13.875 20.5859C13.875 23.9609 16.625 26.7109 20 26.7109C23.375 26.7109 26.125 23.9609 26.125 20.5859C26.25 17.2109 23.5 14.4609 20 14.4609ZM20 24.5859C17.875 24.5859 16 22.8359 16 20.5859C16 18.4609 17.75 16.5859 20 16.5859C22.125 16.5859 24 18.3359 24 20.5859C24 22.8359 22.25 24.5859 20 24.5859Z" fill="#1E0E00"/>
<path d="M25 7.96094H15C10.875 7.96094 7.5 11.3359 7.5 15.4609V25.4609C7.5 29.5859 10.875 32.9609 15 32.9609H25C29.125 32.9609 32.5 29.5859 32.5 25.4609V15.4609C32.5 11.3359 29.125 7.96094 25 7.96094ZM30.125 25.4609C30.125 28.3359 27.75 30.5859 25 30.5859H15C12.125 30.5859 9.875 28.2109 9.875 25.4609V15.4609C9.875 12.5859 12.25 10.3359 15 10.3359H25C27.875 10.3359 30.125 12.7109 30.125 15.4609V25.4609Z" fill="#1E0E00"/>
</g>
<defs>
<clipPath id="clip0_3103_12033">
<rect y="0.460938" width="40" height="40" rx="20" fill="white"/>
</clipPath>
</defs>
</svg>
