<svg width="32" height="32" viewBox="0 0 32 32" fill="none" xmlns="http://www.w3.org/2000/svg">
<g id="Integrations" clip-path="url(#clip0_2723_35795)">
<path id="Vector" d="M7.75291 30.8718C6.67206 30.8718 5.75049 30.4891 4.98817 29.7239C4.22584 28.9586 3.84467 28.0355 3.84467 26.9546C3.84467 25.8738 4.2265 24.9522 4.99014 24.1899C5.75381 23.4276 6.67367 23.0464 7.74974 23.0464C8.06176 23.0464 8.33065 23.0701 8.55641 23.1174C8.78216 23.1648 9.01956 23.2358 9.26861 23.3305L12.157 19.6921C11.7841 19.1974 11.4976 18.6527 11.2976 18.058C11.0976 17.4633 11.0394 16.8473 11.1229 16.2098L6.94177 14.7645C6.59782 15.3032 6.15486 15.7252 5.61291 16.0305C5.07095 16.3358 4.43904 16.4884 3.71717 16.4884C2.63402 16.4884 1.70984 16.1066 0.944642 15.343C0.179464 14.5793 -0.203125 13.6583 -0.203125 12.5798C-0.203125 11.499 0.179519 10.5747 0.944808 9.8069C1.7101 9.03903 2.63317 8.6551 3.71404 8.6551C4.79489 8.6551 5.71646 9.03903 6.47877 9.8069C7.24109 10.5747 7.62224 11.4994 7.62224 12.581V12.6392L11.8288 14.1392C12.1843 13.5053 12.6302 13.0092 13.1664 12.6508C13.7027 12.2923 14.2795 12.0317 14.8969 11.8688V7.43043C14.0191 7.17103 13.331 6.67806 12.8324 5.9515C12.3339 5.22492 12.0846 4.46192 12.0846 3.6625C12.0846 2.58361 12.4672 1.66025 13.2325 0.892401C13.9978 0.124534 14.9209 -0.259399 16.0017 -0.259399C17.0826 -0.259399 18.0055 0.124534 18.7704 0.892401C19.5354 1.66025 19.9179 2.58361 19.9179 3.6625C19.9179 4.46192 19.6644 5.22492 19.1574 5.9515C18.6504 6.67806 17.9665 7.17103 17.1056 7.43043V11.8718C17.723 12.0327 18.3026 12.2937 18.8444 12.6548C19.3862 13.0159 19.8496 13.5107 20.2347 14.1392L24.3802 12.6325V12.5798C24.3802 11.499 24.7621 10.5747 25.5257 9.8069C26.2894 9.03903 27.2104 8.6551 28.2889 8.6551C29.3696 8.6551 30.2939 9.03908 31.0618 9.80703C31.8296 10.575 32.2136 11.4994 32.2136 12.5802C32.2136 13.6611 31.8296 14.5827 31.0618 15.345C30.2939 16.1073 29.3675 16.4884 28.2825 16.4884C27.5634 16.4884 26.9271 16.3358 26.3736 16.0305C25.82 15.7252 25.3797 15.3005 25.0527 14.7566L20.8795 16.2066C20.9524 16.8626 20.8971 17.4894 20.7136 18.087C20.53 18.6846 20.2406 19.2196 19.8454 19.6921L22.7585 23.3631C22.9964 23.252 23.227 23.1714 23.45 23.1214C23.6731 23.0714 23.9358 23.0464 24.2381 23.0464C25.335 23.0464 26.2639 23.4283 27.0246 24.1919C27.7854 24.9555 28.1657 25.8766 28.1657 26.9551C28.1657 28.0358 27.7826 28.9588 27.0163 29.724C26.25 30.4892 25.3276 30.8718 24.2491 30.8718C23.1683 30.8718 22.2454 30.4912 21.4802 29.7301C20.715 28.969 20.3324 28.0417 20.3324 26.9481C20.3324 26.4913 20.3921 26.0885 20.5114 25.7398C20.6307 25.3911 20.7959 25.0474 21.007 24.7087L18.1266 21.0616C17.4571 21.3901 16.7424 21.5572 15.9825 21.5627C15.2225 21.5683 14.5174 21.4013 13.8672 21.0616L10.9954 24.7421C11.2066 25.0807 11.3718 25.4188 11.4911 25.7565C11.6104 26.0941 11.6701 26.4913 11.6701 26.9481C11.6701 28.0417 11.2874 28.969 10.5221 29.7301C9.75685 30.4912 8.83379 30.8718 7.75294 30.8718L7.75291 30.8718ZM3.71471 14.3964C4.215 14.3964 4.64265 14.2185 4.99767 13.8627C5.3527 13.5069 5.53021 13.0776 5.53021 12.5746C5.53021 12.0716 5.35231 11.644 4.99651 11.2916C4.64071 10.9393 4.21133 10.7631 3.70837 10.7631C3.20542 10.7631 2.77775 10.9397 2.42537 11.2928C2.07304 11.6459 1.89687 12.0753 1.89687 12.5809C1.89687 13.0812 2.07343 13.5089 2.42654 13.8639C2.7797 14.2189 3.20909 14.3964 3.71471 14.3964ZM7.75454 28.7718C8.26016 28.7718 8.68915 28.5952 9.04151 28.2421C9.39386 27.8889 9.57004 27.4596 9.57004 26.9539C9.57004 26.4536 9.39347 26.026 9.04034 25.671C8.68721 25.3159 8.25783 25.1384 7.75221 25.1384C7.24661 25.1384 6.81762 25.3163 6.46524 25.6721C6.11289 26.0279 5.93671 26.456 5.93671 26.9563C5.93671 27.4619 6.11329 27.8909 6.46644 28.2432C6.81957 28.5956 7.24894 28.7718 7.75454 28.7718ZM16.0024 5.48193C16.508 5.48193 16.937 5.30403 17.2893 4.94823C17.6417 4.59243 17.8179 4.16439 17.8179 3.6641C17.8179 3.15848 17.6413 2.72949 17.2882 2.37713C16.935 2.02478 16.5056 1.8486 16 1.8486C15.4944 1.8486 15.0654 2.02517 14.7131 2.3783C14.3607 2.73143 14.1845 3.16081 14.1845 3.66643C14.1845 4.16672 14.3611 4.59438 14.7142 4.9494C15.0674 5.30442 15.4968 5.48193 16.0024 5.48193ZM16.0169 19.3667C16.7697 19.3667 17.408 19.1024 17.9316 18.5739C18.4553 18.0453 18.7171 17.4046 18.7171 16.6518C18.7171 15.8989 18.4545 15.2607 17.9293 14.737C17.4041 14.2133 16.7617 13.9515 16.0022 13.9515C15.2605 13.9515 14.625 14.2141 14.0958 14.7393C13.5666 15.2646 13.3019 15.9069 13.3019 16.6664C13.3019 17.4082 13.5662 18.0436 14.0948 18.5729C14.6233 19.1021 15.264 19.3667 16.0169 19.3667ZM24.2502 28.7718C24.7558 28.7718 25.1848 28.5952 25.5372 28.2421C25.8895 27.8889 26.0657 27.4596 26.0657 26.9539C26.0657 26.4536 25.8891 26.026 25.536 25.671C25.1828 25.3159 24.7535 25.1384 24.2479 25.1384C23.7423 25.1384 23.3133 25.3163 22.9609 25.6721C22.6086 26.0279 22.4324 26.456 22.4324 26.9563C22.4324 27.4619 22.6089 27.8909 22.9621 28.2432C23.3152 28.5956 23.7446 28.7718 24.2502 28.7718ZM28.294 14.3964C28.797 14.3964 29.2247 14.2185 29.577 13.8627C29.9294 13.5069 30.1055 13.0776 30.1055 12.5746C30.1055 12.0716 29.929 11.644 29.5758 11.2916C29.2227 10.9393 28.7933 10.7631 28.2877 10.7631C27.7874 10.7631 27.3598 10.9397 27.0047 11.2928C26.6497 11.6459 26.4722 12.0753 26.4722 12.5809C26.4722 13.0812 26.6501 13.5089 27.0059 13.8639C27.3617 14.2189 27.7911 14.3964 28.294 14.3964Z" fill="#472200"/>
</g>
<defs>
<clipPath id="clip0_2723_35795">
<rect width="32" height="32" fill="white"/>
</clipPath>
</defs>
</svg>
