<svg width="41" height="41" viewBox="0 0 41 41" fill="none" xmlns="http://www.w3.org/2000/svg">
<path d="M20.5 0.274414C9.44531 0.274414 0.5 9.21973 0.5 20.2744C0.5 31.3291 9.44531 40.2744 20.5 40.2744C31.5547 40.2744 40.5 31.3291 40.5 20.2744C40.5 9.21973 31.5547 0.274414 20.5 0.274414ZM31.625 30.0166C31.625 30.8916 30.8984 31.6182 29.9531 31.6182H10.9688C10.0234 31.6182 9.29688 30.8916 9.29688 30.0166V10.751C9.29688 9.87598 10.0234 9.14941 10.9688 9.14941H29.9531C30.8984 9.14941 31.625 9.87598 31.625 10.751V30.0166Z" fill="#846B54"/>
<path d="M24.3516 17.5869C22.5312 17.5869 21.7344 18.6025 21.2969 19.2588V17.8057H17.9531C18.0234 18.751 17.9531 27.915 17.9531 27.915H21.2969V22.2432C21.2969 21.9541 21.2969 21.665 21.4453 21.4463C21.6641 20.8682 22.2422 20.2119 23.1875 20.2119C24.4219 20.2119 24.8594 21.1572 24.8594 22.54V27.9932H28.2031V22.1729C28.2109 19.04 26.6094 17.5869 24.3516 17.5869Z" fill="#846B54"/>
<path d="M14.3906 12.9307C13.2266 12.9307 12.5 13.6572 12.5 14.6729C12.5 15.6182 13.2266 16.415 14.3906 16.415C15.5547 16.415 16.2812 15.6182 16.2812 14.6729C16.2812 13.6572 15.5547 12.9307 14.3906 12.9307Z" fill="#846B54"/>
<path d="M16.0625 17.7979H12.7188V27.9072H16.0625V17.7979Z" fill="#846B54"/>
</svg>
