<svg xmlns="http://www.w3.org/2000/svg" width="40" height="41" viewBox="0 0 40 41" fill="none">
  <path d="M20 0.625244C8.94531 0.625244 0 9.57056 0 20.6252C0 31.6799 8.94531 40.6252 20 40.6252C31.0547 40.6252 40 31.6799 40 20.6252C40 9.57056 31.0547 0.625244 20 0.625244ZM31.125 30.3674C31.125 31.2424 30.3984 31.969 29.4531 31.969H10.4688C9.52344 31.969 8.79688 31.2424 8.79688 30.3674V11.1018C8.79688 10.2268 9.52344 9.50024 10.4688 9.50024H29.4531C30.3984 9.50024 31.125 10.2268 31.125 11.1018V30.3674Z" fill="#846B54"/>
  <path d="M23.8516 17.9377C22.0312 17.9377 21.2344 18.9534 20.7969 19.6096V18.1565H17.4531C17.5234 19.1018 17.4531 28.2659 17.4531 28.2659H20.7969V22.594C20.7969 22.3049 20.7969 22.0159 20.9453 21.7971C21.1641 21.219 21.7422 20.5627 22.6875 20.5627C23.9219 20.5627 24.3594 21.5081 24.3594 22.8909V28.344H27.7031V22.5237C27.7109 19.3909 26.1094 17.9377 23.8516 17.9377Z" fill="#846B54"/>
  <path d="M13.8906 13.2815C12.7266 13.2815 12 14.0081 12 15.0237C12 15.969 12.7266 16.7659 13.8906 16.7659C15.0547 16.7659 15.7812 15.969 15.7812 15.0237C15.7812 14.0081 15.0547 13.2815 13.8906 13.2815Z" fill="#846B54"/>
  <path d="M15.5625 18.1487H12.2188V28.2581H15.5625V18.1487Z" fill="#846B54"/>
</svg>