<svg xmlns="http://www.w3.org/2000/svg" width="25" height="24" viewBox="0 0 25 24" fill="currentColor">
  <path d="M12.4941 22.0244C11.09 22.0244 9.77677 21.7679 8.55439 21.2548C7.332 20.7418 6.26981 20.0342 5.36781 19.1322C4.46581 18.2302 3.75827 17.168 3.24519 15.9456C2.73212 14.7233 2.47559 13.408 2.47559 11.9998C2.47559 10.5921 2.73307 9.27841 3.24804 8.05869C3.763 6.83898 4.47021 5.77687 5.36966 4.87237C6.26911 3.96787 7.33026 3.25794 8.55311 2.74259C9.77596 2.22723 11.0916 1.96954 12.5 1.96954C12.7209 1.96954 12.9138 2.05219 13.079 2.21749C13.2441 2.38279 13.3267 2.57406 13.3267 2.79129C13.3267 3.01811 13.2441 3.21232 13.079 3.37392C12.9138 3.5355 12.7209 3.61629 12.5 3.61629C10.1696 3.61629 8.18974 4.4309 6.56039 6.06012C4.93102 7.68934 4.11634 9.66904 4.11634 11.9992C4.11634 14.3295 4.93094 16.3094 6.56016 17.9391C8.18938 19.5688 10.1691 20.3837 12.4993 20.3837C14.8295 20.3837 16.8095 19.569 18.4392 17.9396C20.0689 16.3103 20.8837 14.3304 20.8837 12C20.8837 11.7792 20.9649 11.5862 21.1272 11.4211C21.2895 11.2559 21.482 11.1734 21.7047 11.1734C21.9273 11.1734 22.1206 11.2559 22.2846 11.4211C22.4485 11.5862 22.5305 11.7792 22.5305 12C22.5305 13.4084 22.2727 14.7241 21.7571 15.947C21.2414 17.1699 20.5321 18.2312 19.629 19.1308C18.7259 20.0305 17.6645 20.7377 16.4448 21.2524C15.2251 21.7671 13.9082 22.0244 12.4941 22.0244Z" />
</svg>
