<svg width="32" height="32" viewBox="0 0 32 32" fill="none" xmlns="http://www.w3.org/2000/svg">
<g id="Loyalty">
<path id="Vector" d="M9.69175 14.0942C8.46502 14.0942 7.42638 13.6671 6.57585 12.813C5.72532 11.9589 5.30005 10.9185 5.30005 9.69182C5.30005 8.46515 5.72735 7.42651 6.58195 6.57589C7.43655 5.72529 8.4763 5.29999 9.70122 5.29999C10.9261 5.29999 11.9673 5.72596 12.8248 6.57789C13.6822 7.4298 14.1109 8.46633 14.1109 9.68749C14.1109 10.9215 13.6811 11.9645 12.8214 12.8164C11.9617 13.6683 10.9185 14.0942 9.69175 14.0942ZM9.69265 11.9065C10.3117 11.9065 10.8383 11.6937 11.2722 11.2683C11.7062 10.8427 11.9232 10.3165 11.9232 9.68962C11.9232 9.07382 11.7069 8.55421 11.2742 8.13079C10.8415 7.70734 10.3161 7.49562 9.69802 7.49562C9.0799 7.49562 8.55833 7.70703 8.13328 8.12986C7.70822 8.55268 7.49568 9.06968 7.49568 9.68086C7.49568 10.3078 7.70824 10.8354 8.13335 11.2639C8.55846 11.6923 9.07823 11.9065 9.69265 11.9065ZM22.3081 26.6985C21.0774 26.6985 20.0358 26.2717 19.1832 25.4181C18.3307 24.5644 17.9044 23.525 17.9044 22.2998C17.9044 21.0746 18.3314 20.033 19.1855 19.1749C20.0397 18.3167 21.081 17.8877 22.3095 17.8877C23.538 17.8877 24.5779 18.3186 25.4294 19.1806C26.2808 20.0425 26.7066 21.0844 26.7066 22.3063C26.7066 23.5281 26.2786 24.5656 25.4226 25.4188C24.5666 26.2719 23.5284 26.6985 22.3081 26.6985ZM22.309 24.5109C22.9247 24.5109 23.4444 24.2967 23.8678 23.8683C24.2912 23.44 24.503 22.9199 24.503 22.3079C24.503 21.6914 24.2915 21.1665 23.8687 20.7332C23.4459 20.3 22.9289 20.0833 22.3177 20.0833C21.6908 20.0833 21.1631 20.2983 20.7347 20.7283C20.3063 21.1582 20.0921 21.682 20.0921 22.2995C20.0921 22.917 20.3048 23.4399 20.7303 23.8683C21.1558 24.2967 21.682 24.5109 22.309 24.5109ZM6.07068 25.9362C5.84435 25.7081 5.73118 25.4522 5.73118 25.1684C5.73118 24.8846 5.84857 24.6253 6.08335 24.3906L24.4066 6.07532C24.6249 5.85697 24.8764 5.74501 25.1609 5.73946C25.4455 5.7339 25.701 5.84574 25.9276 6.07499C26.1542 6.30421 26.2674 6.55977 26.2674 6.84165C26.2674 7.12354 26.1542 7.37221 25.9276 7.58765L7.60365 25.9362C7.37178 26.157 7.11358 26.2702 6.82905 26.2757C6.54449 26.2813 6.2917 26.1681 6.07068 25.9362Z" fill="#472200"/>
</g>
</svg>
