<svg xmlns="http://www.w3.org/2000/svg" width="32" height="32" viewBox="0 0 32 32" fill="none">
  <g clip-path="url(#clip0_2257_11641)">
    <path d="M-3.52002 0H60.48V32H-3.52002V0Z" fill="white"/>
    <path d="M-1.23438 1.14307H60.4799M60.4799 5.7145H-1.23438M-1.23438 10.2859H60.4799M60.4799 14.8574H-1.23438" stroke="#CC0000" stroke-width="2.28571"/>
    <path d="M-3.52002 0H28.48V19.4286H-3.52002V0Z" fill="#000066"/>
    <path d="M-3.52002 19.4287H60.48M60.48 24.0001H-3.52002M-3.52002 28.5716H60.48" stroke="#CC0000" stroke-width="2.28571"/>
    <path d="M16.48 3.4285L16.9896 6.91422L18.961 3.99517L17.9039 7.35708L20.9467 5.58089L18.5372 8.15231L22.0515 7.87136L18.7658 9.14279L22.0515 10.4142L18.5372 10.1333L20.9467 12.7047L17.9039 10.9285L18.961 14.2904L16.9896 11.3714L16.48 14.8571L15.9705 11.3714L13.9991 14.2904L15.0562 10.9285L12.0134 12.7047L14.4229 10.1333L10.9086 10.4142L14.1943 9.14279L10.9086 7.87136L14.4229 8.15231L12.0134 5.58089L15.0562 7.35708L13.9991 3.99517L15.9705 6.91422L16.48 3.4285ZM13.6229 3.57136C12.6949 3.15962 11.6788 2.98618 10.6668 3.0668C9.6548 3.14742 8.67896 3.47954 7.82788 4.03301C6.9768 4.58647 6.27744 5.34376 5.79331 6.2361C5.30918 7.12844 5.0556 8.12758 5.0556 9.14279C5.0556 10.158 5.30918 11.1571 5.79331 12.0495C6.27744 12.9418 6.9768 13.6991 7.82788 14.2526C8.67896 14.806 9.6548 15.1382 10.6668 15.2188C11.6788 15.2994 12.6949 15.126 13.6229 14.7142C12.5982 15.4494 11.3906 15.8878 10.1329 15.9811C8.87526 16.0745 7.61619 15.8191 6.49421 15.2433C5.37223 14.6674 4.4308 13.7932 3.77346 12.7169C3.11611 11.6407 2.76831 10.4039 2.76831 9.14279C2.76831 7.88165 3.11611 6.64493 3.77346 5.56864C4.4308 4.49236 5.37223 3.61821 6.49421 3.04232C7.61619 2.46643 8.87526 2.21112 10.1329 2.30445C11.3906 2.39779 12.5982 2.83616 13.6229 3.57136Z" fill="#FFCC00"/>
  </g>
  <defs>
    <clipPath id="clip0_2257_11641">
      <rect width="32" height="32" rx="16" fill="white"/>
    </clipPath>
  </defs>
</svg>
