<svg width="24" height="24" viewBox="0 0 24 24" fill="none" xmlns="http://www.w3.org/2000/svg">
<g id="Icon">
<path id="Vector" d="M11.9373 13.2931L4.77151 20.4589C4.5976 20.6288 4.40086 20.7137 4.18129 20.7137C3.96172 20.7137 3.77314 20.6288 3.61554 20.4589C3.44162 20.2973 3.35466 20.1067 3.35466 19.8871C3.35466 19.6676 3.44162 19.4728 3.61554 19.3029L13.4927 9.44472C13.134 8.62082 13.0625 7.78405 13.2783 6.9344C13.4941 6.08476 13.9648 5.28893 14.6905 4.5469C15.4076 3.83821 16.3132 3.36766 17.4074 3.13522C18.5016 2.90279 19.4021 3.14001 20.109 3.8469C20.8242 4.57045 21.0573 5.471 20.8082 6.54855C20.5591 7.62608 20.0594 8.54836 19.309 9.31537C18.646 9.99907 17.8938 10.4561 17.0525 10.6866C16.2112 10.917 15.4141 10.8759 14.6612 10.5632L13.0933 12.1496L20.259 19.3154C20.4206 19.477 20.4993 19.6676 20.4952 19.8871C20.491 20.1067 20.4123 20.2973 20.259 20.4589C20.0851 20.6288 19.8914 20.7137 19.678 20.7137C19.4646 20.7137 19.273 20.6288 19.103 20.4589L11.9373 13.2931ZM7.20411 12.229L4.29054 9.31537C3.53002 8.56321 3.09197 7.69346 2.97639 6.70615C2.86082 5.71883 3.07804 4.78641 3.62804 3.90887C3.76897 3.69727 3.96272 3.57689 4.20929 3.54772C4.45584 3.51856 4.67658 3.59727 4.87151 3.78387L10.2726 9.173L7.20411 12.229Z" fill="#D68000"/>
</g>
</svg>
