<svg width="64" height="64" viewBox="0 0 64 64" fill="none" xmlns="http://www.w3.org/2000/svg">
<rect width="64" height="64" rx="32" fill="#FBB501"/>
<path d="M31.9919 41.5664C29.6581 41.5664 27.7271 41.4185 26.1988 41.1225C24.6705 40.8266 23.9064 40.4483 23.9064 39.9875V38.8041H20.7434C20.0999 38.8041 19.5634 38.5707 19.134 38.1038C18.7045 37.6369 18.5146 37.0858 18.5644 36.4505L19.5818 24.4628C19.6292 23.8811 19.8543 23.3974 20.2571 23.0117C20.6599 22.626 21.1529 22.4331 21.7361 22.4331H42.2644C42.8365 22.4331 43.3239 22.626 43.7267 23.0117C44.1295 23.3974 44.3602 23.8811 44.4188 24.4628L45.4361 36.4505C45.4748 37.0859 45.2794 37.637 44.8501 38.1039C44.4208 38.5707 43.8869 38.8041 43.2485 38.8041H40.0941V39.9875C40.0941 40.4483 39.3272 40.8266 37.7934 41.1225C36.2596 41.4185 34.3257 41.5664 31.9919 41.5664ZM20.76 36.6164H43.2405L42.2606 24.6288H21.7361L20.76 36.6164Z" fill="#FFF5DB"/>
</svg>
