<svg width="80" height="80" viewBox="0 0 80 80" fill="none" xmlns="http://www.w3.org/2000/svg">
<rect width="80" height="80" rx="40" fill="#FCC434"/>
<path d="M39.9909 51.9582C37.0736 51.9582 34.6598 51.7732 32.7495 51.4033C30.8392 51.0334 29.884 50.5604 29.884 49.9845V48.5053H25.9302C25.1258 48.5053 24.4553 48.2135 23.9184 47.6298C23.3816 47.0462 23.1443 46.3573 23.2065 45.5633L24.4782 30.5787C24.5375 29.8515 24.8189 29.2469 25.3224 28.7648C25.8259 28.2826 26.4421 28.0415 27.1711 28.0415H52.8315C53.5466 28.0415 54.1559 28.2826 54.6594 28.7648C55.1629 29.2469 55.4512 29.8515 55.5244 30.5787L56.7961 45.5633C56.8444 46.3575 56.6003 47.0464 56.0636 47.63C55.527 48.2135 54.8596 48.5053 54.0615 48.5053H50.1186V49.9845C50.1186 50.5604 49.16 51.0334 47.2427 51.4033C45.3254 51.7732 42.9082 51.9582 39.9909 51.9582ZM25.951 45.7707H54.0516L52.8268 30.7861H27.1711L25.951 45.7707Z" fill="#FFF5DB"/>
</svg>
