<svg width="32" height="32" viewBox="0 0 32 32" fill="none" xmlns="http://www.w3.org/2000/svg">
<g id="Number calling system">
<path id="Vector" d="M15.9929 25.5677C13.6591 25.5677 11.728 25.4197 10.1998 25.1238C8.67152 24.8278 7.9074 24.4495 7.9074 23.9887V22.8054H4.74433C4.10087 22.8054 3.5644 22.5719 3.13493 22.105C2.70547 21.6381 2.51561 21.087 2.56537 20.4517L3.58273 8.46406C3.63018 7.88235 3.8553 7.39864 4.2581 7.01293C4.66088 6.62719 5.15388 6.43433 5.7371 6.43433H26.2654C26.8375 6.43433 27.3249 6.62719 27.7277 7.01293C28.1305 7.39864 28.3612 7.88235 28.4197 8.46406L29.4371 20.4517C29.4757 21.0871 29.2804 21.6382 28.8511 22.1051C28.4218 22.5719 27.8879 22.8054 27.2494 22.8054H24.0951V23.9887C24.0951 24.4495 23.3282 24.8278 21.7944 25.1238C20.2605 25.4197 18.3267 25.5677 15.9929 25.5677ZM4.761 20.6177H27.2415L26.2616 8.62999H5.7371L4.761 20.6177Z" fill="#472200"/>
</g>
</svg>
