<svg width="24" height="24" viewBox="0 0 24 24" fill="none" xmlns="http://www.w3.org/2000/svg">
<g id="Icon">
<path id="Vector" d="M18.9289 21.718L10.4229 13.1989C9.9258 13.3033 9.4547 13.4516 9.0096 13.644C8.56448 13.8364 8.14754 14.0623 7.75878 14.3218C7.40189 14.5547 7.01249 14.6733 6.59058 14.6775C6.16864 14.6816 5.81239 14.5362 5.52183 14.2413C5.21856 13.9381 5.07843 13.5786 5.10143 13.1631C5.12444 12.7475 5.30208 12.4129 5.63433 12.1593C5.99374 11.8875 6.372 11.6419 6.7691 11.4226C7.1662 11.2032 7.5883 10.9953 8.0354 10.7989L6.0604 8.82393C5.63432 9.0493 5.22798 9.2801 4.84138 9.51633C4.45479 9.75255 4.08178 10.0129 3.72235 10.2973C3.39012 10.5593 3.01512 10.6902 2.59735 10.6902C2.1796 10.6902 1.82743 10.5428 1.54085 10.2478C1.23758 9.94458 1.09528 9.58824 1.11393 9.17881C1.13259 8.76939 1.30606 8.43172 1.63433 8.16578C1.98939 7.86505 2.34872 7.58715 2.7123 7.33208C3.07588 7.07701 3.46058 6.84078 3.86638 6.62338L2.3517 5.10871C2.16475 4.92176 2.07018 4.69512 2.068 4.42881C2.06583 4.16251 2.16239 3.93172 2.35768 3.73643C2.55298 3.54113 2.78269 3.44348 3.04683 3.44348C3.31094 3.44348 3.54065 3.54113 3.73595 3.73643L20.3262 20.3266C20.5258 20.5263 20.6256 20.7582 20.6256 21.0223C20.6256 21.2864 20.5258 21.5183 20.3262 21.718C20.1265 21.9132 19.8936 22.012 19.6275 22.0141C19.3614 22.0163 19.1285 21.9176 18.9289 21.718ZM12.0001 20.6881C11.3334 20.6881 10.7709 20.4568 10.3126 19.9943C9.85424 19.5318 9.62508 18.9714 9.62508 18.3131C9.62508 17.6464 9.85424 17.0839 10.3126 16.6256C10.7709 16.1672 11.3334 15.9381 12.0001 15.9381C12.6667 15.9381 13.2292 16.1672 13.6876 16.6256C14.1459 17.0839 14.3751 17.6464 14.3751 18.3131C14.3751 18.9714 14.1459 19.5318 13.6876 19.9943C13.2292 20.4568 12.6667 20.6881 12.0001 20.6881ZM18.686 14.0147C18.4439 14.2567 18.159 14.3746 17.8313 14.3682C17.5036 14.3619 17.2187 14.2377 16.9767 13.9957L16.7332 13.7522L16.4648 13.4837L13.0805 10.1055C14.1186 10.2091 15.1005 10.4556 16.0264 10.8451C16.9523 11.2346 17.797 11.7275 18.5604 12.3239C18.8318 12.5326 18.9811 12.8061 19.0082 13.1443C19.0354 13.4825 18.928 13.7726 18.686 14.0147ZM22.4653 10.2538C22.1787 10.5448 21.8255 10.6933 21.4058 10.6995C20.986 10.7056 20.61 10.5777 20.2778 10.3158C19.1104 9.381 17.8258 8.66524 16.424 8.16851C15.0222 7.67176 13.5475 7.42338 12.0001 7.42338C11.7019 7.42338 11.4361 7.43082 11.2028 7.44568C10.9695 7.46053 10.7351 7.48481 10.4996 7.51851L7.9142 4.93316C8.59753 4.74982 9.26393 4.61939 9.9134 4.54186C10.5629 4.46432 11.2584 4.42556 12.0001 4.42556C13.9881 4.42556 15.8574 4.75282 17.608 5.40736C19.3585 6.06187 20.9463 6.98714 22.3713 8.18316C22.6916 8.44947 22.8621 8.78634 22.883 9.19376C22.9038 9.60119 22.7646 9.95454 22.4653 10.2538Z" fill="#D68000"/>
</g>
</svg>
