<svg width="24" height="24" viewBox="0 0 24 24" fill="none" xmlns="http://www.w3.org/2000/svg">
<g id="Icon">
<path id="Vector" d="M7.03651 13.8115C7.27814 13.8115 7.48102 13.7293 7.64514 13.5649C7.80927 13.4005 7.89134 13.1982 7.89134 12.9582C7.89134 12.7253 7.80961 12.5247 7.64616 12.3564C7.48271 12.1881 7.28018 12.1039 7.03856 12.1039C6.79693 12.1039 6.59405 12.1872 6.42994 12.3537C6.2658 12.5202 6.18374 12.7225 6.18374 12.9605C6.18374 13.1956 6.26546 13.3962 6.42891 13.5623C6.59236 13.7285 6.79489 13.8115 7.03651 13.8115ZM7.03651 9.83653C7.27814 9.83653 7.48102 9.75431 7.64514 9.58988C7.80927 9.42546 7.89134 9.22324 7.89134 8.9832C7.89134 8.75027 7.80961 8.54965 7.64616 8.38135C7.48271 8.21305 7.28018 8.1289 7.03856 8.1289C6.79693 8.1289 6.59405 8.21216 6.42994 8.37868C6.2658 8.5452 6.18374 8.74746 6.18374 8.98548C6.18374 9.22059 6.26546 9.42121 6.42891 9.58733C6.59236 9.75346 6.79489 9.83653 7.03651 9.83653ZM9.84211 13.7186H17.1892C17.3939 13.7186 17.5698 13.6449 17.7169 13.4976C17.864 13.3503 17.9375 13.171 17.9375 12.9596C17.9375 12.7448 17.8648 12.566 17.7195 12.4234C17.5741 12.2807 17.3965 12.2094 17.1868 12.2094H9.83971C9.62538 12.2094 9.44499 12.2825 9.29854 12.4287C9.15207 12.5749 9.07884 12.7517 9.07884 12.9591C9.07884 13.1761 9.15122 13.3569 9.29599 13.5016C9.44075 13.6462 9.62279 13.7186 9.84211 13.7186ZM9.84211 9.74358H17.1892C17.3939 9.74358 17.5698 9.66993 17.7169 9.52263C17.864 9.37533 17.9375 9.19598 17.9375 8.98458C17.9375 8.76978 17.8648 8.59104 17.7195 8.44835C17.5741 8.30569 17.3965 8.23435 17.1868 8.23435H9.83971C9.62538 8.23435 9.44499 8.30746 9.29854 8.45368C9.15207 8.59991 9.07884 8.77672 9.07884 8.9841C9.07884 9.20107 9.15122 9.3819 9.29599 9.52658C9.44075 9.67125 9.62279 9.74358 9.84211 9.74358ZM3.61634 19.0496C3.17354 19.0496 2.78938 18.8868 2.46386 18.5613C2.13834 18.2358 1.97559 17.8516 1.97559 17.4088V4.6039C1.97559 4.15947 2.13834 3.7739 2.46386 3.4472C2.78938 3.1205 3.17354 2.95715 3.61634 2.95715H20.3837C20.8282 2.95715 21.2137 3.1205 21.5404 3.4472C21.8671 3.7739 22.0305 4.15947 22.0305 4.6039V17.4088C22.0305 17.8516 21.8671 18.2358 21.5404 18.5613C21.2137 18.8868 20.8282 19.0496 20.3837 19.0496H15.7587V20.2104C15.7587 20.4425 15.6775 20.6383 15.5152 20.7978C15.3528 20.9573 15.1606 21.0371 14.9386 21.0371H9.07396C8.84189 21.0371 8.6461 20.9573 8.48659 20.7978C8.32707 20.6383 8.24731 20.4425 8.24731 20.2104V19.0496H3.61634ZM3.61634 17.4088H20.3837V4.6039H3.61634V17.4088Z" fill="#D68000"/>
</g>
</svg>
