<svg width="24" height="24" viewBox="0 0 24 24" fill="none" xmlns="http://www.w3.org/2000/svg">
<g id="Icon">
<path id="Vector" d="M14.0586 12.6637C13.2711 12.6637 12.6044 12.3908 12.0586 11.845C11.5128 11.2991 11.2398 10.6325 11.2398 9.84497C11.2398 9.05747 11.5145 8.39289 12.0638 7.85122C12.6131 7.30956 13.2801 7.03872 14.0648 7.03872C14.8426 7.03872 15.5037 7.31152 16.0482 7.8571C16.5926 8.40268 16.8648 9.06518 16.8648 9.8446C16.8648 10.624 16.594 11.2887 16.0523 11.8387C15.5107 12.3887 14.8461 12.6637 14.0586 12.6637ZM7.37517 15.849C6.78392 15.849 6.27778 15.6385 5.85674 15.2175C5.43569 14.7964 5.22517 14.2903 5.22517 13.699V6.00938C5.22517 5.41813 5.43569 4.91197 5.85674 4.49092C6.27778 4.06989 6.78392 3.85938 7.37517 3.85938H20.7605C21.3517 3.85938 21.8579 4.06989 22.2789 4.49092C22.7 4.91197 22.9105 5.41813 22.9105 6.00938V13.699C22.9105 14.2903 22.7 14.7964 22.2789 15.2175C21.8579 15.6385 21.3517 15.849 20.7605 15.849H7.37517ZM9.21049 13.7887H18.9252C18.9252 13.2471 19.1137 12.7866 19.4906 12.4075C19.8676 12.0283 20.3208 11.8387 20.8502 11.8387V7.86372C20.3168 7.86372 19.8627 7.67414 19.4877 7.29497C19.1127 6.91581 18.9252 6.45539 18.9252 5.91372H9.21049C9.21049 6.45539 9.022 6.91581 8.64502 7.29497C8.26805 7.67414 7.81488 7.86372 7.28549 7.86372V11.8387C7.81883 11.8387 8.27299 12.0283 8.64799 12.4075C9.02299 12.7866 9.21049 13.2471 9.21049 13.7887ZM18.7002 19.9594H3.23984C2.64859 19.9594 2.14244 19.7489 1.72139 19.3278C1.30036 18.9068 1.08984 18.4006 1.08984 17.8094V8.24905C1.08984 7.95485 1.19546 7.70213 1.40669 7.4909C1.61793 7.27967 1.87064 7.17405 2.16484 7.17405C2.45904 7.17405 2.71176 7.27967 2.92299 7.4909C3.13423 7.70213 3.23984 7.95485 3.23984 8.24905V17.8094H18.7002C18.9944 17.8094 19.2471 17.915 19.4583 18.1262C19.6696 18.3375 19.7752 18.5902 19.7752 18.8844C19.7752 19.1786 19.6696 19.4313 19.4583 19.6425C19.2471 19.8538 18.9944 19.9594 18.7002 19.9594Z" fill="#D68000"/>
</g>
</svg>
