<svg width="83" height="83" viewBox="0 0 83 83" fill="none" xmlns="http://www.w3.org/2000/svg">
<g filter="url(#filter0_d_965_19509)">
<rect width="80" height="80" rx="40" fill="#D68000"/>
<path d="M40.0906 39.7416C40.7128 39.0209 41.1801 38.2433 41.4925 37.4086C41.8049 36.574 41.9611 35.6563 41.9611 34.6558C41.9611 33.6552 41.8015 32.7347 41.4823 31.8944C41.1631 31.0541 40.6939 30.2837 40.0747 29.5832C41.6826 29.426 43.0471 29.8228 44.1683 30.7735C45.2895 31.7242 45.8501 33.0205 45.8501 34.6624C45.8501 36.3171 45.2868 37.6189 44.1603 38.568C43.0339 39.517 41.6773 39.9082 40.0906 39.7416ZM46.7592 50.7151C46.9478 50.3327 47.1064 49.9448 47.2349 49.5515C47.3635 49.1582 47.4278 48.7404 47.4278 48.298V47.2432C47.4278 46.184 47.1858 45.2072 46.7017 44.3126C46.2176 43.418 45.399 42.649 44.2457 42.0054C47.2229 42.4283 49.3274 43.0786 50.559 43.9562C51.7906 44.8338 52.4064 45.9282 52.4064 47.2393V48.3051C52.4064 48.9675 52.1712 49.5348 51.7008 50.0069C51.2304 50.479 50.6602 50.7151 49.9903 50.7151H46.7592ZM54.9124 37.7972H48.6911C48.3951 37.7972 48.1444 37.6959 47.9388 37.4933C47.7333 37.2907 47.6305 37.0407 47.6305 36.7433C47.6305 36.4459 47.7333 36.1953 47.9388 35.9916C48.1444 35.7879 48.3951 35.6861 48.6911 35.6861H54.9124C55.1998 35.6861 55.4466 35.7892 55.6527 35.9955C55.8589 36.2018 55.9619 36.4537 55.9619 36.7511C55.9619 37.0485 55.8589 37.2972 55.6527 37.4972C55.4466 37.6972 55.1998 37.7972 54.9124 37.7972ZM34.6229 39.8856C33.1122 39.8856 31.8651 39.394 30.8816 38.4109C29.8981 37.4277 29.4063 36.1787 29.4063 34.664C29.4063 33.1493 29.898 31.9002 30.8812 30.9169C31.8645 29.9336 33.1136 29.4419 34.6284 29.4419C36.1354 29.4419 37.3825 29.9334 38.3695 30.9164C39.3566 31.8994 39.8501 33.1483 39.8501 34.663C39.8501 36.1777 39.3566 37.4269 38.3695 38.4104C37.3825 39.3939 36.1336 39.8856 34.6229 39.8856ZM24.0508 48.3011V47.2753C24.0508 46.4785 24.2557 45.7543 24.6655 45.1027C25.0753 44.4511 25.6342 43.9614 26.3422 43.6336C27.8732 42.9456 29.2897 42.4387 30.5916 42.113C31.8935 41.7874 33.2377 41.6245 34.624 41.6245C36.0192 41.6245 37.3642 41.786 38.6592 42.1091C39.9542 42.4321 41.3621 42.9406 42.8827 43.6345C43.5869 43.9564 44.1501 44.4419 44.5723 45.0913C44.9945 45.7407 45.2056 46.4686 45.2056 47.275V48.3064C45.2056 48.968 44.9701 49.5348 44.499 50.0069C44.028 50.479 43.4571 50.7151 42.7863 50.7151H26.4648C25.7886 50.7151 25.2172 50.4791 24.7506 50.0073C24.2841 49.5354 24.0508 48.9667 24.0508 48.3011ZM34.6283 37.4716C35.4283 37.4716 36.0954 37.2035 36.6295 36.6673C37.1637 36.1311 37.4307 35.4629 37.4307 34.6627C37.4307 33.861 37.1635 33.1928 36.629 32.658C36.0945 32.1233 35.4283 31.8559 34.6304 31.8559C33.8229 31.8559 33.1527 32.1235 32.6198 32.6588C32.0868 33.194 31.8203 33.8611 31.8203 34.66C31.8203 35.4611 32.0865 36.13 32.6188 36.6666C33.1511 37.2033 33.821 37.4716 34.6283 37.4716ZM26.4648 48.3011H42.7863V47.3158C42.7863 46.9957 42.7049 46.698 42.5419 46.4227C42.3789 46.1474 42.1363 45.9328 41.8141 45.7791C40.4204 45.1321 39.1832 44.6811 38.1027 44.4262C37.0222 44.1713 35.8642 44.0438 34.6287 44.0438C33.3855 44.0438 32.2237 44.1717 31.1434 44.4275C30.063 44.6833 28.817 45.1336 27.4052 45.7783C27.1116 45.9172 26.8815 46.1281 26.7148 46.4111C26.5481 46.6939 26.4648 46.9955 26.4648 47.3158L26.4648 48.3011Z" fill="white"/>
</g>
<defs>
<filter id="filter0_d_965_19509" x="0" y="0" width="82.0233" height="82.0233" filterUnits="userSpaceOnUse" color-interpolation-filters="sRGB">
<feFlood flood-opacity="0" result="BackgroundImageFix"/>
<feColorMatrix in="SourceAlpha" type="matrix" values="0 0 0 0 0 0 0 0 0 0 0 0 0 0 0 0 0 0 127 0" result="hardAlpha"/>
<feOffset dx="1.34886" dy="1.34886"/>
<feGaussianBlur stdDeviation="0.337214"/>
<feComposite in2="hardAlpha" operator="out"/>
<feColorMatrix type="matrix" values="0 0 0 0 0.191667 0 0 0 0 0.138 0 0 0 0 0 0 0 0 0.05 0"/>
<feBlend mode="normal" in2="BackgroundImageFix" result="effect1_dropShadow_965_19509"/>
<feBlend mode="normal" in="SourceGraphic" in2="effect1_dropShadow_965_19509" result="shape"/>
</filter>
</defs>
</svg>
