<svg width="24" height="24" viewBox="0 0 24 24" fill="none" xmlns="http://www.w3.org/2000/svg">
<g id="Icon">
<path id="Vector" d="M11.4542 13.4755C11.82 13.4755 12.1623 13.413 12.4811 13.288C12.7998 13.163 13.1208 13.0088 13.444 12.8255L15.1758 14.563C15.2841 14.6713 15.4133 14.7255 15.5633 14.7255C15.7133 14.7255 15.8424 14.6767 15.9508 14.5792C16.0591 14.4601 16.1133 14.3276 16.1133 14.1817C16.1133 14.0359 16.0591 13.9047 15.9508 13.788L14.1258 11.9701C14.3091 11.6904 14.4633 11.4017 14.5883 11.1041C14.7133 10.8065 14.7758 10.4875 14.7758 10.1472C14.7758 9.21917 14.457 8.43354 13.8195 7.79032C13.182 7.1471 12.3924 6.82549 11.4508 6.82549C10.5091 6.82549 9.71953 7.14773 9.08203 7.7922C8.44453 8.43666 8.12578 9.22339 8.12578 10.1524C8.12578 11.0814 8.44453 11.8675 9.08203 12.5107C9.71953 13.1539 10.5102 13.4755 11.4542 13.4755ZM11.4534 12.263C10.8683 12.263 10.3695 12.0576 9.95703 11.6469C9.54453 11.2362 9.33828 10.7382 9.33828 10.1531C9.33828 9.56805 9.54478 9.06924 9.95778 8.65674C10.3708 8.24424 10.8673 8.03799 11.4472 8.03799C12.0329 8.03799 12.532 8.24336 12.9445 8.65409C13.357 9.06483 13.5633 9.56274 13.5633 10.1478C13.5633 10.7329 13.3579 11.2317 12.9472 11.6442C12.5364 12.0567 12.0385 12.263 11.4534 12.263ZM1.74768 21.0717C1.53095 21.0717 1.3502 20.998 1.20543 20.8507C1.06066 20.7034 0.988281 20.5241 0.988281 20.3127C0.988281 20.1013 1.06066 19.9234 1.20543 19.779C1.3502 19.6346 1.53095 19.5624 1.74768 19.5624H22.2664C22.4735 19.5624 22.6498 19.6362 22.7952 19.7837C22.9406 19.9312 23.0133 20.1076 23.0133 20.3129C23.0133 20.5278 22.9406 20.708 22.7952 20.8535C22.6498 20.999 22.4735 21.0717 22.2664 21.0717H1.74768ZM3.61708 18.0749C3.17428 18.0749 2.79012 17.9122 2.46461 17.5867C2.13909 17.2612 1.97633 16.877 1.97633 16.4342V4.62929C1.97633 4.18486 2.13909 3.79929 2.46461 3.47259C2.79012 3.14589 3.17428 2.98254 3.61708 2.98254H20.3845C20.8289 2.98254 21.2145 3.14589 21.5412 3.47259C21.8679 3.79929 22.0312 4.18486 22.0312 4.62929V16.4342C22.0312 16.877 21.8679 17.2612 21.5412 17.5867C21.2145 17.9122 20.8289 18.0749 20.3845 18.0749H3.61708ZM3.61708 16.4342H20.3845V4.62929H3.61708V16.4342Z" fill="#D68000"/>
</g>
</svg>
