<svg width="32" height="32" viewBox="0 0 32 32" fill="none" xmlns="http://www.w3.org/2000/svg">
<g id="Pricing">
<path id="Vector" d="M18.0624 17.7167C16.9902 17.7167 16.0763 17.3389 15.3207 16.5834C14.5652 15.8278 14.1874 14.9111 14.1874 13.8334C14.1874 12.7556 14.565 11.8417 15.3203 11.0917C16.0756 10.3417 16.9927 9.9667 18.0717 9.9667C19.1414 9.9667 20.0531 10.343 20.8068 11.0956C21.5605 11.8482 21.9374 12.7621 21.9374 13.8373C21.9374 14.9124 21.5633 15.8278 20.8152 16.5834C20.067 17.3389 19.1494 17.7167 18.0624 17.7167ZM7.67871 22.5667C7.07204 22.5667 6.55443 22.3524 6.12587 21.9239C5.69732 21.4953 5.48304 20.9777 5.48304 20.371V7.31237C5.48304 6.70854 5.69732 6.19164 6.12587 5.76167C6.55443 5.33169 7.07204 5.1167 7.67871 5.1167H28.4787C29.0803 5.1167 29.5953 5.33169 30.0237 5.76167C30.4522 6.19164 30.6664 6.70854 30.6664 7.31237V20.371C30.6664 20.9777 30.4522 21.4953 30.0237 21.9239C29.5953 22.3524 29.0803 22.5667 28.4787 22.5667H7.67871ZM10.8664 20.4667H25.283C25.283 19.5445 25.6038 18.7639 26.2453 18.125C26.8869 17.4861 27.6605 17.1667 28.5664 17.1667V10.5167C27.6553 10.5167 26.8803 10.1959 26.2414 9.55437C25.6025 8.91283 25.283 8.13361 25.283 7.2167H10.8664C10.8664 8.13361 10.5456 8.91283 9.90408 9.55437C9.26256 10.1959 8.48889 10.5167 7.58304 10.5167V17.1667C8.49415 17.1667 9.26915 17.4861 9.90804 18.125C10.5469 18.7639 10.8664 19.5445 10.8664 20.4667ZM25.4309 26.7H3.52071C2.91911 26.7 2.4041 26.4858 1.97567 26.0574C1.54723 25.629 1.33301 25.114 1.33301 24.5124V10.5355C1.33301 10.2389 1.43992 9.98381 1.65374 9.7703C1.86754 9.55679 2.12721 9.45003 2.43274 9.45003C2.73825 9.45003 2.99596 9.55679 3.20587 9.7703C3.41576 9.98381 3.52071 10.2389 3.52071 10.5355V24.5124H25.4309C25.7275 24.5124 25.9826 24.6197 26.1961 24.8343C26.4096 25.0489 26.5164 25.3054 26.5164 25.6037C26.5164 25.9148 26.4096 26.1753 26.1961 26.3852C25.9826 26.5951 25.7275 26.7 25.4309 26.7Z" fill="#472200"/>
</g>
</svg>
