<svg width="24" height="24" viewBox="0 0 24 24" fill="none" xmlns="http://www.w3.org/2000/svg">
<g id="Icon">
<path id="Vector" d="M2.93613 20.2572V19.0707L4.55896 17.4479V20.2591C4.55896 20.4875 4.47965 20.6788 4.32103 20.833C4.16243 20.9871 3.96871 21.0642 3.73988 21.0642C3.50658 21.0642 3.3143 20.9875 3.16303 20.8342C3.01176 20.6808 2.93613 20.4885 2.93613 20.2572ZM7.06711 20.2561V15.0648L8.68993 13.4419V20.2561C8.68993 20.4876 8.61063 20.6802 8.45203 20.8338C8.29342 20.9874 8.0977 21.0642 7.86488 21.0642C7.63376 21.0642 7.44302 20.9874 7.29266 20.8338C7.14229 20.6802 7.06711 20.4876 7.06711 20.2561ZM11.1981 20.2552V13.4419L12.8209 15.0838V20.262C12.8209 20.4896 12.7416 20.6802 12.5829 20.8338C12.4241 20.9874 12.2303 21.0642 12.0013 21.0642C11.7723 21.0642 11.5812 20.9875 11.428 20.8342C11.2747 20.6808 11.1981 20.4879 11.1981 20.2552ZM15.3291 20.2561V15.0718L16.9519 13.455V20.262C16.9519 20.4896 16.8726 20.6802 16.714 20.8338C16.5554 20.9874 16.3616 21.0642 16.1328 21.0642C15.8995 21.0642 15.7072 20.9875 15.556 20.8342C15.4047 20.6808 15.3291 20.4881 15.3291 20.2561ZM19.46 20.2561V11.0468L21.0769 9.42997V20.262C21.0769 20.4896 20.9975 20.6802 20.8388 20.8338C20.6801 20.9874 20.4863 21.0642 20.2573 21.0642C20.0283 21.0642 19.8382 20.9875 19.6869 20.8342C19.5357 20.6808 19.46 20.4881 19.46 20.2561ZM3.17851 12.6675L8.85678 7.02672C9.17338 6.71622 9.55398 6.56097 9.99858 6.56097C10.4432 6.56097 10.8249 6.71622 11.1437 7.02672L14.0003 9.88324L19.6725 4.22347C19.8341 4.06187 20.026 3.98091 20.2481 3.98059C20.4702 3.98028 20.6596 4.06108 20.8162 4.22299C20.9733 4.38489 21.056 4.57563 21.0644 4.79519C21.0727 5.01476 20.9961 5.20534 20.8345 5.36694L15.1437 11.0452C14.826 11.3767 14.441 11.5383 13.9886 11.53C13.5362 11.5217 13.1506 11.3601 12.8318 11.0452L10.0003 8.21369L4.36548 13.836C4.19443 13.9976 3.99396 14.0743 3.76406 14.0663C3.53416 14.0583 3.34091 13.9734 3.18433 13.8114C3.0272 13.6495 2.94446 13.4588 2.93613 13.2392C2.9278 13.0197 3.00859 12.8291 3.17851 12.6675Z" fill="#D68000"/>
</g>
</svg>
