<svg width="32" height="32" viewBox="0 0 24 24" fill="none" xmlns="http://www.w3.org/2000/svg">
<g id="wifi_off_FILL0_wght500_GRAD-25_opsz24 1">
<path id="Vector" d="M2.90262 6.70994C2.649 6.70994 2.43452 6.62157 2.25917 6.44482C2.0838 6.26807 1.99612 6.0533 1.99612 5.80052V2.90324C1.99612 2.65686 2.08449 2.44442 2.26124 2.26592C2.43799 2.08742 2.65276 1.99817 2.90554 1.99817H5.80282C6.0492 1.99817 6.26098 2.0877 6.43814 2.26677C6.61531 2.44582 6.70389 2.65895 6.70389 2.90617C6.70389 3.15977 6.61531 3.37425 6.43814 3.54962C6.26098 3.72499 6.0492 3.81267 5.80282 3.81267H3.80662V5.80052C3.80662 6.0533 3.71775 6.26807 3.54002 6.44482C3.3623 6.62157 3.14984 6.70994 2.90262 6.70994ZM2.90554 22.0036C2.65276 22.0036 2.43799 21.9152 2.26124 21.7385C2.08448 21.5618 1.99609 21.347 1.99609 21.0942V18.1969C1.99609 17.9505 2.08474 17.7388 2.26204 17.5616C2.43936 17.3844 2.65344 17.2958 2.90427 17.2958C3.15509 17.2958 3.36818 17.3844 3.54354 17.5616C3.71891 17.7388 3.80659 17.9505 3.80659 18.1969V20.1931H5.80279C6.04918 20.1931 6.26095 20.282 6.43812 20.4597C6.61529 20.6374 6.70387 20.8499 6.70387 21.0971C6.70387 21.3507 6.61529 21.5652 6.43812 21.7406C6.26095 21.9159 6.04918 22.0036 5.80279 22.0036H2.90554ZM18.1992 22.0036C17.9464 22.0036 17.7317 21.915 17.5549 21.7377C17.3782 21.5604 17.2898 21.3463 17.2898 21.0954C17.2898 20.8446 17.3782 20.6315 17.5549 20.4562C17.7317 20.2808 17.9464 20.1931 18.1992 20.1931H20.1871V18.1969C20.1871 17.9505 20.2757 17.7388 20.453 17.5616C20.6303 17.3844 20.8444 17.2958 21.0952 17.2958C21.3461 17.2958 21.5598 17.3844 21.7365 17.5616C21.9132 17.7388 22.0016 17.9505 22.0016 18.1969V21.0942C22.0016 21.347 21.9123 21.5617 21.7338 21.7385C21.5553 21.9152 21.3429 22.0036 21.0965 22.0036H18.1992ZM21.0936 6.70994C20.84 6.70994 20.6255 6.62157 20.4501 6.44482C20.2748 6.26807 20.1871 6.0533 20.1871 5.80052V3.81267H18.1992C17.9464 3.81267 17.7317 3.72401 17.5549 3.54669C17.3782 3.3694 17.2898 3.15533 17.2898 2.9045C17.2898 2.65366 17.3782 2.4399 17.5549 2.26322C17.7317 2.08652 17.9464 1.99817 18.1992 1.99817H21.0965C21.3429 1.99817 21.5553 2.08742 21.7338 2.26592C21.9123 2.44442 22.0016 2.65686 22.0016 2.90324V5.80052C22.0016 6.0533 21.912 6.26807 21.733 6.44482C21.5539 6.62157 21.3408 6.70994 21.0936 6.70994ZM17.5302 19.0529V17.5529H19.0302V19.0529H17.5302ZM17.5302 16.0529V14.5529H19.0302V16.0529H17.5302ZM16.0302 17.5529V16.0529H17.5302V17.5529H16.0302ZM14.5302 19.0529V17.5529H16.0302V19.0529H14.5302ZM13.0302 17.5529V16.0529H14.5302V17.5529H13.0302ZM16.0302 14.5529V13.0529H17.5302V14.5529H16.0302ZM14.5302 16.0529V14.5529H16.0302V16.0529H14.5302ZM13.0302 14.5529V13.0529H14.5302V14.5529H13.0302ZM13.9396 10.9529C13.6868 10.9529 13.472 10.8645 13.2953 10.6878C13.1185 10.511 13.0302 10.2963 13.0302 10.0435V5.85229C13.0302 5.60638 13.1185 5.395 13.2953 5.21817C13.472 5.04132 13.6868 4.95289 13.9396 4.95289H18.1308C18.3767 4.95289 18.5881 5.04132 18.7649 5.21817C18.9418 5.395 19.0302 5.60638 19.0302 5.85229V10.0435C19.0302 10.2963 18.9418 10.511 18.7649 10.6878C18.5881 10.8645 18.3767 10.9529 18.1308 10.9529H13.9396ZM5.85624 19.0529C5.60348 19.0529 5.38872 18.9645 5.21197 18.7878C5.03522 18.611 4.94684 18.3963 4.94684 18.1435V13.9523C4.94684 13.7064 5.03522 13.495 5.21197 13.3182C5.38872 13.1413 5.60348 13.0529 5.85624 13.0529H10.0474C10.2933 13.0529 10.5047 13.1413 10.6816 13.3182C10.8584 13.495 10.9468 13.7064 10.9468 13.9523V18.1435C10.9468 18.3963 10.8584 18.611 10.6816 18.7878C10.5047 18.9645 10.2933 19.0529 10.0474 19.0529H5.85624ZM5.85624 10.9529C5.60348 10.9529 5.38872 10.8645 5.21197 10.6878C5.03522 10.511 4.94684 10.2963 4.94684 10.0435V5.85229C4.94684 5.60638 5.03522 5.395 5.21197 5.21817C5.38872 5.04132 5.60348 4.95289 5.85624 4.95289H10.0474C10.2933 4.95289 10.5047 5.04132 10.6816 5.21817C10.8584 5.395 10.9468 5.60638 10.9468 5.85229V10.0435C10.9468 10.2963 10.8584 10.511 10.6816 10.6878C10.5047 10.8645 10.2933 10.9529 10.0474 10.9529H5.85624ZM6.30389 17.6958H9.60644V14.3933H6.30389V17.6958ZM6.30389 9.61249H9.60644V6.30994H6.30389V9.61249ZM14.3706 9.61249H17.6731V6.30994H14.3706V9.61249Z" fill="#D68000"/>
</g>
</svg>
