<svg width="82" height="83" viewBox="0 0 82 83" fill="none" xmlns="http://www.w3.org/2000/svg">
<rect x="80" y="80.4998" width="78" height="78" rx="39" transform="rotate(-180 80 80.4998)" fill="#FFE7A9"/>
<rect x="80" y="80.4998" width="78" height="78" rx="39" transform="rotate(-180 80 80.4998)" stroke="#FFF4D7" stroke-width="4"/>
<g clip-path="url(#clip0_1277_4274)">
<path d="M21 41.4998V57.4392H37V41.4998H29C29 41.4998 29 33.5301 37 33.5301V25.5604C37 25.5604 21 25.5604 21 41.4998ZM61 33.5301V25.5604C61 25.5604 45 25.5604 45 41.4998V57.4392H61V41.4998H53C53 41.4998 53 33.5301 61 33.5301Z" fill="#D68000"/>
</g>
<defs>
<clipPath id="clip0_1277_4274">
<rect width="40" height="32" fill="white" transform="translate(21 25.4998)"/>
</clipPath>
</defs>
</svg>
