<svg width="32" height="32" viewBox="0 0 32 32" fill="none" xmlns="http://www.w3.org/2000/svg">
<g id="Reporting">
<path id="Vector" d="M6.35723 26.7522C6.04781 26.7522 5.78954 26.6486 5.58243 26.4415C5.3753 26.2344 5.27173 25.9761 5.27173 25.6667V11.6667C5.27173 11.3573 5.3753 11.0962 5.58243 10.8835C5.78954 10.6709 6.04781 10.5645 6.35723 10.5645H8.99203C9.30145 10.5645 9.5625 10.6709 9.77516 10.8835C9.98785 11.0962 10.0942 11.3573 10.0942 11.6667V25.6667C10.0942 25.9761 9.98785 26.2344 9.77516 26.4415C9.5625 26.6486 9.30145 26.7522 8.99203 26.7522H6.35723ZM13.5406 26.7522C13.2258 26.7522 12.9649 26.6486 12.7578 26.4415C12.5507 26.2344 12.4471 25.9761 12.4471 25.6667V18.3334C12.4471 18.0239 12.5507 17.7629 12.7578 17.5502C12.9649 17.3375 13.2258 17.2312 13.5406 17.2312H16.1674C16.4768 17.2312 16.7379 17.3375 16.9505 17.5502C17.1632 17.7629 17.2696 18.0239 17.2696 18.3334V25.6667C17.2696 25.9761 17.1632 26.2344 16.9505 26.4415C16.7379 26.6486 16.4768 26.7522 16.1674 26.7522H13.5406ZM23.0239 26.7522C22.7145 26.7522 22.4562 26.6486 22.2491 26.4415C22.042 26.2344 21.9384 25.9761 21.9384 25.6667V6.33337C21.9384 6.02395 22.042 5.76289 22.2491 5.5502C22.4562 5.33753 22.7145 5.2312 23.0239 5.2312H25.6587C25.9681 5.2312 26.2292 5.33753 26.4418 5.5502C26.6545 5.76289 26.7609 6.02395 26.7609 6.33337V25.6667C26.7609 25.9761 26.6545 26.2344 26.4418 26.4415C26.2292 26.6486 25.9681 26.7522 25.6587 26.7522H23.0239Z" fill="#472200"/>
</g>
</svg>
