<svg width="24" height="24" viewBox="0 0 24 24" fill="none" xmlns="http://www.w3.org/2000/svg">
<g id="Icon">
<path id="Vector" d="M4.53555 21.103C4.09275 21.103 3.70859 20.9402 3.38308 20.6147C3.05754 20.2892 2.89478 19.905 2.89478 19.4622V11.085C2.41181 10.6778 2.10339 10.1695 1.96953 9.56009C1.83564 8.9507 1.86037 8.3583 2.0437 7.78286L3.1042 4.44089C3.24907 3.9681 3.49788 3.59839 3.85063 3.33174C4.20338 3.06509 4.61371 2.93176 5.08163 2.93176H18.7755C19.2643 2.93176 19.6978 3.06773 20.0762 3.33966C20.4545 3.61158 20.7163 3.97948 20.8615 4.44336L21.9432 7.78286C22.1265 8.35786 22.1451 8.94717 21.9989 9.55079C21.8527 10.1544 21.5441 10.6579 21.073 11.0611V19.4622C21.073 19.905 20.9097 20.2892 20.583 20.6147C20.2563 20.9402 19.8708 21.103 19.4263 21.103H4.53555ZM14.2212 10.2334C14.6888 10.2334 15.0848 10.0821 15.4093 9.77934C15.7337 9.47662 15.8667 9.10624 15.8084 8.66819L15.1893 4.57851H12.766V8.63721C12.766 9.06616 12.9048 9.43943 13.1826 9.75701C13.4603 10.0746 13.8065 10.2334 14.2212 10.2334ZM9.58337 10.2334C10.0399 10.2334 10.427 10.0788 10.7445 9.76951C11.0621 9.46026 11.2209 9.08283 11.2209 8.63721V4.57851H8.7975L8.19098 8.66819C8.12829 9.08559 8.2369 9.45081 8.5168 9.76384C8.79668 10.0769 9.15221 10.2334 9.58337 10.2334ZM5.07315 10.2334C5.47055 10.2334 5.8101 10.0977 6.0918 9.82634C6.3735 9.55497 6.53736 9.22545 6.58337 8.83776L7.2399 4.57851H4.80403L3.65348 8.17416C3.48246 8.70871 3.54723 9.18555 3.84778 9.60469C4.14833 10.0238 4.55678 10.2334 5.07315 10.2334ZM18.8921 10.2334C19.4062 10.2334 19.8177 10.0299 20.1266 9.62281C20.4355 9.21575 20.5044 8.73286 20.3334 8.17416L19.2078 4.57851H16.7654L17.4035 8.83776C17.4495 9.22181 17.6124 9.55043 17.8922 9.82361C18.172 10.0968 18.5053 10.2334 18.8921 10.2334ZM4.53555 19.4622H19.4263V11.8552C19.4549 11.8678 19.4032 11.8742 19.271 11.8742H18.8864C18.4935 11.8742 18.1088 11.7907 17.7323 11.6236C17.3558 11.4566 16.9807 11.1957 16.6069 10.841C16.3468 11.1624 16.0174 11.4149 15.6187 11.5986C15.22 11.7823 14.7838 11.8742 14.3099 11.8742C13.8194 11.8742 13.3961 11.8063 13.0399 11.6706C12.6837 11.535 12.337 11.3084 11.9997 10.991C11.7428 11.2788 11.4234 11.498 11.0415 11.6485C10.6596 11.7989 10.2331 11.8742 9.76183 11.8742C9.26169 11.8742 8.81135 11.7885 8.4108 11.6172C8.01025 11.4459 7.66488 11.1872 7.37468 10.841C6.95439 11.1914 6.55113 11.4512 6.1649 11.6204C5.77867 11.7896 5.41562 11.8742 5.07575 11.8742H4.73548C4.63154 11.8742 4.5649 11.8678 4.53555 11.8552V19.4622Z" fill="#D68000"/>
</g>
</svg>
