<svg width="24" height="24" viewBox="0 0 24 24" fill="none" xmlns="http://www.w3.org/2000/svg">
<g id="dvr_FILL0_wght500_GRAD-25_opsz48 1">
<path id="Vector" d="M7.03553 13.8115C7.27717 13.8115 7.48004 13.7293 7.64416 13.5649C7.80829 13.4005 7.89036 13.1982 7.89036 12.9582C7.89036 12.7253 7.80863 12.5247 7.64518 12.3564C7.48173 12.1881 7.2792 12.1039 7.03758 12.1039C6.79595 12.1039 6.59308 12.1872 6.42896 12.3537C6.26483 12.5202 6.18276 12.7225 6.18276 12.9605C6.18276 13.1956 6.26448 13.3962 6.42793 13.5623C6.59138 13.7285 6.79392 13.8115 7.03553 13.8115ZM7.03553 9.83653C7.27717 9.83653 7.48004 9.75431 7.64416 9.58988C7.80829 9.42546 7.89036 9.22324 7.89036 8.9832C7.89036 8.75027 7.80863 8.54965 7.64518 8.38135C7.48173 8.21305 7.2792 8.1289 7.03758 8.1289C6.79595 8.1289 6.59308 8.21216 6.42896 8.37868C6.26483 8.5452 6.18276 8.74746 6.18276 8.98548C6.18276 9.22059 6.26448 9.42121 6.42793 9.58733C6.59138 9.75346 6.79392 9.83653 7.03553 9.83653ZM9.84113 13.7186H17.1882C17.3929 13.7186 17.5689 13.6449 17.7159 13.4976C17.863 13.3503 17.9366 13.171 17.9366 12.9596C17.9366 12.7448 17.8639 12.566 17.7185 12.4234C17.5731 12.2807 17.3955 12.2094 17.1858 12.2094H9.83873C9.6244 12.2094 9.44401 12.2825 9.29756 12.4287C9.15109 12.5749 9.07786 12.7517 9.07786 12.9591C9.07786 13.1761 9.15024 13.3569 9.29501 13.5016C9.43978 13.6462 9.62182 13.7186 9.84113 13.7186ZM9.84113 9.74358H17.1882C17.3929 9.74358 17.5689 9.66993 17.7159 9.52263C17.863 9.37533 17.9366 9.19598 17.9366 8.98458C17.9366 8.76978 17.8639 8.59104 17.7185 8.44835C17.5731 8.30569 17.3955 8.23435 17.1858 8.23435H9.83873C9.6244 8.23435 9.44401 8.30746 9.29756 8.45368C9.15109 8.59991 9.07786 8.77672 9.07786 8.9841C9.07786 9.20107 9.15024 9.3819 9.29501 9.52658C9.43978 9.67125 9.62182 9.74358 9.84113 9.74358ZM3.61536 19.0496C3.17256 19.0496 2.7884 18.8868 2.46288 18.5613C2.13737 18.2358 1.97461 17.8516 1.97461 17.4088V4.6039C1.97461 4.15947 2.13737 3.7739 2.46288 3.4472C2.7884 3.1205 3.17256 2.95715 3.61536 2.95715H20.3828C20.8272 2.95715 21.2128 3.1205 21.5395 3.4472C21.8662 3.7739 22.0295 4.15947 22.0295 4.6039V17.4088C22.0295 17.8516 21.8662 18.2358 21.5395 18.5613C21.2128 18.8868 20.8272 19.0496 20.3828 19.0496H15.7578V20.2104C15.7578 20.4425 15.6766 20.6383 15.5142 20.7978C15.3518 20.9573 15.1596 21.0371 14.9376 21.0371H9.07298C8.84092 21.0371 8.64513 20.9573 8.48561 20.7978C8.32609 20.6383 8.24633 20.4425 8.24633 20.2104V19.0496H3.61536ZM3.61536 17.4088H20.3828V4.6039H3.61536V17.4088Z" fill="#D68000"/>
</g>
</svg>
