<svg width="24" height="24" viewBox="0 0 24 24" fill="none" xmlns="http://www.w3.org/2000/svg">
<g id="lunch_dining_FILL0_wght500_GRAD-25_opsz48 1">
<path id="Vector" d="M3.57451 21.0967C3.13188 21.0967 2.75474 20.9403 2.44309 20.6275C2.13142 20.3146 1.97559 19.9361 1.97559 19.4918V16.9695C1.97559 16.747 2.05534 16.5557 2.21486 16.3956C2.37438 16.2355 2.57017 16.1554 2.80224 16.1554H21.2104C21.4324 16.1554 21.6246 16.2355 21.7869 16.3956C21.9493 16.5557 22.0305 16.747 22.0305 16.9695V19.4918C22.0305 19.9361 21.8741 20.3146 21.5613 20.6275C21.2484 20.9403 20.8699 21.0967 20.4256 21.0967H3.57451ZM3.57451 17.7543V19.4918H20.4316V17.7543H3.57451ZM12.0063 13.2951C11.3387 13.2951 10.8336 13.4784 10.4911 13.8451C10.1485 14.2117 9.53127 14.3951 8.63934 14.3951C7.74742 14.3951 7.14745 14.2117 6.83944 13.8451C6.53144 13.4784 6.04129 13.2951 5.36901 13.2951C4.81584 13.2951 4.38454 13.4317 4.07509 13.7049C3.76565 13.978 3.3314 14.1779 2.77234 14.3044C2.56075 14.3482 2.37507 14.2977 2.21529 14.153C2.0555 14.0083 1.97561 13.8199 1.97561 13.5878C1.97561 13.3663 2.05518 13.1671 2.21431 12.9902C2.37344 12.8132 2.55945 12.6802 2.77234 12.5913C3.12055 12.4429 3.47423 12.2566 3.83336 12.0324C4.19251 11.8082 4.70724 11.6962 5.37756 11.6962C6.26648 11.6962 6.86609 11.8795 7.17641 12.2462C7.48674 12.6128 7.97485 12.7962 8.64074 12.7962C9.3066 12.7962 9.81009 12.6128 10.1512 12.2462C10.4923 11.8795 11.111 11.6962 12.0074 11.6962C12.9039 11.6962 13.5211 11.8795 13.8592 12.2462C14.1973 12.6128 14.7028 12.7962 15.3756 12.7962C16.0484 12.7962 16.5356 12.6128 16.837 12.2462C17.1385 11.8795 17.7395 11.6962 18.6402 11.6962C19.3068 11.6962 19.8192 11.8099 20.1774 12.0375C20.5356 12.265 20.8919 12.4538 21.2463 12.6038C21.4531 12.6946 21.6355 12.8287 21.7935 13.0062C21.9515 13.1837 22.0305 13.3828 22.0305 13.6036C22.0305 13.8283 21.9496 14.0113 21.7878 14.1524C21.6261 14.2935 21.4455 14.3414 21.2463 14.2962C20.6789 14.1712 20.24 13.9731 19.9297 13.7019C19.6194 13.4307 19.1928 13.2951 18.6501 13.2951C17.9675 13.2951 17.4744 13.4784 17.171 13.8451C16.8675 14.2117 16.2691 14.3951 15.3756 14.3951C14.4821 14.3951 13.8641 14.2117 13.5216 13.8451C13.179 13.4784 12.6739 13.2951 12.0063 13.2951ZM11.9973 2.91028C13.2372 2.91028 14.4574 3.03228 15.658 3.27628C16.8585 3.52026 17.9293 3.89743 18.8704 4.40778C19.8116 4.91815 20.5735 5.56768 21.1563 6.35638C21.7391 7.14509 22.0305 8.07937 22.0305 9.1592C22.0305 9.39127 21.9493 9.58705 21.7869 9.74655C21.6246 9.90607 21.4324 9.98583 21.2104 9.98583H2.80224C2.57017 9.98583 2.37438 9.90607 2.21486 9.74655C2.05536 9.58705 1.97561 9.39127 1.97561 9.1592C1.97561 8.07937 2.266 7.14509 2.84679 6.35638C3.42759 5.56768 4.18898 4.91882 5.13096 4.4098C6.07294 3.90079 7.14286 3.52361 8.34071 3.27828C9.53854 3.03295 10.7574 2.91028 11.9973 2.91028ZM11.9971 4.5092C9.67514 4.5092 7.7429 4.87967 6.20034 5.6206C4.65777 6.36155 3.82905 7.28365 3.71419 8.3869H20.2919C20.1477 7.28365 19.3117 6.36155 17.7838 5.6206C16.2559 4.87967 14.327 4.5092 11.9971 4.5092Z" fill="#D68000"/>
</g>
</svg>
