<svg width="24" height="24" viewBox="0 0 24 24" fill="none" xmlns="http://www.w3.org/2000/svg">
<g id="Icon">
<path id="Vector" d="M3.81001 8.06937H20.1905V5.77644H3.81001V8.06937ZM1.99951 5.77644C1.99951 5.28169 2.17785 4.85559 2.53454 4.49814C2.8912 4.14068 3.31636 3.96194 3.81001 3.96194H20.1905C20.6852 3.96194 21.1113 4.14068 21.4688 4.49814C21.8262 4.85559 22.005 5.28169 22.005 5.77644V11.5694H3.81001V18.2069H8.42889C8.67527 18.2069 8.88704 18.2958 9.06421 18.4735C9.24138 18.6512 9.32996 18.8637 9.32996 19.1109C9.32996 19.3645 9.24138 19.579 9.06421 19.7543C8.88704 19.9297 8.67527 20.0174 8.42889 20.0174H3.81001C3.31636 20.0174 2.8912 19.8391 2.53454 19.4824C2.17785 19.1257 1.99951 18.7005 1.99951 18.2069V5.77644ZM3.81001 5.77644V18.2069V15.2461V17.192V5.77644ZM14.974 19.4337L20.0931 14.3185C20.2701 14.1423 20.481 14.0553 20.7257 14.0574C20.9704 14.0596 21.1855 14.1485 21.3709 14.3241C21.5355 14.5052 21.6196 14.716 21.6232 14.9563C21.6267 15.1967 21.5401 15.4052 21.3634 15.5819L15.6222 21.3232C15.438 21.5097 15.2232 21.6029 14.9777 21.6029C14.7322 21.6029 14.519 21.5097 14.3381 21.3232L11.3634 18.3425C11.184 18.1686 11.0967 17.9591 11.1015 17.7138C11.1063 17.4685 11.2019 17.2531 11.388 17.0676C11.5567 16.8951 11.7644 16.8099 12.011 16.8119C12.2577 16.8139 12.4731 16.9033 12.6573 17.0801L14.974 19.4337Z" fill="#D68000"/>
</g>
</svg>
