<svg width="24" height="24" viewBox="0 0 24 24" fill="none" xmlns="http://www.w3.org/2000/svg">
<g id="Icon">
<path id="Vector" d="M12.0001 20.9534C11.7059 20.9534 11.4532 20.8478 11.242 20.6365C11.0308 20.4253 10.9251 20.1726 10.9251 19.8784C10.9251 19.5842 11.0308 19.3315 11.242 19.1202C11.4532 18.909 11.7059 18.8034 12.0001 18.8034H18.8099V11.8224C18.8099 9.95791 18.1451 8.37485 16.8154 7.07322C15.4857 5.77159 13.8826 5.12077 12.0061 5.12077C10.1213 5.12077 8.5121 5.77159 7.1784 7.07322C5.84472 8.37485 5.17787 9.9599 5.17787 11.8284V16.8816C5.17787 17.1758 5.07226 17.4286 4.86102 17.6398C4.64979 17.851 4.39707 17.9566 4.10287 17.9566H4.07297C3.51609 17.9566 3.03919 17.7602 2.64227 17.3672C2.24534 16.9743 2.04688 16.4994 2.04688 15.9425V13.8784C2.04688 13.5327 2.13637 13.2131 2.31537 12.9194C2.49436 12.6258 2.72986 12.3813 3.02188 12.186L3.07895 11.149C3.18873 10.0012 3.49987 8.93454 4.01237 7.94904C4.52487 6.96353 5.1785 6.10691 5.97325 5.37919C6.768 4.65148 7.68322 4.08083 8.7189 3.66724C9.75458 3.25364 10.8483 3.04684 12.0001 3.04684C13.152 3.04684 14.2425 3.25364 15.2719 3.66724C16.3012 4.08083 17.2144 4.6493 18.0113 5.37267C18.8082 6.09604 19.4618 6.94839 19.9722 7.92974C20.4825 8.91108 20.7947 9.97566 20.9088 11.1235L20.9659 12.1604C21.2659 12.3181 21.5055 12.5415 21.6847 12.8308C21.8638 13.1201 21.9534 13.4374 21.9534 13.7827V16.0382C21.9534 16.3954 21.8658 16.7277 21.6906 17.0349C21.5155 17.3421 21.2739 17.5786 20.9659 17.7441V18.8094C20.9659 19.3978 20.7597 19.9022 20.3472 20.3227C19.9347 20.7432 19.4342 20.9534 18.8458 20.9534H12.0001ZM9.1344 14.074C8.86808 14.074 8.64028 13.9794 8.45097 13.7901C8.26166 13.6008 8.167 13.3729 8.167 13.1066C8.167 12.8403 8.26166 12.6125 8.45097 12.4232C8.64028 12.2339 8.86808 12.1392 9.1344 12.1392C9.4007 12.1392 9.62851 12.2339 9.81783 12.4232C10.0071 12.6125 10.1018 12.8403 10.1018 13.1066C10.1018 13.3729 10.0071 13.6008 9.81783 13.7901C9.62851 13.9794 9.4007 14.074 9.1344 14.074ZM14.8659 14.074C14.5996 14.074 14.3718 13.9794 14.1825 13.7901C13.9932 13.6008 13.8985 13.3729 13.8985 13.1066C13.8985 12.8403 13.9932 12.6125 14.1825 12.4232C14.3718 12.2339 14.5996 12.1392 14.8659 12.1392C15.1322 12.1392 15.36 12.2339 15.5493 12.4232C15.7386 12.6125 15.8333 12.8403 15.8333 13.1066C15.8333 13.3729 15.7386 13.6008 15.5493 13.7901C15.36 13.9794 15.1322 14.074 14.8659 14.074ZM6.2594 12.2262C6.20033 10.578 6.73566 9.16941 7.86538 8.00039C8.99508 6.83138 10.3838 6.24687 12.0317 6.24687C13.4371 6.24687 14.6767 6.69107 15.7504 7.57947C16.8242 8.46787 17.4819 9.60229 17.7235 10.9827C16.292 10.9577 14.9621 10.5938 13.7339 9.89087C12.5056 9.18799 11.5603 8.20176 10.898 6.93219C10.6237 8.16408 10.0762 9.24424 9.25533 10.1727C8.43449 11.1011 7.43585 11.7856 6.2594 12.2262Z" fill="#D68000"/>
</g>
</svg>
