<svg width="80" height="80" viewBox="0 0 80 80" fill="none" xmlns="http://www.w3.org/2000/svg">
<rect width="80" height="80" rx="40" fill="#D68000"/>
<path d="M39.5837 55.0407C39.1969 55.0407 38.8741 54.9055 38.6152 54.6352C38.3563 54.3649 38.2268 54.0419 38.2268 53.6661C38.2268 53.2902 38.3563 52.9696 38.6152 52.7042C38.8741 52.4388 39.1969 52.3061 39.5837 52.3061H52.3174V39.7345C52.3174 36.3935 51.1156 33.5564 48.7119 31.2233C46.3083 28.8902 43.4082 27.7237 40.0117 27.7237C36.5963 27.7237 33.6877 28.8919 31.286 31.2282C28.8842 33.5647 27.6833 36.4045 27.6833 39.7479V49.0524C27.6833 49.3417 27.5938 49.5742 27.4148 49.7499C27.2357 49.9256 27.0119 50.0135 26.7431 50.0135H26.7033C25.7659 50.0135 24.9632 49.6823 24.2951 49.0199C23.627 48.3574 23.293 47.5568 23.293 46.6181V43.2062C23.293 42.6273 23.4405 42.0826 23.7355 41.5724C24.0304 41.0621 24.4306 40.6464 24.9359 40.3251L25.0339 38.47C25.2317 36.5579 25.7608 34.7779 26.6211 33.1301C27.4814 31.4823 28.5782 30.0519 29.9115 28.839C31.2447 27.626 32.7778 26.6745 34.5108 25.9844C36.2437 25.2942 38.0737 24.9492 40.0009 24.9492C41.9281 24.9492 43.7548 25.2943 45.481 25.9845C47.2071 26.6746 48.74 27.6209 50.0797 28.8232C51.4193 30.0255 52.5175 31.4493 53.3741 33.0946C54.2307 34.7398 54.7616 36.5244 54.9669 38.4483L55.072 40.2862C55.5792 40.5561 55.9803 40.9369 56.2753 41.4287C56.5703 41.9205 56.7178 42.4449 56.7178 43.0017V46.8133C56.7178 47.3992 56.5736 47.9509 56.2853 48.4683C55.9969 48.9858 55.5925 49.3748 55.072 49.6353V52.316C55.072 53.0633 54.8079 53.7042 54.2798 54.2388C53.7517 54.7734 53.1142 55.0407 52.3672 55.0407H39.5837ZM35.1348 43.0325C34.795 43.0325 34.505 42.9153 34.2648 42.6809C34.0245 42.4466 33.9044 42.1535 33.9044 41.8019C33.9044 41.4502 34.0254 41.1565 34.2675 40.9207C34.5096 40.6849 34.8036 40.5669 35.1495 40.5669C35.4953 40.5669 35.7869 40.687 36.0241 40.9272C36.2613 41.1674 36.3799 41.4625 36.3799 41.8125C36.3799 42.1653 36.2574 42.4568 36.0122 42.6871C35.7671 42.9174 35.4746 43.0325 35.1348 43.0325ZM44.8513 43.0325C44.5115 43.0325 44.2215 42.9153 43.9813 42.6809C43.741 42.4466 43.6208 42.1535 43.6208 41.8019C43.6208 41.4502 43.7419 41.1565 43.984 40.9207C44.2261 40.6849 44.5201 40.5669 44.8659 40.5669C45.2118 40.5669 45.5033 40.687 45.7406 40.9272C45.9778 41.1674 46.0964 41.4625 46.0964 41.8125C46.0964 42.1653 45.9738 42.4568 45.7287 42.6871C45.4836 42.9174 45.1911 43.0325 44.8513 43.0325ZM30.2776 40.4881C30.1308 37.6796 31.0201 35.2686 32.9452 33.2553C34.8704 31.242 37.2466 30.2354 40.0738 30.2354C42.4043 30.2354 44.4322 31.0034 46.1577 32.5393C47.8831 34.0752 48.9472 36.0002 49.35 38.3142C46.972 38.2864 44.7892 37.6457 42.8016 36.3921C40.8139 35.1385 39.2643 33.4543 38.1526 31.3396C37.7099 33.4471 36.7872 35.3068 35.3844 36.9188C33.9817 38.5309 32.2794 39.7206 30.2776 40.4881Z" fill="#FFF5DB"/>
</svg>
