<svg width="24" height="24" viewBox="0 0 24 24" fill="none" xmlns="http://www.w3.org/2000/svg">
<g id="Icon">
<path id="Vector" d="M15.4665 17.4123L20.5881 12.2907C20.76 12.1188 20.9663 12.0356 21.2067 12.0411C21.4472 12.0467 21.6586 12.1365 21.8409 12.3107C22.0151 12.4931 22.1012 12.7063 22.0992 12.9503C22.0972 13.1943 22.0091 13.4047 21.835 13.5815L16.1147 19.3038C15.9298 19.4929 15.7141 19.5875 15.4677 19.5875C15.2212 19.5875 15.0076 19.4929 14.8266 19.3038L12.0166 16.4938C11.8372 16.3199 11.7502 16.111 11.7558 15.867C11.7614 15.6229 11.8553 15.4098 12.0377 15.2274C12.2118 15.0532 12.4219 14.9661 12.6679 14.9661C12.9139 14.9661 13.1277 15.0527 13.3091 15.226L15.4665 17.4123ZM4.79292 21.0174C4.28162 21.0174 3.85205 20.8455 3.5042 20.5018C3.15635 20.158 2.98242 19.7264 2.98242 19.2069V4.79311C2.98242 4.27361 3.1543 3.84132 3.49805 3.49624C3.8418 3.15117 4.27342 2.97864 4.79292 2.97864H9.3973C9.54366 2.39422 9.85861 1.91391 10.3421 1.53769C10.8257 1.16149 11.3782 0.973389 11.9998 0.973389C12.6143 0.973389 13.1634 1.16149 13.6471 1.53769C14.1308 1.91391 14.4519 2.39422 14.6105 2.97864H19.2067C19.7262 2.97864 20.1585 3.15117 20.5036 3.49624C20.8487 3.84132 21.0212 4.27361 21.0212 4.79311V8.89059C21.0212 9.14337 20.9319 9.35814 20.7532 9.53489C20.5746 9.71164 20.3613 9.80001 20.1132 9.80001C19.8596 9.80001 19.6451 9.71164 19.4697 9.53489C19.2944 9.35814 19.2067 9.14337 19.2067 8.89059V4.79311H17.6573V6.34256C17.6573 6.59535 17.5689 6.80872 17.3921 6.98269C17.2154 7.15666 17.0034 7.24364 16.7562 7.24364H7.2518C6.99901 7.24364 6.78425 7.15666 6.6075 6.98269C6.43075 6.80872 6.34237 6.59535 6.34237 6.34256V4.79311H4.79292V19.2069H9.94872C10.196 19.2069 10.4079 19.2956 10.5847 19.4729C10.7614 19.6502 10.8498 19.8629 10.8498 20.1109C10.8498 20.3645 10.7614 20.579 10.5847 20.7544C10.4079 20.9297 10.196 21.0174 9.94872 21.0174H4.79292ZM11.9998 4.65271C12.2637 4.65271 12.4901 4.559 12.679 4.37156C12.8679 4.18411 12.9623 3.957 12.9623 3.69021C12.9623 3.42633 12.8679 3.20133 12.679 3.01521C12.4901 2.82911 12.2637 2.73606 11.9998 2.73606C11.7359 2.73606 11.5109 2.82911 11.3248 3.01521C11.1387 3.20133 11.0456 3.42633 11.0456 3.69021C11.0456 3.957 11.1387 4.18411 11.3248 4.37156C11.5109 4.559 11.7359 4.65271 11.9998 4.65271Z" fill="#D68000"/>
</g>
</svg>
