<svg width="64" height="64" viewBox="0 0 64 64" fill="none" xmlns="http://www.w3.org/2000/svg">
<rect width="64" height="64" rx="32" fill="#D68000"/>
<path d="M31.6669 44.0325C31.3575 44.0325 31.0992 43.9244 30.892 43.7082C30.6849 43.4919 30.5814 43.2335 30.5814 42.9328C30.5814 42.6322 30.6849 42.3757 30.892 42.1633C31.0992 41.951 31.3575 41.8448 31.6669 41.8448H41.8538V31.7876C41.8538 29.1148 40.8924 26.8451 38.9694 24.9786C37.0465 23.1121 34.7265 22.1789 32.0092 22.1789C29.2769 22.1789 26.9501 23.1134 25.0287 24.9826C23.1073 26.8517 22.1466 29.1236 22.1466 31.7983V39.2419C22.1466 39.4733 22.075 39.6593 21.9317 39.7999C21.7885 39.9405 21.6094 40.0108 21.3944 40.0108H21.3625C20.6127 40.0108 19.9705 39.7458 19.436 39.2159C18.9015 38.6859 18.6343 38.0454 18.6343 37.2945V34.565C18.6343 34.1018 18.7523 33.6661 18.9883 33.2579C19.2243 32.8497 19.5444 32.5171 19.9486 32.2601L20.027 30.776C20.1853 29.2463 20.6085 27.8223 21.2968 26.5041C21.9851 25.1858 22.8625 24.0415 23.9291 23.0712C24.9957 22.1008 26.2222 21.3396 27.6085 20.7875C28.9948 20.2353 30.4589 19.9593 32.0006 19.9593C33.5424 19.9593 35.0037 20.2354 36.3847 20.7875C37.7656 21.3397 38.9919 22.0967 40.0636 23.0586C41.1354 24.0204 42.0139 25.1594 42.6992 26.4756C43.3844 27.7918 43.8092 29.2195 43.9734 30.7586L44.0575 32.2289C44.4633 32.4448 44.7841 32.7495 45.0201 33.143C45.2561 33.5364 45.3741 33.9559 45.3741 34.4013V37.4506C45.3741 37.9194 45.2588 38.3607 45.0281 38.7746C44.7974 39.1886 44.4739 39.4998 44.0575 39.7082V41.8528C44.0575 42.4506 43.8462 42.9634 43.4237 43.391C43.0013 43.8187 42.4912 44.0325 41.8937 44.0325H31.6669ZM28.1078 34.426C27.8359 34.426 27.6039 34.3322 27.4117 34.1447C27.2195 33.9572 27.1234 33.7228 27.1234 33.4415C27.1234 33.1601 27.2202 32.9251 27.4139 32.7365C27.6076 32.5478 27.8428 32.4535 28.1195 32.4535C28.3962 32.4535 28.6294 32.5496 28.8192 32.7417C29.009 32.9339 29.1038 33.17 29.1038 33.45C29.1038 33.7322 29.0058 33.9654 28.8097 34.1497C28.6136 34.3339 28.3796 34.426 28.1078 34.426ZM35.8809 34.426C35.6091 34.426 35.3771 34.3322 35.1849 34.1447C34.9927 33.9572 34.8966 33.7228 34.8966 33.4415C34.8966 33.1601 34.9934 32.9251 35.1871 32.7365C35.3808 32.5478 35.616 32.4535 35.8926 32.4535C36.1693 32.4535 36.4026 32.5496 36.5923 32.7417C36.7821 32.9339 36.877 33.17 36.877 33.45C36.877 33.7322 36.779 33.9654 36.5829 34.1497C36.3868 34.3339 36.1528 34.426 35.8809 34.426ZM24.2219 32.3905C24.1046 30.1436 24.8159 28.2149 26.3561 26.6042C27.8962 24.9936 29.7972 24.1883 32.0589 24.1883C33.9233 24.1883 35.5457 24.8027 36.926 26.0314C38.3064 27.2602 39.1577 28.8001 39.4799 30.6513C37.5775 30.6291 35.8313 30.1165 34.2411 29.1137C32.6511 28.1108 31.4113 26.7634 30.522 25.0716C30.1679 26.7576 29.4297 28.2454 28.3074 29.535C27.1852 30.8246 25.8234 31.7765 24.2219 32.3905Z" fill="#FFF5DB"/>
</svg>
