<svg width="24" height="24" viewBox="0 0 24 24" fill="none" xmlns="http://www.w3.org/2000/svg">
<g id="tablet_android_FILL0_wght500_GRAD-25_opsz48 1" clip-path="url(#clip0_2131_21960)">
<path id="Vector" d="M4.61536 23.0134C4.16416 23.0134 3.7779 22.8527 3.45658 22.5314C3.13527 22.2101 2.97461 21.8239 2.97461 21.3727V2.62915C2.97461 2.17795 3.13527 1.79169 3.45658 1.47038C3.7779 1.14906 4.16416 0.988403 4.61536 0.988403H19.3839C19.8351 0.988403 20.2213 1.14906 20.5426 1.47038C20.864 1.79169 21.0246 2.17795 21.0246 2.62915V21.3727C21.0246 21.8239 20.864 22.2101 20.5426 22.5314C20.2213 22.8528 19.8351 23.0134 19.3839 23.0134L4.61536 23.0134ZM4.61536 19.1227V21.3727H19.3839V19.1227H4.61536ZM10.4812 20.7352H13.536C13.6617 20.7352 13.7746 20.6864 13.8746 20.5889C13.9746 20.4914 14.0246 20.3767 14.0246 20.2447C14.0246 20.1127 13.9737 19.9968 13.8719 19.8972C13.7701 19.7975 13.6563 19.7477 13.5306 19.7477H10.4781C10.3424 19.7477 10.2246 19.7967 10.1246 19.8947C10.0246 19.9927 9.97461 20.1093 9.97461 20.2447C9.97461 20.3767 10.0247 20.4914 10.1248 20.5889C10.2249 20.6864 10.3437 20.7352 10.4812 20.7352ZM4.61536 17.6852H19.3839V4.84165H4.61536V17.6852ZM4.61536 3.40415H19.3839V2.62915H4.61536V3.40415Z" fill="#D68000"/>
</g>
<defs>
<clipPath id="clip0_2131_21960">
<rect width="24" height="24" fill="white"/>
</clipPath>
</defs>
</svg>
