<svg xmlns="http://www.w3.org/2000/svg" width="25" height="25" viewBox="0 0 25 25" fill="none">
  <path d="M10.0035 15.8616L18.7241 7.14491C18.9062 6.96399 19.1215 6.87354 19.3703 6.87354C19.619 6.87354 19.8366 6.96429 20.0231 7.14579C20.204 7.3273 20.2944 7.5428 20.2944 7.79229C20.2944 8.04177 20.204 8.2575 20.0231 8.43949L10.6517 17.8109C10.4642 17.9973 10.2479 18.0906 10.0028 18.0906C9.7576 18.0906 9.54456 17.9973 9.36364 17.8109L4.97559 13.4228C4.78911 13.2401 4.69835 13.0239 4.70332 12.7742C4.70827 12.5245 4.80149 12.3092 4.98299 12.1283C5.16449 11.9473 5.37999 11.8569 5.62947 11.8569C5.87895 11.8569 6.09746 11.9473 6.28499 12.1283L10.0035 15.8616Z" fill="#D68000"/>
</svg>