<svg width="18" height="14" viewBox="0 0 18 14" fill="none" xmlns="http://www.w3.org/2000/svg">
<path d="M0.908449 13.1118C0.655665 13.1118 0.440899 13.0232 0.264149 12.8459C0.0873985 12.6685 -0.000976562 12.4517 -0.000976562 12.1955C-0.000976562 11.9474 0.0873985 11.7357 0.264149 11.5604C0.440899 11.385 0.655665 11.2973 0.908449 11.2973H17.0994C17.3466 11.2973 17.5593 11.386 17.7373 11.5633C17.9154 11.7406 18.0045 11.9533 18.0045 12.2013C18.0045 12.4576 17.9154 12.6734 17.7373 12.8488C17.5593 13.0241 17.3466 13.1118 17.0994 13.1118H0.908449ZM0.908449 7.89696C0.655665 7.89696 0.440899 7.8083 0.264149 7.63098C0.0873985 7.45367 -0.000976562 7.23821 -0.000976562 6.98461C-0.000976562 6.73656 0.0873985 6.52485 0.264149 6.34948C0.440899 6.17413 0.655665 6.08646 0.908449 6.08646H17.0994C17.3466 6.08646 17.5593 6.17511 17.7373 6.35241C17.9154 6.52972 18.0045 6.74241 18.0045 6.99046C18.0045 7.24406 17.9154 7.45854 17.7373 7.63391C17.5593 7.80927 17.3466 7.89696 17.0994 7.89696H0.908449ZM0.908449 2.68608C0.655665 2.68608 0.440899 2.59742 0.264149 2.42011C0.0873985 2.24279 -0.000976562 2.02601 -0.000976562 1.76976C-0.000976562 1.52171 0.0873985 1.31 0.264149 1.13463C0.440899 0.959265 0.655665 0.871582 0.908449 0.871582H17.0994C17.3466 0.871582 17.5593 0.96024 17.7373 1.13756C17.9154 1.31486 18.0045 1.52753 18.0045 1.77558C18.0045 2.03185 17.9154 2.24766 17.7373 2.42303C17.5593 2.5984 17.3466 2.68608 17.0994 2.68608H0.908449Z" fill="white"/>
</svg>
