<svg width="20" height="21" viewBox="0 0 20 21" fill="none" xmlns="http://www.w3.org/2000/svg">
<g clip-path="url(#clip0_631_32241)">
<path d="M14.0963 20.4216C13.7895 20.4216 13.5288 20.3131 13.3141 20.0961C13.0995 19.879 12.9921 19.6168 12.9921 19.3094C12.9921 19.0019 13.0995 18.7409 13.3141 18.5262C13.5288 18.3115 13.7895 18.2042 14.0963 18.2042C15.013 18.2042 15.7977 17.8778 16.4505 17.225C17.1033 16.5722 17.4296 15.7875 17.4296 14.8708C17.4296 14.5631 17.5381 14.3006 17.7552 14.0834C17.9722 13.8662 18.2344 13.7576 18.5418 13.7576C18.8493 13.7576 19.1104 13.8662 19.325 14.0834C19.5397 14.3006 19.6471 14.5631 19.6471 14.8708C19.6471 16.4063 19.1058 17.7153 18.0233 18.7978C16.9408 19.8803 15.6318 20.4216 14.0963 20.4216ZM1.46574 7.78299C1.1583 7.78299 0.896071 7.67565 0.679057 7.46097C0.46203 7.2463 0.353516 6.98558 0.353516 6.6788C0.353516 5.14333 0.894773 3.83434 1.97729 2.75182C3.0598 1.66931 4.36879 1.12805 5.90427 1.12805C6.212 1.12805 6.47447 1.23539 6.69168 1.45007C6.90891 1.66475 7.01752 1.92582 7.01752 2.23326C7.01752 2.5407 6.90891 2.80293 6.69168 3.01995C6.47447 3.23696 6.212 3.34547 5.90427 3.34547C4.9876 3.34547 4.20288 3.67186 3.5501 4.32463C2.89732 4.97741 2.57093 5.76213 2.57093 6.6788C2.57093 6.98558 2.4636 7.2463 2.24893 7.46097C2.03425 7.67565 1.77319 7.78299 1.46574 7.78299ZM16.2449 4.42699C16.4429 4.62506 16.54 4.85483 16.5361 5.1163C16.5321 5.37779 16.4311 5.60757 16.2331 5.80563L11.2947 10.7531C11.1105 10.9433 10.8823 11.0369 10.6099 11.0339C10.3376 11.0309 10.1063 10.9391 9.91606 10.7586C9.72585 10.5616 9.63074 10.3277 9.63074 10.0569C9.63074 9.78611 9.72585 9.55561 9.91606 9.36539L14.8545 4.42699C15.0532 4.22892 15.2851 4.12989 15.5502 4.12989C15.8152 4.12989 16.0468 4.22892 16.2449 4.42699ZM17.7358 7.14349C17.9339 7.34156 18.0329 7.57088 18.0329 7.83145C18.0329 8.09202 17.9339 8.32134 17.7358 8.51941L13.3925 12.8627C13.2005 13.0547 12.9722 13.1488 12.7077 13.1448C12.4432 13.1409 12.212 13.0429 12.0139 12.8509C11.8237 12.6528 11.727 12.4196 11.724 12.1512C11.721 11.8827 11.8146 11.6534 12.0048 11.4632L16.3363 7.1317C16.5344 6.93364 16.7676 6.83657 17.0361 6.84049C17.3045 6.84442 17.5377 6.94542 17.7358 7.14349ZM4.00752 16.8854C2.66511 15.543 1.98018 13.9279 1.9527 12.0402C1.92523 10.1525 2.57877 8.54143 3.91331 7.20689L5.95952 5.14891C6.18399 4.92728 6.44588 4.81647 6.74518 4.81647C7.04447 4.81647 7.30493 4.92728 7.52656 5.14891L7.90154 5.52389C8.05372 5.67607 8.17827 5.83957 8.27518 6.01439C8.37211 6.18922 8.44745 6.37144 8.50118 6.56105L11.6198 3.44511C11.8179 3.24704 12.0492 3.14604 12.3137 3.14211C12.5782 3.1382 12.8095 3.23445 13.0075 3.43086C13.2056 3.62728 13.3046 3.86052 13.3046 4.13059C13.3046 4.40066 13.2056 4.63473 13.0075 4.8328L9.48581 8.34276L7.96227 9.86901L8.13435 10.0411C8.80464 10.7114 9.13375 11.5145 9.12168 12.4505C9.1096 13.3865 8.76564 14.1924 8.08981 14.8683L8.06824 14.8898C7.88602 15.074 7.65825 15.1661 7.38491 15.1661C7.11159 15.1661 6.87982 15.0759 6.6896 14.8953C6.49938 14.6984 6.40427 14.4645 6.40427 14.1937C6.40427 13.9229 6.49938 13.6924 6.6896 13.5022L6.70137 13.4904C6.98941 13.2023 7.14098 12.8572 7.15608 12.4551C7.17118 12.0529 7.0347 11.7078 6.74666 11.4197L5.96768 10.6498C5.74607 10.4308 5.63527 10.1708 5.63527 9.86961C5.63527 9.56849 5.74607 9.30711 5.96768 9.08549L6.77837 8.28389C6.93718 8.12507 7.01069 7.935 6.99891 7.71368C6.98715 7.49236 6.90186 7.30229 6.74304 7.14349L5.29193 8.59457C4.33964 9.54686 3.87723 10.6969 3.9047 12.0448C3.93219 13.3926 4.426 14.5466 5.38614 15.5067C6.33845 16.459 7.47432 16.9332 8.79377 16.9293C10.1132 16.9254 11.2491 16.4472 12.2014 15.4949L17.2512 10.4361C17.4493 10.238 17.6805 10.139 17.945 10.139C18.2095 10.139 18.4408 10.238 18.6389 10.4361C18.8369 10.6341 18.936 10.8654 18.936 11.1299C18.936 11.3944 18.8369 11.6257 18.6389 11.8238L13.58 16.8736C12.2455 18.2081 10.65 18.8774 8.79377 18.8813C6.93747 18.8852 5.34206 18.2199 4.00752 16.8854Z" fill="#D68000"/>
</g>
<defs>
<clipPath id="clip0_631_32241">
<rect width="20" height="20" fill="white" transform="translate(0 0.774414)"/>
</clipPath>
</defs>
</svg>
