<svg width="24" height="24" viewBox="0 0 24 24" fill="none" xmlns="http://www.w3.org/2000/svg">
<g id="Icon">
<path id="Vector" d="M10.9745 22.0242C10.4257 22.0242 9.90478 21.9159 9.41165 21.6993C8.91852 21.4827 8.50777 21.1595 8.17942 20.7297L3.27127 14.4465C3.13069 14.2607 3.06459 14.0559 3.07297 13.8324C3.08134 13.6088 3.16972 13.4105 3.33812 13.2373L3.46857 13.1253C3.71671 12.8829 4.01416 12.7348 4.36092 12.681C4.70769 12.6272 5.04285 12.6771 5.3664 12.8308L7.71585 14.0221V5.24626C7.71585 5.03354 7.79421 4.84943 7.95092 4.69393C8.10764 4.53842 8.29647 4.46066 8.51742 4.46066C8.73839 4.46066 8.92552 4.53897 9.07882 4.69558C9.23214 4.8522 9.3088 5.03768 9.3088 5.25201V15.2617C9.3088 15.5764 9.17936 15.8104 8.92047 15.9638C8.66159 16.1171 8.39338 16.1255 8.11585 15.9889L5.38542 14.5829L9.49737 19.7645C9.67214 19.9915 9.88785 20.1584 10.1445 20.2652C10.4011 20.3719 10.6738 20.4253 10.9626 20.4253H16.2338C16.842 20.4253 17.3603 20.213 17.7886 19.7883C18.2169 19.3636 18.4311 18.8407 18.4311 18.2195V14.1585C18.4311 13.702 18.2737 13.3181 17.9591 13.0069C17.6444 12.6956 17.2644 12.54 16.8191 12.54H12.0365C11.8129 12.54 11.6253 12.4639 11.4737 12.3117C11.3221 12.1595 11.2463 11.9697 11.2463 11.7424C11.2463 11.5151 11.3221 11.3247 11.4737 11.1713C11.6253 11.0178 11.8129 10.9411 12.0365 10.9411H16.8191C17.7004 10.9411 18.4558 11.2546 19.0855 11.8817C19.7152 12.5088 20.03 13.2678 20.03 14.1585V18.2215C20.03 19.2831 19.6606 20.1823 18.9218 20.9191C18.1831 21.6559 17.2879 22.0242 16.2365 22.0242H10.9745ZM11.5015 7.77641C11.2695 7.77641 11.0769 7.69839 10.9238 7.54234C10.7707 7.3863 10.6941 7.19629 10.6941 6.97229C10.6941 6.91164 10.7314 6.77733 10.8061 6.56936C10.9144 6.38603 11.0019 6.18186 11.0686 5.95686C11.1352 5.73186 11.1686 5.4946 11.1686 5.24509C11.1686 4.51127 10.9104 3.88811 10.3939 3.37561C9.87751 2.86311 9.25042 2.60686 8.51267 2.60686C7.77494 2.60686 7.14982 2.86311 6.63732 3.37561C6.12482 3.88811 5.86857 4.51718 5.86857 5.26281C5.86857 5.50051 5.89982 5.73186 5.96232 5.95686C6.02482 6.18186 6.10834 6.38624 6.21287 6.57001C6.25399 6.62754 6.28596 6.68929 6.30877 6.75524C6.33161 6.82119 6.34302 6.89339 6.34302 6.97184C6.34302 7.19717 6.26196 7.3876 6.09985 7.54314C5.93775 7.69865 5.74329 7.77641 5.51647 7.77641C5.36386 7.77641 5.22396 7.74118 5.0968 7.67071C4.96965 7.60024 4.87352 7.49788 4.80842 7.36361C4.63221 7.03664 4.49836 6.69549 4.40687 6.34016C4.31539 5.98483 4.26965 5.62012 4.26965 5.24603C4.26965 4.06797 4.68332 3.0671 5.51065 2.24343C6.33797 1.41977 7.33853 1.00793 8.51235 1.00793C9.68616 1.00793 10.6888 1.4198 11.5203 2.24353C12.3517 3.06725 12.7675 4.07251 12.7675 5.25931C12.7675 5.64538 12.718 6.01197 12.6189 6.35909C12.5199 6.7062 12.387 7.03533 12.2203 7.34648C12.155 7.49313 12.0562 7.60145 11.9241 7.67144C11.7921 7.74142 11.6512 7.77641 11.5015 7.77641Z" fill="#D68000"/>
</g>
</svg>
