<svg width="41" height="41" viewBox="0 0 41 41" fill="none" xmlns="http://www.w3.org/2000/svg">
<path d="M23.7029 19.9412L19.2109 17.8452C18.8189 17.6632 18.4969 17.8672 18.4969 18.3012V22.2492C18.4969 22.6832 18.8189 22.8872 19.2109 22.7052L23.7009 20.6092C24.0949 20.4252 24.0949 20.1252 23.7029 19.9412ZM20.4969 1.0752C9.89288 1.0752 1.29688 9.6712 1.29688 20.2752C1.29688 30.8792 9.89288 39.4752 20.4969 39.4752C31.1009 39.4752 39.6969 30.8792 39.6969 20.2752C39.6969 9.6712 31.1009 1.0752 20.4969 1.0752ZM20.4969 28.0752C10.6689 28.0752 10.4969 27.1892 10.4969 20.2752C10.4969 13.3612 10.6689 12.4752 20.4969 12.4752C30.3249 12.4752 30.4969 13.3612 30.4969 20.2752C30.4969 27.1892 30.3249 28.0752 20.4969 28.0752Z" fill="#846B54"/>
</svg>
