<svg xmlns="http://www.w3.org/2000/svg" width="40" height="41" viewBox="0 0 40 41" fill="none">
  <path d="M23.2029 20.292L18.7109 18.196C18.3189 18.014 17.9969 18.218 17.9969 18.652V22.6C17.9969 23.034 18.3189 23.238 18.7109 23.056L23.2009 20.96C23.5949 20.776 23.5949 20.476 23.2029 20.292ZM19.9969 1.42603C9.39288 1.42603 0.796875 10.022 0.796875 20.626C0.796875 31.23 9.39288 39.826 19.9969 39.826C30.6009 39.826 39.1969 31.23 39.1969 20.626C39.1969 10.022 30.6009 1.42603 19.9969 1.42603ZM19.9969 28.426C10.1689 28.426 9.99687 27.54 9.99687 20.626C9.99687 13.712 10.1689 12.826 19.9969 12.826C29.8249 12.826 29.9969 13.712 29.9969 20.626C29.9969 27.54 29.8249 28.426 19.9969 28.426Z" fill="#846B54"/>
</svg>