<svg width="28" height="28" viewBox="0 0 28 28" fill="none" xmlns="http://www.w3.org/2000/svg">
<g clip-path="url(#clip0_173_4527)">
<path d="M4.59515 8.19153C4.55914 8.19174 4.52345 8.18479 4.49014 8.17111C4.45683 8.15742 4.42657 8.13727 4.4011 8.1118C4.37564 8.08634 4.35548 8.05607 4.34179 8.02277C4.32811 7.98946 4.32117 7.95376 4.32137 7.91775C4.32014 7.0893 3.99049 6.29513 3.40469 5.70933C2.81888 5.12352 2.02472 4.79387 1.19626 4.79264C1.12392 4.79264 1.05452 4.76401 1.00322 4.713C0.951922 4.662 0.922896 4.59276 0.922485 4.52042C0.922485 4.44781 0.95133 4.37817 1.00267 4.32683C1.05402 4.27548 1.12365 4.24664 1.19626 4.24664C2.02498 4.24541 2.81939 3.91554 3.40524 3.3294C3.99108 2.74326 4.32055 1.9487 4.32137 1.11997C4.32117 1.08396 4.32811 1.04827 4.34179 1.01496C4.35548 0.98165 4.37564 0.951387 4.4011 0.925923C4.42657 0.90046 4.45683 0.880301 4.49014 0.866616C4.52345 0.85293 4.55914 0.84599 4.59515 0.846196C4.63116 0.84599 4.66686 0.85293 4.70017 0.866616C4.73348 0.880301 4.76374 0.90046 4.7892 0.925923C4.81467 0.951387 4.83482 0.98165 4.84851 1.01496C4.8622 1.04827 4.86914 1.08396 4.86893 1.11997C4.87016 1.94843 5.19981 2.74259 5.78562 3.3284C6.37142 3.9142 7.16559 4.24385 7.99404 4.24509C8.03005 4.24488 8.06575 4.25182 8.09906 4.2655C8.13236 4.27919 8.16263 4.29935 8.18809 4.32481C8.21356 4.35028 8.23371 4.38054 8.2474 4.41385C8.26108 4.44716 8.26803 4.48285 8.26782 4.51886C8.26803 4.55487 8.26108 4.59057 8.2474 4.62388C8.23371 4.65719 8.21356 4.68745 8.18809 4.71291C8.16263 4.73838 8.13236 4.75854 8.09906 4.77222C8.06575 4.78591 8.03005 4.79285 7.99404 4.79264C7.16546 4.79346 6.37106 5.12298 5.78516 5.70887C5.19927 6.29477 4.86975 7.08917 4.86893 7.91775C4.86852 7.99024 4.83955 8.05964 4.78829 8.11089C4.73704 8.16215 4.66764 8.19112 4.59515 8.19153Z" fill="#50E6FF"/>
<path d="M24.2838 27.1537C24.2256 27.1537 24.1698 27.1305 24.1287 27.0894C24.0876 27.0483 24.0644 26.9925 24.0644 26.9343C24.0636 26.2716 23.8 25.6362 23.3314 25.1676C22.8628 24.699 22.2274 24.4354 21.5647 24.4345C21.5068 24.4345 21.4512 24.4116 21.4101 24.3709C21.369 24.3301 21.3457 24.2747 21.3453 24.2168C21.3453 24.1586 21.3684 24.1028 21.4096 24.0617C21.4507 24.0205 21.5065 23.9974 21.5647 23.9974C22.2275 23.997 22.8631 23.7335 23.3318 23.2648C23.8005 22.7961 24.064 22.1605 24.0644 21.4977C24.0644 21.4395 24.0876 21.3837 24.1287 21.3426C24.1698 21.3014 24.2256 21.2783 24.2838 21.2783C24.342 21.2783 24.3977 21.3014 24.4389 21.3426C24.48 21.3837 24.5031 21.4395 24.5031 21.4977C24.5035 22.1605 24.767 22.7961 25.2357 23.2648C25.7044 23.7335 26.34 23.997 27.0029 23.9974C27.0611 23.9974 27.1169 24.0205 27.158 24.0617C27.1991 24.1028 27.2222 24.1586 27.2222 24.2168C27.2222 24.2749 27.1991 24.3307 27.158 24.3719C27.1169 24.413 27.0611 24.4361 27.0029 24.4361C26.3402 24.4369 25.7048 24.7006 25.2362 25.1692C24.7676 25.6378 24.5039 26.2731 24.5031 26.9359C24.5027 26.9938 24.4794 27.0492 24.4383 27.09C24.3972 27.1308 24.3417 27.1537 24.2838 27.1537Z" fill="#50E6FF"/>
<path d="M23.2851 11.7135C23.7238 13.5499 23.6081 15.4752 22.9527 17.2459C22.2972 19.0165 21.1314 20.5531 19.6026 21.6612C18.0739 22.7693 16.2509 23.3992 14.3641 23.4712C12.4774 23.5433 10.6117 23.0542 9.00287 22.0659C7.39409 21.0775 6.11452 19.6343 5.32595 17.9188C4.53739 16.2032 4.27526 14.2923 4.5727 12.4278C4.87015 10.5633 5.71382 8.82882 6.99702 7.44377C8.28022 6.05872 9.94532 5.08529 11.7818 4.64657C14.2443 4.05827 16.8397 4.47231 18.997 5.79761C21.1543 7.12291 22.6968 9.2509 23.2851 11.7135Z" fill="url(#paint0_radial_173_4527)"/>
<mask id="mask0_173_4527" style="mask-type:luminance" maskUnits="userSpaceOnUse" x="4" y="4" width="20" height="20">
<path d="M23.2851 11.7135C23.7238 13.5499 23.6081 15.4752 22.9527 17.2459C22.2972 19.0165 21.1314 20.5531 19.6026 21.6612C18.0739 22.7693 16.2509 23.3992 14.3641 23.4712C12.4774 23.5433 10.6117 23.0542 9.00287 22.0659C7.39409 21.0775 6.11452 19.6343 5.32595 17.9188C4.53739 16.2032 4.27526 14.2923 4.5727 12.4278C4.87015 10.5633 5.71382 8.82882 6.99702 7.44377C8.28022 6.05872 9.94532 5.08529 11.7818 4.64657C14.2443 4.05827 16.8397 4.47231 18.997 5.79761C21.1543 7.12291 22.6968 9.2509 23.2851 11.7135Z" fill="white"/>
</mask>
<g mask="url(#mask0_173_4527)">
<path d="M8.88063 20.4011C9.22041 20.41 9.55853 20.3508 9.8751 20.2271C10.1917 20.1033 10.4803 19.9175 10.7239 19.6805C10.9676 19.4435 11.1613 19.1601 11.2938 18.8471C11.4263 18.5341 11.4948 18.1978 11.4953 17.8579C11.4959 17.518 11.4284 17.1814 11.2968 16.868C11.1653 16.5546 10.9724 16.2706 10.7295 16.0329C10.4866 15.7952 10.1985 15.6085 9.88234 15.4837C9.56615 15.359 9.22821 15.2988 8.8884 15.3067C8.89593 15.2343 8.89956 15.1616 8.89929 15.0889C8.89313 14.4091 8.61769 13.7595 8.13336 13.2824C7.64903 12.8054 6.99532 12.5398 6.31551 12.544H4.40529C4.21842 13.9554 4.34377 15.3907 4.77249 16.7483C5.20121 18.106 5.92285 19.353 6.8864 20.4011H8.88063Z" fill="#F2F2F2"/>
<path d="M23.4033 12.1566C23.4033 12.1333 23.4033 12.1099 23.3924 12.0882C23.0848 10.4236 22.3285 8.87459 21.2053 7.60816C21.0596 7.54912 20.9093 7.5023 20.7558 7.46816C20.347 7.35154 19.9171 7.32919 19.4985 7.4028C19.0799 7.4764 18.6834 7.64405 18.3389 7.8931C17.9945 8.14216 17.711 8.46613 17.5099 8.84062C17.3088 9.2151 17.1954 9.63034 17.178 10.055C17.0747 10.0431 16.9709 10.0364 16.8669 10.0348C16.2297 10.0348 15.6131 10.2599 15.1258 10.6704C14.6385 11.0809 14.312 11.6504 14.2039 12.2783C14.0957 12.9062 14.213 13.5521 14.5349 14.102C14.8568 14.6518 15.3627 15.0702 15.9631 15.2833C16.2311 15.3883 16.5168 15.4411 16.8047 15.4388H19.9624C21.2304 14.479 22.3848 13.3779 23.4033 12.1566Z" fill="#F2F2F2"/>
</g>
<path d="M26.7416 5.96103C25.7631 4.33237 23.4749 3.6977 20.2782 4.1737C19.183 4.32892 18.1006 4.56391 17.0396 4.87681C17.8813 5.16738 18.6806 5.5686 19.4165 6.06992C19.7913 5.98748 20.1678 5.88948 20.5287 5.83503C21.0964 5.74664 21.6699 5.70037 22.2445 5.69659C22.8062 5.61561 23.3792 5.67638 23.9114 5.87334C24.4436 6.07031 24.9181 6.39723 25.2918 6.82437C25.8876 7.81681 25.3851 9.51392 23.9136 11.491C21.8684 14.0366 19.3624 16.1743 16.5262 17.7926C13.7537 19.523 10.6804 20.7167 7.46668 21.3113C5.03379 21.6753 3.29468 21.3113 2.6989 20.3219C2.10313 19.3326 2.60557 17.6308 4.07713 15.663C4.25913 15.4188 4.30424 15.299 4.51113 15.0533C4.41389 14.2099 4.42748 13.3575 4.55157 12.5177C3.89023 13.1806 3.28171 13.8942 2.73157 14.6519C0.804238 17.2295 0.281571 19.5473 1.25846 21.1759C1.77451 21.8663 2.46278 22.4091 3.25443 22.7501C4.04608 23.0911 4.91337 23.2182 5.76957 23.1188C6.4212 23.1154 7.07167 23.0634 7.71557 22.9633C11.146 22.3371 14.4279 21.0706 17.3896 19.2299C20.4143 17.4989 23.0853 15.2127 25.2622 12.4913C27.1958 9.90748 27.7185 7.59125 26.7416 5.96103Z" fill="#50E6FF"/>
</g>
<defs>
<radialGradient id="paint0_radial_173_4527" cx="0" cy="0" r="1" gradientUnits="userSpaceOnUse" gradientTransform="translate(13.9265 13.9285) scale(9.5952 9.51185)">
<stop offset="0.183" stop-color="#5EA0EF"/>
<stop offset="1" stop-color="#0078D4"/>
</radialGradient>
<clipPath id="clip0_173_4527">
<rect width="28" height="28" fill="white"/>
</clipPath>
</defs>
</svg>
