<svg width="28" height="28" viewBox="0 0 28 28" fill="none" xmlns="http://www.w3.org/2000/svg">
<g clip-path="url(#clip0_67_15946)">
<mask id="mask0_67_15946" style="mask-type:luminance" maskUnits="userSpaceOnUse" x="0" y="0" width="28" height="28">
<path d="M28.0002 0H0V28.0002H28.0002V0Z" fill="white"/>
</mask>
<g mask="url(#mask0_67_15946)">
<path fill-rule="evenodd" clip-rule="evenodd" d="M1.14684 19.3196L0.736755 20.8205C0.583921 21.3007 0.369835 22.0059 0.254335 22.6335C0.089834 23.0675 0 23.5383 0 24.03C0 26.0577 1.53184 27.7272 3.50119 27.9454C4.05536 28.0254 4.68245 28.0212 5.38537 27.918L8.61472 27.4724C9.42674 27.3604 10.0935 26.7741 10.3093 25.9831L12.5318 17.8198L1.14684 19.3196Z" fill="url(#paint0_linear_67_15946)"/>
<path d="M4.29695 19.7059C0.893174 20.2334 0.194336 22.8018 0.194336 22.8018L3.45402 10.8247L20.4869 8.52051L18.164 16.9574C18.0433 17.4094 17.6635 17.7559 17.1928 17.8277L17.0977 17.8434L4.20128 19.7224L4.29695 19.7059Z" fill="url(#paint1_linear_67_15946)"/>
<path d="M4.29695 19.7059C0.893174 20.2334 0.194336 22.8018 0.194336 22.8018L3.45402 10.8247L20.4869 8.52051L18.164 16.9574C18.0433 17.4094 17.6635 17.7559 17.1928 17.8277L17.0977 17.8434L4.20128 19.7224L4.29695 19.7059Z" fill="url(#paint2_linear_67_15946)" fill-opacity="0.8"/>
<path d="M6.22851 12.0641L25.0849 9.27866C25.5335 9.21741 25.8969 8.88899 26.0113 8.45907L27.9573 1.41644C27.9841 1.32077 27.9981 1.21986 27.9981 1.11602C27.9981 0.499432 27.4988 -0.000488281 26.8816 -0.000488281C26.8338 -0.000488281 26.7859 0.0024284 26.7398 0.00826178L8.74736 2.66712C6.79318 2.98095 5.21526 4.42238 4.70309 6.30247L2.1084 15.7064C2.62932 13.8042 2.94957 12.6574 6.22851 12.0641Z" fill="url(#paint3_linear_67_15946)"/>
<path d="M6.22851 12.0641L25.0849 9.27866C25.5335 9.21741 25.8969 8.88899 26.0113 8.45907L27.9573 1.41644C27.9841 1.32077 27.9981 1.21986 27.9981 1.11602C27.9981 0.499432 27.4988 -0.000488281 26.8816 -0.000488281C26.8338 -0.000488281 26.7859 0.0024284 26.7398 0.00826178L8.74736 2.66712C6.79318 2.98095 5.21526 4.42238 4.70309 6.30247L2.1084 15.7064C2.62932 13.8042 2.94957 12.6574 6.22851 12.0641Z" fill="url(#paint4_linear_67_15946)"/>
<path d="M6.22851 12.0641L25.0849 9.27866C25.5335 9.21741 25.8969 8.88899 26.0113 8.45907L27.9573 1.41644C27.9841 1.32077 27.9981 1.21986 27.9981 1.11602C27.9981 0.499432 27.4988 -0.000488281 26.8816 -0.000488281C26.8338 -0.000488281 26.7859 0.0024284 26.7398 0.00826178L8.74736 2.66712C6.79318 2.98095 5.21526 4.42238 4.70309 6.30247L2.1084 15.7064C2.62932 13.8042 2.94957 12.6574 6.22851 12.0641Z" fill="url(#paint5_linear_67_15946)" fill-opacity="0.4"/>
<path d="M6.22837 12.0643C3.49777 12.5584 2.81994 13.438 2.36843 14.8165L0.194336 22.8029C0.194336 22.8029 0.88909 20.2602 4.25145 19.7166L17.0983 17.8452L17.1933 17.8294C17.6641 17.7577 18.0438 17.4106 18.1646 16.9591L20.0757 10.0186L6.22896 12.0643H6.22837Z" fill="url(#paint6_linear_67_15946)"/>
<path d="M6.22837 12.0643C3.49777 12.5584 2.81994 13.438 2.36843 14.8165L0.194336 22.8029C0.194336 22.8029 0.88909 20.2602 4.25145 19.7166L17.0983 17.8452L17.1933 17.8294C17.6641 17.7577 18.0438 17.4106 18.1646 16.9591L20.0757 10.0186L6.22896 12.0643H6.22837Z" fill="url(#paint7_linear_67_15946)" fill-opacity="0.2"/>
<path fill-rule="evenodd" clip-rule="evenodd" d="M4.25136 19.7166C1.40993 20.1763 0.476586 22.0581 0.254335 22.6316C0.0898339 23.0668 0 23.5376 0 24.0293C0 26.057 1.53184 27.7265 3.50119 27.9446C4.05536 28.0245 4.68245 28.0205 5.38537 27.9173L8.61472 27.4716C9.42672 27.3596 10.0935 26.7733 10.3093 25.9823L12.3353 18.5396L4.25194 19.7173L4.25136 19.7166Z" fill="url(#paint8_linear_67_15946)"/>
</g>
</g>
<defs>
<linearGradient id="paint0_linear_67_15946" x1="6.26562" y1="28.0009" x2="6.26562" y2="17.8198" gradientUnits="userSpaceOnUse">
<stop offset="0.056" stop-color="#2AAC94"/>
<stop offset="0.155" stop-color="#239C87"/>
<stop offset="0.372" stop-color="#177E71"/>
<stop offset="0.588" stop-color="#0E6961"/>
<stop offset="0.799" stop-color="#095D57"/>
<stop offset="1" stop-color="#085954"/>
</linearGradient>
<linearGradient id="paint1_linear_67_15946" x1="19.1308" y1="20.6132" x2="9.29965" y2="9.92052" gradientUnits="userSpaceOnUse">
<stop offset="0.0417478" stop-color="#ABE88E"/>
<stop offset="0.548926" stop-color="#2AAA92"/>
<stop offset="0.906" stop-color="#117865"/>
</linearGradient>
<linearGradient id="paint2_linear_67_15946" x1="-5.02852" y1="20.0934" x2="4.32724" y2="16.9029" gradientUnits="userSpaceOnUse">
<stop stop-color="#6AD6F9"/>
<stop offset="1" stop-color="#6AD6F9" stop-opacity="0"/>
</linearGradient>
<linearGradient id="paint3_linear_67_15946" x1="2.1084" y1="7.85298" x2="27.0116" y2="7.85298" gradientUnits="userSpaceOnUse">
<stop offset="0.043" stop-color="#25FFD4"/>
<stop offset="0.874" stop-color="#55DDB9"/>
</linearGradient>
<linearGradient id="paint4_linear_67_15946" x1="2.1084" y1="4.3722" x2="24.5413" y2="14.789" gradientUnits="userSpaceOnUse">
<stop stop-color="#6AD6F9"/>
<stop offset="0.229501" stop-color="#60E9D0"/>
<stop offset="0.650711" stop-color="#6DE9BB"/>
<stop offset="0.99354" stop-color="#ABE88E"/>
</linearGradient>
<linearGradient id="paint5_linear_67_15946" x1="4.18369" y1="6.32148" x2="16.3817" y2="9.01936" gradientUnits="userSpaceOnUse">
<stop stop-color="white" stop-opacity="0"/>
<stop offset="0.458511" stop-color="white"/>
<stop offset="1" stop-color="white" stop-opacity="0"/>
</linearGradient>
<linearGradient id="paint6_linear_67_15946" x1="8.22825" y1="16.771" x2="8.51648" y2="8.21682" gradientUnits="userSpaceOnUse">
<stop offset="0.204642" stop-color="#063D3B" stop-opacity="0"/>
<stop offset="0.58553" stop-color="#063D3B" stop-opacity="0.236587"/>
<stop offset="0.872285" stop-color="#063D3B" stop-opacity="0.75"/>
</linearGradient>
<linearGradient id="paint7_linear_67_15946" x1="-0.834146" y1="15.9203" x2="9.58989" y2="17.8807" gradientUnits="userSpaceOnUse">
<stop stop-color="white" stop-opacity="0"/>
<stop offset="0.458511" stop-color="white"/>
<stop offset="1" stop-color="white" stop-opacity="0"/>
</linearGradient>
<linearGradient id="paint8_linear_67_15946" x1="6.69554" y1="25.1791" x2="4.6622" y2="15.2343" gradientUnits="userSpaceOnUse">
<stop offset="0.064" stop-color="#063D3B" stop-opacity="0"/>
<stop offset="0.17" stop-color="#063D3B" stop-opacity="0.135"/>
<stop offset="0.562" stop-color="#063D3B" stop-opacity="0.599"/>
<stop offset="0.85" stop-color="#063D3B" stop-opacity="0.9"/>
<stop offset="1" stop-color="#063D3B"/>
</linearGradient>
<clipPath id="clip0_67_15946">
<rect width="28" height="28" fill="white"/>
</clipPath>
</defs>
</svg>
